<svg width="85" height="85" viewBox="0 0 85 85" fill="none" xmlns="http://www.w3.org/2000/svg">
<path d="M42.5 0C19.04 0 0 19.04 0 42.5C0 65.96 19.04 85 42.5 85C65.96 85 85 65.96 85 42.5C85 19.04 65.96 0 42.5 0ZM42.5 12.75C49.555 12.75 55.25 18.445 55.25 25.5C55.25 32.555 49.555 38.25 42.5 38.25C35.445 38.25 29.75 32.555 29.75 25.5C29.75 18.445 35.445 12.75 42.5 12.75ZM42.5 73.1C31.875 73.1 22.4825 67.66 17 59.415C17.1275 50.9575 34 46.325 42.5 46.325C50.9575 46.325 67.8725 50.9575 68 59.415C62.5175 67.66 53.125 73.1 42.5 73.1Z" fill="url(#paint0_linear_504_192)"/>
<defs>
<linearGradient id="paint0_linear_504_192" x1="42.5" y1="0" x2="42.5" y2="85" gradientUnits="userSpaceOnUse">
<stop stop-color="#37BBFE"/>
<stop offset="1" stop-color="#007DBB"/>
</linearGradient>
</defs>
</svg>
