<svg width="75" height="75" viewBox="0 0 75 75" fill="none" xmlns="http://www.w3.org/2000/svg">
<path d="M11.8525 37.0166H24.0185L30.9245 74.9996H11.8525V45.7497V37.0166Z" fill="#D7D5D9"/>
<g opacity="0.14">
<path d="M24.0185 37.0166H11.8525V41.9439L24.8792 41.7507L24.0185 37.0166Z" fill="#3B5998"/>
</g>
<path d="M14.1739 20.0729H10.8799C6.10015 20.0729 2.18945 23.9836 2.18945 28.7634V29.9458C2.18945 34.7256 6.10015 38.6363 10.8799 38.6363H24.2077C27.1583 38.6363 30.0197 39.6463 32.3166 41.4984L53.6318 58.6862V0L32.288 17.2109C29.9912 19.0629 27.1296 20.073 24.1791 20.073H20.9087L14.1739 20.0729Z" fill="#D7D5D9"/>
<path d="M62.5844 0H53.6318V58.6868H62.5844V0Z" fill="#3B5998"/>
<path d="M67.9734 20.651C70.5253 22.536 72.8098 25.6732 72.8098 29.343C72.8098 34.9905 68.2315 39.5687 62.584 39.5687V19.1172C62.584 19.1172 65.897 19.1172 67.9734 20.651Z" fill="#D7D5D9"/>
<path opacity="0.31" d="M62.584 35.2836V39.5687C68.2315 39.5687 72.8098 34.9905 72.8098 29.3429C72.8098 28.6316 72.7232 27.9406 72.5662 27.2744C71.5529 31.8559 67.47 35.2836 62.584 35.2836Z" fill="#3B5998"/>
<path d="M53.9302 0L41.1553 10.3012V48.385L53.9302 58.686V0Z" fill="#3B5998"/>
<path opacity="0.36" d="M32.3977 33.4303C30.1008 31.5783 27.2392 30.5681 24.2887 30.5681H10.961C7.40273 30.5681 4.32729 28.4 2.98726 25.3203C2.52729 26.3775 2.27051 27.5416 2.27051 28.763V29.9454C2.27051 34.7252 6.1812 38.6359 10.961 38.6359H24.2887C27.2394 38.6359 30.1008 39.6459 32.3977 41.498L53.7127 58.6858H62.665V50.6183H53.7127L32.3977 33.4303Z" fill="#3B5998"/>
<path d="M27.5081 56.8179C27.5081 56.8179 37.2622 54.9005 38.2439 46.2127L34.3792 43.1611C33.638 49.7207 26.4072 51.2755 26.4072 51.2755L27.5081 56.8179Z" fill="#D7D5D9"/>
<g opacity="0.31">
<path d="M38.2409 46.3029L34.3788 43.1611C34.2216 44.5516 33.78 45.7085 33.1826 46.6696L37.2303 49.9022C37.7271 48.8582 38.0869 47.6651 38.2409 46.3029Z" fill="#3B5998"/>
</g>
<g opacity="0.36">
<path d="M25.3153 44.1475L11.7422 59.7422V74.9997L27.6151 56.7958L25.3153 44.1475Z" fill="#3B5998"/>
</g>
</svg>
