<svg width="55" height="55" viewBox="0 0 55 55" fill="none" xmlns="http://www.w3.org/2000/svg">
<path d="M8.69141 27.1455H17.6131L22.6775 54.9997H8.69141V33.5498V27.1455Z" fill="#D7D5D9"/>
<g opacity="0.14">
<path d="M17.6131 27.1455H8.69141V30.7589L18.2443 30.6172L17.6131 27.1455Z" fill="#3B5998"/>
</g>
<path d="M10.3941 14.7201H7.97849C4.47331 14.7201 1.60547 17.588 1.60547 21.0931V21.9603C1.60547 25.4654 4.47331 28.3333 7.97849 28.3333H17.7522C19.916 28.3333 22.0143 29.0739 23.6987 30.4322L39.3299 43.0365V0L23.6778 12.6213C21.9934 13.9795 19.8949 14.7202 17.7312 14.7202H15.3329L10.3941 14.7201Z" fill="#D7D5D9"/>
<path d="M45.8953 0H39.3301V43.037H45.8953V0Z" fill="#3B5998"/>
<path d="M49.8468 15.1443C51.7182 16.5266 53.3934 18.8273 53.3934 21.5184C53.3934 25.66 50.0361 29.0173 45.8945 29.0173V14.0195C45.8945 14.0195 48.3241 14.0195 49.8468 15.1443Z" fill="#D7D5D9"/>
<path opacity="0.31" d="M45.8945 25.8744V29.0168C50.0361 29.0168 53.3934 25.6594 53.3934 21.5179C53.3934 20.9962 53.3299 20.4895 53.2148 20.001C52.4718 23.3607 49.4776 25.8744 45.8945 25.8744Z" fill="#3B5998"/>
<path d="M39.5489 0L30.1807 7.55423V35.4823L39.5489 43.0364V0Z" fill="#3B5998"/>
<path opacity="0.36" d="M23.7583 24.5157C22.0739 23.1575 19.9754 22.4167 17.8117 22.4167H8.03806C5.42867 22.4167 3.17335 20.8268 2.19065 18.5684C1.85335 19.3436 1.66504 20.1973 1.66504 21.093V21.9601C1.66504 25.4653 4.53288 28.3331 8.03806 28.3331H17.8117C19.9755 28.3331 22.0739 29.0738 23.7583 30.432L39.3893 43.0364H45.9543V37.1202H39.3893L23.7583 24.5157Z" fill="#3B5998"/>
<path d="M20.1725 41.6663C20.1725 41.6663 27.3255 40.2603 28.0455 33.8892L25.2113 31.6514C24.6678 36.4617 19.3652 37.6019 19.3652 37.6019L20.1725 41.6663Z" fill="#D7D5D9"/>
<g opacity="0.31">
<path d="M28.0434 33.9554L25.2112 31.6514C25.0959 32.671 24.7721 33.5194 24.334 34.2242L27.3023 36.5948C27.6666 35.8292 27.9305 34.9543 28.0434 33.9554Z" fill="#3B5998"/>
</g>
<g opacity="0.36">
<path d="M18.564 32.375L8.61035 43.8111V55L20.2505 41.6505L18.564 32.375Z" fill="#3B5998"/>
</g>
</svg>
