<svg width="65" height="65" viewBox="0 0 65 65" fill="none" xmlns="http://www.w3.org/2000/svg">
<path d="M10.2734 32.0811H20.8173L26.8025 64.9996H10.2734V39.6497V32.0811Z" fill="#D7D5D9"/>
<g opacity="0.14">
<path d="M20.8173 32.0811H10.2734V36.3514L21.5633 36.1839L20.8173 32.0811Z" fill="#3B5998"/>
</g>
<path d="M12.285 17.3965H9.43019C5.28771 17.3965 1.89844 20.7858 1.89844 24.9283V25.953C1.89844 30.0955 5.28771 33.4848 9.43019 33.4848H20.9809C23.5381 33.4848 26.018 34.3601 28.0086 35.9653L46.4818 50.8614V0L27.9839 14.9161C25.9933 16.5212 23.5132 17.3966 20.9561 17.3966H18.1218L12.285 17.3965Z" fill="#D7D5D9"/>
<path d="M54.2413 0H46.4824V50.8619H54.2413V0Z" fill="#3B5998"/>
<path d="M58.9111 17.8977C61.1227 19.5313 63.1026 22.2503 63.1026 25.4307C63.1026 30.3253 59.1348 34.293 54.2402 34.293V16.5684C54.2402 16.5684 57.1115 16.5684 58.9111 17.8977Z" fill="#D7D5D9"/>
<path opacity="0.31" d="M54.2402 30.579V34.2927C59.1348 34.2927 63.1026 30.325 63.1026 25.4304C63.1026 24.8139 63.0275 24.2151 62.8915 23.6377C62.0133 27.6083 58.4748 30.579 54.2402 30.579Z" fill="#3B5998"/>
<path d="M46.7405 0L35.6689 8.92772V41.9336L46.7405 50.8612V0Z" fill="#3B5998"/>
<path opacity="0.36" d="M28.0789 28.973C26.0883 27.3679 23.6083 26.4924 21.0512 26.4924H9.5005C6.41668 26.4924 3.7513 24.6134 2.58993 21.9443C2.1913 22.8606 1.96875 23.8695 1.96875 24.928V25.9528C1.96875 30.0952 5.35802 33.4845 9.5005 33.4845H21.0512C23.6084 33.4845 26.0883 34.3598 28.0789 35.965L46.552 50.8611H54.3106V43.8693H46.552L28.0789 28.973Z" fill="#3B5998"/>
<path d="M23.8408 49.2421C23.8408 49.2421 32.2943 47.5804 33.1452 40.0509L29.7958 37.4062C29.1534 43.0912 22.8867 44.4387 22.8867 44.4387L23.8408 49.2421Z" fill="#D7D5D9"/>
<g opacity="0.31">
<path d="M33.1436 40.1291L29.7965 37.4062C29.6602 38.6113 29.2775 39.614 28.7598 40.4469L32.2677 43.2485C32.6984 42.3437 33.0102 41.3097 33.1436 40.1291Z" fill="#3B5998"/>
</g>
<g opacity="0.36">
<path d="M21.9401 38.2617L10.1768 51.7771V65.0003L23.9333 49.2236L21.9401 38.2617Z" fill="#3B5998"/>
</g>
</svg>
