<svg width="85" height="85" viewBox="0 0 85 85" fill="none" xmlns="http://www.w3.org/2000/svg">
<path d="M70.5168 50.9971H48.6738V69.7548H70.5168V50.9971Z" fill="#1A2A44"/>
<path d="M40.1252 51.2812H14.4844V54.1305H40.1252V51.2812Z" fill="#1A2A44"/>
<path d="M40.1252 66.6221H14.4844V69.4713H40.1252V66.6221Z" fill="#1A2A44"/>
<path d="M40.1252 58.9521H14.4844V61.8014H40.1252V58.9521Z" fill="#1A2A44"/>
<path d="M69.1336 0H15.8678C7.10331 0.00149416 0.00265625 7.10359 0 15.8669V66.2841C0.00415039 76.6207 8.37765 84.9972 18.7169 85H66.2844C76.6222 84.9972 84.9972 76.6221 85 66.2841V15.8669C84.9987 7.10359 77.8965 0.00149416 69.1336 0ZM77.1649 66.2841C77.1636 69.2973 75.9516 71.9991 73.9777 73.9774C71.9995 75.9515 69.2977 77.1633 66.2846 77.1646H18.7169C15.7037 77.1631 13.0005 75.9513 11.0224 73.9774C9.04818 71.9991 7.83793 69.2973 7.83527 66.2841V19.705H77.1651V66.2841H77.1649Z" fill="#1A2A44"/>
<path d="M14.768 44.4767H20.5093C23.7815 44.4767 25.7624 43.0521 25.7624 40.0692C25.7624 38.2676 24.7386 37.0198 23.737 36.6413V36.5968C24.7387 36.0403 25.4954 35.0165 25.4954 33.3707C25.4954 30.9653 23.9596 29.3418 20.6667 29.3418H14.768C14.6359 29.3418 14.5469 29.4308 14.5469 29.5643V44.2527C14.5469 44.3875 14.6359 44.4767 14.768 44.4767ZM17.819 32.1228C17.819 32.0351 17.8607 31.9893 17.9525 31.9893H20.2674C21.5126 31.9893 22.2472 32.6348 22.2472 33.7464C22.2472 34.8607 21.5126 35.5285 20.2674 35.5285H17.9525C17.8607 35.5285 17.819 35.484 17.819 35.395V32.1228ZM17.819 38.1758C17.819 38.0881 17.8607 38.0438 17.9525 38.0438H20.4428C21.781 38.0438 22.4919 38.7783 22.4919 39.9372C22.4919 41.1155 21.781 41.8292 20.4428 41.8292H17.9525C17.8607 41.8292 17.819 41.7834 17.819 41.6944V38.1758Z" fill="#1A2A44"/>
<path d="M30.1354 44.4765H39.9974C40.1295 44.4765 40.2185 44.3875 40.2185 44.2526V41.7832C40.2185 41.6482 40.1295 41.5606 39.9974 41.5606H33.3195C33.2292 41.5606 33.1861 41.5161 33.1861 41.4258V29.5643C33.1861 29.4308 33.0984 29.3418 32.9634 29.3418H30.1352C30.0016 29.3418 29.9141 29.4308 29.9141 29.5643V44.2527C29.9141 44.3874 30.0017 44.4765 30.1354 44.4765Z" fill="#1A2A44"/>
<path d="M48.5936 44.72C51.2437 44.72 53.3347 43.4971 54.1138 41.0485C54.4476 40.0024 54.5353 39.1566 54.5353 36.9083C54.5353 34.6601 54.4476 33.8143 54.1138 32.768C53.3347 30.3211 51.2437 29.0967 48.5936 29.0967C45.9446 29.0967 43.8525 30.3211 43.0747 32.768C42.7394 33.8143 42.6504 34.6601 42.6504 36.9083C42.6504 39.1566 42.7394 40.0024 43.0747 41.0485C43.8523 43.4973 45.9446 44.72 48.5936 44.72ZM46.2118 33.6585C46.5456 32.6124 47.3485 31.9892 48.5934 31.9892C49.8399 31.9892 50.6412 32.6124 50.9751 33.6585C51.1532 34.1941 51.2198 34.9259 51.2198 36.9085C51.2198 38.8881 51.153 39.6241 50.9751 40.157C50.6412 41.2046 49.8399 41.8291 48.5934 41.8291C47.3483 41.8291 46.5456 41.2044 46.2118 40.157C46.0351 39.6241 45.9669 38.8881 45.9669 36.9085C45.9669 34.9259 46.0351 34.1941 46.2118 33.6585Z" fill="#1A2A44"/>
<path d="M64.4085 44.72C67.0782 44.72 69.1706 43.3635 69.9287 40.9358C70.1943 40.1136 70.3044 38.8672 70.3044 37.5316V36.2836C70.3044 36.1528 70.2154 36.0623 70.0832 36.0623H64.876C64.741 36.0623 64.652 36.1528 64.652 36.2836V38.4233C64.652 38.5554 64.741 38.6444 64.876 38.6444H66.9223C67.0113 38.6444 67.0559 38.6904 67.0559 38.778C67.0559 39.422 66.989 39.8909 66.8778 40.2707C66.566 41.2711 65.5867 41.8289 64.4516 41.8289C63.1385 41.8289 62.3134 41.2042 61.9795 40.1568C61.8029 39.6239 61.7361 38.8879 61.7361 36.9083C61.7361 34.9259 61.8029 34.215 61.9795 33.6808C62.3134 32.6345 63.1162 31.989 64.4085 31.989C65.6536 31.989 66.409 32.5233 67.0113 33.5471C67.0559 33.6584 67.1672 33.703 67.3244 33.6584L69.7047 32.6568C69.8369 32.59 69.8619 32.4566 69.7937 32.3216C69.08 30.4962 67.2339 29.0967 64.4083 29.0967C61.7135 29.0967 59.6212 30.3211 58.8423 32.768C58.5083 33.8143 58.418 34.6601 58.418 36.9083C58.418 39.1566 58.5084 40.0024 58.8423 41.0485C59.6214 43.4973 61.7139 44.72 64.4085 44.72Z" fill="#1A2A44"/>
</svg>
