<svg width="90" height="90" viewBox="0 0 90 90" fill="none" xmlns="http://www.w3.org/2000/svg">
<path d="M45 90C69.8528 90 90 69.8528 90 45C90 20.1472 69.8528 0 45 0C20.1472 0 0 20.1472 0 45C0 69.8528 20.1472 90 45 90Z" fill="#4176FA"/>
<path d="M33.7075 27C35.2634 27 36.7007 27.1186 38.0196 27.4741C39.3383 27.7112 40.4201 28.2004 41.3833 28.793C42.3466 29.3857 43.0578 30.2303 43.5467 31.3121C44.021 32.3939 44.2728 33.7126 44.2728 35.1502C44.2728 36.8246 43.9173 38.2619 43.0727 39.3437C42.3466 40.4253 41.161 41.3885 39.7089 42.1C41.7537 42.6926 43.3096 43.7744 44.258 45.2117C45.2063 46.649 45.814 48.442 45.814 50.4871C45.814 52.1615 45.4583 53.5988 44.8508 54.7992C44.258 55.9993 43.295 57.0811 42.2132 57.7924C41.1314 58.5187 39.8126 59.1113 38.3751 59.4668C36.9378 59.8226 35.5005 60.0597 34.063 60.0597L18 60.0894V27H33.7075ZM32.7442 40.4253C34.063 40.4253 35.1448 40.0698 35.9746 39.4623C36.8044 38.8546 37.1749 37.7876 37.1749 36.4689C37.1749 35.7428 37.0564 35.0316 36.8192 34.5573C36.5821 34.0832 36.2266 33.7126 35.7374 33.3571C35.2634 33.12 34.7744 32.8828 34.1815 32.7643C33.5889 32.6457 32.9814 32.6457 32.2699 32.6457H25.3201V40.4402C25.3201 40.4253 32.7442 40.4253 32.7442 40.4253ZM33.1 54.5769C33.826 54.5769 34.5373 54.4583 35.1448 54.3397C35.7374 54.2212 36.3451 53.9843 36.8192 53.6137C37.2935 53.2433 37.6639 52.8876 38.0196 52.295C38.2568 51.7021 38.4937 50.976 38.4937 50.1313C38.4937 48.4569 38.0196 47.2567 37.0564 46.4121C36.0931 45.6858 34.7744 45.3303 33.2183 45.3303H25.3201V54.562H33.1V54.5769Z" fill="white"/>
<path d="M56.2454 54.4594C57.2087 55.4226 58.646 55.8969 60.5576 55.8969C61.8765 55.8969 63.0767 55.5412 64.0399 54.9337C65.0031 54.2076 65.5958 53.4964 65.8329 52.7701H71.7009C70.7379 55.6449 69.3004 57.6899 67.3888 59.0086C65.4774 60.209 63.1952 60.9202 60.439 60.9202C58.5276 60.9202 56.8383 60.5645 55.2822 59.957C53.7263 59.3644 52.5262 58.5197 51.4444 57.3193C50.3626 56.2375 49.5328 54.9188 49.0439 53.3629C48.451 51.8071 48.1992 50.1324 48.1992 48.2062C48.1992 46.4131 48.4361 44.7238 49.0439 43.168C49.6514 41.6119 50.4812 40.2931 51.563 39.0928C52.6448 38.0112 53.9635 37.048 55.4008 36.4551C56.9569 35.8624 58.5128 35.4921 60.439 35.4921C62.484 35.4921 64.2771 35.8476 65.8329 36.6922C67.3888 37.5369 68.5892 38.4853 69.5524 39.9226C70.5156 41.2415 71.2268 42.7974 71.7158 44.4718C71.9529 46.1463 72.0715 47.8356 71.9529 49.7472H54.571C54.571 51.7033 55.2822 53.4964 56.2454 54.4594ZM63.8027 41.8639C62.9583 41.0192 61.6394 40.5451 60.0835 40.5451C59.0017 40.5451 58.1719 40.7821 57.4458 41.1378C56.7197 41.4935 56.2454 41.9824 55.7714 42.4565C55.2971 42.9308 55.0453 43.5383 54.9267 44.1312C54.8081 44.7238 54.6896 45.2128 54.6896 45.6871H65.4774C65.2403 43.9089 64.6328 42.7085 63.8027 41.8639ZM53.2523 29.2832H66.6776V32.5135H53.2523V29.2832Z" fill="white"/>
</svg>
