<svg width="90" height="90" viewBox="0 0 90 90" fill="none" xmlns="http://www.w3.org/2000/svg">
<path d="M90 45C90 20.1472 69.8528 0 45 0C20.1472 0 0 20.1472 0 45C0 69.8528 20.1472 90 45 90C69.8528 90 90 69.8528 90 45Z" fill="#E07242"/>
<path d="M51.2459 60.7946C56.4668 60.7946 60.7058 56.5437 60.7357 51.3527L60.7956 43.71L60.7058 43.2909L60.4573 42.77L60.0322 42.4407C59.4814 42.0096 56.6913 42.4706 55.9399 41.7881C55.4071 41.3001 55.3232 40.423 55.1616 39.2286C54.8622 36.9205 54.6736 36.8007 54.3114 36.0164C52.9942 33.2353 49.4318 31.1458 46.983 30.8584H40.3462C37.836 30.8623 35.4293 31.8594 33.6518 33.6318C31.8744 35.4043 30.8704 37.8081 30.8594 40.3182V51.3527C30.8594 56.5437 35.1283 60.7946 40.3491 60.7946H51.2459ZM40.4689 38.5849H45.7287C46.7315 38.5849 47.5458 39.4022 47.5458 40.3931C47.5458 41.381 46.7315 42.2012 45.7287 42.2012H40.4689C39.9888 42.2004 39.5284 42.01 39.188 41.6713C38.8477 41.3326 38.6549 40.8732 38.6518 40.3931C38.6518 39.4022 39.463 38.5849 40.4689 38.5849ZM38.6518 51.215C38.6518 50.2271 39.463 49.4158 40.4689 49.4158H51.1561C52.153 49.4158 52.9643 50.2241 52.9643 51.215C52.9643 52.1939 52.156 53.0142 51.1561 53.0142H40.4689C39.9901 53.0142 39.5306 52.8252 39.1903 52.4883C38.85 52.1514 38.6565 51.6938 38.6518 51.215Z" fill="white" stroke="white" stroke-width="0.00024"/>
<path d="M27.8651 21.8769C26.2772 21.8769 24.7543 22.5077 23.6315 23.6305C22.5087 24.7533 21.8779 26.2762 21.8779 27.8641V63.7876C21.8779 65.3755 22.5087 66.8983 23.6315 68.0212C24.7543 69.144 26.2772 69.7748 27.8651 69.7748H63.7885C65.3764 69.7748 66.8993 69.144 68.0222 68.0212C69.145 66.8983 69.7758 65.3755 69.7758 63.7876V27.8641C69.7758 26.2762 69.145 24.7533 68.0222 23.6305C66.8993 22.5077 65.3764 21.8769 63.7885 21.8769H27.8651ZM27.8651 15.8896H63.7885C66.9644 15.8896 70.0101 17.1512 72.2558 19.3969C74.5014 21.6425 75.763 24.6883 75.763 27.8641V63.7876C75.763 66.9634 74.5014 70.0091 72.2558 72.2548C70.0101 74.5004 66.9644 75.762 63.7885 75.762H27.8651C24.6893 75.762 21.6435 74.5004 19.3979 72.2548C17.1522 70.0091 15.8906 66.9634 15.8906 63.7876V27.8641C15.8906 24.6883 17.1522 21.6425 19.3979 19.3969C21.6435 17.1512 24.6893 15.8896 27.8651 15.8896Z" fill="white" stroke="white" stroke-width="0.00024"/>
</svg>
