<svg width="85" height="85" viewBox="0 0 85 85" fill="none" xmlns="http://www.w3.org/2000/svg">
<path d="M84.6825 40.8298C83.8245 38.7558 81.9855 38.2585 80.741 38.1395V25.5C80.741 20.8122 76.9312 17 72.2464 17H46.7627V11.0925C48.0581 9.928 48.8863 8.2535 48.8863 6.375C48.8863 4.68424 48.2151 3.06274 47.0203 1.86719C45.8255 0.67165 44.2051 0 42.5154 0C40.8257 0 39.2052 0.67165 38.0104 1.86719C36.8157 3.06274 36.1444 4.68424 36.1444 6.375C36.1444 8.2535 36.9727 9.928 38.2681 11.0925V17H12.7843C8.09958 17 4.28976 20.8122 4.28976 25.5V38.2372L3.94149 38.2628C2.87105 38.3401 1.86956 38.82 1.13835 39.6061C0.407139 40.3922 0.000434265 41.4261 0 42.5V51C0 52.1272 0.447481 53.2082 1.244 54.0052C2.04052 54.8022 3.12084 55.25 4.24729 55.25H4.28976V76.5C4.28976 81.1878 8.09958 85 12.7843 85H72.2464C76.9312 85 80.741 81.1878 80.741 76.5V55.25C81.8674 55.25 82.9478 54.8022 83.7443 54.0052C84.5408 53.2082 84.9883 52.1272 84.9883 51V42.7635C85.0372 42.1039 84.9325 41.442 84.6825 40.8298ZM12.7843 76.5V25.5H72.2464L72.2507 42.483L72.2464 42.5V51L72.2507 51.0213L72.2549 76.5H12.7843Z" fill="#5865F2"/>
<path d="M27.6483 51C31.1669 51 34.0192 47.1944 34.0192 42.5C34.0192 37.8056 31.1669 34 27.6483 34C24.1297 34 21.2773 37.8056 21.2773 42.5C21.2773 47.1944 24.1297 51 27.6483 51Z" fill="#5865F2"/>
<path d="M57.3807 51C60.8993 51 63.7516 47.1944 63.7516 42.5C63.7516 37.8056 60.8993 34 57.3807 34C53.8621 34 51.0098 37.8056 51.0098 42.5C51.0098 47.1944 53.8621 51 57.3807 51Z" fill="#5865F2"/>
<path d="M25.5254 59.5H59.5037V68H25.5254V59.5Z" fill="#5865F2"/>
</svg>
