<svg width="90" height="90" viewBox="0 0 90 90" fill="none" xmlns="http://www.w3.org/2000/svg">
<path d="M76.0434 58.594L58.2544 76.3693C57.5686 77.0546 56.9256 78.3824 56.7542 79.3247L55.7683 86.135C55.4254 88.5765 57.14 90.3326 59.5833 89.9471L66.3988 88.9619C67.3418 88.8334 68.6706 88.1481 69.3564 87.4628L87.1454 69.6875C90.1888 66.6464 91.6462 63.0485 87.1454 58.5511C82.6874 54.0966 79.1296 55.5101 76.0434 58.594Z" fill="black"/>
<path d="M73.5156 61.124C75.0159 66.5209 79.2595 70.718 84.6605 72.2599L73.5156 61.124Z" fill="black"/>
<path d="M4.45682 58.4219C4.45682 58.5504 4.37109 58.7217 4.37109 58.8502C8.31466 66.7313 14.7444 73.199 22.6316 77.0967C22.7602 77.0967 22.9316 77.011 23.0602 77.011C21.6028 72.0425 20.4883 66.9455 19.6739 61.8484C14.5301 60.9918 9.42915 59.8782 4.45682 58.4219Z" fill="black"/>
<path d="M77.4983 23.297C73.469 14.8591 66.6535 8.04882 58.252 4.06543C59.7951 9.16245 61.081 14.388 61.9383 19.6135C67.1678 20.4702 72.3974 21.7122 77.4983 23.297Z" fill="black"/>
<path d="M4.02734 23.302C9.17113 21.7601 14.4007 20.4752 19.6302 19.6186C20.4875 14.5215 21.5591 9.46736 23.0165 4.49884C22.8879 4.49884 22.7164 4.41309 22.5878 4.41309C14.5292 8.39647 7.97091 15.1211 4.02734 23.302Z" fill="black"/>
<path d="M54.9936 18.7176C53.9648 13.1494 52.6789 7.58131 50.8357 2.18446C50.7499 1.88464 50.7499 1.62769 50.7071 1.28503C47.5351 0.514053 44.1916 0 40.7624 0C37.2903 0 33.9897 0.471221 30.7749 1.28503C30.732 1.58486 30.7749 1.84181 30.6891 2.18446C28.8888 7.58131 27.56 13.1494 26.5312 18.7176C36.0044 17.6896 45.5204 17.6896 54.9936 18.7176Z" fill="black"/>
<path d="M18.7319 26.5146C13.1166 27.5426 7.58706 28.8276 2.18609 30.6694C1.88604 30.755 1.62881 30.755 1.28589 30.7979C0.514318 33.9674 0 37.3083 0 40.735C0 44.2044 0.471454 47.5025 1.28589 50.7149C1.58594 50.7577 1.84317 50.7149 2.18609 50.8005C7.58706 52.5995 13.1166 53.9273 18.7319 54.9553C17.7032 45.4894 17.7032 35.9805 18.7319 26.5146Z" fill="black"/>
<path d="M80.2038 30.7979C79.9038 30.7979 79.6466 30.755 79.3037 30.6694C73.9027 28.8704 68.3302 27.5426 62.7578 26.5146C63.8294 35.9805 63.8294 45.4894 62.7578 54.9124C68.3302 53.8844 73.9027 52.5995 79.3037 50.7577C79.6037 50.672 79.8609 50.7149 80.2038 50.672C80.9754 47.4596 81.4898 44.1616 81.4898 40.6922C81.4898 37.3083 81.0182 34.0103 80.2038 30.7979Z" fill="black"/>
<path d="M26.5312 62.7461C27.56 68.3571 28.846 73.8824 30.6891 79.2793C30.7749 79.5791 30.732 79.8361 30.7749 80.1788C33.9897 80.9497 37.2903 81.4637 40.7624 81.4637C44.1916 81.4637 47.5351 80.9926 50.7071 80.1788C50.7499 79.8789 50.7499 79.6219 50.8357 79.2793C52.636 73.8824 53.9648 68.3571 54.9936 62.7461C50.2784 63.2601 45.5204 63.6456 40.7624 63.6456C36.0044 63.6027 31.2464 63.2601 26.5312 62.7461Z" fill="black"/>
<path d="M25.5445 25.5292C24.2586 35.6375 24.2586 45.8316 25.5445 55.9828C35.6606 57.2677 45.8624 57.2677 56.0214 55.9828C57.3074 45.8744 57.3074 35.6804 56.0214 25.5292C45.8624 24.2442 35.6606 24.2442 25.5445 25.5292Z" fill="black"/>
</svg>
