<svg width="90" height="90" viewBox="0 0 90 90" fill="none" xmlns="http://www.w3.org/2000/svg">
<path d="M45 0C20.1403 0 0 20.1403 0 45C0 69.8597 20.1403 90 45 90C69.8597 90 90 69.8597 90 45C90 20.1403 69.8597 0 45 0ZM26.1028 28.8C28.9294 28.8 31.1288 30.8616 31.3763 33.2972C31.6434 35.4938 30.7322 37.4147 28.3022 38.5706C27.0112 39.2147 26.4994 39.2147 26.235 38.8322C26.1028 38.5706 26.235 38.3231 26.4966 38.0559C28.8141 36.1406 28.8141 34.5881 28.5469 32.4056C28.4147 30.9853 27.3909 30.0881 26.3644 30.0881C21.8531 30.0881 15.4378 40.1091 16.3294 47.4469C16.7259 50.2734 18.3966 53.6147 21.9853 53.6147C23.1441 53.6147 24.435 53.2322 25.5881 52.7231C27.4641 51.7247 28.5919 50.9653 29.7056 49.7194C29.4272 46.3922 32.3409 42.0441 36.6469 42.0441C38.5819 42.0441 40.1203 42.8203 40.2497 44.2406C40.5 46.1616 38.8294 46.4231 38.3175 46.4231C37.8028 46.4231 36.8972 46.2909 36.8972 45.7791C36.7819 45.2644 38.0531 45.5175 37.935 44.3587C37.8028 43.5825 37.0266 43.335 36.2672 43.335C33.5559 43.335 32.0175 47.07 32.4 49.3678C32.5322 50.4056 33.0413 51.435 34.0847 51.435C34.8469 51.435 36.0056 50.2763 36.3825 48.6084C36.6441 47.4497 37.6734 46.6734 38.5791 46.6734C38.9616 46.6734 39.2091 46.8056 39.3413 47.3175V47.8322C39.2259 48.3469 38.8266 49.8994 38.9616 50.2762C38.9616 50.5434 39.0938 50.9203 39.6028 50.9203C39.9403 50.9203 41.2313 50.2453 42.5194 49.1906C42.9441 46.9772 43.4559 44.3278 43.4559 44.1084C43.5881 43.2 43.9706 42.3056 45.7706 42.3056C46.1644 42.3056 46.4147 42.4378 46.5469 42.9497V43.4644L46.0322 45.7791C47.7056 43.5966 50.1497 42.0581 51.6881 42.0581C52.3322 42.0581 52.8469 42.4378 52.8469 43.0819C52.8469 43.4644 52.8469 44.1084 52.5797 44.7553C52.0706 46.1616 51.4238 48.3581 51.0413 50.2762C51.0413 50.7909 51.1734 51.3028 51.8175 51.3028C52.4616 51.3028 54.3825 50.5406 55.9209 48.4762L55.9519 48.4622C55.9519 48.2119 55.9209 47.9644 55.9209 47.7169C55.9209 46.1644 56.0531 44.8903 56.3175 43.9819C56.5791 42.9553 57.8559 42.0609 58.6322 42.0609C59.0119 42.0609 59.4084 42.3084 59.4084 42.6909C59.4084 42.8231 59.4084 43.0847 59.2762 43.2056C58.7616 44.8903 58.365 46.4259 58.365 47.9644C58.365 48.8728 58.5 50.1469 58.7616 50.9231C58.7616 51.0553 58.8769 51.1847 59.0091 51.1847C59.2763 51.1847 61.0763 49.5169 62.3503 47.3175C61.1916 46.5553 60.5475 45.2672 60.5475 43.7288C60.5475 41.0203 62.235 39.6112 63.7734 39.6112C65.0644 39.6112 66.0881 40.5084 66.0881 42.3084C66.0881 43.4672 65.7056 44.7581 65.0644 45.9112H65.4441C66.2653 45.9422 67.0725 45.6047 67.6266 45.0197C67.7588 44.8144 67.9331 44.6681 68.1413 44.5809C69.4013 42.9834 71.2462 41.7994 73.4287 41.7994C75.2288 41.7994 76.8853 42.5756 77.0175 43.9819C77.2791 45.9141 75.5972 46.2966 75.0825 46.2966C74.5734 46.2966 73.665 46.1644 73.665 45.6525C73.665 45.1406 74.8209 45.3909 74.7028 44.2463C74.5706 43.47 73.7944 43.2084 73.0181 43.2084C70.4531 43.2084 68.7853 46.5469 69.1622 49.2581C69.2944 50.2819 69.8063 51.4406 70.8356 51.4406C71.6119 51.4406 72.7678 50.2819 73.2797 48.6141C73.5272 47.5903 74.5706 46.6791 75.4622 46.6791C75.8559 46.6791 76.1063 46.8112 76.2384 47.3231C76.2384 47.5903 76.2384 48.0994 75.7237 49.7728C75.0797 50.9288 75.0797 51.5728 75.2147 52.0875C75.33 53.1113 75.8447 53.8875 76.3706 54.27C76.4859 54.4022 76.6209 54.6497 76.6209 54.6497C76.6209 54.9169 76.4859 55.1784 76.1062 55.1784C75.9741 55.1784 75.8559 55.1784 75.7237 55.0463C73.7916 54.27 73.0153 52.9791 72.765 51.6909C71.9887 52.5994 71.0972 53.1113 70.0566 53.1113C68.3831 53.1113 66.7294 51.5728 66.4678 49.6378C66.3919 48.8194 66.4791 47.9841 66.7463 47.2078C65.9841 47.6916 65.1628 47.97 64.4034 47.97H63.7734C62.0887 50.4141 60.2859 52.0875 59.0119 52.8497C58.5731 53.0831 58.0894 53.2181 57.5916 53.2434C57.3441 53.2434 56.9503 53.1113 56.8294 52.8497C56.4666 52.2788 56.2444 51.3844 56.0981 50.3606C54.2953 52.3209 51.8034 53.3756 50.6503 53.3756C49.3594 53.3756 48.6 52.5994 48.4678 51.3141V49.9078C48.8475 47.0813 49.8881 45.3966 49.8881 44.8819C49.8741 44.7497 49.7672 44.6316 49.6209 44.6203C48.7294 44.6203 45.7706 47.7112 45.2559 49.7756L44.8622 51.4434C44.6119 52.5994 43.4559 53.3756 42.6797 53.3756C42.2972 53.3756 42.0356 53.2434 41.9175 52.7344V52.2197L42.0778 51.3422C40.4494 52.4981 38.8237 53.2434 38.0475 53.2434C36.8916 53.2434 36.2475 52.5994 36.1322 51.6909C35.3559 52.7344 34.4588 53.2434 33.3056 53.2434C31.9697 53.2434 30.6844 52.335 30.0684 51.0187C29.1431 52.0566 28.1025 53.0972 26.8734 53.8875C25.0734 55.0462 23.0231 55.9378 20.5734 55.9378C18.3909 55.9378 16.4587 54.7791 15.4322 53.7553C13.8797 52.335 12.9881 50.1525 12.8559 48.0994C12.0938 41.8022 15.9469 33.6994 21.8475 30.0966C23.2678 29.3203 24.6909 28.8113 26.0972 28.8113L26.1028 28.8ZM62.7384 41.1497C62.3587 41.1497 62.0972 41.7938 62.0972 42.4209C62.0972 43.4644 62.6063 44.6175 63.2531 45.2644C63.5203 44.5641 63.6356 43.8159 63.6497 43.0678C63.6497 41.7966 63.135 41.1525 62.7384 41.1525V41.1497Z" fill="url(#paint0_linear_514_565)"/>
<defs>
<linearGradient id="paint0_linear_514_565" x1="45" y1="0" x2="45" y2="90" gradientUnits="userSpaceOnUse">
<stop stop-color="#0077B5"/>
<stop offset="1" stop-color="#4C4199"/>
<stop offset="1" stop-color="#4C4199"/>
</linearGradient>
</defs>
</svg>
