<svg width="85" height="85" viewBox="0 0 85 85" fill="none" xmlns="http://www.w3.org/2000/svg">
<path d="M85 42.5C85 19.0825 65.9175 0 42.5 0C19.0825 0 0 19.0825 0 42.5C0 54.825 5.3125 65.9175 13.7275 73.695C13.7275 73.7375 13.7275 73.7375 13.685 73.78C14.11 74.205 14.62 74.545 15.045 74.9275C15.3 75.14 15.5125 75.3525 15.7675 75.5225C16.5325 76.16 17.3825 76.755 18.19 77.35C18.4875 77.5625 18.7425 77.7325 19.04 77.945C19.8475 78.4975 20.6975 79.0075 21.59 79.475C21.8875 79.645 22.2275 79.8575 22.525 80.0275C23.375 80.495 24.2675 80.92 25.2025 81.3025C25.5425 81.4725 25.8825 81.6425 26.2225 81.77C27.1575 82.1525 28.0925 82.4925 29.0275 82.79C29.3675 82.9175 29.7075 83.045 30.0475 83.13C31.0675 83.4275 32.0875 83.6825 33.1075 83.9375C33.405 84.0225 33.7025 84.1075 34.0425 84.15C35.2325 84.405 36.4225 84.575 37.655 84.7025C37.825 84.7025 37.995 84.745 38.165 84.7875C39.61 84.915 41.055 85 42.5 85C43.945 85 45.39 84.915 46.7925 84.7875C46.9625 84.7875 47.1325 84.745 47.3025 84.7025C48.535 84.575 49.725 84.405 50.915 84.15C51.2125 84.1075 51.51 83.98 51.85 83.9375C52.87 83.6825 53.9325 83.47 54.91 83.13C55.25 83.0025 55.59 82.875 55.93 82.79C56.865 82.45 57.8425 82.1525 58.735 81.77C59.075 81.6425 59.415 81.4725 59.755 81.3025C60.6475 80.92 61.54 80.495 62.4325 80.0275C62.7725 79.8575 63.07 79.645 63.3675 79.475C64.2175 78.965 65.0675 78.4975 65.9175 77.945C66.215 77.775 66.47 77.5625 66.7675 77.35C67.6175 76.755 68.425 76.16 69.19 75.5225C69.445 75.31 69.6575 75.0975 69.9125 74.9275C70.38 74.545 70.8475 74.1625 71.2725 73.78C71.2725 73.7375 71.2725 73.7375 71.23 73.695C79.6875 65.9175 85 54.825 85 42.5ZM63.495 63.6225C51.9775 55.8875 33.1075 55.8875 21.505 63.6225C19.635 64.855 18.105 66.3 16.83 67.8725C10.37 61.3275 6.375 52.36 6.375 42.5C6.375 22.5675 22.5675 6.375 42.5 6.375C62.4325 6.375 78.625 22.5675 78.625 42.5C78.625 52.36 74.63 61.3275 68.17 67.8725C66.9375 66.3 65.365 64.855 63.495 63.6225Z" fill="#C4302B"/>
<path d="M42.5 20.9512C33.7025 20.9512 26.5625 28.0912 26.5625 36.8887C26.5625 45.5162 33.32 52.5287 42.2875 52.7837C42.415 52.7837 42.585 52.7837 42.67 52.7837C42.755 52.7837 42.8825 52.7837 42.9675 52.7837C43.01 52.7837 43.0525 52.7837 43.0525 52.7837C51.6375 52.4862 58.395 45.5162 58.4375 36.8887C58.4375 28.0912 51.2975 20.9512 42.5 20.9512Z" fill="#C4302B"/>
</svg>
