<svg width="85" height="85" viewBox="0 0 85 85" fill="none" xmlns="http://www.w3.org/2000/svg">
<path d="M14.1673 17.7083H46.0423V10.625H7.08398V74.375H53.1257V67.2917H14.1673V17.7083Z" fill="#BE1931"/>
<path d="M56.668 61.4497L67.293 74.7309L77.918 61.4497V10.625H56.668V61.4497ZM67.293 63.3941L63.7513 58.967V31.875H70.8346V58.967L67.293 63.3941ZM70.8346 17.7083V24.7917H63.7513V17.7083H70.8346Z" fill="#BE1931"/>
<path d="M37.1878 24.5361L30.51 31.2139L27.1702 27.8759L22.1641 32.8856L30.51 41.2298L42.1957 29.5458L37.1878 24.5361Z" fill="#BE1931"/>
<path d="M27.1702 45.5839L22.1641 50.5936L30.51 58.9378L42.1957 47.2538L37.1878 42.2441L30.51 48.922L27.1702 45.5839Z" fill="#BE1931"/>
</svg>
