<svg width="85" height="85" viewBox="0 0 85 85" fill="none" xmlns="http://www.w3.org/2000/svg">
<path d="M42.3433 22.8361C47.825 22.8361 52.2687 17.7241 52.2687 11.4181C52.2687 5.11205 47.825 0 42.3433 0C36.8617 0 32.418 5.11205 32.418 11.4181C32.418 17.7241 36.8617 22.8361 42.3433 22.8361Z" fill="url(#paint0_linear_504_226)"/>
<path d="M77.0883 42.8313L67.8378 40.6115C64.6862 39.852 61.5747 41.5137 59.9297 44.468C58.332 43.5239 56.6139 42.7097 54.7864 42.0341V35.7061C54.7901 30.9182 51.383 27.0029 47.2357 27.0029H37.7773C33.608 27.0029 30.2156 30.9182 30.2156 35.7061V42.0676C28.4064 42.7306 26.7065 43.5447 25.0979 44.493C23.4528 41.5262 20.3376 39.852 17.1823 40.6115L7.92436 42.8313C3.86079 43.8091 1.22345 48.446 2.07337 53.1374L4.39702 65.9067C5.23966 70.5855 9.27397 73.6195 13.3413 72.6418L16.2703 71.9368C17.7366 74.4294 19.7648 76.7163 22.3619 78.6718C27.7714 82.7506 34.9174 84.9998 42.5008 84.9998C54.1042 84.9998 64.0989 79.6328 68.7023 71.9241L71.6788 72.6418C75.7424 73.6152 79.7767 70.5855 80.6194 65.9067L82.9466 53.1374C83.7927 48.446 81.1554 43.8091 77.0883 42.8313ZM42.4971 80.6399C35.6467 80.6399 29.2267 78.6551 24.4373 75.0252C22.7958 73.7915 21.4352 72.4194 20.3447 70.9507L22.588 70.4093C26.6589 69.4358 29.2962 64.7989 28.4463 60.1158L26.3634 48.6347C27.5781 47.8836 28.8548 47.2247 30.2117 46.6625V48.7565C30.2117 53.536 33.6114 57.4513 37.7734 57.4513H47.2318C51.383 57.4513 54.7827 53.5319 54.7827 48.7565V46.5534C56.1651 47.1199 57.4636 47.7704 58.6675 48.5088L56.5554 60.1201C55.7127 64.8031 58.3464 69.4401 62.4172 70.4136L64.6823 70.959C60.4585 76.7122 52.1015 80.6399 42.4971 80.6399Z" fill="url(#paint1_linear_504_226)"/>
<path d="M75.0738 37.8459C80.5554 37.8459 84.9992 32.7339 84.9992 26.4278C84.9992 20.1218 80.5554 15.0098 75.0738 15.0098C69.5922 15.0098 65.1484 20.1218 65.1484 26.4278C65.1484 32.7339 69.5922 37.8459 75.0738 37.8459Z" fill="url(#paint2_linear_504_226)"/>
<path d="M11.9618 37.6071C17.3312 36.3146 20.7601 30.2595 19.6512 24.0867C18.5204 17.9182 13.2677 13.9569 7.89456 15.2494C2.53245 16.5376 -0.911013 22.5886 0.212512 28.7614C1.33249 34.9383 6.59246 38.8955 11.9618 37.6071Z" fill="url(#paint3_linear_504_226)"/>
<defs>
<linearGradient id="paint0_linear_504_226" x1="42.3433" y1="0" x2="42.3433" y2="22.8361" gradientUnits="userSpaceOnUse">
<stop stop-color="#36C5F0"/>
<stop offset="0.28125" stop-color="#2EB67D"/>
<stop offset="0.630208" stop-color="#ECB22E"/>
<stop offset="1" stop-color="#E01E5A"/>
</linearGradient>
<linearGradient id="paint1_linear_504_226" x1="42.5093" y1="27.0029" x2="42.5093" y2="84.9998" gradientUnits="userSpaceOnUse">
<stop stop-color="#36C5F0"/>
<stop offset="0.28125" stop-color="#2EB67D"/>
<stop offset="0.630208" stop-color="#ECB22E"/>
<stop offset="1" stop-color="#E01E5A"/>
</linearGradient>
<linearGradient id="paint2_linear_504_226" x1="75.0738" y1="15.0098" x2="75.0738" y2="37.8459" gradientUnits="userSpaceOnUse">
<stop stop-color="#36C5F0"/>
<stop offset="0.28125" stop-color="#2EB67D"/>
<stop offset="0.630208" stop-color="#ECB22E"/>
<stop offset="1" stop-color="#E01E5A"/>
</linearGradient>
<linearGradient id="paint3_linear_504_226" x1="9.92971" y1="15.0049" x2="9.92971" y2="37.8504" gradientUnits="userSpaceOnUse">
<stop stop-color="#36C5F0"/>
<stop offset="0.28125" stop-color="#2EB67D"/>
<stop offset="0.630208" stop-color="#ECB22E"/>
<stop offset="1" stop-color="#E01E5A"/>
</linearGradient>
</defs>
</svg>
