<svg width="85" height="85" viewBox="0 0 85 85" fill="none" xmlns="http://www.w3.org/2000/svg">
<path d="M6.07143 7.08333V77.9167H78.9286V21.25H40.0107L27.8436 7.08333H6.07143ZM3.03571 0H30.345L42.5243 14.1667H81.9643C82.7694 14.1667 83.5416 14.5398 84.1109 15.204C84.6802 15.8682 85 16.769 85 17.7083V81.4583C85 82.3976 84.6802 83.2985 84.1109 83.9627C83.5416 84.6269 82.7694 85 81.9643 85H3.03571C2.23059 85 1.45845 84.6269 0.88914 83.9627C0.319833 83.2985 0 82.3976 0 81.4583V3.54167C0 2.60236 0.319833 1.70152 0.88914 1.03733C1.45845 0.37314 2.23059 0 3.03571 0ZM39.4643 46.0417V31.875H45.5357V46.0417H57.6786V53.125H45.5357V67.2917H39.4643V53.125H27.3214V46.0417H39.4643Z" fill="#3592C8"/>
</svg>
