<svg width="91" height="91" viewBox="0 0 91 91" fill="none" xmlns="http://www.w3.org/2000/svg">
<path d="M62.5 76.6667L71 88L88 65.3333M88 31.3333H3M88 42.6667V21.1333C88 14.7861 88 11.6124 87.0735 9.18811C86.2588 7.05563 84.9583 5.32186 83.359 4.23528C81.5409 3 79.1604 3 74.4 3H16.6C11.8396 3 9.45932 3 7.64109 4.23528C6.04173 5.3218 4.74135 7.05558 3.92646 9.18811C3 11.6124 3 14.7861 3 21.1333V64.2C3 70.5472 3 73.7211 3.92646 76.1453C4.74135 78.2777 6.04168 80.0117 7.64109 81.098C9.45932 82.3333 11.8396 82.3333 16.6 82.3333H45.5" stroke="#D19C00" stroke-width="6" stroke-linecap="round" stroke-linejoin="round"/>
</svg>
