<svg width="86" height="85" viewBox="0 0 86 85" fill="none" xmlns="http://www.w3.org/2000/svg">
<path fill-rule="evenodd" clip-rule="evenodd" d="M42.588 64.3611C34.9 64.3611 27.0893 59.7974 22.5309 53.7568C0.661103 53.7568 0 84.9993 0 84.9993H85.1706C85.1706 84.9993 86.8873 53.6182 62.2932 53.6182C57.7401 59.7334 50.276 64.3611 42.588 64.3611Z" fill="#D19C00"/>
<path fill-rule="evenodd" clip-rule="evenodd" d="M60.9054 26.9099C60.9054 35.8988 52.7003 53.0875 42.5704 53.0875C32.4566 53.0875 24.2461 35.8934 24.2461 26.9099C24.2461 17.9263 32.4513 10.6328 42.5704 10.6328C52.7003 10.6381 60.9054 17.9316 60.9054 26.9099Z" fill="#D19C00"/>
<path fill-rule="evenodd" clip-rule="evenodd" d="M69.0824 19.1507C69.0824 17.466 66.7365 16.1064 63.8255 16.0958V12.625C63.8255 12.1078 64.0228 0 42.6329 0C21.2536 0 21.4508 12.1078 21.4508 12.625V16.2184C21.3975 16.2184 21.3549 16.2024 21.3069 16.2024C18.4119 16.2024 16.082 17.5406 16.082 19.1987V33.8816C16.082 35.5291 18.4172 36.8726 21.3069 36.8726C24.1966 36.8726 26.5424 35.5291 26.5424 33.8816V19.1987C26.5424 18.9695 26.3985 18.7615 26.3132 18.5483V14.5443C26.3132 14.1764 24.7777 5.03826 42.6329 5.03826C60.4934 5.03826 58.638 14.1764 58.638 14.5443V18.7615C58.606 18.8948 58.5047 19.0121 58.5047 19.1507V34.1695C58.5047 35.8596 60.8666 37.2298 63.7936 37.2298C63.8575 37.2298 63.9055 37.2085 63.9695 37.2085V42.6946H58.7233V47.8661H69.1357L69.0824 19.1507Z" fill="#D19C00"/>
</svg>
