<svg width="85" height="85" viewBox="0 0 85 85" fill="none" xmlns="http://www.w3.org/2000/svg">
<path d="M18.5938 29.9236H19.0938V29.4236V26.1544V25.6544H18.5938H13.2812H12.7812V26.1544V29.4236V29.9236H13.2812H18.5938ZM18.5938 43.0004H19.0938V42.5004V39.2312V38.7312H18.5938H13.2812H12.7812V39.2312V42.5004V43.0004H13.2812H18.5938ZM77.7429 6.85451L77.893 7.03922H78.1309H82.3438C83.4418 7.03922 84.5 8.17795 84.5 9.80842V81.7308C84.5 83.3613 83.4418 84.5 82.3438 84.5H2.65625C1.55815 84.5 0.5 83.3613 0.5 81.7308V9.80842C0.5 8.17795 1.55815 7.03922 2.65625 7.03922H65.3066H65.5445L65.6946 6.85451L70.2288 1.27399C70.6624 0.740441 71.2039 0.5 71.7188 0.5C72.2336 0.5 72.7751 0.740441 73.2087 1.27399L77.7429 6.85451ZM74.875 26.1544V24.7461L73.9869 25.8391L52.887 51.808H43V39.4087L56.1693 23.2005L56.8317 22.3852H55.7812H29.2188H28.7188V22.8852V68.654V69.154H29.2188H74.375H74.875V68.654V26.1544ZM45.5443 41.2272L44.6562 40.1343V41.5425V49.0388V49.5388H45.1562H51.247H52.2975L51.6351 48.7235L45.5443 41.2272ZM53.1248 47.5201L53.5128 47.9977L53.9009 47.5201L78.9759 16.6621L79.2321 16.3468L78.9759 16.0315L72.1068 7.57737L71.7188 7.09979L71.3307 7.57735L46.2557 38.4353L45.9995 38.7506L46.2557 39.0659L53.1248 47.5201ZM4.8125 78.4616V78.9616H5.3125H79.6875H80.1875V78.4616V19.616V18.2077L79.2994 19.3007L76.6432 22.5699L76.5312 22.7077V22.8852V71.4232H27.0625V20.116H58.4375H58.6755L58.8256 19.9313L64.1381 13.3929L64.8005 12.5776H63.75H5.3125H4.8125V13.0776V78.4616ZM11.125 23.3852H20.75V32.1928H11.125V23.3852ZM11.125 36.462H20.75V45.2696H11.125V36.462ZM8.46875 58.8464C8.46875 53.6035 11.9042 49.5388 15.9375 49.5388C19.9708 49.5388 23.4062 53.6035 23.4062 58.8464C23.4062 64.0893 19.9708 68.154 15.9375 68.154C11.9042 68.154 8.46875 64.0893 8.46875 58.8464ZM10.125 58.8464C10.125 62.6265 12.6395 65.8848 15.9375 65.8848C19.2355 65.8848 21.75 62.6265 21.75 58.8464C21.75 55.0663 19.2355 51.808 15.9375 51.808C12.6395 51.808 10.125 55.0663 10.125 58.8464ZM52.8289 38.0739L57.4972 32.3284L58.7309 33.8468L54.0627 39.5923L52.8289 38.0739Z" fill="url(#paint0_linear_488_1721)" stroke="url(#paint1_linear_488_1721)"/>
<defs>
<linearGradient id="paint0_linear_488_1721" x1="42.5" y1="0" x2="42.5" y2="85" gradientUnits="userSpaceOnUse">
<stop stop-color="#F6921E"/>
<stop offset="1" stop-color="#008ED3"/>
</linearGradient>
<linearGradient id="paint1_linear_488_1721" x1="42.5" y1="0" x2="42.5" y2="85" gradientUnits="userSpaceOnUse">
<stop stop-color="#F6921E"/>
<stop offset="1" stop-color="#008ED3"/>
</linearGradient>
</defs>
</svg>
