<svg width="85" height="85" viewBox="0 0 85 85" fill="none" xmlns="http://www.w3.org/2000/svg">
<path d="M75.6753 15.4553H35.2531V11.5925C35.2531 5.20196 31.0674 0 25.9244 0H9.33894C4.19483 0 0.0103032 5.20196 0.0103032 11.5925V78.5474L0.00356939 79.8719C-0.00989832 82.079 -0.0199991 83.2927 0.66461 84.1509C1.29142 84.9407 2.18702 85 3.38621 85L75.6719 84.9833C80.8177 84.9833 85 79.7876 85 73.3949V27.0443C85.0039 20.6601 80.8216 15.4553 75.6753 15.4553ZM26.0956 55.2599V61.9077H13.8287V55.2599H26.0956ZM13.8287 53.3205V46.6685H26.0956V53.3205H13.8287ZM26.0956 63.8436V70.4914H13.8287V63.8436H26.0956ZM38.3591 61.9077V55.2599H50.6253V61.9077H38.3591ZM50.6259 63.8436V70.4914H38.3591V63.8436H50.6259ZM50.2398 43.9943H32.7464V57.9347H36.8933V59.2286H32.7464H31.7111H27.5647V57.9347H31.7111V43.9943V42.7032H32.7464H50.2398V43.9943ZM50.6259 46.6685V40.0255H62.8927V46.6685H50.6259ZM82.9333 73.3991C82.9333 78.3703 79.6769 82.4116 75.6753 82.4116H74.1893C75.0777 81.4684 75.6753 80.1103 75.6753 78.5481V32.1961C75.6753 29.3665 73.8066 27.045 71.5306 27.045H30.0697C27.792 27.045 25.925 24.725 25.925 21.8898V16.7401C25.925 13.9084 24.0592 11.589 21.7786 11.589H5.19257C3.94007 11.589 2.8447 12.328 2.08265 13.4315V11.589C2.08265 6.61574 5.33903 2.5724 9.33894 2.5724H25.925C29.9232 2.5724 33.1807 6.61992 33.1807 11.589V18.0221H75.6792C79.6803 18.0221 82.9366 22.0676 82.9366 27.0367V73.3998L82.9333 73.3991Z" fill="#0E79A8"/>
</svg>
