<svg width="90" height="90" viewBox="0 0 90 90" fill="none" xmlns="http://www.w3.org/2000/svg">
<path d="M45 90C69.8528 90 90 69.8528 90 45C90 20.1472 69.8528 0 45 0C20.1472 0 0 20.1472 0 45C0 69.8528 20.1472 90 45 90Z" fill="#5865F2"/>
<path d="M60.5941 30.6741C57.6765 29.335 54.5975 28.3802 51.4341 27.8335C51.4053 27.828 51.3755 27.8318 51.349 27.8443C51.3225 27.8567 51.3006 27.8773 51.2865 27.9029C50.8664 28.6643 50.4851 29.4463 50.1439 30.2461C46.7342 29.7283 43.2659 29.7283 39.8563 30.2461C39.5135 29.4443 39.1268 28.6621 38.6979 27.9029C38.6832 27.8778 38.6612 27.8577 38.6348 27.8453C38.6085 27.8329 38.579 27.8288 38.5502 27.8335C35.3878 28.3793 32.3098 29.3342 29.3938 30.6741C29.3687 30.6847 29.3475 30.7028 29.3331 30.726C23.4998 39.4421 21.902 47.9438 22.686 56.3382C22.6882 56.3588 22.6946 56.3788 22.7047 56.3969C22.7148 56.415 22.7285 56.4309 22.7449 56.4437C26.1417 58.9599 29.9414 60.8807 33.9817 62.124C34.0102 62.1326 34.0406 62.1322 34.0689 62.1229C34.0972 62.1136 34.122 62.0959 34.1399 62.0722C35.0074 60.8912 35.7761 59.6406 36.4382 58.3333C36.4473 58.3154 36.4524 58.2957 36.4533 58.2757C36.4542 58.2556 36.4508 58.2356 36.4435 58.2169C36.4361 58.1982 36.4248 58.1813 36.4104 58.1673C36.3961 58.1533 36.3789 58.1425 36.36 58.1356C35.1476 57.6725 33.9738 57.1141 32.8497 56.4656C32.8293 56.4536 32.8121 56.4368 32.7998 56.4166C32.7874 56.3964 32.7802 56.3735 32.7788 56.3499C32.7774 56.3262 32.7819 56.3026 32.7918 56.2811C32.8017 56.2596 32.8167 56.2409 32.8356 56.2266C33.0711 56.0508 33.3076 55.8662 33.5326 55.6799C33.5525 55.6635 33.5767 55.653 33.6023 55.6496C33.6279 55.6462 33.654 55.65 33.6776 55.6606C41.0419 59.0233 49.0154 59.0233 56.2927 55.6606C56.3165 55.6492 56.343 55.6448 56.3691 55.6479C56.3952 55.651 56.42 55.6615 56.4404 55.6781C56.6654 55.8636 56.9018 56.0499 57.1435 56.2266C57.1624 56.2408 57.1776 56.2594 57.1876 56.2808C57.1977 56.3022 57.2023 56.3258 57.2011 56.3494C57.1999 56.373 57.1929 56.396 57.1807 56.4163C57.1685 56.4365 57.1515 56.4535 57.1312 56.4656C56.0085 57.1204 54.8324 57.679 53.6156 58.1356C53.5966 58.1427 53.5794 58.1538 53.565 58.1681C53.5506 58.1824 53.5395 58.1996 53.5322 58.2186C53.525 58.2375 53.5219 58.2578 53.5231 58.278C53.5243 58.2982 53.5297 58.318 53.5391 58.336C54.2122 59.6361 54.9798 60.8852 55.8357 62.0731C55.853 62.0975 55.8777 62.1159 55.9061 62.1255C55.9345 62.1351 55.9652 62.1355 55.9939 62.1267C60.0397 60.887 63.8443 58.9659 67.2439 56.4463C67.2605 56.4342 67.2744 56.4187 67.2846 56.4008C67.2947 56.3829 67.3009 56.3631 67.3028 56.3426C68.2414 46.636 65.7313 38.2037 60.6495 30.7295C60.6381 30.7051 60.6185 30.6855 60.5941 30.6741ZM37.5369 51.2274C35.3194 51.2274 33.4939 49.1918 33.4939 46.6922C33.4939 44.1926 35.2851 42.157 37.5369 42.157C39.8071 42.157 41.6167 44.2102 41.5798 46.6922C41.5816 49.1918 39.7895 51.2274 37.5369 51.2274ZM52.4897 51.2274C50.2722 51.2274 48.4467 49.1918 48.4467 46.6922C48.4467 44.1926 50.2379 42.157 52.4897 42.157C54.7599 42.157 56.5696 44.2102 56.5327 46.6922C56.5335 49.1918 54.7599 51.2274 52.4897 51.2274Z" fill="white"/>
</svg>
