<svg width="90" height="90" viewBox="0 0 90 90" fill="none" xmlns="http://www.w3.org/2000/svg">
<path d="M0 45C2.47831 105.023 87.5432 104.977 89.9998 45C87.5376 -14.991 2.47168 -15.009 0 45Z" fill="#C73052"/>
<path d="M56.8145 43.7717C70.3258 42.0787 83.7311 44.7882 85.0612 45.0838C84.9977 35.4747 81.5569 26.648 75.92 19.7275C75.0542 20.8919 68.2568 29.6332 53.2676 35.7712C54.5569 38.3736 55.7307 41.0755 56.8145 43.7717Z" fill="#EE74A3"/>
<path d="M71.8861 15.2754C64.7297 8.88355 55.3139 5.00977 44.9904 5.00977C41.7182 5.03061 38.5303 5.43324 35.4902 6.15324C36.6091 7.65576 43.9767 17.731 50.6272 29.9643C65.067 24.5463 71.168 16.3128 71.8861 15.2754Z" fill="#EE74A3"/>
<path d="M43.4142 32.425C36.7011 20.4456 29.4386 10.3704 28.3624 8.88867C17.0253 14.265 8.51796 24.7627 5.90039 37.3779C7.71554 37.3987 24.4356 37.4622 43.4142 32.425Z" fill="#EE74A3"/>
<path d="M48.1471 45.3199C48.671 45.1513 49.1949 44.9836 49.7396 44.8368C48.7335 42.547 47.6232 40.2354 46.4703 37.9873C26.3728 44.0173 6.841 43.7653 5.08079 43.7444C4.72269 54.4307 8.72057 64.5704 15.4128 71.9627C16.3345 70.3863 27.3789 52.0434 48.1471 45.3199Z" fill="#EE74A3"/>
<path d="M51.9736 51.5737C29.81 59.3222 21.836 74.7377 21.1406 76.173C31.5474 84.7021 48.0894 87.0449 60.6022 81.3598C60.0092 77.8953 57.7393 65.8618 52.219 51.4922C52.1375 51.5329 52.0352 51.5538 51.9736 51.5737Z" fill="#EE74A3"/>
<path d="M60.002 49.59C65.1566 63.8166 67.2512 75.3868 67.6823 77.7959C76.5126 71.7839 82.8164 62.2932 84.5823 51.2782C83.2266 50.8453 72.3641 47.6129 60.002 49.59Z" fill="#EE74A3"/>
</svg>
