<svg width="90" height="90" viewBox="0 0 90 90" fill="none" xmlns="http://www.w3.org/2000/svg">
<path d="M90 12.2897C90 2.18303 81.3417 -3.58611 75.2787 2.47064L69.5444 8.20609V8.22293L45 32.7544L20.4556 8.20609L14.7341 2.48618C8.65834 -3.57056 0 2.19987 0 12.3052V23.2048V81.8172C0 86.3387 2.74645 90 6.13953 90H20.4556V43.6539L45 68.1854L69.5444 43.6539V43.6371L69.5728 43.6086L69.5444 43.6539V90H83.8605C87.2526 90 90 86.3387 90 81.8172V23.2061L89.9627 23.2255L90 23.1892V12.2897Z" fill="#B5332A"/>
<path d="M6.13953 90H20.4556V43.6539L0 23.2061V81.8185C0 86.3387 2.74645 90 6.13953 90Z" fill="#4E85EB"/>
<path d="M69.5449 90H83.861C87.2531 90 90.0005 86.3387 90.0005 81.8172V23.2061L69.5449 43.6539V90Z" fill="#58A45C"/>
<path d="M69.5449 8.20609V43.6371L90.0005 23.1892V12.2897C90.0005 2.18303 81.3422 -3.58611 75.2792 2.47064L69.5449 8.20609Z" fill="#F2BC42"/>
<path d="M20.4551 43.6539V8.20605L44.9995 32.7543L69.5438 8.2229V43.6539L44.9995 68.1853L20.4551 43.6539Z" fill="#D85040"/>
<path d="M0 12.3068V23.2063L20.4556 43.6542V8.20633L14.7341 2.48643C8.65834 -3.56902 0 2.20011 0 12.3068Z" fill="#B5332A"/>
</svg>
