<svg width="575" height="70" viewBox="0 0 575 70" fill="none" xmlns="http://www.w3.org/2000/svg">
<path d="M65 37.5815C65 19.5965 50.44 5 32.5 5C14.56 5 0 19.5965 0 37.5815C0 53.3509 11.18 66.4812 26 69.5113V47.3559H19.5V37.5815H26V29.4361C26 23.1479 31.1025 18.0326 37.375 18.0326H45.5V27.807H39C37.2125 27.807 35.75 29.2732 35.75 31.0652V37.5815H45.5V47.3559H35.75V70C52.1625 68.3709 65 54.4912 65 37.5815Z" fill="#3B5998"/>
<path d="M575 27.5689C575 12.3509 562.68 0 547.5 0C532.32 0 520 12.3509 520 27.5689C520 40.9123 529.46 52.0226 542 54.5865V35.8396H536.5V27.5689H542V20.6767C542 15.3559 546.318 11.0276 551.625 11.0276H558.5V19.2982H553C551.487 19.2982 550.25 20.5388 550.25 22.0551V27.5689H558.5V35.8396H550.25V55C564.138 53.6216 575 41.8772 575 27.5689Z" fill="#3B5998"/>
<path d="M157.5 10C164.793 10 171.788 12.8973 176.945 18.0546C182.103 23.2118 185 30.2065 185 37.5C185 44.7935 182.103 51.7882 176.945 56.9454C171.788 62.1027 164.793 65 157.5 65C150.207 65 143.212 62.1027 138.055 56.9454C132.897 51.7882 130 44.7935 130 37.5C130 30.2065 132.897 23.2118 138.055 18.0546C143.212 12.8973 150.207 10 157.5 10ZM157.5 61.0714C163.752 61.0714 169.747 58.588 174.168 54.1675C178.588 49.747 181.071 43.7515 181.071 37.5C181.071 31.2485 178.588 25.253 174.168 20.8325C169.747 16.412 163.752 13.9286 157.5 13.9286C151.248 13.9286 145.253 16.412 140.832 20.8325C136.412 25.253 133.929 31.2485 133.929 37.5C133.929 43.7515 136.412 49.747 140.832 54.1675C145.253 58.588 151.248 61.0714 157.5 61.0714ZM154.554 45.8718L167.113 37.5L154.554 29.1282V45.8718ZM155.206 24.8382L170.519 35.0486C170.923 35.3176 171.254 35.6822 171.483 36.1098C171.711 36.5375 171.831 37.015 171.831 37.5C171.831 37.985 171.711 38.4625 171.483 38.8902C171.254 39.3178 170.923 39.6823 170.519 39.9514L155.206 50.1618C154.762 50.4576 154.246 50.6274 153.714 50.6531C153.181 50.6789 152.651 50.5596 152.181 50.308C151.711 50.0563 151.318 49.6818 151.044 49.2244C150.77 48.7669 150.625 48.2436 150.625 47.7104V27.2857C150.625 26.7524 150.77 26.2292 151.044 25.7717C151.318 25.3142 151.711 24.9397 152.181 24.6881C152.651 24.4365 153.181 24.3172 153.714 24.3429C154.246 24.3687 154.762 24.5385 155.206 24.8343V24.8382Z" fill="#3B5998" stroke="#3B5998"/>
<path d="M235.691 37.1455H244.613L249.678 64.9997H235.691V43.5498V37.1455Z" fill="#D7D5D9"/>
<g opacity="0.14">
<path d="M244.613 37.1455H235.691V40.7589L245.244 40.6172L244.613 37.1455Z" fill="#3B5998"/>
</g>
<path d="M237.394 24.7201H234.978C231.473 24.7201 228.605 27.588 228.605 31.0931V31.9603C228.605 35.4654 231.473 38.3333 234.978 38.3333H244.752C246.916 38.3333 249.014 39.0739 250.699 40.4322L266.33 53.0365V10L250.678 22.6213C248.993 23.9795 246.895 24.7202 244.731 24.7202H242.333L237.394 24.7201Z" fill="#D7D5D9"/>
<path d="M272.895 10H266.33V53.037H272.895V10Z" fill="#3B5998"/>
<path d="M276.847 25.1443C278.718 26.5266 280.393 28.8273 280.393 31.5184C280.393 35.66 277.036 39.0173 272.895 39.0173V24.0195C272.895 24.0195 275.324 24.0195 276.847 25.1443Z" fill="#D7D5D9"/>
<path opacity="0.31" d="M272.895 35.8744V39.0168C277.036 39.0168 280.393 35.6594 280.393 31.5179C280.393 30.9962 280.33 30.4895 280.215 30.001C279.472 33.3607 276.478 35.8744 272.895 35.8744Z" fill="#3B5998"/>
<path d="M266.549 10L257.181 17.5542V45.4823L266.549 53.0364V10Z" fill="#3B5998"/>
<path opacity="0.36" d="M250.758 34.5157C249.074 33.1575 246.975 32.4167 244.812 32.4167H235.038C232.429 32.4167 230.173 30.8268 229.191 28.5684C228.853 29.3436 228.665 30.1973 228.665 31.093V31.9601C228.665 35.4653 231.533 38.3331 235.038 38.3331H244.812C246.976 38.3331 249.074 39.0738 250.758 40.432L266.389 53.0364H272.954V47.1202H266.389L250.758 34.5157Z" fill="#3B5998"/>
<path d="M247.173 51.6663C247.173 51.6663 254.326 50.2603 255.045 43.8892L252.211 41.6514C251.668 46.4617 246.365 47.6019 246.365 47.6019L247.173 51.6663Z" fill="#D7D5D9"/>
<g opacity="0.31">
<path d="M255.043 43.9554L252.211 41.6514C252.096 42.671 251.772 43.5194 251.334 44.2242L254.302 46.5948C254.667 45.8292 254.93 44.9543 255.043 43.9554Z" fill="#3B5998"/>
</g>
<g opacity="0.36">
<path d="M245.564 42.375L235.61 53.8111V65L247.25 51.6505L245.564 42.375Z" fill="#3B5998"/>
</g>
<g clip-path="url(#clip0_455_130)">
<path d="M385.877 22.3466V63.8772H344.347V57.7037H363.428V26.5557L354.729 17.8568H344.347V11.1221H374.653V22.3466H385.877Z" fill="#3B5998"/>
<path d="M385.877 22.3466H374.652V11.1221L385.877 22.3466Z" fill="#3B5998"/>
<path d="M363.428 26.5554V57.7034H344.347H333.122V17.8564H344.347H354.729V26.5554H363.428Z" fill="#3B5998"/>
<path d="M363.428 26.5554H354.729V17.8564L363.428 26.5554Z" fill="#3B5998"/>
<path d="M386.997 22.3469C386.997 22.0549 386.886 21.768 386.671 21.5533L375.447 10.3288C375.232 10.1142 374.945 10.0029 374.653 10.0028V10H344.347C343.727 10 343.224 10.5025 343.224 11.1224V16.7347H333.122C332.503 16.7347 332 17.2373 332 17.8571V57.7041C332 58.3239 332.503 58.8265 333.122 58.8265H343.224V63.8776C343.224 64.4974 343.727 65 344.347 65H385.878C386.497 65 387 64.4974 387 63.8776V22.3469H386.997ZM375.776 13.8324L383.168 21.2245H375.776V13.8324ZM334.245 18.9796H353.607V26.5561C353.607 27.1761 354.11 27.6786 354.73 27.6786H362.306V56.5816H334.245V18.9796ZM355.852 20.5671L360.719 25.4337H355.852V20.5671ZM345.469 62.7551V58.8265H363.429C364.048 58.8265 364.551 58.3239 364.551 57.7041V26.5561C364.551 26.2584 364.433 25.973 364.222 25.7624L355.523 17.0635C355.313 16.853 355.027 16.7347 354.73 16.7347H345.469V12.2449H373.531V22.3469C373.531 22.9668 374.033 23.4694 374.653 23.4694H384.755V62.7551H345.469Z" fill="#D2D2D2"/>
<path d="M381.388 27.959H366.796V30.2039H381.388V27.959Z" fill="#D2D2D2"/>
<path d="M381.388 34.6943H366.796V36.9392H381.388V34.6943Z" fill="#D2D2D2"/>
<path d="M381.388 41.4287H366.796V43.6736H381.388V41.4287Z" fill="#D2D2D2"/>
<path d="M381.388 48.1631H366.796V50.408H381.388V48.1631Z" fill="#D2D2D2"/>
<path d="M381.388 54.8984H366.796V57.1433H381.388V54.8984Z" fill="#D2D2D2"/>
<path d="M344.347 21.7861H337.051V24.031H344.347V21.7861Z" fill="#D2D2D2"/>
<path d="M344.347 26.2754H337.051V28.5203H344.347V26.2754Z" fill="#D2D2D2"/>
<path d="M359.5 33.0098H337.051V35.2547H359.5V33.0098Z" fill="#D2D2D2"/>
<path d="M359.5 38.6221H337.051V40.867H359.5V38.6221Z" fill="#D2D2D2"/>
<path d="M359.5 44.2344H337.051V46.4793H359.5V44.2344Z" fill="#D2D2D2"/>
<path d="M359.5 49.8467H337.051V52.0916H359.5V49.8467Z" fill="#D2D2D2"/>
</g>
<path d="M451.928 5.09233C448.764 4.5434 448.465 9.20943 447.683 11.6796C446.253 18.8158 441.461 24.8541 435.625 27.0498H419.392V54.4967C424.829 54.4967 430.273 54.2222 435.706 54.4967C439.281 55.3201 441.899 58.888 445.557 59.4369C449.644 60.2603 453.807 59.7116 457.927 59.9861C460.928 59.7116 464.592 60.2605 466.718 57.2414C467.629 54.7711 466.821 51.4775 469.561 50.3797C472.022 48.4584 469.035 44.8902 470.259 42.42C471.835 40.4987 472.851 37.4796 471.022 35.2839C468.741 32.8137 471.787 28.9709 469.176 26.5007C467.208 24.3049 464.295 25.1284 461.859 24.8539C459.549 24.8539 457.241 24.854 454.931 24.5795C453.107 22.9327 455.342 19.9136 455.283 17.7178C455.615 14.6987 455.873 11.4049 455.158 8.66022C454.668 7.01341 453.63 5.09233 451.928 5.09233Z" fill="#3B5998"/>
<path d="M419.392 40.7744V54.4978C424.829 54.528 430.25 54.4731 435.682 54.5829C439.257 55.3871 441.887 58.9799 445.548 59.559C449.634 60.2754 453.831 59.8747 457.951 59.9872C460.952 59.9049 464.568 60.4867 466.694 57.3276C467.605 54.8766 466.794 51.6159 469.535 50.551C471.995 48.4705 469.056 45.0342 470.281 42.4898C470.711 41.9958 471.101 41.4167 471.402 40.7744H419.392Z" fill="#3B5998"/>
<path d="M451.755 5.09321C448.472 4.54427 448.171 9.48457 447.408 12.5037C445.76 19.091 441.157 25.1295 435.436 26.7763C430.099 27.0508 424.738 26.7762 419.392 27.0507V54.4976C421.156 55.0465 421.345 53.3997 421.17 51.7529V29.7954C426.635 29.7954 432.136 30.0699 437.58 29.521C443.259 27.3252 447.85 21.5613 449.319 14.6996C449.991 11.9549 450.402 7.56342 453.444 7.83789C456.61 9.21024 452.702 4.2698 451.755 5.09321ZM454.807 24.8548C455.412 28.6974 459.056 27.325 461.395 27.5995C464.13 27.5995 466.969 27.5996 469.609 28.423C469.535 25.6784 466.593 24.8548 464.664 24.8548C461.38 24.5803 458.09 24.8548 454.807 24.8548Z" fill="#BDC3C7"/>
<path d="M419.392 24.3066V25.679V27.0513V40.7748H433.739V25.679C433.739 24.8556 433.204 24.3066 432.544 24.3066H419.392Z" fill="#ECF0F1"/>
<path d="M417 24.3066V25.679V27.0513V40.7748H431.348V25.679C431.348 24.8556 430.812 24.3066 430.152 24.3066H417Z" fill="#3B5998"/>
<path d="M419.392 57.2425V55.8702V54.4978V40.7744H433.739V55.8702C433.739 56.4191 433.204 57.2425 432.544 57.2425H419.392Z" fill="#BDC3C7"/>
<path d="M417 57.2425V55.8702V54.4978V40.7744H431.348V55.8702C431.348 56.4191 430.812 57.2425 430.152 57.2425H417Z" fill="#3B5998"/>
<defs>
<clipPath id="clip0_455_130">
<rect width="55" height="55" fill="white" transform="translate(332 10)"/>
</clipPath>
</defs>
</svg>
