<svg width="85" height="85" viewBox="0 0 85 85" fill="none" xmlns="http://www.w3.org/2000/svg">
<path d="M84.0573 50.5915L78.726 48.0116C78.3826 47.87 78.1621 47.5866 78.1739 47.2708L78.1639 43.0354C78.1672 42.7251 78.3826 42.435 78.726 42.2973L84.0075 39.7311C84.807 39.4003 85.1634 38.6261 84.8151 37.9474L83.2465 34.8575C82.9031 34.1841 81.9745 33.8335 81.1204 34.0616L75.1523 35.2827C74.7908 35.3798 74.3843 35.3029 74.1191 35.0828L70.446 32.0875C70.1708 31.8715 70.0779 31.5437 70.1922 31.2442L71.7178 26.3504C71.993 25.6541 71.5684 24.8999 70.7392 24.6233L66.94 23.3402C66.111 23.0636 65.149 23.3455 64.7446 23.9973L61.5706 28.3379C61.3949 28.616 61.045 28.7913 60.6618 28.7939L55.4597 28.7898C55.0748 28.7926 54.7268 28.6171 54.546 28.3392L51.3936 24.0417C50.9906 23.3873 50.0337 23.1026 49.2012 23.382L45.4055 24.6612C44.573 24.9432 44.1452 25.6974 44.4269 26.3922L45.9295 31.2442C46.0488 31.5384 45.9527 31.873 45.674 32.0902L42.0058 35.0788C41.7273 35.3042 41.326 35.3823 40.9628 35.2838L34.9514 34.0439C34.0908 33.8171 33.1639 34.1612 32.8256 34.8386L31.2502 37.9309C30.9068 38.6056 31.26 39.3856 32.0545 39.712L37.3942 42.2958C37.7341 42.4376 37.9512 42.7235 37.9498 43.0366L37.9514 47.2705C37.9498 47.5783 37.7343 47.8696 37.3977 48.0086L32.1159 50.5777C31.3149 50.9056 30.9584 51.684 31.3035 52.36L32.8772 55.4526C33.222 56.1284 34.1473 56.4699 35.008 56.2513L40.9614 55.0221C41.3311 54.9305 41.7275 55.0032 42.0028 55.2286L45.6826 58.2159C45.9478 58.4438 46.0474 58.7677 45.9297 59.0604L44.4025 63.9582C44.1272 64.6532 44.5532 65.4087 45.3841 65.6853L49.1833 66.9671C50.0125 67.2463 50.9676 66.9603 51.3754 66.3087L54.5511 61.9708C54.7237 61.6901 55.0767 61.5174 55.4648 61.5161L60.662 61.5135C61.0466 61.5121 61.3998 61.6875 61.5689 61.9667L64.7215 66.2642C65.1329 66.9146 66.0912 67.206 66.9153 66.9226L70.7145 65.6476C71.5521 65.3657 71.9748 64.61 71.698 63.9165L70.1973 59.0617C70.073 58.7623 70.1675 58.4397 70.4425 58.2157L74.114 55.2271C74.3927 55.0045 74.7889 54.9276 75.1589 55.0233L81.17 56.266C82.0274 56.49 82.951 56.1445 83.2975 55.4713L84.8696 52.3788C85.2132 51.6993 84.8582 50.9275 84.0573 50.5915ZM68.8292 48.7822C67.6354 51.1191 65.3967 52.9487 62.5228 53.9121C59.6441 54.8808 56.4782 54.8782 53.6027 53.9093C50.7225 52.9404 48.4887 51.1217 47.2963 48.7807C46.1056 46.4464 46.099 43.8612 47.2996 41.5257C48.4836 39.1888 50.7258 37.3618 53.6013 36.3918C56.48 35.4269 59.6441 35.4229 62.5244 36.3918C65.3967 37.3592 67.637 39.1888 68.8278 41.5244C70.0216 43.8627 70.0198 46.4464 68.8292 48.7822Z" fill="url(#paint0_linear_508_458)"/>
<path d="M55.4084 71.7772H5.34966V10.4313H55.4084V20.3754H60.7746V6.10672C60.7748 2.74988 57.3951 0 53.2858 0H7.48899C3.36131 0 0 2.74988 0 6.10672V78.8918C0 82.2503 3.36131 85 7.48899 85H53.2858C57.3951 85 60.7748 82.2503 60.7748 78.8918V69.1946H55.4086V71.7772H55.4084ZM30.3783 79.2522C29.1396 79.2522 28.138 78.4371 28.138 77.428C28.138 76.4201 29.1396 75.5902 30.3783 75.5902C31.6189 75.5902 32.637 76.42 32.637 77.428C32.637 78.4371 31.6189 79.2522 30.3783 79.2522Z" fill="url(#paint1_linear_508_458)"/>
<defs>
<linearGradient id="paint0_linear_508_458" x1="58.0598" y1="23.2344" x2="58.0598" y2="67.0738" gradientUnits="userSpaceOnUse">
<stop stop-color="#0960D5"/>
<stop offset="1" stop-color="#FF007F"/>
</linearGradient>
<linearGradient id="paint1_linear_508_458" x1="30.3874" y1="0" x2="30.3874" y2="85" gradientUnits="userSpaceOnUse">
<stop stop-color="#0960D5"/>
<stop offset="1" stop-color="#FF007F"/>
</linearGradient>
</defs>
</svg>
