<svg width="85" height="85" viewBox="0 0 85 85" fill="none" xmlns="http://www.w3.org/2000/svg">
<path d="M70.4532 55.8564C67.5761 55.8564 64.7636 56.711 62.3713 58.3122C59.9791 59.9133 58.1146 62.189 57.0136 64.8516C55.9126 67.5142 55.6245 70.444 56.1858 73.2706C56.7471 76.0972 58.1325 78.6936 60.167 80.7314C62.2014 82.7693 64.7934 84.1571 67.6152 84.7193C70.437 85.2816 73.362 84.993 76.0201 83.8901C78.6782 82.7872 80.9501 80.9196 82.5485 78.5233C84.147 76.1271 85.0001 73.3098 85.0001 70.4279C84.9851 66.5679 83.4476 62.8704 80.7228 60.1409C77.998 57.4115 74.3066 55.8715 70.4532 55.8564ZM79.8659 66.4279L69.1696 77.1422C68.7851 77.509 68.2745 77.7136 67.7435 77.7136C67.2125 77.7136 66.7018 77.509 66.3173 77.1422L61.0405 71.9993C60.94 71.9095 60.8596 71.7995 60.8045 71.6764C60.7494 71.5533 60.721 71.4199 60.721 71.285C60.721 71.1501 60.7494 71.0168 60.8045 70.8937C60.8596 70.7706 60.94 70.6605 61.0405 70.5707L62.4666 69.1422C62.5563 69.0415 62.6661 68.961 62.789 68.9058C62.9119 68.8506 63.0451 68.8221 63.1797 68.8221C63.3144 68.8221 63.4475 68.8506 63.5704 68.9058C63.6933 68.961 63.8032 69.0415 63.8928 69.1422L67.6008 72.8564L76.8709 63.5707C76.9606 63.4701 77.0705 63.3895 77.1933 63.3344C77.3162 63.2792 77.4494 63.2507 77.584 63.2507C77.7187 63.2507 77.8518 63.2792 77.9747 63.3344C78.0976 63.3895 78.2075 63.4701 78.2971 63.5707L79.7233 64.9993C79.9166 65.1792 80.0377 65.4236 80.064 65.6866C80.0902 65.9496 80.0198 66.2132 79.8659 66.4279Z" fill="#B2005F"/>
<path d="M34.655 14H60.0408C60.3415 14.0038 60.6399 13.9473 60.9185 13.8338C61.1971 13.7203 61.4502 13.5521 61.6628 13.3391C61.8755 13.1261 62.0434 12.8726 62.1568 12.5935C62.2701 12.3145 62.3265 12.0155 62.3226 11.7143V7C62.3189 5.14464 61.5814 3.36636 60.2717 2.05442C58.9619 0.742484 57.1867 0.0037749 55.3344 0H39.2187C37.3665 0.0037749 35.5912 0.742484 34.2814 2.05442C32.9717 3.36636 32.2342 5.14464 32.2305 7V11.7143C32.2767 12.3297 32.5511 12.9055 32.9998 13.3285C33.4485 13.7515 34.0389 13.991 34.655 14Z" fill="#B2005F"/>
<path d="M51.1995 75.8576H15.9731C14.1434 75.8238 12.4002 75.071 11.1195 73.7615C9.8389 72.452 9.12345 70.6907 9.1275 68.8576V20.2861H6.84563C5.01588 20.3199 3.27269 21.0727 1.99205 22.3822C0.711417 23.6917 -0.00403523 25.453 1.7121e-05 27.2861V77.8576C-0.00403523 79.6907 0.711417 81.452 1.99205 82.7615C3.27269 84.071 5.01588 84.8238 6.84563 84.8576H56.619C53.9244 82.4931 52.0305 79.3479 51.1995 75.8576Z" fill="#B2005F"/>
<path d="M21.9628 70.4287H50.6289C50.7407 68.6321 51.0761 66.8564 51.6272 65.143C52.3125 62.8147 53.4249 60.6347 54.9074 58.7144H41.5014C41.2006 58.7183 40.9022 58.6618 40.6236 58.5483C40.345 58.4348 40.092 58.2665 39.8793 58.0535C39.6666 57.8405 39.4987 57.587 39.3854 57.308C39.2721 57.0289 39.2157 56.73 39.2195 56.4287V54.0002C39.2157 53.6989 39.2721 53.4 39.3854 53.1209C39.4987 52.8419 39.6666 52.5884 39.8793 52.3754C40.092 52.1624 40.345 51.9941 40.6236 51.8806C40.9022 51.7671 41.2006 51.7106 41.5014 51.7145H64.6053C64.8905 51.7145 65.0332 51.7145 65.1758 51.8573C66.8476 51.3904 68.5744 51.1501 70.31 51.143C73.5398 51.1365 76.7223 51.9212 79.5801 53.4287V12.8573C79.5763 11.002 78.8389 9.22367 77.5291 7.91174C76.2194 6.5998 74.4441 5.86109 72.5919 5.85731H70.31C70.1569 5.84428 70.0028 5.8649 69.8584 5.91772C69.7141 5.97055 69.583 6.05431 69.4744 6.16315C69.3657 6.27199 69.2821 6.40328 69.2294 6.54786C69.1766 6.69243 69.156 6.8468 69.1691 7.00017V11.7145C69.1805 14.1939 68.212 16.5771 66.4751 18.3437C64.7383 20.1103 62.3741 21.1166 59.899 21.143H34.6557C32.1888 21.091 29.8396 20.0764 28.1082 18.3154C26.3768 16.5544 25.4 14.186 25.3856 11.7145V7.00017C25.3987 6.8468 25.3781 6.69243 25.3253 6.54786C25.2726 6.40328 25.189 6.27199 25.0803 6.16315C24.9717 6.05431 24.8406 5.97055 24.6963 5.91772C24.5519 5.8649 24.3978 5.84428 24.2447 5.85731H21.9628C20.1106 5.86109 18.3353 6.5998 17.0256 7.91174C15.7158 9.22367 14.9784 11.002 14.9746 12.8573V63.2859C14.9957 65.1492 15.7344 66.9324 17.0365 68.2633C18.3386 69.5941 20.1035 70.3699 21.9628 70.4287ZM39.2195 30.4287C39.2157 30.1275 39.2721 29.8286 39.3854 29.5495C39.4987 29.2705 39.6666 29.017 39.8793 28.8039C40.092 28.5909 40.345 28.4227 40.6236 28.3092C40.9022 28.1957 41.2006 28.1392 41.5014 28.143H64.6053C64.906 28.1392 65.2045 28.1957 65.4831 28.3092C65.7616 28.4227 66.0147 28.5909 66.2274 28.8039C66.44 29.017 66.608 29.2705 66.7213 29.5495C66.8346 29.8286 66.891 30.1275 66.8872 30.4287V32.7144C66.891 33.0157 66.8346 33.3146 66.7213 33.5937C66.608 33.8727 66.44 34.1262 66.2274 34.3392C66.0147 34.5523 65.7616 34.7205 65.4831 34.834C65.2045 34.9475 64.906 35.004 64.6053 35.0002H41.644C41.3433 35.004 41.0448 34.9475 40.7662 34.834C40.4877 34.7205 40.2346 34.5523 40.0219 34.3392C39.8093 34.1262 39.6413 33.8727 39.528 33.5937C39.4147 33.3146 39.3583 33.0157 39.3621 32.7144V30.4287H39.2195ZM39.2195 42.143C39.2157 41.8418 39.2721 41.5428 39.3854 41.2638C39.4987 40.9847 39.6666 40.7312 39.8793 40.5182C40.092 40.3052 40.345 40.137 40.6236 40.0235C40.9022 39.91 41.2006 39.8535 41.5014 39.8573H64.6053C64.906 39.8535 65.2045 39.91 65.4831 40.0235C65.7616 40.137 66.0147 40.3052 66.2274 40.5182C66.44 40.7312 66.608 40.9847 66.7213 41.2638C66.8346 41.5428 66.891 41.8418 66.8872 42.143V44.4287C66.891 44.73 66.8346 45.0289 66.7213 45.308C66.608 45.587 66.44 45.8405 66.2274 46.0535C66.0147 46.2665 65.7616 46.4348 65.4831 46.5483C65.2045 46.6618 64.906 46.7183 64.6053 46.7145H41.644C41.3433 46.7183 41.0448 46.6618 40.7662 46.5483C40.4877 46.4348 40.2346 46.2665 40.0219 46.0535C39.8093 45.8405 39.6413 45.587 39.528 45.308C39.4147 45.0289 39.3583 44.73 39.3621 44.4287V42.143H39.2195ZM27.8101 30.4287C27.8063 30.1275 27.8627 29.8286 27.976 29.5495C28.0893 29.2705 28.2573 29.017 28.4699 28.8039C28.6826 28.5909 28.9357 28.4227 29.2143 28.3092C29.4928 28.1957 29.7913 28.1392 30.092 28.143H32.3739C32.6746 28.1392 32.973 28.1957 33.2516 28.3092C33.5302 28.4227 33.7833 28.5909 33.9959 28.8039C34.2086 29.017 34.3765 29.2705 34.4899 29.5495C34.6032 29.8286 34.6596 30.1275 34.6557 30.4287V32.7144C34.6596 33.0157 34.6032 33.3146 34.4899 33.5937C34.3765 33.8727 34.2086 34.1262 33.9959 34.3392C33.7833 34.5523 33.5302 34.7205 33.2516 34.834C32.973 34.9475 32.6746 35.004 32.3739 35.0002H30.092C29.7913 35.004 29.4928 34.9475 29.2143 34.834C28.9357 34.7205 28.6826 34.5523 28.4699 34.3392C28.2573 34.1262 28.0893 33.8727 27.976 33.5937C27.8627 33.3146 27.8063 33.0157 27.8101 32.7144V30.4287ZM27.8101 42.143C27.8063 41.8418 27.8627 41.5428 27.976 41.2638C28.0893 40.9847 28.2573 40.7312 28.4699 40.5182C28.6826 40.3052 28.9357 40.137 29.2143 40.0235C29.4928 39.91 29.7913 39.8535 30.092 39.8573H32.3739C32.6746 39.8535 32.973 39.91 33.2516 40.0235C33.5302 40.137 33.7833 40.3052 33.9959 40.5182C34.2086 40.7312 34.3765 40.9847 34.4899 41.2638C34.6032 41.5428 34.6596 41.8418 34.6557 42.143V44.4287C34.6596 44.73 34.6032 45.0289 34.4899 45.308C34.3765 45.587 34.2086 45.8405 33.9959 46.0535C33.7833 46.2665 33.5302 46.4348 33.2516 46.5483C32.973 46.6618 32.6746 46.7183 32.3739 46.7145H30.092C29.7913 46.7183 29.4928 46.6618 29.2143 46.5483C28.9357 46.4348 28.6826 46.2665 28.4699 46.0535C28.2573 45.8405 28.0893 45.587 27.976 45.308C27.8627 45.0289 27.8063 44.73 27.8101 44.4287V42.143ZM27.8101 54.0002C27.8063 53.6989 27.8627 53.4 27.976 53.1209C28.0893 52.8419 28.2573 52.5884 28.4699 52.3754C28.6826 52.1624 28.9357 51.9941 29.2143 51.8806C29.4928 51.7671 29.7913 51.7106 30.092 51.7145H32.3739C32.6746 51.7106 32.973 51.7671 33.2516 51.8806C33.5302 51.9941 33.7833 52.1624 33.9959 52.3754C34.2086 52.5884 34.3765 52.8419 34.4899 53.1209C34.6032 53.4 34.6596 53.6989 34.6557 54.0002V56.2859C34.6596 56.5871 34.6032 56.8861 34.4899 57.1651C34.3765 57.4442 34.2086 57.6977 33.9959 57.9107C33.7833 58.1237 33.5302 58.2919 33.2516 58.4054C32.973 58.5189 32.6746 58.5754 32.3739 58.5716H30.092C29.7913 58.5754 29.4928 58.5189 29.2143 58.4054C28.9357 58.2919 28.6826 58.1237 28.4699 57.9107C28.2573 57.6977 28.0893 57.4442 27.976 57.1651C27.8627 56.8861 27.8063 56.5871 27.8101 56.2859V54.0002Z" fill="#B2005F"/>
</svg>
