<svg width="90" height="90" viewBox="0 0 90 90" fill="none" xmlns="http://www.w3.org/2000/svg">
<path d="M89.5 45C89.5 69.5767 69.5767 89.5 45 89.5C20.4233 89.5 0.5 69.5767 0.5 45C0.5 20.4233 20.4233 0.5 45 0.5C69.5767 0.5 89.5 20.4233 89.5 45Z" fill="white" stroke="black"/>
<path d="M31.3043 54.8801C25.8562 54.8801 21.4238 50.4478 21.4238 44.9996C21.4238 39.5515 25.8562 35.1191 31.3043 35.1191C36.7525 35.1191 41.1848 39.5515 41.1848 44.9996C41.1848 50.4478 36.7525 54.8801 31.3043 54.8801Z" fill="#0960D5"/>
<path d="M58.6949 54.8801C53.2468 54.8801 48.8145 50.4478 48.8145 44.9996C48.8145 39.5515 53.2468 35.1191 58.6949 35.1191C64.1431 35.1191 68.5754 39.5515 68.5754 44.9996C68.5754 50.4478 64.1431 54.8801 58.6949 54.8801Z" fill="#FF007F"/>
</svg>
