<svg width="90" height="90" viewBox="0 0 90 90" fill="none" xmlns="http://www.w3.org/2000/svg">
<path d="M45 90C69.8528 90 90 69.8528 90 45C90 20.1472 69.8528 0 45 0C20.1472 0 0 20.1472 0 45C0 69.8528 20.1472 90 45 90Z" fill="#CD2900"/>
<path d="M45.0005 0C43.0112 0 41.0523 0.130781 39.131 0.380918C61.2104 3.25723 78.2613 22.1367 78.2613 45C78.2613 67.8633 61.2102 86.7428 39.1309 89.6191C41.0523 89.8692 43.0112 90 45.0005 90C69.8534 90 90.0005 69.8527 90.0005 45C90.0005 20.1473 69.8534 0 45.0005 0Z" fill="#AC2201"/>
<path d="M35.1191 50.9094V35.0615H50.9671V50.0142C50.9671 50.5087 50.5663 50.9093 50.072 50.9093L35.1191 50.9094Z" fill="#C0AB91"/>
<path d="M28.2715 35.2581V19.4102H69.6372C70.1317 19.4102 70.5323 19.8109 70.5323 20.3052V34.3628C70.5323 34.8573 70.1315 35.2579 69.6372 35.2579H28.2715V35.2581Z" fill="#D9CBBD"/>
<path d="M19.4668 69.5801V20.3052C19.4668 19.8108 19.8676 19.4102 20.3619 19.4102H35.3145V69.5802C35.3145 70.0747 34.9137 70.4753 34.4195 70.4753H20.3619C19.8674 70.4753 19.4668 70.0744 19.4668 69.5801Z" fill="white"/>
</svg>
