<svg width="85" height="85" viewBox="0 0 85 85" fill="none" xmlns="http://www.w3.org/2000/svg">
<path d="M37.3175 0.00382981L23.381 42.6532L40.374 42.7949L27.0998 84.9923V85L63.7348 28.6742H45.9485L63.2071 0H49.6638L37.3175 0.00382981ZM24.447 15.3463C23.9003 15.3466 23.3758 15.5806 22.9879 15.9973L0.547822 39.7616C0.193593 40.2287 0 40.814 0 41.4181C0 42.0221 0.193593 42.6074 0.547822 43.0745L23.3845 67.5703C23.7883 67.953 24.3068 68.164 24.8437 68.164C25.3806 68.164 25.8992 67.953 26.3029 67.5703C26.6877 67.119 26.9013 66.5277 26.9013 65.9139C26.9013 65.3001 26.6877 64.7087 26.3029 64.2575L7.05034 43.0783C6.66781 42.6258 6.45569 42.035 6.45569 41.4219C6.45569 40.8088 6.66781 40.218 7.05034 39.7655L25.9062 19.2987C26.1249 19.0923 26.3002 18.8378 26.4203 18.552C26.5404 18.2663 26.6026 17.9561 26.6026 17.6423C26.6026 17.3284 26.5404 17.0182 26.4203 16.7325C26.3002 16.4468 26.1249 16.1922 25.9062 15.9859C25.5175 15.5709 24.9932 15.3383 24.447 15.3386V15.3463ZM60.5473 15.3463C60.0006 15.3466 59.4761 15.5806 59.0882 15.9973C58.869 16.203 58.6933 16.4571 58.5729 16.7426C58.4525 17.028 58.3901 17.3381 58.3901 17.6518C58.3901 17.9656 58.4525 18.2757 58.5729 18.5611C58.6933 18.8466 58.869 19.1007 59.0882 19.3063L78.3372 39.7693C78.7214 40.2216 78.9347 40.8134 78.9347 41.4276C78.9347 42.0418 78.7214 42.6337 78.3372 43.086L58.688 64.2651C58.3047 64.7172 58.0921 65.3082 58.0921 65.9215C58.0921 66.5348 58.3047 67.1259 58.688 67.5779C59.0917 67.9607 59.6102 68.1717 60.1471 68.1717C60.684 68.1717 61.2026 67.9607 61.6063 67.5779L84.4501 43.0821C84.8056 42.6157 85 42.0301 85 41.4257C85 40.8213 84.8056 40.2357 84.4501 39.7693L62.0065 15.9935C61.618 15.5782 61.0936 15.3456 60.5473 15.3463Z" fill="url(#paint0_linear_504_212)"/>
<defs>
<linearGradient id="paint0_linear_504_212" x1="42.5" y1="0" x2="42.5" y2="85" gradientUnits="userSpaceOnUse">
<stop stop-color="#36C5F0"/>
<stop offset="0.28125" stop-color="#2EB67D"/>
<stop offset="0.630208" stop-color="#ECB22E"/>
<stop offset="1" stop-color="#E01E5A"/>
</linearGradient>
</defs>
</svg>
