<svg width="90" height="90" viewBox="0 0 90 90" fill="none" xmlns="http://www.w3.org/2000/svg">
<path fill-rule="evenodd" clip-rule="evenodd" d="M18.8372 45.0004C18.8372 42.0775 19.3333 39.2752 20.2186 36.6468L4.72186 25.0654C1.70163 31.0668 0 37.8291 0 45.0004C0 52.1657 1.69953 58.9238 4.71558 64.9211L20.204 53.3172C19.327 50.7011 18.8372 47.9091 18.8372 45.0004Z" fill="#FBBC05"/>
<path fill-rule="evenodd" clip-rule="evenodd" d="M46.0473 18.4091C52.5357 18.4091 58.3961 20.6591 63.0008 24.3409L76.3961 11.25C68.2334 4.29545 57.7682 0 46.0473 0C27.8506 0 12.2115 10.1843 4.72266 25.065L20.2194 36.6464C23.7901 26.0386 33.9685 18.4091 46.0473 18.4091Z" fill="#EB4335"/>
<path fill-rule="evenodd" clip-rule="evenodd" d="M46.0473 71.5918C33.9685 71.5918 23.7901 63.9622 20.2194 53.3545L4.72266 64.9338C12.2115 79.8165 27.8506 90.0009 46.0473 90.0009C57.2785 90.0009 68.001 86.0981 76.0487 78.7856L61.3389 67.6563C57.1885 70.2152 51.9622 71.5918 46.0473 71.5918Z" fill="#34A853"/>
<path fill-rule="evenodd" clip-rule="evenodd" d="M90.0004 45.0002C90.0004 42.3411 89.5818 39.4775 88.9539 36.8184H46.0469V54.2047H70.7445C69.5097 60.1324 66.1483 64.6897 61.3385 67.6556L76.0483 78.785C84.502 71.1063 90.0004 59.6681 90.0004 45.0002Z" fill="#4285F4"/>
</svg>
