<svg width="90" height="90" viewBox="0 0 90 90" fill="none" xmlns="http://www.w3.org/2000/svg">
<path d="M39.0059 53.666L53.7363 45.0176L39.0059 36.3691V53.666Z" fill="#C4302B"/>
<path d="M45 0C20.1445 0 0 20.1445 0 45C0 69.8555 20.1445 90 45 90C69.8555 90 90 69.8555 90 45C90 20.1445 69.8555 0 45 0ZM67.5 53.0508C67.5 60.8027 59.748 60.8027 59.748 60.8027H30.252C22.5 60.8027 22.5 53.0508 22.5 53.0508V36.9668C22.5 29.2148 30.252 29.2148 30.252 29.2148H59.748C67.5 29.2148 67.5 36.9668 67.5 36.9668V53.0508Z" fill="#C4302B"/>
</svg>
