<svg width="91" height="91" viewBox="0 0 91 91" fill="none" xmlns="http://www.w3.org/2000/svg">
<path d="M48.5371 31.333H78.8943" stroke="#41A1F2" stroke-width="5" stroke-linecap="round" stroke-linejoin="round"/>
<path d="M48.5371 45.5H78.8943" stroke="#41A1F2" stroke-width="5" stroke-linecap="round" stroke-linejoin="round"/>
<path d="M48.5371 59.667H78.8943" stroke="#41A1F2" stroke-width="5" stroke-linecap="round" stroke-linejoin="round"/>
<path d="M88 3H3V88H88V3Z" stroke="#41A1F2" stroke-width="5" stroke-linecap="round" stroke-linejoin="round"/>
<path d="M29.6234 37.3309C26.6484 41.9587 21.852 41.9587 18.877 37.3309L29.6234 20.6143C32.568 25.242 32.568 32.7031 29.6234 37.3309Z" fill="#41A1F2"/>
<path d="M24.128 17.167H24.3709C28.4994 17.167 31.8387 22.3614 31.8387 28.7837V29.1614C31.8387 35.5837 28.4994 40.7781 24.3709 40.7781H24.128C19.9994 40.7781 16.6602 35.5837 16.6602 29.1614V28.7837C16.6602 22.3614 19.9994 17.167 24.128 17.167Z" fill="#41A1F2"/>
<path d="M12.1074 69.1106V61.555C12.1074 55.2745 15.3556 50.2217 19.3931 50.2217H29.1074C33.1449 50.2217 36.3931 55.2745 36.3931 61.555V69.1106" stroke="#41A1F2" stroke-width="5" stroke-linecap="round" stroke-linejoin="round"/>
<path d="M24.2492 59.667C27.5884 59.667 30.3206 63.917 30.3206 69.1114V73.8337H18.1777V69.1114C18.1777 63.917 20.9099 59.667 24.2492 59.667Z" fill="#41A1F2"/>
</svg>
