<svg width="85" height="85" viewBox="0 0 85 85" fill="none" xmlns="http://www.w3.org/2000/svg">
<path d="M67.7326 0C66.6759 1.79449e-08 65.6625 0.478392 64.9153 1.32993C64.1681 2.18148 63.7483 3.33642 63.7483 4.54068C63.7483 5.74495 64.1681 6.89989 64.9153 7.75143C65.6625 8.60297 66.6759 9.08136 67.7326 9.08136H71.3983L60.9326 21.0082C60.2288 21.869 59.8457 23.0075 59.8639 24.1838C59.8821 25.3602 60.3003 26.4825 61.0303 27.3145C61.7603 28.1464 62.7451 28.6229 63.7774 28.6437C64.8096 28.6644 65.8086 28.2278 66.5639 27.4257L77.0295 15.4989V19.6763C77.0295 20.8806 77.4493 22.0355 78.1965 22.887C78.9437 23.7386 79.9572 24.217 81.0139 24.217C82.0706 24.217 83.0841 23.7386 83.8313 22.887C84.5785 22.0355 84.9983 20.8806 84.9983 19.6763V4.54068C84.9983 3.33642 84.5785 2.18148 83.8313 1.32993C83.0841 0.478392 82.0706 0 81.0139 0H67.7326Z" fill="black"/>
<path fill-rule="evenodd" clip-rule="evenodd" d="M6.64062 6.05469C2.975 6.05469 0 9.44506 0 13.6225V65.0835C0 69.261 2.975 72.6513 6.64062 72.6513H26.5625C31.3225 72.6513 34.3984 73.8925 36.1728 75.3636C37.8569 76.7561 38.5156 78.4513 38.5156 80.2191C38.4877 80.8352 38.5701 81.4512 38.7577 82.0298C38.9453 82.6084 39.2343 83.1374 39.607 83.5847C39.9797 84.032 40.4284 84.3882 40.9258 84.6315C41.4231 84.8749 41.9587 85.0004 42.5 85.0004C43.0413 85.0004 43.5769 84.8749 44.0742 84.6315C44.5716 84.3882 45.0203 84.032 45.393 83.5847C45.7657 83.1374 46.0547 82.6084 46.2423 82.0298C46.4299 81.4512 46.5123 80.8352 46.4844 80.2191C46.4844 78.4513 47.1431 76.7561 48.8272 75.3636C50.6016 73.8925 53.6775 72.6513 58.4375 72.6513H78.3594C82.025 72.6513 85 69.261 85 65.0835V37.8395C85 36.6352 84.5802 35.4803 83.833 34.6287C83.0858 33.7772 82.0723 33.2988 81.0156 33.2988C79.9589 33.2988 78.9455 33.7772 78.1982 34.6287C77.451 35.4803 77.0312 36.6352 77.0312 37.8395V63.57H58.4375C53.7731 63.57 49.725 64.5266 46.4844 66.3973V26.742C46.4844 21.9713 48.4819 18.145 52.4344 16.3166C53.3751 15.8363 54.1158 14.9593 54.501 13.8697C54.8863 12.7801 54.8859 11.5627 54.5001 10.4734C54.1143 9.38406 53.3731 8.5075 52.4322 8.02786C51.4912 7.54822 50.4238 7.50284 49.4541 7.90123C46.7532 9.10822 44.3607 11.0668 42.4947 13.5983C42.118 13.0778 41.7172 12.5807 41.2941 12.1089C37.7506 8.19789 32.6931 6.05469 26.5625 6.05469H6.64062ZM38.5156 26.742C38.5156 23.394 37.5222 20.597 35.7425 18.6293C33.9681 16.6678 31.0569 15.136 26.5625 15.136H7.96875V63.57H26.5625C31.2269 63.57 35.275 64.5266 38.5156 66.3973V26.742Z" fill="black"/>
</svg>
