<svg width="85" height="85" viewBox="0 0 85 85" fill="none" xmlns="http://www.w3.org/2000/svg">
<path d="M69.5133 64.6987C73.8739 68.0589 76.3646 74.0455 76.0525 80.0322C75.8432 83.6821 75.7403 83.8316 72.4192 84.4158C70.3436 84.8551 57.2653 85 43.7752 85C28.5183 85 12.5375 84.5607 11.395 84.1214C6.82861 82.5137 9.31939 70.8302 15.3404 65.2829C20.0098 61.0488 29.5578 54.6228 32.1549 53.8891C35.6852 52.8656 36.1003 49.7999 32.1549 39.8689C31.2217 37.677 30.1822 30.9613 30.0792 23.9512C29.9763 12.5575 31.5339 4.81829 38.5911 1.02348C40.0457 0.294424 41.497 0 42.8453 0C47.5147 0 51.8753 3.64993 53.6387 9.05707C56.2325 16.2121 55.1963 35.345 52.4963 42.2102C49.3811 49.9494 49.6933 52.4357 53.1206 53.7489C55.4055 54.6275 62.4628 59.3009 69.52 64.7034L69.5133 64.6987ZM13.0556 60.3197C11.395 61.9274 9.83747 63.9696 8.59208 66.0166C4.64668 66.0166 1.63782 65.8717 1.32564 65.7222C-1.2681 64.8436 0.183198 58.1279 3.61052 55.207C6.20425 52.8703 11.498 49.2204 12.9526 48.7811C14.8224 48.1969 15.2375 46.5892 12.9526 41.0419C12.4345 39.8735 11.8102 36.0741 11.8102 32.1344C11.7072 25.7084 12.6404 21.3248 16.5858 19.4274C19.9069 17.6748 23.6431 19.8667 24.9914 23.811C26.3397 27.9003 25.6158 38.4154 24.1611 42.2149C22.5006 46.7435 22.8128 47.9118 24.6792 48.6409C25.0944 48.7857 25.9246 49.3699 27.0671 50.1036C22.5006 52.7348 16.2737 57.5531 13.0556 60.3291V60.3197ZM81.3462 54.7677C83.837 56.6651 85.1853 59.8804 84.9794 63.2406C84.8765 65.2875 84.8765 65.4324 83.0067 65.7222C82.4886 65.8671 80.1008 66.0166 76.9857 66.0166C75.6373 63.535 73.7676 61.1983 71.486 59.5907C67.2318 56.0856 62.041 52.2861 58.2018 49.9494C59.2413 49.3652 60.1745 48.9259 60.5897 48.7811C62.5624 48.1969 62.8746 46.5892 60.5897 41.0419C60.1745 39.8735 59.4472 36.0741 59.4472 32.1344C59.3443 25.7084 60.1745 21.3248 64.1166 19.4274C67.5406 17.6748 71.2768 19.8667 72.5222 23.811C73.8705 27.9003 73.3525 38.4154 71.8978 42.2149C70.2373 46.7435 70.4432 47.9118 72.21 48.6409C73.4554 49.225 77.4008 51.8562 81.3429 54.7771L81.3462 54.7677Z" fill="#E51937"/>
</svg>
