<svg width="85" height="85" viewBox="0 0 85 85" fill="none" xmlns="http://www.w3.org/2000/svg">
<path d="M42.5 17.8608C46.0339 17.8608 49.2733 18.865 52.2183 20.8734C55.1632 22.8819 57.5036 25.6076 59.2396 29.0506C60.9756 32.4937 61.8435 36.2236 61.8435 40.2405C61.8435 43.038 61.3786 45.7637 60.4486 48.4177L71.7943 61.5443C77.8082 55.7342 82.2101 48.6329 85 40.2405C82.7681 33.7131 79.5441 27.903 75.3282 22.8101C71.1123 17.7173 66.2144 13.7722 60.6346 10.9747C54.8687 8.10549 48.8239 6.67089 42.5 6.67089C37.1681 6.67089 32.0222 7.71097 27.0624 9.79114L35.4322 19.4747C37.7881 18.3987 40.1441 17.8608 42.5 17.8608ZM3.81291 5.70253L12.6477 15.8165L14.4147 17.9684C11.1907 20.8376 8.3543 24.173 5.90536 27.9747C3.45642 31.7764 1.48796 35.865 0 40.2405C2.23195 46.7679 5.47137 52.5781 9.71827 57.6709C13.9652 62.7637 18.8476 66.7089 24.3654 69.5063C30.1313 72.3755 36.1761 73.8101 42.5 73.8101C48.3899 73.8101 54.0627 72.5549 59.5186 70.0443L72.4453 85L77.3742 79.2975L8.74179 0L3.81291 5.70253ZM25.2024 30.4494L31.2473 37.3354C30.9993 38.4114 30.8753 39.3797 30.8753 40.2405C30.8753 42.6793 31.4023 44.9209 32.4562 46.9652C33.5102 49.0095 34.9207 50.6414 36.6876 51.8608C38.4546 53.0802 40.392 53.6899 42.5 53.6899C43.368 53.6899 44.205 53.5823 45.0109 53.3671L51.0558 60.2532C48.2659 61.8312 45.4139 62.6203 42.5 62.6203C39.0281 62.6203 35.8042 61.616 32.8282 59.6076C29.8523 57.5992 27.4964 54.8734 25.7604 51.4304C24.0244 47.9873 23.1565 44.2574 23.1565 40.2405C23.1565 36.8692 23.8384 33.6055 25.2024 30.4494ZM41.942 26.8987L54.1247 40.9937V40.3481C54.1247 37.9093 53.6132 35.6498 52.5903 33.5696C51.5673 31.4895 50.1723 29.8576 48.4054 28.6741C46.6384 27.4905 44.7009 26.8987 42.593 26.8987H41.942Z" fill="url(#paint0_linear_515_579)"/>
<defs>
<linearGradient id="paint0_linear_515_579" x1="42.5" y1="0" x2="42.5" y2="85" gradientUnits="userSpaceOnUse">
<stop stop-color="#0077B5"/>
<stop offset="1" stop-color="#4C4199"/>
<stop offset="1" stop-color="#4C4199"/>
</linearGradient>
</defs>
</svg>
