<svg width="90" height="90" viewBox="0 0 90 90" fill="none" xmlns="http://www.w3.org/2000/svg">
<path d="M1.56148 0C0.622735 0 -0.0766358 0.674126 0.0067461 1.49784L7.92025 79.7171C8.00363 80.541 8.81152 81.3962 9.71635 81.6175L43.2973 89.834C44.2019 90.0553 45.6819 90.0553 46.5867 89.8345L80.2698 81.6045C81.1744 81.3834 81.9833 80.5284 82.0665 79.7047L89.9932 1.49784C90.0771 0.674126 89.377 0 88.4382 0H1.56148ZM73.1403 17.9393C73.0654 18.6741 72.9362 19.9497 72.8528 20.7736L72.6443 22.8259C72.5604 23.6494 72.4409 24.8273 72.3778 25.4431C72.315 26.059 72.2554 26.563 72.2444 26.563C72.2338 26.563 71.4569 26.563 70.5183 26.563H46.7066C45.7678 26.563 44.9921 26.563 44.9819 26.563C44.9717 26.563 44.1952 26.563 43.2564 26.563H30.7156C29.7769 26.563 29.0775 27.2371 29.1609 28.0609L29.8924 35.2662C29.9758 36.0897 30.8124 36.764 31.7509 36.764H43.2566C44.1954 36.764 44.9717 36.764 44.9821 36.764C44.9925 36.764 45.7682 36.764 46.7068 36.764H66.4835C67.4222 36.764 68.8748 36.764 69.7114 36.764C70.5474 36.764 71.17 37.3654 71.0942 38.1001C71.018 38.8349 70.8879 40.1109 70.8048 40.9344L68.4527 64.1641C68.3687 64.988 68.2626 66.0404 68.2169 66.5031C68.1702 66.9654 67.3923 67.5245 66.4876 67.7457L46.6448 72.5941C45.7401 72.8149 44.9887 72.9977 44.9745 73.0005C44.9606 73.0031 44.2093 72.8242 43.3043 72.6032L23.4403 67.746C22.5356 67.5249 21.7273 66.6699 21.6441 65.846L20.3655 53.1993C20.2821 52.3754 20.9823 51.7013 21.921 51.7013H23.7339C24.6726 51.7013 26.2086 51.7013 27.1472 51.7013H29.8505C30.7892 51.7013 31.625 52.3754 31.709 53.1993L32.2105 58.1501C32.2939 58.9739 33.1032 59.8242 34.0096 60.0399L43.3011 62.2511C44.2069 62.4667 44.9518 62.6432 44.956 62.6432C44.9602 62.6432 45.7046 62.4664 46.6108 62.2507L55.9191 60.0343C56.8249 59.8186 57.635 58.968 57.719 58.1444L58.7283 48.2256C58.8123 47.4017 58.113 46.7275 57.1742 46.7275H46.7068C45.768 46.7275 44.9923 46.7275 44.9821 46.7275C44.9719 46.7275 44.1954 46.7275 43.2566 46.7275H21.4149C20.4762 46.7275 19.6404 46.0532 19.557 45.2297L17.0803 20.7738C16.9969 19.9499 16.8676 18.6746 16.7928 17.9395C16.7188 17.2047 17.4256 16.6034 18.3643 16.6034H43.2566C44.1954 16.6034 44.9717 16.6034 44.9821 16.6034C44.9925 16.6034 45.7682 16.6034 46.7068 16.6034H71.569C72.5075 16.603 73.2147 17.2042 73.1403 17.9393Z" fill="#DD512A"/>
</svg>
