<svg width="85" height="85" viewBox="0 0 85 85" fill="none" xmlns="http://www.w3.org/2000/svg">
<path d="M19.6698 38.4239C18.8472 43.1131 19.484 47.9419 21.494 52.2577C23.504 56.5734 26.7904 60.1682 30.9091 62.5561V73.4091C30.9091 76.4832 32.1303 79.4314 34.304 81.6051C36.4777 83.7788 39.4259 85 42.5 85C45.5741 85 48.5223 83.7788 50.696 81.6051C52.8697 79.4314 54.0909 76.4832 54.0909 73.4091V62.5561C57.4643 60.607 60.2921 57.839 62.3129 54.508C64.3338 51.177 65.4825 47.3904 65.6529 43.4981C65.8233 39.6058 65.01 35.7333 63.2881 32.2384C61.5662 28.7435 58.9912 25.739 55.801 23.5024C52.6109 21.2658 48.9085 19.8694 45.036 19.442C41.1634 19.0147 37.2456 19.5703 33.6446 21.0574C30.0435 22.5446 26.8753 24.9154 24.4328 27.9507C21.9903 30.986 20.3521 34.588 19.6698 38.4239ZM42.5309 27.0455C46.0731 27.0408 49.5063 28.2704 52.2402 30.5227C54.296 32.1951 55.8872 34.3681 56.861 36.8329C57.8347 39.2977 58.1583 41.9715 57.8005 44.5974C57.4428 47.2233 56.4158 49.7131 54.8183 51.8276C53.2207 53.9421 51.1062 55.6103 48.678 56.6718C47.9893 56.9724 47.4031 57.4673 46.9914 58.0959C46.5797 58.7245 46.3602 59.4595 46.3598 60.2109V73.4091C46.3598 74.4338 45.9527 75.4165 45.2281 76.1411C44.5036 76.8657 43.5208 77.2727 42.4961 77.2727C41.4714 77.2727 40.4887 76.8657 39.7641 76.1411C39.0396 75.4165 38.6325 74.4338 38.6325 73.4091V60.1877C38.6321 59.4363 38.4126 58.7013 38.0009 58.0727C37.5891 57.4441 37.003 56.9492 36.3143 56.6486C33.3249 55.3466 30.8239 53.1324 29.1691 50.3229C27.5143 47.5133 26.7905 44.2523 27.1013 41.0065C27.4122 37.7607 28.7416 34.6963 30.8995 32.2518C33.0575 29.8074 35.9332 28.1081 39.1155 27.397C40.2388 27.1625 41.3834 27.0447 42.5309 27.0455ZM42.5 11.5909C41.4753 11.5909 40.4926 11.1838 39.768 10.4593C39.0434 9.7347 38.6364 8.75197 38.6364 7.72727V3.86364C38.6364 2.83894 39.0434 1.85621 39.768 1.13163C40.4926 0.40706 41.4753 0 42.5 0C43.5247 0 44.5074 0.40706 45.232 1.13163C45.9566 1.85621 46.3636 2.83894 46.3636 3.86364V7.72727C46.3636 8.75197 45.9566 9.7347 45.232 10.4593C44.5074 11.1838 43.5247 11.5909 42.5 11.5909ZM72.5514 17.9118L69.8198 20.6434C69.0911 21.3472 68.1151 21.7366 67.1021 21.7278C66.0891 21.719 65.12 21.3127 64.4037 20.5963C63.6873 19.88 63.281 18.9109 63.2722 17.8979C63.2634 16.8849 63.6528 15.9089 64.3566 15.1802L67.0882 12.4486C67.8169 11.7448 68.7928 11.3554 69.8059 11.3642C70.8189 11.373 71.7879 11.7794 72.5043 12.4957C73.2206 13.2121 73.627 14.1811 73.6358 15.1941C73.6446 16.2072 73.2552 17.1831 72.5514 17.9118ZM15.1802 73.6834C14.4162 73.6832 13.6694 73.4566 13.0341 73.032C12.3989 72.6074 11.9038 72.0041 11.6115 71.2982C11.3191 70.5923 11.2426 69.8156 11.3916 69.0662C11.5406 68.3169 11.9085 67.6285 12.4486 67.0882L15.1764 64.3566C15.5351 63.9976 15.961 63.7128 16.4298 63.5184C16.8986 63.3241 17.401 63.2239 17.9085 63.2238C18.416 63.2236 18.9186 63.3234 19.3875 63.5174C19.8564 63.7114 20.2825 63.9959 20.6415 64.3547C21.0004 64.7134 21.2853 65.1393 21.4796 65.6081C21.674 66.0769 21.7741 66.5793 21.7743 67.0868C21.7745 67.5943 21.6747 68.0968 21.4807 68.5658C21.2866 69.0347 21.0021 69.4608 20.6434 69.8198L17.9157 72.5514C17.5565 72.9106 17.1301 73.1955 16.6607 73.3898C16.1913 73.584 15.6882 73.6838 15.1802 73.6834ZM85 42.5C85 43.5247 84.5929 44.5074 83.8684 45.232C83.1438 45.9566 82.1611 46.3636 81.1364 46.3636H77.2727C76.248 46.3636 75.2653 45.9566 74.5407 45.232C73.8161 44.5074 73.4091 43.5247 73.4091 42.5C73.4091 41.4753 73.8161 40.4926 74.5407 39.768C75.2653 39.0434 76.248 38.6364 77.2727 38.6364H81.1364C82.1611 38.6364 83.1438 39.0434 83.8684 39.768C84.5929 40.4926 85 41.4753 85 42.5ZM11.5909 42.5C11.5909 43.5247 11.1838 44.5074 10.4593 45.232C9.7347 45.9566 8.75197 46.3636 7.72727 46.3636H3.86364C2.83894 46.3636 1.85621 45.9566 1.13163 45.232C0.40706 44.5074 0 43.5247 0 42.5C0 41.4753 0.40706 40.4926 1.13163 39.768C1.85621 39.0434 2.83894 38.6364 3.86364 38.6364H7.72727C8.75197 38.6364 9.7347 39.0434 10.4593 39.768C11.1838 40.4926 11.5909 41.4753 11.5909 42.5ZM72.5514 67.0882C72.9204 67.4446 73.2147 67.8709 73.4172 68.3423C73.6197 68.8137 73.7263 69.3207 73.7307 69.8337C73.7352 70.3467 73.6374 70.8554 73.4432 71.3303C73.2489 71.8051 72.962 72.2365 72.5993 72.5993C72.2365 72.962 71.8051 73.2489 71.3303 73.4432C70.8554 73.6374 70.3467 73.7352 69.8337 73.7307C69.3207 73.7263 68.8137 73.6197 68.3423 73.4172C67.8709 73.2147 67.4446 72.9204 67.0882 72.5514L64.3566 69.8198C63.6528 69.0911 63.2634 68.1151 63.2722 67.1021C63.281 66.0891 63.6873 65.12 64.4037 64.4037C65.12 63.6873 66.0891 63.281 67.1021 63.2722C68.1151 63.2634 69.0911 63.6528 69.8198 64.3566L72.5514 67.0882ZM20.6434 15.1802C21.3679 15.9052 21.7747 16.8883 21.7743 17.9132C21.7739 18.9381 21.3665 19.9209 20.6415 20.6453C19.9165 21.3698 18.9334 21.7766 17.9085 21.7762C16.8836 21.7759 15.9008 21.3684 15.1764 20.6434L12.4486 17.9118C11.7242 17.1868 11.3174 16.2038 11.3177 15.1789C11.3181 14.154 11.7256 13.1712 12.4506 12.4467C13.1755 11.7222 14.1586 11.3154 15.1835 11.3158C16.2084 11.3162 17.1912 11.7237 17.9157 12.4486L20.6434 15.1802Z" fill="black"/>
</svg>
