<svg width="85" height="85" viewBox="0 0 85 85" fill="none" xmlns="http://www.w3.org/2000/svg">
<path d="M4.04708 0L2.792 3.08641L17.8305 8.99527L19.0705 5.90885L4.04708 0ZM80.9604 0.00184598L65.9295 5.90885L67.1695 8.99527L82.2005 3.08826L80.9604 0.00184598ZM42.5 0.252894C37.0513 0.252894 33.1057 2.85198 30.3437 6.58262C27.5818 10.3151 26.1538 15.205 26.1538 19.2661C26.1538 21.6658 27.4691 24.3978 28.8782 26.4652C30.2874 28.5327 31.6777 29.8987 31.6777 29.8987L31.9595 30.1756L33.7069 35.3258H37.2392L30.9825 13.7412L42.5 17.5124L54.0175 13.7412L47.7608 35.3258H51.2931L53.0405 30.1756L53.3223 29.8987C53.3223 29.8987 54.7126 28.5327 56.1218 26.4652C57.5309 24.3978 58.8462 21.6658 58.8462 19.2661C58.8462 15.205 57.4182 10.3151 54.6563 6.58262C51.8943 2.85198 47.9487 0.252894 42.5 0.252894ZM66.5495 17.6047V20.9274H84.5866V17.6047H66.5495ZM0.413351 17.6232V20.9459H18.4505V17.6232H0.413351ZM35.9803 18.8784L40.7714 35.3258H44.2286L49.0197 18.8784L42.5 21.0197L35.9803 18.8784ZM67.1695 29.5295L65.9295 32.6307L80.9604 38.5377L82.2005 35.4365L67.1695 29.5295ZM17.8305 29.548L2.792 35.455L4.04708 38.5561L19.0705 32.6491L17.8305 29.548ZM35.1724 38.6484V41.2328H49.8276V38.6484H35.1724ZM35.1724 44.5555V47.1398H49.8276V44.5555H35.1724ZM26.3605 45.0354C21.2688 45.1277 16.4777 45.9584 13.7909 47.0844L0 85C13.3588 82.3972 27.0369 80.2006 40.809 84.8339V50.4625H31.7904V45.2385C30.3061 45.1092 28.7843 45.0354 27.3 45.0354H26.3605ZM57.7 45.0354C56.2157 45.0354 54.6939 45.1092 53.2095 45.2385V50.4625H44.191V84.8339C57.9631 80.2006 71.6412 82.3972 85 85L71.2091 47.0844C68.5223 45.9584 63.7312 45.1277 58.6395 45.0354H57.7Z" fill="#B2005F"/>
</svg>
