<svg width="90" height="90" viewBox="0 0 90 90" fill="none" xmlns="http://www.w3.org/2000/svg">
<path d="M45 90C69.8528 90 90 69.8528 90 45C90 20.1472 69.8528 0 45 0C20.1472 0 0 20.1472 0 45C0 69.8528 20.1472 90 45 90Z" fill="url(#paint0_linear_462_168)"/>
<path d="M45 22.865C52.2092 22.865 53.0633 22.8924 55.9103 23.0222C58.5428 23.1424 59.9724 23.5822 60.9239 23.9519C62.1841 24.4417 63.0835 25.0268 64.0283 25.9715C64.9733 26.9165 65.5582 27.8159 66.0481 29.0761C66.4177 30.0276 66.8576 31.4572 66.9778 34.0895C67.1076 36.9367 67.135 37.7906 67.135 44.9998C67.135 52.2092 67.1076 53.0631 66.9778 55.9103C66.8576 58.5428 66.4177 59.9722 66.0481 60.9237C65.5582 62.1839 64.9733 63.0835 64.0285 64.0283C63.0835 64.973 62.1841 65.558 60.9239 66.0478C59.9724 66.4177 58.5428 66.8574 55.9103 66.9775C53.0638 67.1074 52.2099 67.135 45 67.135C37.7901 67.135 36.9364 67.1074 34.0897 66.9775C31.4572 66.8574 30.0276 66.4177 29.0761 66.0478C27.8159 65.558 26.9165 64.973 25.9718 64.0283C25.027 63.0835 24.4417 62.1839 23.9519 60.9237C23.5822 59.9722 23.1424 58.5428 23.0222 55.9103C22.8924 53.0631 22.865 52.2092 22.865 44.9998C22.865 37.7906 22.8924 36.9367 23.0222 34.0895C23.1424 31.4572 23.5822 30.0276 23.9519 29.0761C24.4417 27.8159 25.0268 26.9165 25.9718 25.9718C26.9165 25.0268 27.8159 24.4417 29.0761 23.9519C30.0276 23.5822 31.4572 23.1424 34.0897 23.0222C36.9367 22.8924 37.7908 22.865 45 22.865ZM45 18C37.6672 18 36.7477 18.031 33.8679 18.1624C30.9942 18.2936 29.0313 18.7499 27.3139 19.4175C25.5384 20.1074 24.0327 21.0305 22.5317 22.5317C21.0305 24.0327 20.1074 25.5384 19.4175 27.3139C18.7499 29.0313 18.2936 30.994 18.1624 33.8679C18.031 36.7477 18 37.6673 18 44.9998C18 52.3328 18.031 53.2521 18.1624 56.1319C18.2936 59.0058 18.7499 60.9685 19.4175 62.6859C20.1074 64.4614 21.0305 65.9671 22.5317 67.4683C24.0327 68.9693 25.5384 69.8924 27.3139 70.5823C29.0313 71.2499 30.9942 71.7062 33.8679 71.8373C36.7477 71.9687 37.6672 71.9998 45 71.9998C52.3327 71.9998 53.2523 71.9687 56.1321 71.8373C59.0058 71.7062 60.9687 71.2499 62.6861 70.5823C64.4616 69.8924 65.9673 68.9693 67.4683 67.4683C68.9693 65.9671 69.8926 64.4614 70.5825 62.6859C71.2501 60.9685 71.7064 59.0058 71.8375 56.1319C71.9689 53.2521 72 52.3328 72 44.9998C72 37.6673 71.9689 36.7477 71.8375 33.8679C71.7064 30.994 71.2501 29.0313 70.5825 27.3139C69.8926 25.5384 68.9693 24.0327 67.4683 22.5317C65.9673 21.0305 64.4616 20.1074 62.6861 19.4175C60.9687 18.7499 59.0058 18.2936 56.1321 18.1624C53.2523 18.031 52.3327 18 45 18Z" fill="white"/>
<path d="M45.0132 31.1484C37.3557 31.1484 31.1484 37.3557 31.1484 45.0132C31.1484 52.6706 37.3557 58.8779 45.0132 58.8779C52.6706 58.8779 58.8781 52.6706 58.8781 45.0132C58.8781 37.3557 52.6706 31.1484 45.0132 31.1484ZM45.0132 54.0132C40.0427 54.0132 36.0132 49.9836 36.0132 45.0132C36.0132 40.0427 40.0427 36.0132 45.0132 36.0132C49.9839 36.0132 54.0132 40.0427 54.0132 45.0132C54.0132 49.9836 49.9839 54.0132 45.0132 54.0132Z" fill="white"/>
<path d="M62.6636 30.5918C62.6636 32.381 61.213 33.8318 59.4236 33.8318C57.6342 33.8318 56.1836 32.381 56.1836 30.5918C56.1836 28.8024 57.6342 27.3516 59.4236 27.3516C61.213 27.3516 62.6636 28.8024 62.6636 30.5918Z" fill="white"/>
<defs>
<linearGradient id="paint0_linear_462_168" x1="45" y1="0" x2="45" y2="90" gradientUnits="userSpaceOnUse">
<stop stop-color="#6946BF"/>
<stop offset="0.333333" stop-color="#C13190"/>
<stop offset="0.661458" stop-color="#FA8D33"/>
<stop offset="1" stop-color="#FB8B30"/>
</linearGradient>
</defs>
</svg>
