<svg width="86" height="85" viewBox="0 0 86 85" fill="none" xmlns="http://www.w3.org/2000/svg">
<path d="M70.2489 22.5011H14.75V14.25H70.25L70.2489 22.5011ZM14.75 51.7511H36.75V29.7511H14.75V51.7511ZM14.75 64.5H44.75C43.9989 63.75 43.2489 62.7511 42.75 61.75H14.75V64.5ZM14.75 58.0011H41C40.75 57.0011 40.25 56.2533 40 55.25H14.75V58.0011ZM46.5 32.5011C47.5 31.5011 48.75 30.5011 50.0011 29.7511H42.75V32.5011H46.5ZM14.75 70.7511H53.5C51.7511 70.0011 50.25 69.0022 48.5011 68H14.7511V70.7511H14.75ZM84.75 55.25C84 58.5 82.5 61.2511 80.75 63.75L85.0022 71.25V54.5011C85 54.7511 85 55.0011 84.75 55.25ZM70.7511 81.2511L70.25 80H10C7.25 80 5 77.75 5 75.0011V10C5 7.25 7.25 5.00112 10 5.00112H75C77.75 5.00112 79.9989 7.25223 79.9989 10V34.25C80.9989 35.25 81.7466 36.5033 82.4966 37.7533C83.7466 39.7533 84.4966 41.7533 84.9966 44.0067V10C85 4.50112 80.5 0 75 0H10C4.5 0 0 4.50112 0 10V75C0 80.5 4.5 85 10 85H73L72.7489 84.5L70.7511 81.2511ZM45.5 59.0011C40.2489 49.7511 43.5011 37.7511 52.75 32.5011C62.0011 27.2511 74.0011 30.5011 79.2489 39.7511C84.75 49.0011 81.5 61.0011 72.25 66.25C62.7511 71.7511 50.9989 68.5 45.5 59.0011ZM70.5 63.5011C78.2489 59 81.0011 48.9989 76.5 41.2489C72 33.5011 62.0011 30.7522 54.2489 35.2489C46.5 39.7511 43.75 49.7511 48.25 57.5011C52.75 65.2511 62.7511 68 70.5 63.5011ZM77.0011 64.8203L68.558 69.6942L75.0558 80.9531L83.5 76.0804L77.0011 64.8203ZM76 82.5C77.2511 84.75 80.2533 85.5 82.5 84.25C84.75 83 85.5 79.9989 84.25 77.75L76 82.5Z" fill="#4176FA"/>
</svg>
