<svg width="86" height="85" viewBox="0 0 86 85" fill="none" xmlns="http://www.w3.org/2000/svg">
<path fill-rule="evenodd" clip-rule="evenodd" d="M38.6348 34.8008V42.5351L54.0853 57.9749V77.2816L69.5359 85.0013V57.9749L85.001 42.5351V34.8008H38.6348ZM46.36 42.5351H77.2757L65.6805 54.1075V77.2816L57.9406 73.4142V54.1075L46.36 42.5351Z" fill="#09707E"/>
<path d="M42.5018 11.5755V19.2976H27.0466C21.9229 19.2976 17.009 21.3311 13.386 24.9516C9.763 28.572 7.72761 33.4828 7.72761 38.6029C7.72761 43.723 9.763 48.6333 13.386 52.2537C17.009 55.8742 21.9229 57.9082 27.0466 57.9082H34.7742V65.6303H27.0466C19.8734 65.6303 12.994 62.7826 7.92177 57.714C2.84955 52.6454 0 45.771 0 38.6029C0 23.676 12.1092 11.3438 27.0466 11.5755H42.5018Z" fill="#09707E"/>
<path d="M50.2247 15.4442L34.7695 30.8885V0L50.2247 15.4442Z" fill="#09707E"/>
</svg>
