<svg width="90" height="90" viewBox="0 0 90 90" fill="none" xmlns="http://www.w3.org/2000/svg">
<path d="M90 45C90 20.1472 69.8528 0 45 0C20.1472 0 0 20.1472 0 45C0 69.8528 20.1472 90 45 90C69.8528 90 90 69.8528 90 45Z" fill="#E4C3C8"/>
<path d="M47.6981 28.085L40.9935 19.9591C40.6969 19.6002 40.27 19.3736 39.8065 19.3293C39.3429 19.2849 38.8808 19.4264 38.5215 19.7225L32.6484 24.5674L41.5867 35.402L47.4598 30.557C48.2096 29.9395 48.3157 28.8331 47.6981 28.085Z" fill="#CCD6DD"/>
<path d="M65.2239 57.1395L54.3894 48.2012C54.3894 48.2012 50.2229 53.6498 45.6807 58.9035C42.2258 62.9012 35.081 62.7568 31.0572 58.733C27.0334 54.7092 26.8908 47.5645 30.8867 44.1096C36.1405 39.5674 41.589 35.4009 41.589 35.4009L32.6507 24.5664C32.6507 24.5664 23.7403 31.3997 21.1465 34.0127C11.6341 43.5947 11.601 59.0949 21.1482 68.6421C30.6954 78.1892 46.1956 78.1545 55.7776 68.6438C58.3905 66.05 65.2239 57.1395 65.2239 57.1395Z" fill="#BE1931"/>
<path d="M61.7056 42.0926L69.8315 48.7972C70.5796 49.4148 70.6857 50.5212 70.0681 51.2693L65.2232 57.1423L54.3887 48.204L59.2336 42.331C59.3802 42.1529 59.5604 42.0055 59.7641 41.8972C59.9677 41.7888 60.1906 41.7216 60.4202 41.6995C60.6498 41.6774 60.8815 41.7007 61.102 41.7682C61.3226 41.8356 61.5277 41.9459 61.7056 42.0926Z" fill="#CCD6DD"/>
<path d="M55.09 20.9592L52.0334 17.84L55.4014 14.5434C55.4118 14.533 55.4083 14.5173 55.417 14.5069C55.4449 14.4738 55.4536 14.439 55.464 14.3973C55.4762 14.3555 55.4866 14.3207 55.4814 14.279C55.4797 14.2651 55.4901 14.2529 55.4884 14.239C55.4814 14.2094 55.4536 14.1972 55.4396 14.1729C55.4257 14.145 55.4309 14.112 55.4083 14.0894C55.3979 14.0789 55.3822 14.0824 55.3701 14.0737C55.3353 14.0459 55.297 14.0372 55.2535 14.025C55.2152 14.0145 55.1822 14.0041 55.1439 14.0076C55.13 14.0093 55.1161 13.9971 55.1022 14.0006L46.1673 16.1874C46.1123 16.2013 46.0619 16.2294 46.0211 16.2687C45.9802 16.3081 45.9503 16.3574 45.9342 16.4118C45.9189 16.4664 45.9183 16.5241 45.9323 16.5791C45.9464 16.634 45.9746 16.6843 46.0142 16.7249L49.0708 19.8458L45.7046 23.1442C45.6941 23.1546 45.6976 23.1703 45.6889 23.1807C45.6611 23.2138 45.6524 23.2503 45.6402 23.2921C45.628 23.3338 45.6176 23.3669 45.6228 23.4086C45.6246 23.4226 45.6124 23.4347 45.6159 23.4504C45.6263 23.4939 45.6559 23.5252 45.682 23.5582C45.6907 23.5704 45.6872 23.5861 45.6976 23.5983L45.7168 23.6174C45.7898 23.68 45.882 23.6939 45.9725 23.68C45.9847 23.6783 45.9916 23.6905 46.0038 23.687L54.9351 21.5002C54.9901 21.4859 55.0403 21.4574 55.0809 21.4177C55.1215 21.378 55.1511 21.3284 55.1667 21.2738C55.1823 21.2192 55.1835 21.1615 55.17 21.1064C55.1566 21.0512 55.129 21.0005 55.09 20.9592ZM76.1588 39.89L72.5839 37.3797L75.2925 33.5229C75.3012 33.5108 75.2942 33.4968 75.3012 33.4847C75.3221 33.4464 75.3238 33.4116 75.3273 33.3681C75.3307 33.3246 75.336 33.2898 75.3238 33.2481C75.3203 33.2342 75.329 33.222 75.3221 33.2081C75.3099 33.1802 75.2803 33.1733 75.2629 33.1506C75.2438 33.1263 75.242 33.095 75.2159 33.0758C75.2038 33.0671 75.1881 33.0741 75.1759 33.0671C75.1359 33.0463 75.0976 33.0445 75.0524 33.0411C75.0124 33.0376 74.9776 33.0341 74.9411 33.0445C74.9272 33.048 74.9132 33.0393 74.8993 33.0463L66.516 36.8265C66.4645 36.8502 66.4201 36.8868 66.3871 36.9329C66.3542 36.979 66.3338 37.0329 66.3281 37.0892C66.3236 37.1457 66.3337 37.2025 66.3575 37.254C66.3812 37.3054 66.4178 37.35 66.4638 37.3832L70.0388 39.8935L67.3319 43.7503C67.3232 43.7625 67.3301 43.7764 67.3232 43.7886C67.3023 43.8269 67.3005 43.8634 67.2971 43.9069C67.2936 43.9486 67.2884 43.9852 67.3005 44.0252C67.304 44.0391 67.2953 44.053 67.3023 44.0669C67.3214 44.1069 67.3562 44.133 67.3875 44.1609C67.398 44.1713 67.398 44.187 67.4101 44.1957L67.4328 44.2096C67.4727 44.2315 67.517 44.2442 67.5625 44.2466C67.608 44.249 67.6534 44.2411 67.6954 44.2235C67.7059 44.22 67.7163 44.2305 67.7268 44.2252L76.1084 40.4432C76.1598 40.4196 76.2043 40.3829 76.2372 40.3369C76.2702 40.2908 76.2905 40.2369 76.2963 40.1806C76.2995 40.1245 76.2886 40.0685 76.2646 40.0178C76.2405 39.967 76.2042 39.9231 76.1588 39.89Z" fill="#FFAC33"/>
</svg>
