<svg width="85" height="85" viewBox="0 0 85 85" fill="none" xmlns="http://www.w3.org/2000/svg">
<path d="M45.9799 19.3779L36.8318 8.19969C36.4271 7.70592 35.8446 7.39429 35.2121 7.33327C34.5797 7.27224 33.9491 7.46681 33.4588 7.87422L25.4453 14.539L37.6412 29.4433L45.6548 22.7785C46.6778 21.9289 46.8226 20.4069 45.9799 19.3779Z" fill="#CCD6DD"/>
<path d="M69.8928 59.3437L55.1096 47.0479C55.1096 47.0479 49.4246 54.5431 43.227 61.7703C38.5128 67.2696 28.7642 67.071 23.2739 61.5358C17.7836 56.0005 17.5889 46.172 23.0412 41.4193C30.2097 35.1709 37.6441 29.4394 37.6441 29.4394L25.4481 14.5352C25.4481 14.5352 13.2902 23.9353 9.75105 27.5297C-3.22819 40.711 -3.27329 62.0335 9.75343 75.1669C22.7801 88.3003 43.9296 88.2524 57.0037 75.1693C60.569 71.6012 69.8928 59.3437 69.8928 59.3437Z" fill="#BE1931"/>
<path d="M65.093 38.6457L76.1805 47.8687C77.2011 48.7183 77.3459 50.2403 76.5033 51.2693L69.8926 59.3485L55.1094 47.0527L61.7201 38.9736C61.9201 38.7286 62.166 38.5258 62.4439 38.3768C62.7217 38.2277 63.0259 38.1353 63.3392 38.1049C63.6524 38.0744 63.9685 38.1065 64.2695 38.1993C64.5704 38.2921 64.8503 38.4438 65.093 38.6457Z" fill="#CCD6DD"/>
<path d="M56.0646 9.57329L51.8941 5.28245L56.4895 0.747514C56.5037 0.733155 56.499 0.711617 56.5108 0.697259C56.5488 0.65179 56.5607 0.603928 56.5749 0.546493C56.5915 0.489058 56.6058 0.441196 56.5987 0.383762C56.5963 0.364617 56.6105 0.347865 56.6082 0.32872C56.5987 0.288038 56.5607 0.271286 56.5417 0.237782C56.5227 0.199493 56.5298 0.154024 56.499 0.122913C56.4847 0.108555 56.4634 0.113341 56.4468 0.101375C56.3993 0.0630855 56.3471 0.05112 56.2877 0.0343682C56.2355 0.0200096 56.1904 0.00565096 56.1382 0.0104372C56.1192 0.0128303 56.1002 -0.00392145 56.0812 0.000864761L43.89 3.009C43.815 3.02823 43.7462 3.06679 43.6905 3.12092C43.6347 3.17504 43.5939 3.24286 43.572 3.31771C43.5511 3.39286 43.5502 3.47221 43.5694 3.54782C43.5886 3.62342 43.6271 3.69262 43.6811 3.74847L47.8517 8.0417L43.2586 12.579C43.2444 12.5934 43.2491 12.6149 43.2373 12.6293C43.1993 12.6748 43.1874 12.725 43.1708 12.7824C43.1542 12.8399 43.1399 12.8854 43.1471 12.9428C43.1494 12.9619 43.1328 12.9787 43.1376 13.0002C43.1518 13.06 43.1922 13.1031 43.2278 13.1486C43.2396 13.1653 43.2349 13.1869 43.2491 13.2036L43.2753 13.23C43.3749 13.3161 43.5007 13.3353 43.6242 13.3161C43.6408 13.3137 43.6503 13.3305 43.6669 13.3257L55.8533 10.3175C55.9283 10.2978 55.9968 10.2586 56.0522 10.204C56.1076 10.1494 56.148 10.0812 56.1693 10.0061C56.1906 9.93101 56.1922 9.8516 56.1738 9.77571C56.1555 9.69982 56.1178 9.63006 56.0646 9.57329ZM84.8121 35.6151L79.9342 32.1618L83.6301 26.8563C83.6419 26.8396 83.6324 26.8204 83.6419 26.8037C83.6704 26.751 83.6728 26.7031 83.6775 26.6433C83.6823 26.5835 83.6894 26.5356 83.6728 26.4782C83.668 26.459 83.6799 26.4423 83.6704 26.4232C83.6538 26.3849 83.6134 26.3753 83.5897 26.3442C83.5636 26.3107 83.5612 26.2676 83.5256 26.2413C83.509 26.2293 83.4876 26.2389 83.471 26.2293C83.4164 26.2006 83.3642 26.1982 83.3025 26.1934C83.2479 26.1886 83.2004 26.1838 83.1506 26.1982C83.1316 26.203 83.1126 26.191 83.0936 26.2006L71.6549 31.4008C71.5846 31.4333 71.524 31.4838 71.4791 31.5472C71.4341 31.6105 71.4063 31.6847 71.3985 31.7622C71.3924 31.8399 71.4062 31.918 71.4386 31.9888C71.471 32.0596 71.521 32.1209 71.5837 32.1666L76.4616 35.6199L72.7681 40.9254C72.7563 40.9421 72.7658 40.9613 72.7563 40.978C72.7278 41.0307 72.7254 41.0809 72.7207 41.1408C72.7159 41.1982 72.7088 41.2484 72.7254 41.3035C72.7301 41.3226 72.7183 41.3418 72.7278 41.3609C72.7539 41.416 72.8014 41.4519 72.8441 41.4901C72.8583 41.5045 72.8583 41.526 72.8749 41.538L72.9058 41.5572C72.9603 41.5873 73.0208 41.6047 73.0828 41.608C73.1449 41.6114 73.2069 41.6005 73.2642 41.5763C73.2785 41.5715 73.2927 41.5859 73.307 41.5787L84.7433 36.3761C84.8135 36.3436 84.8741 36.2931 84.9191 36.2297C84.9641 36.1664 84.9918 36.0922 84.9997 36.0147C85.004 35.9376 84.9892 35.8606 84.9564 35.7908C84.9236 35.721 84.874 35.6606 84.8121 35.6151Z" fill="#FFAC33"/>
</svg>
