<svg width="92" height="92" viewBox="0 0 92 92" fill="none" xmlns="http://www.w3.org/2000/svg">
<path d="M46 1C21.1445 1 1 21.1445 1 46C1 70.8555 21.1445 91 46 91C70.8555 91 91 70.8555 91 46C91 21.1445 70.8555 1 46 1ZM33.4141 64.8262H24.6426V36.7539H33.4141V64.8262ZM28.791 33.2383H28.7207C25.5391 33.2383 23.4824 31.0938 23.4824 28.3691C23.4824 25.5918 25.6094 23.5 28.8437 23.5C32.0781 23.5 34.0645 25.5918 34.1348 28.3691C34.1523 31.0762 32.0957 33.2383 28.791 33.2383ZM68.5 64.8262H58.5508V50.3066C58.5508 46.5098 57.0039 43.9082 53.5762 43.9082C50.957 43.9082 49.498 45.666 48.8301 47.3535C48.584 47.9512 48.6191 48.7949 48.6191 49.6562V64.8262H38.7578C38.7578 64.8262 38.8809 39.0918 38.7578 36.7539H48.6191V41.166C49.1992 39.2324 52.3457 36.4902 57.3731 36.4902C63.6133 36.4902 68.5 40.5332 68.5 49.2168V64.8262Z" fill="#0A66C2" stroke="#0A66C2" stroke-width="0.390625"/>
</svg>
