<svg width="91" height="91" viewBox="0 0 91 91" fill="none" xmlns="http://www.w3.org/2000/svg">
<path d="M78.5556 19.5278C78.5556 15.1443 76.8142 10.9404 73.7147 7.84088C70.6151 4.74132 66.4112 3 62.0278 3C57.6443 3 53.4404 4.74132 50.3409 7.84088C47.2413 10.9404 45.5 15.1443 45.5 19.5278C45.5 36.0556 62.0278 50.2222 62.0278 50.2222C62.0278 50.2222 78.5556 36.0556 78.5556 19.5278Z" fill="#09707E"/>
<path d="M78.5556 31.333H83.2778C84.5302 31.333 85.7313 31.8305 86.6169 32.7161C87.5025 33.6017 88 34.8028 88 36.0552V83.2775C88 84.5299 87.5025 85.731 86.6169 86.6166C85.7313 87.5022 84.5302 87.9997 83.2778 87.9997H7.72222C6.46981 87.9997 5.2687 87.5022 4.38311 86.6166C3.49752 85.731 3 84.5299 3 83.2775V36.0552C3 34.8028 3.49752 33.6017 4.38311 32.7161C5.2687 31.8305 6.46981 31.333 7.72222 31.333H45.5" stroke="black" stroke-width="5" stroke-linecap="round" stroke-linejoin="round"/>
<path d="M26.6111 69.1111L40.7778 31.3333M88 69.1111H3M59.6667 88V69.1111M78.5556 19.5278C78.5556 15.1443 76.8142 10.9404 73.7147 7.84088C70.6151 4.74132 66.4112 3 62.0278 3C57.6443 3 53.4404 4.74132 50.3409 7.84088C47.2413 10.9404 45.5 15.1443 45.5 19.5278C45.5 36.0556 62.0278 50.2222 62.0278 50.2222C62.0278 50.2222 78.5556 36.0556 78.5556 19.5278Z" stroke="black" stroke-width="5" stroke-linecap="round" stroke-linejoin="round"/>
</svg>
