<svg width="85" height="85" viewBox="0 0 85 85" fill="none" xmlns="http://www.w3.org/2000/svg">
<path d="M12.6875 48.3105L19.2079 80.3444C19.5494 82.0213 20.6682 83.182 21.9435 83.182H29.7229L23.0062 50.1853L12.6875 48.3105Z" fill="white"/>
<path d="M4.16928 25.0635C2.60126 25.0635 1.33008 26.798 1.33008 28.938V40.5619C1.33008 42.7017 2.60143 44.4365 4.16928 44.4365H8.42808V25.0635H4.16928Z" fill="white"/>
<path d="M59.5361 1.81641H55.2771C53.7091 1.81641 52.4379 3.55091 52.4379 5.69096V6.59876C47.6462 9.57412 31.1843 19.0743 10.9267 22.713C9.50414 22.9685 8.42969 24.5984 8.42969 26.5565V42.9444C8.42969 44.9025 9.50431 46.5323 10.9267 46.7879C31.1843 50.4266 47.6462 59.927 52.4379 62.9021V63.8099C52.4379 65.9497 53.7093 67.6845 55.2771 67.6845H59.5359C61.104 67.6845 62.3751 65.9495 62.3751 63.8099V5.69118C62.3753 3.55091 61.1041 1.81641 59.5361 1.81641Z" fill="#09707E"/>
<path d="M48.1791 37.6684C48.1791 40.0284 46.6535 41.8397 44.9413 41.5042C37.5832 40.0624 25.8182 38.0046 10.9267 37.0605C9.50414 36.9701 8.42969 36.3951 8.42969 35.7039V42.943C8.42969 44.9005 9.50298 46.5308 10.9251 46.7861C28.2448 49.8967 42.7569 57.2765 49.6034 61.2145C49.777 61.3142 52.0231 62.6432 52.4383 62.901V6.59766C51.4752 7.19554 50.0213 8.06483 48.1795 9.08931V37.6682L48.1791 37.6684Z" fill="#09707E"/>
<path d="M19.6759 58.2245C19.4209 56.7481 20.3777 55.4155 21.4671 55.7179C22.432 55.9857 23.3696 56.2723 24.3038 56.5605L23.0064 50.1872L12.6875 48.3125L19.2079 80.3463C19.5494 82.0233 20.6682 83.1839 21.9435 83.1839H24.0408L19.6759 58.2245Z" fill="white"/>
<path d="M51.6571 4.80769L51.478 4.93C48.1845 7.1786 32.0704 17.5911 10.8407 21.4043M51.6571 4.80769L10.7523 20.9122M51.6571 4.80769L51.6902 4.59332C52.0695 2.13579 53.6265 0.5 55.2766 0.5H59.5355C60.4871 0.5 61.3931 1.02732 62.0796 1.9642C62.7657 2.90055 63.2057 4.21724 63.2057 5.69085V63.81C63.2057 65.2837 62.7657 66.6003 62.0796 67.5367C61.3931 68.4736 60.4871 69.0009 59.5355 69.0009H55.2767C53.6267 69.0009 52.0694 67.3651 51.6904 64.9076L51.6573 64.6932L51.4781 64.5709C48.9602 62.8519 38.9773 56.3822 24.9545 51.7192L24.1344 51.4465L24.3068 52.2934L30.2453 81.4667L30.3268 81.867H30.7353H31.1432C31.313 81.867 31.5091 81.9599 31.681 82.1945C31.8527 82.4289 31.9741 82.7768 31.9741 83.1833C31.9741 83.5898 31.8527 83.9377 31.681 84.172C31.509 84.4067 31.313 84.4995 31.1432 84.4995H29.7451L51.6571 4.80769ZM10.8407 21.4043L10.7523 20.9122M10.8407 21.4043C10.8407 21.4043 10.8407 21.4043 10.8408 21.4043L10.7523 20.9122M10.8407 21.4043C9.84711 21.5829 8.93933 22.3327 8.32996 23.4818L8.18903 23.7475H7.88823H4.1702L4.17015 23.2475M10.7523 20.9122C9.56582 21.1254 8.54698 22.0053 7.88823 23.2475H4.17015M4.17015 23.2475V23.7475M4.17015 23.2475C1.87066 23.2478 0 25.8006 0 28.9386V40.5625C0 43.7005 1.87066 46.2533 4.17015 46.2533H7.88856C8.54715 47.4955 9.56615 48.3757 10.7525 48.5887L4.17015 23.7475M4.17015 23.7475C3.21861 23.7477 2.31261 24.275 1.62608 25.2119C0.939939 26.1483 0.5 27.465 0.5 28.9386V40.5625C0.5 42.0361 0.93994 43.3528 1.62608 44.2891C2.31261 45.226 3.21861 45.7533 4.17015 45.7533H7.88856H8.1894L8.33032 46.0191C8.93954 47.1682 9.84748 47.9182 10.8408 48.0965L10.8412 48.0966C11.0096 48.127 11.1774 48.1585 11.3432 48.1897C11.3888 48.1983 11.4341 48.2068 11.4793 48.2153L11.81 48.2773L11.8771 48.607L18.4162 80.7321C18.8901 83.0602 20.4102 84.4995 21.9443 84.4995H29.7059L29.6838 84.5015L29.6786 84.502L29.7186 84.9515L29.7209 84.9776L4.17015 23.7475ZM7.59816 26.8801V26.3801H7.09816H4.17015C3.55606 26.3801 3.04242 26.7219 2.70073 27.1882C2.35863 27.655 2.16173 28.2757 2.16173 28.9386V40.5625C2.16173 41.2254 2.35863 41.846 2.70075 42.3128C3.04247 42.7791 3.55611 43.1208 4.17015 43.1208H7.09816H7.59816V42.6208V26.8801ZM27.9725 81.867H28.5845L28.4624 81.2672L22.3336 51.1591L22.274 50.8662L21.9877 50.7801C19.5515 50.0471 17.0088 49.3773 14.375 48.8016L13.6252 48.6377L13.7783 49.3898L20.0012 79.9592C20.2074 80.9725 20.937 81.867 21.9443 81.867H27.9725ZM50.8343 61.3057L51.6063 61.8059V60.8861V21.19C51.6063 20.7834 51.7277 20.4355 51.8994 20.2012C52.0714 19.9665 52.2674 19.8737 52.4372 19.8737C52.607 19.8737 52.8031 19.9666 52.975 20.2012C53.1467 20.4356 53.2681 20.7835 53.2681 21.19V63.7955V63.7956V63.7956V63.7957V63.7957V63.7958V63.7958V63.7959V63.7959V63.796V63.796V63.7961V63.7961V63.7962V63.7962V63.7963V63.7963V63.7964V63.7964V63.7965V63.7965V63.7966V63.7966V63.7967V63.7967V63.7968V63.7968V63.7969V63.7969V63.797V63.797V63.7971V63.7971V63.7972V63.7972V63.7973V63.7973V63.7974V63.7974V63.7975V63.7975V63.7976V63.7976V63.7977V63.7977V63.7978V63.7978V63.7979V63.7979V63.798V63.798V63.7981V63.7981V63.7982V63.7982V63.7983V63.7983V63.7984V63.7984V63.7985V63.7985V63.7986V63.7986V63.7987V63.7987V63.7988V63.7988V63.7989V63.7989V63.799V63.799V63.7991V63.7991V63.7992V63.7992V63.7993V63.7993V63.7994V63.7994V63.7995V63.7995V63.7996V63.7996V63.7997V63.7997V63.7998V63.7998V63.7999V63.7999V63.8V63.8V63.8001V63.8001V63.8002V63.8002V63.8003V63.8003V63.8003V63.8004V63.8004V63.8005V63.8005V63.8006V63.8006V63.8007V63.8007V63.8008V63.8008V63.8009V63.8009V63.801V63.801V63.8011V63.8011V63.8012V63.8012V63.8013V63.8013V63.8014V63.8014V63.8015V63.8015V63.8016V63.8016V63.8017V63.8017V63.8018V63.8018V63.8019V63.8019V63.802V63.802V63.802V63.8021V63.8021V63.8022V63.8022V63.8023V63.8023V63.8024V63.8024V63.8025V63.8025V63.8026V63.8026V63.8027V63.8027V63.8028V63.8028V63.8029V63.8029V63.803V63.803V63.8031V63.8031V63.8032V63.8032V63.8033V63.8033V63.8034V63.8034V63.8034V63.8035V63.8035V63.8036V63.8036V63.8037V63.8037V63.8038V63.8038V63.8039V63.8039V63.804V63.804V63.8041V63.8041V63.8042V63.8042V63.8043V63.8043V63.8044V63.8044V63.8045V63.8045V63.8046V63.8046V63.8046V63.8047V63.8047V63.8048V63.8048V63.8049V63.8049V63.805V63.805V63.8051V63.8051V63.8052V63.8052V63.8053V63.8053V63.8054V63.8054V63.8055V63.8055V63.8056V63.8056V63.8057V63.8057V63.8058V63.8058V63.8058V63.8059V63.8059V63.806V63.806V63.8061V63.8061V63.8062V63.8062V63.8063V63.8063V63.8064V63.8064V63.8065V63.8065V63.8066V63.8066V63.8067V63.8067V63.8068V63.8068V63.8069V63.8069V63.8069V63.807V63.807V63.8071V63.8071V63.8072V63.8072V63.8073V63.8073V63.8074V63.8074V63.8075V63.8075V63.8076V63.8076V63.8077V63.8077V63.8078V63.8078V63.8079V63.8079V63.8079V63.808V63.8103C53.2681 64.4732 53.465 65.0938 53.8071 65.5607C54.1488 66.027 54.6625 66.3688 55.2766 66.3688H59.5354C60.1494 66.3688 60.6631 66.027 61.0048 65.5607C61.3469 65.0938 61.5438 64.4732 61.5438 63.8103V5.69085C61.5438 5.02792 61.3469 4.40728 61.0048 3.94043C60.6631 3.47413 60.1494 3.13237 59.5354 3.13237H55.2766C54.6625 3.13237 54.1488 3.47413 53.8071 3.94043C53.465 4.40728 53.2681 5.02792 53.2681 5.69085V5.69674V5.69678V5.69682V5.69686V5.6969V5.69694V5.69698V5.69702V5.69706V5.6971V5.69714V5.69718V5.69722V5.69726V5.6973V5.69734V5.69738V5.69742V5.69746V5.6975V5.69754V5.69758V5.69761V5.69765V5.69769V5.69773V5.69777V5.69781V5.69785V5.69789V5.69793V5.69797V5.69801V5.69805V5.69809V5.69813V5.69817V5.69821V5.69825V5.69829V5.69833V5.69837V5.69841V5.69845V5.69849V5.69853V5.69857V5.69861V5.69865V5.69869V5.69873V5.69877V5.69881V5.69885V5.69889V5.69893V5.69897V5.69901V5.69905V5.69909V5.69913V5.69917V5.69921V5.69925V5.69929V5.69933V5.69937V5.69941V5.69945V5.69949V5.69953V5.69957V5.69961V5.69965V5.69969V5.69973V5.69977V5.69981V5.69984V5.69988V5.69992V5.69996V5.7V5.70004V5.70008V5.70012V5.70016V5.7002V5.70024V5.70028V5.70032V5.70036V5.7004V5.70044V5.70048V5.70052V5.70056V5.7006V5.70064V5.70068V5.70072V5.70076V5.7008V5.70084V5.70088V5.70092V5.70096V5.701V5.70104V5.70108V5.70112V5.70116V5.7012V5.70124V5.70128V5.70132V5.70136V5.7014V5.70144V5.70148V5.70152V5.70156V5.7016V5.70164V5.70168V5.70172V5.70176V5.7018V5.70184V5.70188V5.70192V5.70196V5.702V5.70203V5.70208V5.70211V5.70215V5.70219V5.70223V5.70227V5.70231V5.70235V5.70239V5.70243V5.70247V5.70251V5.70255V5.70259V5.70263V5.70267V5.70271V5.70275V5.70279V5.70283V5.70287V5.70291V5.70295V5.70299V5.70303V5.70307V5.70311V5.70315V5.70319V5.70323V5.70327V5.70331V5.70335V5.70339V5.70343V5.70347V5.70354V13.4406C53.2681 13.8472 53.1467 14.1951 52.975 14.4294C52.803 14.6641 52.607 14.7569 52.4372 14.7569C52.2674 14.7569 52.0713 14.664 51.8994 14.4294C51.7277 14.195 51.6063 13.8471 51.6063 13.4406V8.61477V7.69499L50.8344 8.19516C45.6203 11.5738 30.4091 20.5374 11.0112 24.0214L11.0112 24.0214C9.91706 24.2181 9.25973 25.3944 9.25973 26.5564V42.9443C9.25973 44.106 9.91679 45.2829 11.0113 45.4793C30.4091 48.9635 45.6203 57.9269 50.8343 61.3057Z" fill="#09707E" stroke="white"/>
<path d="M83.6697 32.9346H69.4735C68.7386 32.9346 68.1426 33.7477 68.1426 34.7509C68.1426 35.7541 68.7384 36.5672 69.4735 36.5672H83.6697C84.4046 36.5672 85.0006 35.7541 85.0006 34.7509C85.0006 33.7477 84.4048 32.9346 83.6697 32.9346Z" fill="#09707E"/>
<path d="M77.9901 18.025C78.1651 18.025 78.3429 17.9774 78.5137 17.8777L79.9335 17.0474C80.609 16.6523 80.9221 15.5845 80.6324 14.6627C80.3429 13.7406 79.5604 13.3138 78.8849 13.7089L77.4651 14.5392C76.7896 14.9343 76.4765 16.0021 76.7662 16.9239C76.9825 17.6126 77.4738 18.025 77.9901 18.025Z" fill="#09707E"/>
<path d="M69.4725 23.0069C69.6475 23.0069 69.8253 22.9593 69.9961 22.8596L74.2549 20.3686C74.9304 19.9735 75.2435 18.9058 74.9539 17.9839C74.6643 17.0621 73.8819 16.635 73.2064 17.0301L68.9476 19.5211C68.2721 19.9162 67.9589 20.984 68.2486 21.9058C68.465 22.5943 68.9564 23.0069 69.4725 23.0069Z" fill="#09707E"/>
<path d="M79.9335 52.4537L78.5097 51.6211C77.8342 51.2256 77.0518 51.6531 76.7622 52.5749C76.4727 53.4968 76.7857 54.5645 77.4612 54.9597L78.8849 55.7923C79.0557 55.8922 79.2336 55.9395 79.4085 55.9395C79.9248 55.9395 80.4161 55.527 80.6324 54.8382C80.9221 53.9166 80.6093 52.8488 79.9335 52.4537Z" fill="#09707E"/>
<path d="M74.2548 49.131L69.998 46.6414C69.3225 46.2465 68.5399 46.6733 68.2505 47.5952C67.961 48.5172 68.2739 49.5848 68.9495 49.9799L73.2063 52.4695C73.3771 52.5694 73.5549 52.6168 73.7299 52.6168C74.2462 52.6168 74.7374 52.2042 74.9537 51.5157C75.2434 50.5938 74.9303 49.5261 74.2548 49.131Z" fill="#09707E"/>
</svg>
