<svg width="89" height="90" viewBox="0 0 89 90" fill="none" xmlns="http://www.w3.org/2000/svg">
<path d="M82.9479 36.8339C83.708 34.5499 84.0956 32.1585 84.096 29.7514C84.0958 25.7682 83.0348 21.857 81.0221 18.4198C76.978 11.3803 69.476 7.03416 61.3568 7.03416C59.7573 7.03418 58.1622 7.20312 56.5982 7.53815C54.4945 5.16796 51.9122 3.27063 49.0217 1.97128C46.1312 0.671931 42.9981 6.92734e-05 39.8289 0H39.6866L39.6332 0.000314035C29.7994 0.000314035 21.0786 6.34574 18.0556 15.7003C14.9264 16.3412 11.9703 17.6432 9.38498 19.5191C6.79971 21.395 4.645 23.8015 3.06509 26.5776C1.0586 30.0355 0.00122783 33.9621 0 37.96C0.000766811 43.5786 2.08641 48.9971 5.85306 53.1661C5.09273 55.45 4.70496 57.8415 4.70463 60.2486C4.70498 64.2318 5.76596 68.143 7.77852 71.5802C10.1718 75.7472 13.8267 79.0464 18.2161 81.0021C22.6055 82.9577 27.5026 83.4688 32.2012 82.4615C34.3052 84.8317 36.8877 86.7291 39.7784 88.0285C42.6691 89.3279 45.8024 89.9998 48.9717 90H49.1141L49.1719 89.9997C59.011 89.9997 67.729 83.6539 70.752 74.2909C73.8811 73.6497 76.8373 72.3477 79.4226 70.4717C82.0079 68.5958 84.1627 66.1893 85.7428 63.4133C87.7471 59.9585 88.8025 56.0351 88.8019 52.0409C88.8012 46.4224 86.7155 41.0041 82.9489 36.8352L82.9479 36.8339ZM49.1197 84.1162H49.0965C45.1594 84.1149 41.3474 82.7337 38.3232 80.2128C38.5028 80.1161 38.6803 80.0155 38.8555 79.9111L56.7754 69.5602C57.2226 69.3056 57.5944 68.9372 57.8531 68.4924C58.1119 68.0476 58.2482 67.5422 58.2484 67.0277V41.7469L65.8227 46.1203C65.8624 46.1401 65.8967 46.1695 65.9224 46.2057C65.9481 46.2419 65.9645 46.2839 65.97 46.328V67.2498C65.9597 76.5516 58.4222 84.0973 49.1197 84.1162ZM12.8825 68.6392C11.4023 66.0799 10.6225 63.1757 10.6215 60.2191C10.6215 59.2548 10.7057 58.288 10.8697 57.3378C11.0029 57.4176 11.2354 57.5597 11.4023 57.6555L29.3221 68.0064C29.7689 68.2673 30.277 68.4046 30.7943 68.4045C31.3116 68.4044 31.8196 68.2668 32.2663 68.0058L54.1445 55.3731V64.1203L54.1448 64.1354C54.1449 64.1775 54.1351 64.2191 54.1163 64.2567C54.0974 64.2944 54.0701 64.3272 54.0364 64.3525L35.9211 74.8118C33.3579 76.2871 30.4525 77.0639 27.495 77.0647C24.5345 77.0643 21.626 76.2856 19.0613 74.8066C16.4966 73.3277 14.3658 71.2005 12.8825 68.6383V68.6392ZM8.16813 29.5185C10.1363 26.1 13.244 23.4824 16.9474 22.124C16.9474 22.2783 16.9386 22.5516 16.9386 22.7414V43.4436L16.9383 43.4605C16.9384 43.9746 17.0745 44.4794 17.3328 44.9238C17.5911 45.3683 17.9625 45.7364 18.4091 45.9909L40.2874 58.6217L32.7134 62.9951C32.676 63.0198 32.6332 63.0348 32.5886 63.0388C32.544 63.0429 32.4991 63.0359 32.4579 63.0184L14.3407 52.5502C11.7796 51.0666 9.6534 48.9358 8.1752 46.3715C6.69701 43.8072 5.91874 40.8995 5.91841 37.9396C5.91955 34.9844 6.69558 32.0811 8.16908 29.5195L8.16813 29.5185ZM70.3985 44L48.5202 31.3676L56.0945 26.9958C56.1319 26.9711 56.1747 26.9561 56.2193 26.952C56.2639 26.948 56.3088 26.955 56.35 26.9725L74.4668 37.4318C77.0301 38.9132 79.1585 41.0428 80.6385 43.6068C82.1185 46.1709 82.898 49.0791 82.8986 52.0397C82.8986 59.1059 78.4893 65.4287 71.8596 67.8691V46.5479C71.8605 46.5401 71.8605 46.5319 71.8605 46.5241C71.8604 46.0119 71.7251 45.5089 71.4684 45.0657C71.2117 44.6226 70.8427 44.255 70.3985 44ZM77.9373 32.6537C77.7611 32.5458 77.5837 32.44 77.405 32.3363L59.4851 21.9851C59.0383 21.7247 58.5305 21.5875 58.0134 21.5873C57.4963 21.5875 56.9884 21.7247 56.5416 21.9851L34.663 34.6178V25.8706L34.6627 25.8555C34.6627 25.77 34.7033 25.6896 34.7714 25.6384L52.8868 15.1878C55.4491 13.7106 58.3548 12.9329 61.3125 12.9328C70.6269 12.9328 78.1805 20.4863 78.1805 29.8007C78.18 30.7565 78.0987 31.7106 77.9373 32.6527V32.6537ZM30.545 48.244L22.9692 43.8706C22.9294 43.8508 22.8952 43.8214 22.8695 43.7852C22.8438 43.749 22.8274 43.707 22.8218 43.6629V22.7408C22.8259 13.4314 30.3795 5.88416 39.6897 5.88416C43.6329 5.88498 47.4514 7.26634 50.4825 9.78851C50.3461 9.86297 50.1082 9.99431 49.9502 10.0901L32.0303 20.4411C31.5832 20.6955 31.2114 21.0637 30.9527 21.5084C30.694 21.953 30.5577 22.4582 30.5576 22.9726V22.9893L30.545 48.244ZM34.6596 39.373L44.4038 33.7449L54.148 39.3692V50.6216L44.4038 56.2463L34.6596 50.6216V39.373Z" fill="black"/>
</svg>
