<svg width="90" height="90" viewBox="0 0 90 90" fill="none" xmlns="http://www.w3.org/2000/svg">
<path d="M45 0C20.1469 0 0 20.1469 0 45C0 69.8531 20.1469 90 45 90C69.8531 90 90 69.8531 90 45C90 20.1469 69.8531 0 45 0ZM64.6875 34.0641H64.1391C64.1391 34.0641 62.4984 34.0641 62.4984 35.7047V54.2953C62.4984 54.2953 62.4984 55.9359 64.1391 55.9359H64.6875V60.3141H51.5625V55.9359H53.7516V35.5922H53.5313L46.8281 60.3141H40.9219L34.2797 35.5922H34.0641V55.9359H36.2484V60.3141H25.3125V55.9359H25.8609C25.8609 55.9359 27.5016 55.9359 27.5016 54.2953V35.7C27.5016 35.7 27.5016 34.0594 25.8609 34.0594H25.3125V29.6859H39.825L44.9156 48.6281H45.0844L50.2172 29.6906H64.6875V34.0641Z" fill="black"/>
</svg>
