<svg width="90" height="90" viewBox="0 0 90 90" fill="none" xmlns="http://www.w3.org/2000/svg">
<path d="M26.1756 0.000115908C26.0426 0.00120529 25.91 0.0166191 25.78 0.0461148C24.7027 0.289477 24.0161 1.39738 24.2493 2.52652C24.4814 3.65409 25.5393 4.37434 26.6151 4.13137C27.1326 4.01407 27.5846 3.68612 27.8716 3.21962C28.1586 2.75311 28.2572 2.18621 28.1458 1.6435C27.9425 0.656682 27.1026 -0.0101061 26.1756 0.000115908ZM50.381 2.51119C49.7021 2.50853 49.0356 2.7024 48.4551 3.07143C46.6934 4.17934 46.1163 6.56971 47.1734 8.41596C48.2316 10.2622 50.5179 10.8598 52.2781 9.75229C54.0397 8.64321 54.6094 6.25283 53.5526 4.40776C53.2241 3.83241 52.7596 3.35559 52.2041 3.02337C51.6485 2.69114 51.0206 2.51474 50.381 2.51119ZM39.0219 11.3033C35.368 11.3218 31.6853 12.4513 28.4458 14.7972C25.1665 17.1723 22.8341 20.4429 21.5175 24.0729C19.6107 24.3438 17.7317 25.0126 16.039 26.2384C10.4449 30.2906 8.96671 38.1867 12.5163 44.176C7.69926 48.8003 6.58592 56.5038 10.2458 62.4518C12.417 65.9784 15.8263 68.1014 19.4888 68.7328C19.5563 71.6107 20.3813 74.4964 22.0594 77.0413C26.6492 84.0037 35.7561 85.7524 42.3979 80.9422C42.6518 80.7574 42.8471 80.5251 43.0864 80.3277C46.7883 83.791 52.3516 84.3595 56.614 81.2724C58.8883 79.6255 60.3373 77.2261 60.9714 74.6226C64.3069 74.7508 67.7046 73.8619 70.661 71.72C77.7543 66.5826 79.6588 56.5384 75.1215 48.9603C78.7637 45.7404 79.5456 40.1089 76.7475 35.952C75.4999 34.0971 73.7371 32.8831 71.8111 32.2816C72.0931 28.4129 71.1721 24.4268 68.9035 20.9863C64.4816 14.2798 56.4063 11.8199 49.4218 14.4745C46.3184 12.3899 42.7075 11.2888 39.0219 11.3033ZM18.0091 14.513C17.4408 14.5193 16.8873 14.7039 16.42 15.043C15.1274 15.9798 14.8011 17.8332 15.6947 19.1892C16.5887 20.5444 18.3631 20.8864 19.6572 19.9495C19.9648 19.7274 20.2276 19.4439 20.4306 19.1152C20.6335 18.7865 20.7726 18.419 20.84 18.0339C20.9073 17.6487 20.9015 17.2534 20.8229 16.8706C20.7444 16.4878 20.5945 16.125 20.3821 15.8029C20.1177 15.4004 19.763 15.0723 19.3492 14.8473C18.9354 14.6224 18.4752 14.5076 18.0091 14.513ZM77.9857 23.8343C77.3541 23.8419 76.7392 24.0481 76.2206 24.426C75.7048 24.7996 75.3062 25.3252 75.0753 25.9363C74.8444 26.5475 74.7916 27.2167 74.9234 27.8593C75.0553 28.5019 75.366 29.0891 75.8162 29.5466C76.2664 30.0041 76.8359 30.3113 77.4526 30.4295C78.0694 30.5476 78.7057 30.4713 79.2811 30.2103C79.8565 29.9492 80.3451 29.5151 80.6852 28.9629C81.0253 28.4107 81.2015 27.7651 81.1917 27.1078C81.1818 26.4506 80.9862 25.8112 80.6297 25.2705C80.3349 24.8224 79.9395 24.4571 79.4785 24.2067C79.0175 23.9564 78.5048 23.8282 77.9857 23.8343ZM47.4227 27.8735C47.6586 27.8751 47.8892 27.8944 48.1037 27.9274C48.9609 28.0595 49.4743 28.3952 49.7957 28.6646C50.4264 29.1922 50.8179 29.6128 51.4141 30.2081C52.3118 31.1025 52.9635 30.558 53.4135 30.2847C54.1935 29.8094 54.798 29.4273 57.1049 29.4709C59.4793 29.5142 62.2145 30.4011 62.7811 34.6464C63.4118 39.3619 55.4103 51.5091 55.9698 57.145C56.365 61.117 62.7743 58.3193 63.3158 61.9442C64.0178 66.6503 55.3087 64.9007 53.3186 63.8793C50.1988 62.2764 48.3051 58.6115 49.1147 54.9952C49.7192 52.2895 55.4894 41.2431 55.7062 39.5455C55.9263 37.814 55.0413 37.6701 54.4905 37.641C53.7799 37.6025 53.2178 37.9587 52.5203 39.0615C51.8858 40.0672 44.7131 55.1242 44.0906 56.3544C42.9773 58.5537 41.5789 59.0821 40.172 59.0034C38.1201 58.8914 37.1803 57.743 37.4766 55.6707C37.6517 54.4519 42.1992 43.683 42.435 42.0027C42.5802 40.9636 42.3855 39.8592 41.4023 39.3304C40.418 38.8012 39.26 39.6072 38.9124 40.2213C38.4324 41.0682 31.9819 58.7251 31.2953 60.0323C30.1073 62.2969 28.8549 63.0179 26.9743 63.1115C22.5262 63.3324 19.2286 59.4984 20.6828 54.7955C21.3315 52.7008 25.6173 36.8221 27.7873 32.7805C29.2449 30.0638 33.2917 27.9978 36.0996 29.2716C37.5538 29.9317 39.569 30.9924 40.1645 31.268C41.5369 31.9057 43.0121 30.1766 43.5919 29.6478C44.1727 29.119 44.7232 28.5608 45.4301 28.2427C45.9595 28.0048 46.7151 27.87 47.4227 27.8735ZM88.2243 35.9595C88.106 35.9624 87.9883 35.9778 87.8729 36.0055C87.6478 36.0558 87.4343 36.1521 87.2447 36.289C87.0551 36.4258 86.8931 36.6005 86.7679 36.8031C86.6428 37.0056 86.5569 37.232 86.5153 37.4694C86.4736 37.7067 86.477 37.9504 86.5252 38.1863C86.6243 38.6634 86.8995 39.0799 87.2908 39.3447C87.682 39.6095 88.1573 39.7011 88.6128 39.5993C89.5589 39.3847 90.1652 38.4026 89.9601 37.4106C89.8736 36.9966 89.6539 36.6264 89.3378 36.3622C89.0217 36.0979 88.6285 35.9558 88.2243 35.9595ZM3.77915 39.146C3.16563 39.14 2.56013 39.2924 2.01604 39.5897C1.47195 39.887 1.00599 40.32 0.659257 40.8507C-0.511827 42.6408 -0.0820919 45.0905 1.62597 46.3179C3.33404 47.5458 5.66946 47.0869 6.84054 45.2969C8.01162 43.5069 7.58189 41.0646 5.87382 39.8372C5.25711 39.3926 4.52754 39.1519 3.77915 39.146ZM83.6326 47.3779C83.4725 47.3789 83.313 47.3968 83.1563 47.4314C82.8542 47.4996 82.5678 47.6296 82.3136 47.8141C82.0594 47.9985 81.8424 48.2337 81.6751 48.5061C81.5077 48.7786 81.3932 49.083 81.3382 49.4019C81.2832 49.7208 81.2888 50.048 81.3545 50.3647C81.4192 50.6819 81.5429 50.9827 81.7186 51.2499C81.8943 51.517 82.1184 51.7451 82.3783 51.9213C82.6382 52.0975 82.9286 52.2183 83.233 52.2766C83.5374 52.335 83.8498 52.3299 84.1523 52.2616C85.4246 51.9735 86.2365 50.6615 85.9613 49.3283C85.8462 48.772 85.5518 48.2743 85.1276 47.919C84.7035 47.5638 84.1755 47.3726 83.6326 47.3779ZM15.2331 71.3508C15.1172 71.3538 15.0018 71.3692 14.8889 71.3968C13.9488 71.6103 13.3451 72.5834 13.5487 73.5702C13.7512 74.557 14.6811 75.1809 15.6212 74.9674C15.8449 74.9167 16.0569 74.8202 16.2449 74.6834C16.433 74.5467 16.5936 74.3725 16.7174 74.1707C16.8412 73.9689 16.9258 73.7434 16.9665 73.5073C17.0071 73.2712 17.003 73.0289 16.9543 72.7945C16.8695 72.383 16.6521 72.0148 16.3385 71.7518C16.025 71.4888 15.6346 71.3472 15.2331 71.3508ZM66.5156 77.4478C65.7324 77.456 64.9696 77.7102 64.3256 78.1775C62.5414 79.4698 62.0963 82.0356 63.3297 83.9058C64.5626 85.7756 67.0079 86.2423 68.7932 84.95C70.5774 83.6577 71.0225 81.0916 69.7892 79.2217C69.4242 78.6672 68.9347 78.2153 68.3638 77.9059C67.7929 77.5965 67.1581 77.4392 66.5156 77.4478ZM42.7489 84.9193C42.2667 84.9256 41.7973 85.0833 41.4016 85.3722C41.1399 85.5618 40.9164 85.8035 40.7438 86.0837C40.5713 86.3638 40.453 86.6768 40.3959 87.0049C40.3388 87.3329 40.3439 87.6696 40.411 87.9956C40.478 88.3215 40.6056 88.6305 40.7866 88.9047C40.9674 89.179 41.198 89.4133 41.4651 89.5941C41.7323 89.775 42.0308 89.8989 42.3436 89.9587C42.6565 90.0186 42.9775 90.0133 43.2884 89.9431C43.5993 89.8728 43.8939 89.7391 44.1555 89.5495C44.4171 89.36 44.6406 89.1183 44.8131 88.8382C44.9856 88.558 45.1038 88.245 45.1609 87.917C45.218 87.589 45.2129 87.2524 45.146 86.9265C45.0789 86.6005 44.9514 86.2916 44.7705 86.0174C44.5452 85.6748 44.243 85.3954 43.8906 85.2039C43.5381 85.0125 43.1458 84.9147 42.7489 84.9193Z" fill="#E51937"/>
</svg>
