<svg width="91" height="91" viewBox="0 0 91 91" fill="none" xmlns="http://www.w3.org/2000/svg">
<path d="M70.983 40.2971V57.2695C70.983 58.3728 70.9404 59.4335 70.8128 60.4519C69.8343 71.9083 63.0701 77.594 50.6051 77.594H48.9034C47.8398 77.594 46.8188 78.1032 46.1807 78.9518L41.0756 85.7408C38.8208 88.7534 35.1622 88.7534 32.9074 85.7408L27.8023 78.9518C27.2492 78.2305 26.0155 77.594 25.0796 77.594H23.3779C9.80685 77.594 3 74.242 3 57.2695V40.2971C3 27.8649 8.74329 21.1183 20.1872 20.1424C21.2083 20.0151 22.2718 19.9727 23.3779 19.9727H50.6051C64.1762 19.9727 70.983 26.7617 70.983 40.2971Z" stroke="#5865F2" stroke-width="6" stroke-miterlimit="10" stroke-linecap="round" stroke-linejoin="round"/>
<path d="M88.0001 23.3245V40.2969C88.0001 52.7716 82.2569 59.4757 70.813 60.4516C70.9406 59.4333 70.9831 58.3725 70.9831 57.2693V40.2969C70.9831 26.7614 64.1763 19.9724 50.6052 19.9724H23.3782C22.2721 19.9724 21.2085 20.0149 20.1875 20.1422C21.166 8.72823 27.9302 3 40.395 3H67.6223C81.1933 3 88.0001 9.78901 88.0001 23.3245Z" stroke="#5865F2" stroke-width="6" stroke-miterlimit="10" stroke-linecap="round" stroke-linejoin="round"/>
<path d="M51.9023 50.7354H51.9406" stroke="#5865F2" stroke-width="6" stroke-linecap="round" stroke-linejoin="round"/>
<path d="M37.0137 50.7354H37.052" stroke="#5865F2" stroke-width="6" stroke-linecap="round" stroke-linejoin="round"/>
<path d="M22.123 50.7354H22.1613" stroke="#5865F2" stroke-width="6" stroke-linecap="round" stroke-linejoin="round"/>
</svg>
