<svg width="85" height="85" viewBox="0 0 85 85" fill="none" xmlns="http://www.w3.org/2000/svg">
<path d="M84.7807 12.101C84.3975 9.64202 83.5417 7.39178 82.3466 5.53284C82.0946 5.1278 81.8313 4.76506 81.5459 4.40233C79.4283 1.69122 76.4563 0 73.2095 0H11.7906C8.54385 0 5.58245 1.69122 3.45496 4.40233C3.17024 4.76506 2.90694 5.1278 2.65426 5.53284C1.45845 7.39157 0.602638 9.64202 0.230098 12.101C0.0770314 13.05 0 14.0308 0 15.0224V69.9791C0 72.0874 0.350958 74.1141 0.976838 75.9443C1.5574 77.6913 2.41337 79.2722 3.45479 80.5977C3.71876 80.9331 3.9809 81.2415 4.26694 81.5482C6.30661 83.7003 8.93946 85 11.7906 85H73.2095C76.0617 85 78.706 83.7003 80.7339 81.5347C81.0191 81.2415 81.2826 80.9331 81.5459 80.5977C82.5868 79.2722 83.4426 77.6913 84.0351 75.9443V75.9307C84.6608 74.1006 85 72.0874 85 69.9793V15.0224C85.0002 14.0308 84.9243 13.05 84.7807 12.101ZM7.72124 9.83703C8.77461 8.49649 10.1892 7.68493 11.7906 7.68493H73.2095C74.8109 7.68493 76.238 8.49649 77.2789 9.83703C77.4652 10.0758 77.6407 10.3419 77.7956 10.6063L45.6039 46.3501C44.7161 47.3414 43.6194 47.8311 42.5001 47.8311C41.3921 47.8311 40.2961 47.3414 39.3964 46.3501L7.21705 10.5911C7.35949 10.3267 7.53497 10.0758 7.72124 9.83703ZM6.03202 69.9791V18.5435L29.328 44.4353L6.04381 70.2996C6.03202 70.2014 6.03202 70.091 6.03202 69.9791ZM73.2095 77.3136H11.7906C10.7479 77.3136 9.7722 76.9644 8.93946 76.3508L33.5062 49.0749L35.7997 51.6168C37.719 53.7417 40.1207 54.8178 42.5001 54.8178C44.8917 54.8178 47.2933 53.7417 49.2124 51.6168L51.5048 49.0749L76.0619 76.3508C75.228 76.9644 74.2523 77.3136 73.2095 77.3136ZM78.9681 69.9791C78.9681 70.091 78.9681 70.2014 78.9569 70.2996L55.6728 44.4503L78.9681 18.5573V69.9791Z" fill="url(#paint0_linear_467_314)"/>
<defs>
<linearGradient id="paint0_linear_467_314" x1="42.5" y1="0" x2="42.5" y2="85" gradientUnits="userSpaceOnUse">
<stop stop-color="#EB4335"/>
<stop offset="0.359375" stop-color="#FBBC05"/>
<stop offset="0.692708" stop-color="#34A853"/>
<stop offset="0.916667" stop-color="#4285F4"/>
</linearGradient>
</defs>
</svg>
