<svg width="85" height="85" viewBox="0 0 85 85" fill="none" xmlns="http://www.w3.org/2000/svg">
<path d="M63.88 42.5C63.88 46.4844 62.0594 49.7275 59.8225 49.7275C57.5857 49.7275 55.765 46.4844 55.765 42.5C55.765 38.5156 57.5857 35.2725 59.8225 35.2725C62.0594 35.2725 63.88 38.5156 63.88 42.5ZM13.1956 42.5C13.1956 46.4844 15.0163 49.7275 17.2532 49.7275C19.49 49.7275 21.3107 46.4844 21.3107 42.5C21.3107 38.5156 19.49 35.2725 17.2532 35.2725C15.0163 35.2725 13.1956 38.5156 13.1956 42.5ZM6.67585 85H53.1467V74.8383H13.5424C13.6118 74.1279 13.6638 73.3866 13.6638 72.6145C13.6638 65.9738 10.6293 60.5687 6.90126 60.5687C6.50245 60.5687 6.10363 60.6305 5.72215 60.754V24.2151C6.10363 24.3387 6.50245 24.4004 6.90126 24.4004C10.6293 24.4004 13.6638 18.9953 13.6638 12.3547C13.6638 11.5825 13.6291 10.8721 13.5424 10.1308H63.1518C63.0131 11.0574 62.9437 12.0458 62.9437 13.065C62.9437 19.7057 65.9782 25.1108 69.7062 25.1108C70.2785 25.1108 70.8507 24.9873 71.3709 24.7402V49.4186H77.0757V11.8914C77.0757 5.34339 74.0759 0 70.3998 0H6.67585C2.9998 0 0 5.34339 0 11.8914V73.1086C0 79.6566 2.9998 85 6.67585 85ZM55.765 76.4753C55.2968 76.4753 54.9153 77.1548 54.9153 77.9887V83.4865C54.9153 84.3205 55.2968 85 55.765 85H76.226C76.6942 85 77.0757 84.3205 77.0757 83.4865V77.9887C77.0757 77.1548 76.6942 76.4753 76.226 76.4753H55.765ZM81.0465 71.5334V66.0356C81.0465 65.2017 80.665 64.5222 80.1969 64.5222H59.7358C59.2676 64.5222 58.8862 65.2017 58.8862 66.0356V71.5334C58.8862 72.3674 59.2676 73.0469 59.7358 73.0469H80.1969C80.665 73.0469 81.0465 72.3674 81.0465 71.5334ZM84.1503 52.569H63.6893C63.2211 52.569 62.8397 53.2485 62.8397 54.0825V59.5803C62.8397 60.4142 63.2211 61.0937 63.6893 61.0937H84.1503C84.6185 61.0937 85 60.4142 85 59.5803V54.0825C85 53.2485 84.6185 52.569 84.1503 52.569ZM38.5465 16.4317C46.6269 16.4317 53.1814 28.1068 53.1814 42.5C53.1814 56.8932 46.6269 68.5683 38.5465 68.5683C30.4661 68.5683 23.9117 56.8932 23.9117 42.5C23.9117 28.1068 30.4488 16.4317 38.5465 16.4317ZM39.8297 23.1341H38.165C37.9049 23.1341 37.7142 23.5047 37.7142 23.9371V27.4891C36.4484 27.8289 35.408 28.6319 34.6277 29.9909C33.7607 31.4735 33.3272 33.3576 33.3272 35.6741C33.3272 38.2068 33.7434 40.1526 34.5583 41.4499C35.3733 42.7471 36.6911 44.0443 38.4772 45.3416C39.2228 45.8975 39.7256 46.4844 40.0204 47.0712C40.3152 47.6581 40.4539 48.492 40.4539 49.573C40.4539 50.4996 40.3152 51.2409 40.0377 51.8278C39.7603 52.3837 39.3441 52.6926 38.7893 52.6926C38.1304 52.6926 37.5928 52.3219 37.194 51.5807C36.8645 50.9629 36.6565 50.0363 36.6044 48.8009C36.5871 48.3067 36.3443 47.936 36.0669 47.9669L33.3272 48.0596C33.0324 48.0596 32.7897 48.5229 32.7897 49.048C32.859 51.6424 33.3272 53.6192 34.1942 55.04C35.1306 56.5534 36.3097 57.48 37.7142 57.758V61.0937C37.7142 61.557 37.9223 61.8968 38.165 61.8968H39.8297C40.0898 61.8968 40.2805 61.5262 40.2805 61.0937V57.6344C41.4076 57.2638 42.3266 56.4608 43.0375 55.2562C43.8698 53.8045 44.286 51.9204 44.286 49.5421C44.286 47.0712 43.8698 45.1562 43.0375 43.7972C42.2052 42.4691 40.9047 41.1101 39.1361 39.782C38.3731 39.1951 37.8529 38.6083 37.5755 38.0214C37.298 37.4346 37.1593 36.6624 37.1593 35.7358C37.1593 34.8092 37.2807 34.0679 37.5408 33.4502C37.8009 32.8634 38.1997 32.5545 38.7372 32.5545C39.2748 32.5545 39.6909 32.9251 40.0204 33.6355C40.2805 34.2224 40.4366 35.0254 40.4886 36.1065C40.5059 36.6007 40.766 36.9404 41.0261 36.9404L43.7658 36.8786C44.0606 36.8786 44.3207 36.4153 44.3033 35.8903C44.234 33.7591 43.8525 31.9677 43.1416 30.516C42.4133 29.0025 41.4596 28.0451 40.2632 27.6126V23.9371C40.2805 23.4738 40.0724 23.1341 39.8297 23.1341Z" fill="#0E79A8"/>
</svg>
