<svg width="85" height="85" viewBox="0 0 85 85" fill="none" xmlns="http://www.w3.org/2000/svg">
<path d="M84.0185 1.0314C83.54 0.555686 82.9354 0.226318 82.2759 0.0820241C81.6163 -0.0622697 80.9293 -0.0154908 80.2954 0.216861L2.28828 28.5487C1.61553 28.8036 1.03633 29.2569 0.627615 29.8483C0.218897 30.4397 0 31.1414 0 31.86C0 32.5787 0.218897 33.2803 0.627615 33.8717C1.03633 34.4632 1.61553 34.9164 2.28828 35.1713L36.3278 48.7706L49.9436 82.7689C50.1994 83.4113 50.6379 83.9649 51.2049 84.3613C51.772 84.7578 52.4429 84.9798 53.1348 85C53.8513 84.9853 54.5466 84.7541 55.1289 84.3369C55.7113 83.9196 56.1534 83.3359 56.3969 82.6626L84.7631 4.74996C85.0047 4.12339 85.063 3.44114 84.9311 2.78275C84.7993 2.12436 84.4828 1.51698 84.0185 1.0314ZM53.1348 71.5424L43.242 46.752L60.2263 29.7883L55.2268 24.7948L38.1007 41.9001L13.422 31.8777L75.5796 9.46014L53.1348 71.5424Z" fill="url(#paint0_linear_515_574)"/>
<defs>
<linearGradient id="paint0_linear_515_574" x1="42.5" y1="0" x2="42.5" y2="85" gradientUnits="userSpaceOnUse">
<stop stop-color="#0077B5"/>
<stop offset="1" stop-color="#4C4199"/>
<stop offset="1" stop-color="#4C4199"/>
</linearGradient>
</defs>
</svg>
