<svg width="55" height="55" viewBox="0 0 55 55" fill="none" xmlns="http://www.w3.org/2000/svg">
<g clip-path="url(#clip0_454_117)">
<path d="M53.8773 12.3466V53.8772H12.3467V47.7037H31.4283V16.5557L22.7293 7.85676H12.3467V1.12207H42.6528V12.3466H53.8773Z" fill="#3B5998"/>
<path d="M53.8768 12.3466H42.6523V1.12207L53.8768 12.3466Z" fill="#3B5998"/>
<path d="M31.4282 16.5554V47.7034H12.3466H1.12207V7.85645H12.3466H22.7292V16.5554H31.4282Z" fill="#3B5998"/>
<path d="M31.4285 16.5554H22.7295V7.85645L31.4285 16.5554Z" fill="#3B5998"/>
<path d="M54.9973 12.3469C54.9972 12.0549 54.8858 11.768 54.6712 11.5533L43.4467 0.328765C43.232 0.114153 42.945 0.00291837 42.6531 0.00280612V0H12.3469C11.727 0 11.2245 0.50252 11.2245 1.12245V6.73469H1.12245C0.50252 6.73469 0 7.23733 0 7.85714V47.7041C0 48.3239 0.50252 48.8265 1.12245 48.8265H11.2245V53.8776C11.2245 54.4974 11.727 55 12.3469 55H53.8776C54.4975 55 55 54.4974 55 53.8776V12.3469H54.9973ZM43.7755 3.83238L51.1677 11.2245H43.7755V3.83238ZM2.2449 8.97959H21.6071V16.5561C21.6071 17.1761 22.1097 17.6786 22.7296 17.6786H30.3061V46.5816H2.2449V8.97959ZM23.852 10.5671L28.7186 15.4337H23.852V10.5671ZM13.4694 52.7551V48.8265H31.4286C32.0485 48.8265 32.551 48.3239 32.551 47.7041V16.5561C32.551 16.2584 32.4327 15.973 32.2223 15.7624L23.5233 7.06346C23.3128 6.853 23.0273 6.73469 22.7296 6.73469H13.4694V2.2449H41.5306V12.3469C41.5306 12.9668 42.0331 13.4694 42.6531 13.4694H52.7551V52.7551H13.4694Z" fill="#D2D2D2"/>
<path d="M49.3877 17.959H34.7959V20.2039H49.3877V17.959Z" fill="#D2D2D2"/>
<path d="M49.3877 24.6943H34.7959V26.9392H49.3877V24.6943Z" fill="#D2D2D2"/>
<path d="M49.3877 31.4287H34.7959V33.6736H49.3877V31.4287Z" fill="#D2D2D2"/>
<path d="M49.3877 38.1631H34.7959V40.408H49.3877V38.1631Z" fill="#D2D2D2"/>
<path d="M49.3877 44.8984H34.7959V47.1433H49.3877V44.8984Z" fill="#D2D2D2"/>
<path d="M12.3467 11.7861H5.05078V14.031H12.3467V11.7861Z" fill="#D2D2D2"/>
<path d="M12.3467 16.2754H5.05078V18.5203H12.3467V16.2754Z" fill="#D2D2D2"/>
<path d="M27.4998 23.0098H5.05078V25.2547H27.4998V23.0098Z" fill="#D2D2D2"/>
<path d="M27.4998 28.6221H5.05078V30.867H27.4998V28.6221Z" fill="#D2D2D2"/>
<path d="M27.4998 34.2344H5.05078V36.4793H27.4998V34.2344Z" fill="#D2D2D2"/>
<path d="M27.4998 39.8467H5.05078V42.0916H27.4998V39.8467Z" fill="#D2D2D2"/>
</g>
<defs>
<clipPath id="clip0_454_117">
<rect width="55" height="55" fill="white"/>
</clipPath>
</defs>
</svg>
