<svg width="65" height="65" viewBox="0 0 65 65" fill="none" xmlns="http://www.w3.org/2000/svg">
<g clip-path="url(#clip0_454_117)">
<path d="M63.6734 14.5915V63.6731H14.5918V56.3772H37.1428V19.566L26.8622 9.28536H14.5918V1.32617H50.4081V14.5915H63.6734Z" fill="#3B5998"/>
<path d="M63.6735 14.5915H50.4082V1.32617L63.6735 14.5915Z" fill="#3B5998"/>
<path d="M37.1425 19.5658V56.377H14.5915H1.32617V9.28516H14.5915H26.8619V19.5658H37.1425Z" fill="#3B5998"/>
<path d="M37.1429 19.5658H26.8623V9.28516L37.1429 19.5658Z" fill="#3B5998"/>
<path d="M64.9968 14.5918C64.9967 14.2467 64.8651 13.9076 64.6115 13.6538L51.3462 0.388541C51.0924 0.134908 50.7532 0.00344898 50.4082 0.00331633V0H14.5918C13.8592 0 13.2653 0.593888 13.2653 1.32653V7.95918H1.32653C0.593888 7.95918 0 8.5532 0 9.28571V56.3775C0 57.1101 0.593888 57.7041 1.32653 57.7041H13.2653V63.6735C13.2653 64.406 13.8592 65 14.5918 65H63.6735C64.4061 65 65 64.406 65 63.6735V14.5918H64.9968ZM51.7347 4.52917L60.471 13.2653H51.7347V4.52917ZM2.65306 10.6122H25.5357V19.5663C25.5357 20.299 26.1296 20.8929 26.8622 20.8929H35.8163V55.051H2.65306V10.6122ZM28.1888 12.4884L33.9402 18.2398H28.1888V12.4884ZM15.9184 62.3469V57.7041H37.1429C37.8755 57.7041 38.4694 57.1101 38.4694 56.3775V19.5663C38.4694 19.2145 38.3296 18.8772 38.0808 18.6283L27.8002 8.34772C27.5515 8.099 27.214 7.95918 26.8622 7.95918H15.9184V2.65306H49.0816V14.5918C49.0816 15.3243 49.6755 15.9184 50.4082 15.9184H62.3469V62.3469H15.9184Z" fill="#D2D2D2"/>
<path d="M58.367 21.2246H41.1221V23.8777H58.367V21.2246Z" fill="#D2D2D2"/>
<path d="M58.367 29.1836H41.1221V31.8367H58.367V29.1836Z" fill="#D2D2D2"/>
<path d="M58.367 37.1426H41.1221V39.7956H58.367V37.1426Z" fill="#D2D2D2"/>
<path d="M58.367 45.1016H41.1221V47.7546H58.367V45.1016Z" fill="#D2D2D2"/>
<path d="M58.367 53.0615H41.1221V55.7146H58.367V53.0615Z" fill="#D2D2D2"/>
<path d="M14.5922 13.9287H5.96973V16.5818H14.5922V13.9287Z" fill="#D2D2D2"/>
<path d="M14.5922 19.2344H5.96973V21.8874H14.5922V19.2344Z" fill="#D2D2D2"/>
<path d="M32.5003 27.1943H5.96973V29.8474H32.5003V27.1943Z" fill="#D2D2D2"/>
<path d="M32.5003 33.8262H5.96973V36.4792H32.5003V33.8262Z" fill="#D2D2D2"/>
<path d="M32.5003 40.459H5.96973V43.112H32.5003V40.459Z" fill="#D2D2D2"/>
<path d="M32.5003 47.0918H5.96973V49.7449H32.5003V47.0918Z" fill="#D2D2D2"/>
</g>
<defs>
<clipPath id="clip0_454_117">
<rect width="65" height="65" fill="white"/>
</clipPath>
</defs>
</svg>
