<svg width="75" height="75" viewBox="0 0 75 75" fill="none" xmlns="http://www.w3.org/2000/svg">
<g clip-path="url(#clip0_454_117)">
<path d="M73.4686 16.8364V73.469H16.8359V65.0507H42.8563V22.5762L30.9941 10.7139H16.8359V1.53027H58.1625V16.8364H73.4686Z" fill="#3B5998"/>
<path d="M73.4692 16.8364H58.1631V1.53027L73.4692 16.8364Z" fill="#3B5998"/>
<path d="M42.8568 22.5761V65.0506H16.8364H1.53027V10.7139H16.8364H30.9946V22.5761H42.8568Z" fill="#3B5998"/>
<path d="M42.8564 22.5761H30.9941V10.7139L42.8564 22.5761Z" fill="#3B5998"/>
<path d="M74.9963 16.8367C74.9962 16.4385 74.8443 16.0472 74.5517 15.7544L59.2456 0.448316C58.9528 0.155663 58.5614 0.00397959 58.1633 0.00382653V0H16.8367C15.9914 0 15.3061 0.685255 15.3061 1.53061V9.18367H1.53061C0.685255 9.18367 0 9.86908 0 10.7143V65.051C0 65.8962 0.685255 66.5816 1.53061 66.5816H15.3061V73.4694C15.3061 74.3146 15.9914 75 16.8367 75H73.4694C74.3147 75 75 74.3146 75 73.4694V16.8367H74.9963ZM59.6939 5.22597L69.7742 15.3061H59.6939V5.22597ZM3.06122 12.2449H29.4643V22.5765C29.4643 23.4219 30.1495 24.1071 30.9949 24.1071H41.3265V63.5204H3.06122V12.2449ZM32.5255 14.4096L39.1618 21.0459H32.5255V14.4096ZM18.3673 71.9388V66.5816H42.8571C43.7025 66.5816 44.3878 65.8962 44.3878 65.051V22.5765C44.3878 22.1706 44.2264 21.7814 43.9394 21.4942L32.0772 9.63199C31.7902 9.345 31.4008 9.18367 30.9949 9.18367H18.3673V3.06122H56.6327V16.8367C56.6327 17.6819 57.3179 18.3673 58.1633 18.3673H71.9388V71.9388H18.3673Z" fill="#D2D2D2"/>
<path d="M67.3472 24.4902H47.4492V27.5515H67.3472V24.4902Z" fill="#D2D2D2"/>
<path d="M67.3472 33.6738H47.4492V36.7351H67.3472V33.6738Z" fill="#D2D2D2"/>
<path d="M67.3472 42.8574H47.4492V45.9186H67.3472V42.8574Z" fill="#D2D2D2"/>
<path d="M67.3472 52.041H47.4492V55.1022H67.3472V52.041Z" fill="#D2D2D2"/>
<path d="M67.3472 61.2246H47.4492V64.2858H67.3472V61.2246Z" fill="#D2D2D2"/>
<path d="M16.8367 16.0713H6.8877V19.1325H16.8367V16.0713Z" fill="#D2D2D2"/>
<path d="M16.8367 22.1943H6.8877V25.2556H16.8367V22.1943Z" fill="#D2D2D2"/>
<path d="M37.4999 31.3779H6.8877V34.4392H37.4999V31.3779Z" fill="#D2D2D2"/>
<path d="M37.4999 39.0303H6.8877V42.0915H37.4999V39.0303Z" fill="#D2D2D2"/>
<path d="M37.4999 46.6836H6.8877V49.7448H37.4999V46.6836Z" fill="#D2D2D2"/>
<path d="M37.4999 54.3369H6.8877V57.3981H37.4999V54.3369Z" fill="#D2D2D2"/>
</g>
<defs>
<clipPath id="clip0_454_117">
<rect width="75" height="75" fill="white"/>
</clipPath>
</defs>
</svg>
