<svg width="85" height="85" viewBox="0 0 85 85" fill="none" xmlns="http://www.w3.org/2000/svg">
<path d="M59.5 0H17V3.03571H59.5V0Z" fill="black"/>
<path d="M59.5 75.8926H17V78.9283H59.5V75.8926Z" fill="black"/>
<path d="M0 12.1433L0 66.7861H4.25L4.25 12.1433H0Z" fill="black"/>
<path d="M72.25 12.1433V66.7861H76.5V12.1433H72.25Z" fill="black"/>
<path d="M68 81.9639H25.5V84.9996H68V81.9639Z" fill="black"/>
<path d="M80.75 18.2146V72.8574H85V18.2146H80.75Z" fill="black"/>
<path d="M68 85.0003V81.9646H76.5C77.6272 81.9646 78.7082 81.6447 79.5052 81.0754C80.3022 80.5061 80.75 79.734 80.75 78.9289V72.8574H85V78.9289C85 80.5391 84.1045 82.0834 82.5104 83.222C80.9163 84.3606 78.7543 85.0003 76.5 85.0003H68Z" fill="black"/>
<path d="M59.5 78.929V75.8933H68C69.1272 75.8933 70.2082 75.5734 71.0052 75.0041C71.8022 74.4348 72.25 73.6627 72.25 72.8576V66.7861H76.5V72.8576C76.5 74.4678 75.6045 76.0121 74.0104 77.1507C72.4163 78.2893 70.2543 78.929 68 78.929H59.5Z" fill="black"/>
<path d="M17 78.929V75.8933H8.5C7.37283 75.8933 6.29183 75.5734 5.4948 75.0041C4.69777 74.4348 4.25 73.6627 4.25 72.8576V66.7861H0V72.8576C0 74.4678 0.895533 76.0121 2.48959 77.1507C4.08365 78.2893 6.24566 78.929 8.5 78.929H17Z" fill="black"/>
<path d="M59.5 0V3.03571H68C69.1272 3.03571 70.2082 3.35555 71.0052 3.92485C71.8022 4.49416 72.25 5.26631 72.25 6.07143V12.1429H76.5V6.07143C76.5 4.46119 75.6045 2.91689 74.0104 1.77828C72.4163 0.639666 70.2543 0 68 0H59.5Z" fill="black"/>
<path d="M17 0V3.03571H8.5C7.37283 3.03571 6.29183 3.35555 5.4948 3.92485C4.69777 4.49416 4.25 5.26631 4.25 6.07143V12.1429H0V6.07143C0 4.46119 0.895533 2.91689 2.48959 1.77828C4.08365 0.639666 6.24566 0 8.5 0H17Z" fill="black"/>
<path d="M72.25 6.07129V9.107H76.5C77.6272 9.107 78.7082 9.42684 79.5052 9.99614C80.3022 10.5655 80.75 11.3376 80.75 12.1427V18.2141H85V12.1427C85 10.5325 84.1045 8.98818 82.5104 7.84957C80.9163 6.71096 78.7543 6.07129 76.5 6.07129H72.25Z" fill="black"/>
<path d="M25.5 84.9997V81.964H17C15.8728 81.964 14.7918 81.6442 13.9948 81.0749C13.1978 80.5056 12.75 79.7334 12.75 78.9283V75.8926H8.5V78.9283C8.5 80.5385 9.39553 82.0828 10.9896 83.2214C12.5837 84.3601 14.7457 84.9997 17 84.9997H25.5Z" fill="black"/>
<path d="M12.75 63.75L63.75 63.75V60.7143L12.75 60.7143V63.75Z" fill="black"/>
<path d="M12.75 51.6074L63.75 51.6074V48.5717L12.75 48.5717V51.6074Z" fill="black"/>
<path d="M12.75 39.4639L63.75 39.4639V36.4282L12.75 36.4282V39.4639Z" fill="black"/>
<path d="M12.75 27.3213L63.75 27.3213V24.2856L12.75 24.2856V27.3213Z" fill="black"/>
<path d="M12.75 15.1787L63.75 15.1787V12.143L12.75 12.143V15.1787Z" fill="black"/>
</svg>
