<svg width="63" height="63" viewBox="0 0 63 63" fill="none" xmlns="http://www.w3.org/2000/svg">
<g filter="url(#filter0_d_436_121)">
<path d="M2 27.4997C2 38.7602 8.77126 48.4339 18.4607 52.6871C18.3833 50.7668 18.4469 48.4616 18.9393 46.3723C19.468 44.1399 22.4777 31.3878 22.4777 31.3878C22.4777 31.3878 21.5992 29.6319 21.5992 27.0369C21.5992 22.9617 23.9612 19.918 26.9027 19.918C29.4041 19.918 30.6125 21.7968 30.6125 24.0466C30.6125 26.5611 29.0088 30.3222 28.184 33.8058C27.495 36.7229 29.6466 39.1022 32.5244 39.1022C37.7346 39.1022 41.2438 32.4102 41.2438 24.4814C41.2438 18.4544 37.1844 13.9432 29.8011 13.9432C21.4594 13.9432 16.2627 20.164 16.2627 27.1128C16.2627 29.5086 16.969 31.1981 18.0755 32.5065C18.5842 33.1074 18.6549 33.3491 18.4708 34.0391C18.3389 34.5451 18.0359 35.7632 17.9105 36.2459C17.7274 36.9424 17.163 37.1914 16.5336 36.9343C12.6914 35.3658 10.902 31.1582 10.902 26.4283C10.902 18.6166 17.4902 9.24963 30.5558 9.24963C41.0549 9.24963 47.9652 16.8472 47.9652 25.0026C47.9652 35.7903 41.9678 43.8495 33.1272 43.8495C30.1584 43.8495 27.3657 42.2446 26.409 40.4217C26.409 40.4217 24.8126 46.7577 24.4744 47.9812C23.8913 50.1015 22.7501 52.2206 21.7066 53.8723C24.2369 54.6205 26.8618 55.0003 29.5003 55C44.6859 55 56.9987 42.6879 56.9987 27.4997C56.9987 12.3121 44.6859 0 29.5003 0C14.3132 0 2 12.3121 2 27.4997Z" fill="#CB1F27"/>
</g>
<defs>
<filter id="filter0_d_436_121" x="0" y="0" width="62.999" height="63" filterUnits="userSpaceOnUse" color-interpolation-filters="sRGB">
<feFlood flood-opacity="0" result="BackgroundImageFix"/>
<feColorMatrix in="SourceAlpha" type="matrix" values="0 0 0 0 0 0 0 0 0 0 0 0 0 0 0 0 0 0 127 0" result="hardAlpha"/>
<feOffset dx="2" dy="4"/>
<feGaussianBlur stdDeviation="2"/>
<feComposite in2="hardAlpha" operator="out"/>
<feColorMatrix type="matrix" values="0 0 0 0 0.796078 0 0 0 0 0.121569 0 0 0 0 0.152941 0 0 0 0.5 0"/>
<feBlend mode="normal" in2="BackgroundImageFix" result="effect1_dropShadow_436_121"/>
<feBlend mode="normal" in="SourceGraphic" in2="effect1_dropShadow_436_121" result="shape"/>
</filter>
</defs>
</svg>
