<svg width="90" height="90" viewBox="0 0 90 90" fill="none" xmlns="http://www.w3.org/2000/svg">
<path fill-rule="evenodd" clip-rule="evenodd" d="M45.0026 0C20.1517 0 0 20.1464 0 45.0026C0 63.4239 11.0813 79.2573 26.9413 86.2162C26.8143 83.0781 26.9201 79.2997 27.7192 75.8811C28.5871 72.2296 33.5085 51.3635 33.5085 51.3635C33.5085 51.3635 32.0744 48.4901 32.0744 44.2406C32.0744 37.5728 35.9428 32.5931 40.7532 32.5931C44.8439 32.5931 46.8231 35.6677 46.8231 39.3509C46.8231 43.4627 44.1983 49.6172 42.8489 55.3166C41.7217 60.0952 45.2408 63.9848 49.9506 63.9848C58.4759 63.9848 64.2177 53.0358 64.2177 40.06C64.2177 30.2011 57.5763 22.8188 45.4948 22.8188C31.8469 22.8188 23.3427 32.9953 23.3427 44.3623C23.3427 48.289 24.4964 51.0513 26.3062 53.1893C27.1424 54.1789 27.2535 54.5705 26.9519 55.703C26.7402 56.5232 26.2427 58.5235 26.0363 59.312C25.7347 60.4498 24.8139 60.8626 23.7873 60.4392C17.4952 57.8726 14.5687 50.9878 14.5687 43.2457C14.5687 30.4657 25.3484 15.1297 46.7278 15.1297C63.9108 15.1297 75.2196 27.571 75.2196 40.912C75.2196 58.5659 65.4084 71.7534 50.9349 71.7534C46.0822 71.7534 41.51 69.1286 39.9435 66.1493C39.9435 66.1493 37.3293 76.5161 36.779 78.5165C35.8264 81.9827 33.9583 85.4542 32.2491 88.1531C36.2974 89.3491 40.5733 90 45.0026 90C69.8536 90 90 69.8536 90 45.0026C90 20.1464 69.8536 0 45.0026 0Z" fill="#CC2127"/>
</svg>
