<svg width="90" height="90" viewBox="0 0 90 90" fill="none" xmlns="http://www.w3.org/2000/svg">
<path d="M57.7279 27.4329L3.30882 0.250816C2.625 -0.0961898 1.76471 -0.0769117 1.10294 0.270094C0.419118 0.6171 0 1.234 0 1.92801C0 1.92801 0.0220588 4.43416 0.0441176 8.55968L39.6838 43.2024L57.7279 27.4329Z" fill="url(#paint0_linear_508_415)"/>
<path d="M0.0449219 8.55957C0.111098 23.4423 0.309628 59.5694 0.397863 77.5559L39.7067 43.2023L0.0449219 8.55957Z" fill="url(#paint1_linear_508_415)"/>
<path d="M88.8753 42.99L57.7283 27.4326L39.6621 43.2021L60.0445 61.0151L88.8974 46.3252C89.5812 45.9781 90.0003 45.342 90.0003 44.6672C90.0003 43.9732 89.5592 43.337 88.8753 42.99Z" fill="url(#paint2_linear_508_415)"/>
<path d="M0.375 77.556C0.419118 83.9756 0.441176 88.0818 0.441176 88.0818C0.441176 88.7758 0.860294 89.412 1.54412 89.7397C2.22794 90.0867 3.06618 90.0867 3.75 89.7397L60.0662 61.0346L39.6838 43.2217L0.375 77.556Z" fill="url(#paint3_linear_508_415)"/>
<defs>
<linearGradient id="paint0_linear_508_415" x1="0" y1="21.6098" x2="57.7381" y2="21.6098" gradientUnits="userSpaceOnUse">
<stop stop-color="#63BE6B"/>
<stop offset="0.506" stop-color="#5BBC6A"/>
<stop offset="1" stop-color="#4AB96A"/>
</linearGradient>
<linearGradient id="paint1_linear_508_415" x1="0.0343336" y1="43.066" x2="39.6837" y2="43.066" gradientUnits="userSpaceOnUse">
<stop stop-color="#3EC6F2"/>
<stop offset="1" stop-color="#45AFE3"/>
</linearGradient>
<linearGradient id="paint2_linear_508_415" x1="39.6833" y1="44.2362" x2="89.995" y2="44.2362" gradientUnits="userSpaceOnUse">
<stop stop-color="#FAA51A"/>
<stop offset="0.387" stop-color="#FAB716"/>
<stop offset="0.741" stop-color="#FAC412"/>
<stop offset="1" stop-color="#FAC80F"/>
</linearGradient>
<linearGradient id="paint3_linear_508_415" x1="0.384706" y1="66.6101" x2="60.0653" y2="66.6101" gradientUnits="userSpaceOnUse">
<stop stop-color="#EC3B50"/>
<stop offset="1" stop-color="#E7515B"/>
</linearGradient>
</defs>
</svg>
