<svg width="85" height="85" viewBox="0 0 85 85" fill="none" xmlns="http://www.w3.org/2000/svg">
<path d="M84.0375 41.0137H56.6752C56.1443 41.0137 55.7136 41.4724 55.7136 42.037V54.676C55.7136 55.8042 54.8531 56.7236 53.7913 56.7236H31.2079C30.1478 56.7236 29.2856 55.8051 29.2856 54.676V42.037C29.2856 41.4715 28.8557 41.0137 28.324 41.0137H0.960715C0.429817 41.0137 0 41.4724 0 42.037V83.9762C0 84.5416 0.429817 84.9995 0.960715 84.9995H84.0375C84.5684 84.9995 85 84.5416 85 83.9762V42.037C85 41.4724 84.5693 41.0137 84.0375 41.0137Z" fill="#4176FA"/>
<path d="M49.4601 51.6344C49.8996 51.6344 50.2547 51.2562 50.2547 50.789V42.9528C50.2547 42.4847 49.8996 42.1064 49.4601 42.1064H35.5407C35.1012 42.1064 34.7461 42.4856 34.7461 42.9528V50.789C34.7461 51.2571 35.1012 51.6344 35.5407 51.6344H49.4601Z" fill="#4176FA"/>
<path d="M84.0375 10.6196H57.5163V3.07082C57.5163 1.37438 56.2251 0 54.6342 0H30.3667C28.774 0 27.4837 1.37532 27.4837 3.07082V10.6196H0.960715C0.429817 10.6196 0 11.0784 0 11.6438V35.1525C0 35.718 0.429817 36.1758 0.960715 36.1758H84.0375C84.5684 36.1758 85 35.718 85 35.1525V11.6438C85 11.0784 84.5693 10.6196 84.0375 10.6196ZM33.2506 6.14165H51.7503V10.6196H33.2506V6.14165Z" fill="#4176FA"/>
</svg>
