<svg width="65" height="65" viewBox="0 0 65 65" fill="none" xmlns="http://www.w3.org/2000/svg">
<path d="M41.2776 0.109211C37.5387 -0.539536 37.1855 4.9749 36.2613 7.89426C34.5714 16.328 28.9079 23.4641 22.0112 26.0591H2.82617V58.4965C9.25208 58.4965 15.6859 58.1721 22.1067 58.4965C26.3314 59.4696 29.4251 63.6862 33.749 64.335C38.5787 65.3081 43.4989 64.6596 48.3682 64.984C51.9149 64.6596 56.2445 65.3084 58.7568 61.7402C59.8336 58.8209 58.8783 54.9284 62.117 53.6309C65.025 51.3603 61.4953 47.1433 62.9422 44.224C64.8046 41.9534 66.0057 38.3853 63.8437 35.7903C61.1477 32.871 64.7481 28.3295 61.662 25.4101C59.3362 22.8151 55.894 23.7883 53.0143 23.464C50.2843 23.464 47.5571 23.464 44.8272 23.1397C42.6709 21.1934 45.3132 17.6253 45.2426 15.0303C45.6354 11.4622 45.9406 7.56957 45.0956 4.32583C44.5163 2.37959 43.2898 0.109211 41.2776 0.109211Z" fill="#3B5998"/>
<path d="M2.82617 42.2793V58.498C9.25208 58.5337 15.6582 58.4688 22.0787 58.5985C26.3034 59.549 29.411 63.795 33.7377 64.4794C38.5674 65.3261 43.5272 64.8525 48.3965 64.9855C51.9432 64.8882 56.2162 65.5758 58.7286 61.8423C59.8053 58.9456 58.8473 55.0921 62.0859 53.8335C64.994 51.3747 61.5207 47.3136 62.9677 44.3066C63.4764 43.7228 63.937 43.0383 64.2931 42.2793H2.82617Z" fill="#3B5998"/>
<path d="M41.0741 0.110155C37.194 -0.538593 36.8379 5.29998 35.9363 8.86809C33.9892 16.6531 28.549 23.7895 21.7871 25.7358C15.4802 26.0601 9.14497 25.7357 2.82617 26.0601V58.4974C4.91153 59.1462 5.1345 57.1999 4.92763 55.2537V29.3038C11.3869 29.3038 17.888 29.6283 24.3212 28.9795C31.0331 26.3845 36.4592 19.5726 38.1944 11.4632C38.9885 8.2195 39.4746 3.02952 43.0693 3.35389C46.811 4.97576 42.1933 -0.862967 41.0741 0.110155ZM44.6802 23.4649C45.3952 28.0061 49.7021 26.3843 52.466 26.7087C55.699 26.7087 59.0536 26.7088 62.1735 27.6819C62.0859 24.4382 58.6099 23.4649 56.3292 23.4649C52.449 23.1405 48.5604 23.4649 44.6802 23.4649Z" fill="#BDC3C7"/>
<path d="M2.82617 22.8164V24.4383V26.0601V42.2788H19.7826V24.4383C19.7826 23.4652 19.1498 22.8164 18.3695 22.8164H2.82617Z" fill="#ECF0F1"/>
<path d="M0 22.8164V24.4383V26.0601V42.2788H16.9564V24.4383C16.9564 23.4652 16.3236 22.8164 15.5434 22.8164H0Z" fill="#3B5998"/>
<path d="M2.82617 61.7407V60.1189V58.497V42.2783H19.7826V60.1189C19.7826 60.7676 19.1498 61.7407 18.3695 61.7407H2.82617Z" fill="#BDC3C7"/>
<path d="M0 61.7407V60.1189V58.497V42.2783H16.9564V60.1189C16.9564 60.7676 16.3236 61.7407 15.5434 61.7407H0Z" fill="#3B5998"/>
</svg>
