<svg width="75" height="75" viewBox="0 0 75 75" fill="none" xmlns="http://www.w3.org/2000/svg">
<path d="M47.628 0.126088C43.3138 -0.622467 42.9062 5.74034 41.8399 9.10884C39.8899 18.8401 33.3552 27.0741 25.3974 30.0683H3.26074V67.496C10.6753 67.496 18.0989 67.1218 25.5076 67.496C30.3823 68.6189 33.9519 73.4842 38.941 74.2328C44.5138 75.3556 50.191 74.6073 55.8094 74.9816C59.9018 74.6073 64.8975 75.3559 67.7964 71.2388C69.0387 67.8703 67.9366 63.379 71.6735 61.8819C75.0289 59.2619 70.9561 54.3962 72.6257 51.0277C74.7746 48.4078 76.1605 44.2908 73.6659 41.2966C70.555 37.9281 74.7094 32.688 71.1485 29.3195C68.4648 26.3252 64.4931 27.4482 61.1703 27.0739C58.0203 27.0739 54.8736 27.074 51.7236 26.6997C49.2356 24.454 52.2845 20.337 52.2029 17.3428C52.6562 13.2257 53.0084 8.7342 52.0334 4.99142C51.3649 2.74576 49.9497 0.126088 47.628 0.126088Z" fill="#3B5998"/>
<path d="M3.26074 48.7842V67.4981C10.6753 67.5392 18.067 67.4644 25.4753 67.6141C30.35 68.7107 33.9356 73.61 38.928 74.3997C44.5008 75.3766 50.2236 74.8302 55.8421 74.9836C59.9344 74.8713 64.8649 75.6648 67.7638 71.3569C69.0061 68.0146 67.9007 63.5681 71.6377 62.1159C74.9931 59.2789 70.9855 54.593 72.655 51.1234C73.242 50.4497 73.7735 49.66 74.1844 48.7842H3.26074Z" fill="#3B5998"/>
<path d="M47.3932 0.127101C42.916 -0.621454 42.5052 6.11536 41.4649 10.2324C39.2182 19.2151 32.9411 27.4494 25.1388 29.6951C17.8616 30.0694 10.5517 29.695 3.26074 30.0693V67.497C5.66693 68.2456 5.92421 65.9999 5.68552 63.7543V33.8121C13.1385 33.8121 20.6398 34.1864 28.0628 33.4379C35.8074 30.4437 42.0682 22.5837 44.0704 13.2268C44.9867 9.48404 45.5475 3.4956 49.6953 3.86988C54.0127 5.74126 48.6845 -0.995731 47.3932 0.127101ZM51.554 27.0749C52.379 32.3148 57.3486 30.4434 60.5377 30.8177C64.2681 30.8177 68.1388 30.8179 71.7387 31.9407C71.6377 28.1979 67.6268 27.0749 64.9953 27.0749C60.5181 26.7006 56.0312 27.0749 51.554 27.0749Z" fill="#BDC3C7"/>
<path d="M3.26074 26.3271V28.1985V30.0699V48.7838H22.8259V28.1985C22.8259 27.0757 22.0958 26.3271 21.1955 26.3271H3.26074Z" fill="#ECF0F1"/>
<path d="M0 26.3271V28.1985V30.0699V48.7838H19.5651V28.1985C19.5651 27.0757 18.835 26.3271 17.9347 26.3271H0Z" fill="#3B5998"/>
<path d="M3.26074 71.2399V69.3685V67.4971V48.7832H22.8259V69.3685C22.8259 70.117 22.0958 71.2399 21.1955 71.2399H3.26074Z" fill="#BDC3C7"/>
<path d="M0 71.2399V69.3685V67.4971V48.7832H19.5651V69.3685C19.5651 70.117 18.835 71.2399 17.9347 71.2399H0Z" fill="#3B5998"/>
</svg>
