<svg width="55" height="55" viewBox="0 0 55 55" fill="none" xmlns="http://www.w3.org/2000/svg">
<path d="M34.9276 0.0923341C31.7639 -0.456603 31.465 4.20943 30.6831 6.67965C29.2531 13.8158 24.4609 19.8541 18.6252 22.0498H2.3916V49.4967C7.82894 49.4967 13.273 49.2222 18.706 49.4967C22.2808 50.3201 24.8985 53.888 28.5572 54.4369C32.6439 55.2603 36.8072 54.7116 40.9274 54.9861C43.9285 54.7116 47.5919 55.2605 49.7178 52.2414C50.6289 49.7711 49.8206 46.4775 52.5611 45.3797C55.0217 43.4584 52.035 39.8902 53.2593 37.42C54.8352 35.4987 55.8515 32.4796 54.0221 30.2839C51.7408 27.8137 54.7874 23.9709 52.1761 21.5007C50.208 19.3049 47.2954 20.1284 44.8587 19.8539C42.5487 19.8539 40.2411 19.854 37.9311 19.5795C36.1065 17.9327 38.3424 14.9136 38.2826 12.7178C38.615 9.69867 38.8733 6.40491 38.1583 3.66022C37.668 2.01341 36.6302 0.0923341 34.9276 0.0923341Z" fill="#3B5998"/>
<path d="M2.3916 35.7744V49.4978C7.82894 49.528 13.2495 49.4731 18.6823 49.5829C22.2571 50.3871 24.8866 53.9799 28.5476 54.559C32.6344 55.2754 36.8311 54.8747 40.9513 54.9872C43.9524 54.9049 47.568 55.4867 49.6939 52.3276C50.605 49.8766 49.7943 46.6159 52.5348 45.551C54.9954 43.4705 52.0565 40.0342 53.2808 37.4898C53.7113 36.9958 54.1011 36.4167 54.4024 35.7744H2.3916Z" fill="#3B5998"/>
<path d="M34.7554 0.0932071C31.4722 -0.45573 31.1709 4.48457 30.4081 7.50373C28.7605 14.091 24.1572 20.1295 18.4355 21.7763C13.0989 22.0508 7.73831 21.7762 2.3916 22.0507V49.4976C4.15614 50.0465 4.34481 48.3997 4.16977 46.7529V24.7954C9.63532 24.7954 15.1363 25.0699 20.5798 24.521C26.2592 22.3252 30.8505 16.5613 32.3187 9.69961C32.9907 6.95492 33.402 2.56342 36.4437 2.83789C39.6098 4.21024 35.7024 -0.730199 34.7554 0.0932071ZM37.8067 19.8548C38.4117 23.6974 42.0561 22.325 44.3948 22.5995C47.1304 22.5995 49.9689 22.5996 52.6089 23.423C52.5348 20.6784 49.5935 19.8548 47.6637 19.8548C44.3804 19.5803 41.09 19.8548 37.8067 19.8548Z" fill="#BDC3C7"/>
<path d="M2.3916 19.3066V20.679V22.0513V35.7748H16.7394V20.679C16.7394 19.8556 16.204 19.3066 15.5437 19.3066H2.3916Z" fill="#ECF0F1"/>
<path d="M0 19.3066V20.679V22.0513V35.7748H14.3478V20.679C14.3478 19.8556 13.8124 19.3066 13.1521 19.3066H0Z" fill="#3B5998"/>
<path d="M2.3916 52.2425V50.8702V49.4978V35.7744H16.7394V50.8702C16.7394 51.4191 16.204 52.2425 15.5437 52.2425H2.3916Z" fill="#BDC3C7"/>
<path d="M0 52.2425V50.8702V49.4978V35.7744H14.3478V50.8702C14.3478 51.4191 13.8124 52.2425 13.1521 52.2425H0Z" fill="#3B5998"/>
</svg>
