<svg width="85" height="85" viewBox="0 0 85 85" fill="none" xmlns="http://www.w3.org/2000/svg">
<path d="M20.0439 0.0498917C14.904 0.598704 10.1966 2.89374 6.48723 6.65227C3.17708 9.99504 1.28081 13.5374 0.29941 18.2272C0.0166339 19.541 0 21.1542 0 42.508C0 63.8618 0.0166339 65.475 0.29941 66.7888C1.29745 71.4953 3.19371 75.0376 6.48723 78.3637C9.83064 81.7398 13.4735 83.7022 18.2141 84.7C19.5282 84.9828 21.1417 84.9994 42.4997 84.9994C68.0493 84.9994 66.3527 85.0659 69.9789 83.8186C73.2558 82.6877 75.7342 81.1244 78.3624 78.5134C81.7224 75.2039 83.7019 71.5285 84.6999 66.7888C84.9827 65.475 84.9993 63.8618 84.9993 42.508C84.9993 17.1462 85.0658 18.8259 83.9015 15.3002C82.8036 11.9242 81.1402 9.29655 78.4289 6.58575C75.1354 3.29287 71.8419 1.48013 67.201 0.382505C65.7206 0.033261 65.4877 0.033261 43.165 -3.6884e-07C30.7727 -3.6884e-07 20.3599 0.0166303 20.0439 0.0498917ZM66.6188 5.37171C70.0953 6.35292 72.7068 7.83305 74.9524 10.0616C77.2146 12.34 78.745 15.0508 79.6598 18.4767C80.0091 19.8071 80.0091 19.8404 80.0091 42.508C80.0091 65.1756 80.0091 65.2089 79.6598 66.5393C78.745 69.9653 77.2146 72.6761 74.9524 74.9545C72.6736 77.2162 69.9622 78.7462 66.5357 79.6609C65.2049 80.0102 65.1717 80.0102 42.4997 80.0102C19.8276 80.0102 19.7944 80.0102 18.4636 79.6609C15.0371 78.7462 12.3257 77.2162 10.0469 74.9545C7.81794 72.7093 6.33752 70.0983 5.35612 66.6225C4.99017 65.3752 4.99017 65.292 4.94027 43.4227C4.907 28.0726 4.94027 21.0378 5.07334 20.0566C5.60563 15.9488 7.96765 11.6747 11.1447 9.04709C13.4901 7.08467 16.9167 5.52138 19.7112 5.12225C20.3433 5.02246 29.8745 4.97257 43.0818 4.9892C65.3214 5.00583 65.3713 5.00583 66.6188 5.37171Z" fill="url(#paint0_linear_527_740)"/>
<path d="M41.3011 20.4054C40.9185 20.605 40.5359 20.9875 40.3363 21.3866C40.0203 22.0186 40.0037 22.3512 40.0037 31.0324V40.013H31.0214C22.3384 40.013 22.0058 40.0296 21.3737 40.3456C20.6252 40.7281 20.043 41.676 20.043 42.5076C20.043 43.3391 20.6252 44.2871 21.3737 44.6696C22.0058 44.9855 22.3384 45.0022 31.0214 45.0022H40.0037V53.9827C40.0037 62.664 40.0203 62.9966 40.3363 63.6285C40.7189 64.3769 41.6671 64.959 42.4988 64.959C43.3304 64.959 44.2786 64.3769 44.6612 63.6285C44.9772 62.9966 44.9938 62.664 44.9938 53.9827V45.0022H53.9762C62.6591 45.0022 62.9917 44.9855 63.6238 44.6696C64.3723 44.2871 64.9545 43.3391 64.9545 42.5076C64.9545 41.676 64.3723 40.7281 63.6238 40.3456C62.9917 40.0296 62.6591 40.013 53.9762 40.013H44.9938V31.0324C44.9938 22.3512 44.9772 22.0186 44.6612 21.3866C44.0457 20.1726 42.5487 19.7402 41.3011 20.4054Z" fill="url(#paint1_linear_527_740)"/>
<defs>
<linearGradient id="paint0_linear_527_740" x1="42.5" y1="85" x2="42.5" y2="0" gradientUnits="userSpaceOnUse">
<stop stop-color="#0960D5"/>
<stop offset="1" stop-color="#FF007F"/>
</linearGradient>
<linearGradient id="paint1_linear_527_740" x1="42.4988" y1="64.959" x2="42.4988" y2="20.0936" gradientUnits="userSpaceOnUse">
<stop stop-color="#0960D5"/>
<stop offset="1" stop-color="#FF007F"/>
</linearGradient>
</defs>
</svg>
