<svg width="85" height="85" viewBox="0 0 85 85" fill="none" xmlns="http://www.w3.org/2000/svg">
<path d="M53.9783 0.142964C49.089 -0.705388 48.627 6.50571 47.4185 10.3233C45.2085 21.3519 37.8025 30.6836 28.7836 34.0771H3.69531V76.4947C12.0985 76.4947 20.512 76.0705 28.9085 76.4947C34.4331 77.7672 38.4788 83.2812 44.1331 84.1295C50.449 85.4021 56.8831 84.554 63.2507 84.9782C67.8887 84.554 73.5505 85.4024 76.8359 80.7364C78.244 76.9188 76.9948 71.8287 81.23 70.132C85.0329 67.1628 80.417 61.6484 82.3092 57.8308C84.7446 54.8616 86.3153 50.1957 83.4881 46.8023C79.9624 42.9848 84.6707 37.046 80.635 33.2284C77.5935 29.835 73.0922 31.1076 69.3264 30.6834C65.7564 30.6834 62.1901 30.6835 58.6201 30.2594C55.8003 27.7143 59.2557 23.0484 59.1633 19.655C59.677 14.989 60.0761 9.8987 58.9711 5.65694C58.2135 3.11189 56.6096 0.142964 53.9783 0.142964Z" fill="#B0271E"/>
<path d="M3.69531 55.2881V76.4971C12.0985 76.5438 20.4758 76.459 28.8719 76.6286C34.3966 77.8715 38.4603 83.424 44.1183 84.319C50.4342 85.4262 56.9201 84.8069 63.2877 84.9808C67.9257 84.8535 73.5135 85.7528 76.799 80.8705C78.207 77.0825 76.9542 72.0432 81.1894 70.3974C84.9922 67.1821 80.4503 61.8714 82.3424 57.9392C83.0077 57.1757 83.61 56.2807 84.0757 55.2881H3.69531Z" fill="#B0271E"/>
<path d="M53.7122 0.144048C48.6381 -0.704314 48.1725 6.93074 46.9935 11.5967C44.4472 21.7771 37.3331 31.1094 28.4905 33.6545C20.243 34.0786 11.9584 33.6544 3.69531 34.0785V76.4966C6.42233 77.345 6.71392 74.7999 6.4434 72.2548V38.3204C14.8902 38.3204 23.3916 38.7446 31.8044 37.8963C40.5816 34.5028 47.6772 25.5949 49.9464 14.9904C50.9848 10.7486 51.6205 3.96168 56.3214 4.38586C61.2144 6.50677 55.1757 -1.1285 53.7122 0.144048ZM58.4279 30.6849C59.3629 36.6234 64.9951 34.5025 68.6094 34.9267C72.8372 34.9267 77.224 34.9269 81.304 36.1994C81.1894 31.9576 76.6437 30.6849 73.6613 30.6849C68.5872 30.2607 63.502 30.6849 58.4279 30.6849Z" fill="#BDC3C7"/>
<path d="M3.69531 29.8359V31.9568V34.0777V55.2868H25.8692V31.9568C25.8692 30.6843 25.0418 29.8359 24.0214 29.8359H3.69531Z" fill="#ECF0F1"/>
<path d="M0 29.8359V31.9568V34.0777V55.2868H22.1739V31.9568C22.1739 30.6843 21.3464 29.8359 20.3261 29.8359H0Z" fill="#B0271E"/>
<path d="M3.69531 80.737V78.6161V76.4952V55.2861H25.8692V78.6161C25.8692 79.4645 25.0418 80.737 24.0214 80.737H3.69531Z" fill="#BDC3C7"/>
<path d="M0 80.737V78.6161V76.4952V55.2861H22.1739V78.6161C22.1739 79.4645 21.3464 80.737 20.3261 80.737H0Z" fill="#B0271E"/>
</svg>
