<svg width="85" height="85" viewBox="0 0 85 85" fill="none" xmlns="http://www.w3.org/2000/svg">
<path d="M85 11.3333V0H0V11.3333H2.83333V68H1.41667C0.63325 68 0 68.6332 0 69.4167C0 70.2001 0.63325 70.8333 1.41667 70.8333H2.83333H41.0833V73.6667C41.0833 73.7332 41.1131 73.7913 41.1216 73.8565C38.6637 74.4756 36.8333 76.6856 36.8333 79.3333C36.8333 82.4585 39.3748 85 42.5 85C45.6252 85 48.1667 82.4585 48.1667 79.3333C48.1667 76.6856 46.3363 74.4756 43.8784 73.8565C43.8869 73.7913 43.9167 73.7332 43.9167 73.6667V70.8333H82.1667H83.5833C84.3667 70.8333 85 70.2001 85 69.4167C85 68.6332 84.3667 68 83.5833 68H82.1667V11.3333H85ZM45.3333 79.3333C45.3333 80.8959 44.0626 82.1667 42.5 82.1667C40.9374 82.1667 39.6667 80.8959 39.6667 79.3333C39.6667 77.7707 40.9374 76.5 42.5 76.5C44.0626 76.5 45.3333 77.7707 45.3333 79.3333ZM2.83333 2.83333H82.1667V8.5H2.83333V2.83333ZM79.3333 68H5.66667V11.3333H79.3333V68Z" fill="url(#paint0_linear_488_1724)"/>
<path d="M35.4173 56.6667V53.8333V38.25H24.084V53.8333V56.6667V63.75H35.4173V56.6667ZM26.9173 41.0833H32.584V53.8333H26.9173V41.0833ZM32.584 60.9167H26.9173V56.6667H32.584V60.9167Z" fill="url(#paint1_linear_488_1724)"/>
<path d="M48.1673 56.6667V53.8333V29.75H36.834V53.8333V56.6667V63.75H48.1673V56.6667ZM39.6673 32.5833H45.334V53.8333H39.6673V32.5833ZM45.334 60.9167H39.6673V56.6667H45.334V60.9167Z" fill="url(#paint2_linear_488_1724)"/>
<path d="M60.9173 56.667V53.8337V39.667H49.584V53.8337V56.667V63.7503H60.9173V56.667ZM52.4173 42.5003H58.084V53.8337H52.4173V42.5003ZM58.084 60.917H52.4173V56.667H58.084V60.917Z" fill="url(#paint3_linear_488_1724)"/>
<path d="M73.6673 56.6667V53.8333V21.25H62.334V53.8333V56.6667V63.75H73.6673V56.6667ZM65.1673 24.0833H70.834V53.8333H65.1673V24.0833ZM70.834 60.9167H65.1673V56.6667H70.834V60.9167Z" fill="url(#paint4_linear_488_1724)"/>
<path d="M11.334 53.8333V56.6667V63.75H22.6673V56.6667V53.8333V46.75H11.334V53.8333ZM19.834 60.9167H14.1673V56.6667H19.834V60.9167ZM14.1673 49.5833H19.834V53.8333H14.1673V49.5833Z" fill="url(#paint5_linear_488_1724)"/>
<path d="M11.333 35.417C11.6957 35.417 12.0584 35.2782 12.3346 35.0019L19.833 27.5035V31.167C19.833 31.9504 20.4663 32.5837 21.2497 32.5837C22.0331 32.5837 22.6664 31.9504 22.6664 31.167V24.0837C22.6664 23.8995 22.6295 23.7153 22.5573 23.5425C22.4142 23.1954 22.138 22.9192 21.7909 22.7761C21.618 22.7038 21.4339 22.667 21.2497 22.667H14.1664C13.383 22.667 12.7497 23.3002 12.7497 24.0837C12.7497 24.8671 13.383 25.5003 14.1664 25.5003H17.8299L10.3315 32.9987C9.77754 33.5527 9.77754 34.448 10.3315 35.0019C10.6077 35.2782 10.9704 35.417 11.333 35.417Z" fill="url(#paint6_linear_488_1724)"/>
<defs>
<linearGradient id="paint0_linear_488_1724" x1="42.5" y1="0" x2="42.5" y2="85" gradientUnits="userSpaceOnUse">
<stop stop-color="#F6921E"/>
<stop offset="1" stop-color="#008ED3"/>
</linearGradient>
<linearGradient id="paint1_linear_488_1724" x1="29.7507" y1="38.25" x2="29.7507" y2="63.75" gradientUnits="userSpaceOnUse">
<stop stop-color="#F6921E"/>
<stop offset="1" stop-color="#008ED3"/>
</linearGradient>
<linearGradient id="paint2_linear_488_1724" x1="42.5007" y1="29.75" x2="42.5007" y2="63.75" gradientUnits="userSpaceOnUse">
<stop stop-color="#F6921E"/>
<stop offset="1" stop-color="#008ED3"/>
</linearGradient>
<linearGradient id="paint3_linear_488_1724" x1="55.2507" y1="39.667" x2="55.2507" y2="63.7503" gradientUnits="userSpaceOnUse">
<stop stop-color="#F6921E"/>
<stop offset="1" stop-color="#008ED3"/>
</linearGradient>
<linearGradient id="paint4_linear_488_1724" x1="68.0007" y1="21.25" x2="68.0007" y2="63.75" gradientUnits="userSpaceOnUse">
<stop stop-color="#F6921E"/>
<stop offset="1" stop-color="#008ED3"/>
</linearGradient>
<linearGradient id="paint5_linear_488_1724" x1="17.0007" y1="46.75" x2="17.0007" y2="63.75" gradientUnits="userSpaceOnUse">
<stop stop-color="#F6921E"/>
<stop offset="1" stop-color="#008ED3"/>
</linearGradient>
<linearGradient id="paint6_linear_488_1724" x1="16.2912" y1="22.667" x2="16.2912" y2="35.417" gradientUnits="userSpaceOnUse">
<stop stop-color="#F6921E"/>
<stop offset="1" stop-color="#008ED3"/>
</linearGradient>
</defs>
</svg>
