<svg width="90" height="90" viewBox="0 0 90 90" fill="none" xmlns="http://www.w3.org/2000/svg">
<path fill-rule="evenodd" clip-rule="evenodd" d="M50.9991 31.5H38.25V45H50.9991C54.7284 45 57.7491 41.9766 57.7491 38.25C57.7491 34.5234 54.7284 31.5 50.9991 31.5ZM50.9991 54H38.25V67.5H29.25V22.5H50.9991C59.6981 22.5 66.7491 29.5509 66.7491 38.25C66.7491 46.9491 59.6981 54 50.9991 54ZM45 0C20.1459 0 0 20.1459 0 45C0 69.8541 20.1459 90 45 90C69.8512 90 90 69.8541 90 45C90 20.1459 69.8512 0 45 0Z" fill="#DA552F"/>
</svg>
