<svg width="85" height="85" viewBox="0 0 85 85" fill="none" xmlns="http://www.w3.org/2000/svg">
<path fill-rule="evenodd" clip-rule="evenodd" d="M84.9165 71.7122C84.9623 71.9244 84.9894 72.1392 84.9974 72.356L85 72.4939V76.6626C85 81.2672 76.4374 85 65.875 85C55.4182 85 46.9215 81.3415 46.7526 76.8005L46.75 76.6626V72.4939L46.7526 72.356C46.7606 72.1397 46.7875 71.9254 46.8327 71.7135C48.0041 72.5769 49.43 73.3733 51.0823 74.0551C54.939 75.6465 60.1393 76.6626 65.875 76.6626C71.8381 76.6626 77.2218 75.5627 81.1245 73.8613C82.5832 73.2254 83.8531 72.497 84.9165 71.7122ZM38.25 0L76.5 20.8435L76.5002 36.2265C73.3672 35.4375 69.7428 34.9755 65.875 34.9755C60.0501 34.9755 54.7777 36.0259 50.8883 37.7214C45.5625 40.0432 42.8512 43.5939 42.5084 47.1872L42.4988 47.2961L42.523 81.0456L38.25 83.3742L0 62.5307V20.8435L38.25 0ZM84.9165 59.206C84.9623 59.4183 84.9894 59.6331 84.9974 59.8499L85 59.9877V64.1564C85 68.7611 76.4374 72.4939 65.875 72.4939C55.4182 72.4939 46.9215 68.8354 46.7526 64.2943L46.75 64.1564V59.9877L46.7526 59.8499C46.7606 59.6336 46.7875 59.4193 46.8327 59.2073C48.0041 60.0708 49.43 60.8672 51.0823 61.549C54.939 63.1403 60.1393 64.1564 65.875 64.1564C71.8381 64.1564 77.2218 63.0565 81.1245 61.3552C82.5832 60.7192 83.8531 59.9908 84.9165 59.206ZM25.4998 38.9074L25.5 67.163L34 71.795V43.5391L25.4998 38.9074ZM8.5 29.6438V57.8988L16.9999 62.5308V34.2756L8.5 29.6438ZM65.875 39.1442C76.3318 39.1442 84.8285 42.8027 84.9974 47.3437L85 47.4816V51.6503C85 56.2549 76.4374 59.9877 65.875 59.9877C55.4182 59.9877 46.9215 56.3292 46.7526 51.7882L46.75 51.6503V47.4816L46.7783 47.0242C47.3231 42.6323 55.6646 39.1442 65.875 39.1442ZM54.9826 18.3819L29.9649 32.0772L38.25 36.592L63.325 22.9279L54.9826 18.3819ZM38.25 9.2638L13.175 22.9279L21.4748 27.4508L46.4923 13.7554L38.25 9.2638Z" fill="#DA552F"/>
</svg>
