<svg width="85" height="85" viewBox="0 0 85 85" fill="none" xmlns="http://www.w3.org/2000/svg">
<path d="M28.3327 21.2503H17.7077C15.7491 21.2503 14.166 19.6637 14.166 17.7087C14.166 15.7537 15.7491 14.167 17.7077 14.167H28.3327C30.2912 14.167 31.8743 15.7537 31.8743 17.7087C31.8743 19.6637 30.2912 21.2503 28.3327 21.2503ZM46.041 35.417H17.7077C15.7491 35.417 14.166 33.8303 14.166 31.8753C14.166 29.9203 15.7491 28.3337 17.7077 28.3337H46.041C47.9996 28.3337 49.5827 29.9203 49.5827 31.8753C49.5827 33.8303 47.9996 35.417 46.041 35.417ZM46.041 49.5837H17.7077C15.7491 49.5837 14.166 47.997 14.166 46.042C14.166 44.087 15.7491 42.5003 17.7077 42.5003H46.041C47.9996 42.5003 49.5827 44.087 49.5827 46.042C49.5827 47.997 47.9996 49.5837 46.041 49.5837Z" fill="#4176FA"/>
<path d="M63.75 7.08333V35.4167C63.75 37.3646 62.1563 38.9583 60.2083 38.9583C58.2604 38.9583 56.6667 37.3646 56.6667 35.4167V8.85417C56.6667 7.8625 55.8875 7.08333 54.8958 7.08333H8.85417C7.8625 7.08333 7.08333 7.8625 7.08333 8.85417V76.1458C7.08333 77.1375 7.8625 77.9167 8.85417 77.9167H54.8958C55.8875 77.9167 56.6667 77.1375 56.6667 76.1458V74.375C56.6667 72.4271 58.2604 70.8333 60.2083 70.8333C62.1563 70.8333 63.75 72.4271 63.75 74.375V77.9167C63.75 81.8125 60.5625 85 56.6667 85H7.08333C3.1875 85 0 81.8125 0 77.9167V7.08333C0 3.1875 3.1875 0 7.08333 0H56.6667C60.5625 0 63.75 3.1875 63.75 7.08333Z" fill="#4176FA"/>
<path d="M84.5415 42.0821C85.6394 43.9946 84.7009 46.5907 82.4342 47.9011L48.2571 67.6282C47.9596 67.8053 47.6338 67.9328 47.3186 68.0178L37.9119 70.3553C36.6015 70.6811 35.3619 70.2313 34.7953 69.2432C34.2215 68.2586 34.4765 66.9411 35.3974 66.0096L42.1513 59.075C42.3744 58.82 42.6365 58.6394 42.9092 58.4836C42.9234 58.4482 42.9517 58.4305 42.9517 58.4305L77.1288 38.7034C79.3955 37.393 82.1155 37.8746 83.2205 39.7836L84.5451 42.0857L84.5415 42.0821Z" fill="#4176FA"/>
</svg>
