<svg width="85" height="85" viewBox="0 0 85 85" fill="none" xmlns="http://www.w3.org/2000/svg">
<path d="M17.622 63.2896C22.4885 63.2896 26.4335 59.0834 26.4335 53.8948C26.4335 48.7062 22.4885 44.5 17.622 44.5C12.7556 44.5 8.81055 48.7062 8.81055 53.8948C8.81055 59.0834 12.7556 63.2896 17.622 63.2896Z" fill="#BBBBBB"/>
<path d="M17.2312 84.9998L8.81082 65.376C8.81082 65.376 0 65.5813 0 74.1442V84.9996H17.2312V84.9998Z" fill="#EE733A"/>
<path d="M18.0137 84.9998L26.43 65.376C26.43 65.376 35.2409 65.5841 35.2409 74.1442V84.9996H18.0137V84.9998Z" fill="#EE733A"/>
<path d="M11.4648 65.376L17.6221 79.9896L23.7808 65.376H11.4648Z" fill="#EE733A"/>
<path d="M67.3779 63.2896C72.2443 63.2896 76.1894 59.0834 76.1894 53.8948C76.1894 48.7062 72.2443 44.5 67.3779 44.5C62.5114 44.5 58.5664 48.7062 58.5664 53.8948C58.5664 59.0834 62.5114 63.2896 67.3779 63.2896Z" fill="#BBBBBB"/>
<path d="M66.987 84.9998L58.5706 65.376C58.5706 65.376 49.7598 65.5841 49.7598 74.1442V84.9996H66.987V84.9998Z" fill="#EE733A"/>
<path d="M67.7695 84.9998L76.1885 65.376C76.1885 65.376 85.0007 65.5813 85.0007 74.1442V84.9996H67.7695V84.9998Z" fill="#EE733A"/>
<path d="M61.2207 65.376L67.3794 79.9896L73.5365 65.376H61.2207Z" fill="#EE733A"/>
<path d="M9.83071 35.1581L7.4082 31.7879L31.9321 11.7564L44.1297 25.8093L68.6485 5.72266L71.0761 9.09144L43.6728 31.5401L31.4728 17.4815L9.83071 35.1581Z" fill="#EE733A"/>
<path d="M77.2065 0L65.0078 2.94822L73.501 12.7374L77.2065 0Z" fill="#EE733A"/>
</svg>
