<svg width="90" height="90" viewBox="0 0 90 90" fill="none" xmlns="http://www.w3.org/2000/svg">
<path d="M45 90C69.8528 90 90 69.8528 90 45C90 20.1472 69.8528 0 45 0C20.1472 0 0 20.1472 0 45C0 69.8528 20.1472 90 45 90Z" fill="#B0271E"/>
<path d="M65.8005 59.6661C65.8005 59.6661 65.5484 63.364 62.1868 63.364C59.5907 63.364 57.8177 61.3836 56.1573 58.8125C60.8728 54.6964 63.8673 48.5497 63.8673 41.6812C63.8673 29.2884 54.1221 19.2422 42.1006 19.2422C30.0791 19.2422 20.334 29.2886 20.334 41.6812C20.334 54.0738 30.0791 64.1204 42.1006 64.1204C44.2824 64.1204 46.3883 63.788 48.3755 63.1722C50.8895 67.1661 54.081 70.7573 59.077 70.7573C69.2458 70.7573 69.6661 59.6661 69.6661 59.6661H65.8005ZM42.1008 60.4225C35.092 60.4225 29.4104 52.0315 29.4104 41.6812C29.4104 31.3308 35.092 22.9399 42.1008 22.9399C49.1096 22.9399 54.7912 31.3308 54.7912 41.6812C54.7912 45.7969 53.892 49.6021 52.3691 52.6939C50.6485 50.2375 48.5833 48.1461 45.6307 47.48C40.3927 46.2988 35.8818 48.6567 34.4531 49.8334L35.7976 52.6067C35.7976 52.6067 37.157 51.8252 40.5276 52.6058C42.6512 53.0977 44.3018 56.045 46.193 59.4265C44.9093 60.072 43.5325 60.4225 42.1008 60.4225Z" fill="white"/>
</svg>
