<svg width="90" height="90" viewBox="0 0 90 90" fill="none" xmlns="http://www.w3.org/2000/svg">
<path d="M45 0C20.1797 0 0 20.1797 0 45C0 69.8204 20.1797 90 45 90C69.8204 90 90 69.8204 90 45C90 20.1797 69.8204 0 45 0Z" fill="#F24100"/>
<path fill-rule="evenodd" clip-rule="evenodd" d="M57.92 22.209C57.8792 22.4672 57.858 22.7321 57.858 23.0021C57.858 25.728 60.0167 27.9378 62.6794 27.9378C65.3421 27.9378 67.5008 25.728 67.5008 23.0021C67.5008 20.2762 65.3421 18.0664 62.6794 18.0664C61.493 18.0664 60.4066 18.5051 59.5664 19.2328L47.0458 16.0713L42.5204 34.602C36.5003 35.0076 31.0862 36.8738 27.0018 39.6915C25.8421 38.5273 24.2534 37.8092 22.5008 37.8092C18.9504 37.8092 16.0723 40.7557 16.0723 44.3901C16.0723 46.9198 17.4662 49.1158 19.5105 50.2173C19.3628 51.0022 19.2866 51.8032 19.2866 52.6164C19.2866 62.6116 30.7992 70.7141 45.0008 70.7141C59.2025 70.7141 70.7151 62.6116 70.7151 52.6164C70.7151 51.8032 70.6389 51.0022 70.4911 50.2173C72.5354 49.1158 73.9294 46.9198 73.9294 44.3901C73.9294 40.7557 71.0513 37.8092 67.5008 37.8092C65.7484 37.8092 64.1596 38.5273 62.9999 39.6915C58.55 36.6218 52.5219 34.681 45.8517 34.5287L49.3845 20.0616L57.92 22.209ZM33.7508 54.2618C36.4136 54.2618 38.5723 52.052 38.5723 49.326C38.5723 46.5999 36.4136 44.3901 33.7508 44.3901C31.0881 44.3901 28.9294 46.5999 28.9294 49.326C28.9294 52.052 31.0881 54.2618 33.7508 54.2618ZM56.2508 54.2618C58.9136 54.2618 61.0723 52.052 61.0723 49.326C61.0723 46.5999 58.9136 44.3901 56.2508 44.3901C53.5881 44.3901 51.4294 46.5999 51.4294 49.326C51.4294 52.052 53.5881 54.2618 56.2508 54.2618ZM34.6422 59.4738C33.9038 58.9698 32.9061 59.1739 32.4137 59.9299C31.9213 60.6862 32.1209 61.7077 32.8592 62.2117C36.3567 64.5983 40.6789 65.7918 45.0008 65.7918C49.3228 65.7918 53.645 64.5983 57.1422 62.2117C57.8808 61.7077 58.0804 60.6862 57.588 59.9299C57.0956 59.1739 56.0978 58.9698 55.3592 59.4738C52.4017 61.492 48.7014 62.5013 45.0008 62.5013C42.8064 62.5013 40.6117 62.1465 38.5723 61.4368C37.1728 60.9495 35.8459 60.295 34.6422 59.4738Z" fill="white"/>
</svg>
