<svg width="85" height="85" viewBox="0 0 85 85" fill="none" xmlns="http://www.w3.org/2000/svg">
<path d="M79.6875 10.625H58.4375L57.2687 6.02086C56.8324 4.265 55.9915 2.73764 54.8658 1.6565C53.7402 0.575368 52.3873 -0.00434059 51 2.4471e-05H34C32.6127 -0.00434059 31.2598 0.575368 30.1342 1.6565C29.0085 2.73764 28.1676 4.265 27.7312 6.02086L26.5625 10.625H5.3125C3.90354 10.625 2.55228 11.3713 1.556 12.6997C0.559708 14.0281 0 15.8297 0 17.7084L0 77.9167C0 79.7953 0.559708 81.597 1.556 82.9253C2.55228 84.2537 3.90354 85 5.3125 85H79.6875C81.0965 85 82.4477 84.2537 83.444 82.9253C84.4403 81.597 85 79.7953 85 77.9167V17.7084C85 15.8297 84.4403 14.0281 83.444 12.6997C82.4477 11.3713 81.0965 10.625 79.6875 10.625ZM78.3594 76.1458H6.64062V19.4792H31.3438L34 8.85419H51L53.6563 19.4792H78.3594V76.1458Z" fill="url(#paint0_linear_462_156)"/>
<path d="M42.5008 28.3353C38.86 28.1824 35.3223 29.9607 32.6634 33.2802C30.0044 36.5998 28.4412 41.1897 28.3164 46.0436C28.4412 50.8975 30.0044 55.4874 32.6634 58.807C35.3223 62.1265 38.86 63.9048 42.5008 63.7519C46.1416 63.9048 49.6792 62.1265 52.3382 58.807C54.9972 55.4874 56.5604 50.8975 56.6852 46.0436C56.5604 41.1897 54.9972 36.5998 52.3382 33.2802C49.6792 29.9607 46.1416 28.1824 42.5008 28.3353ZM42.5008 54.8978C40.624 55.0343 38.782 54.1831 37.3712 52.5272C35.9604 50.8713 35.0935 48.5431 34.957 46.0436C35.0935 43.5441 35.9604 41.2159 37.3712 39.56C38.782 37.9041 40.624 37.0529 42.5008 37.1894C44.3776 37.0529 46.2195 37.9041 47.6304 39.56C49.0412 41.2159 49.9081 43.5441 50.0445 46.0436C49.9081 48.5431 49.0412 50.8713 47.6304 52.5272C46.2195 54.1831 44.3776 55.0343 42.5008 54.8978Z" fill="url(#paint1_linear_462_156)"/>
<path d="M68.2117 37.258C70.1775 37.258 71.7711 35.2601 71.7711 32.7955C71.7711 30.3309 70.1775 28.333 68.2117 28.333C66.2459 28.333 64.6523 30.3309 64.6523 32.7955C64.6523 35.2601 66.2459 37.258 68.2117 37.258Z" fill="url(#paint2_linear_462_156)"/>
<defs>
<linearGradient id="paint0_linear_462_156" x1="42.5" y1="0" x2="42.5" y2="85" gradientUnits="userSpaceOnUse">
<stop stop-color="#6649C1"/>
<stop offset="0.364583" stop-color="#C13190"/>
<stop offset="0.697917" stop-color="#FB892F"/>
<stop offset="0.984375" stop-color="#EA5B28"/>
</linearGradient>
<linearGradient id="paint1_linear_462_156" x1="42.5008" y1="28.3262" x2="42.5008" y2="63.761" gradientUnits="userSpaceOnUse">
<stop stop-color="#6649C1"/>
<stop offset="0.364583" stop-color="#C13190"/>
<stop offset="0.697917" stop-color="#FB892F"/>
<stop offset="0.984375" stop-color="#EA5B28"/>
</linearGradient>
<linearGradient id="paint2_linear_462_156" x1="68.2117" y1="28.333" x2="68.2117" y2="37.258" gradientUnits="userSpaceOnUse">
<stop stop-color="#6649C1"/>
<stop offset="0.364583" stop-color="#C13190"/>
<stop offset="0.697917" stop-color="#FB892F"/>
<stop offset="0.984375" stop-color="#EA5B28"/>
</linearGradient>
</defs>
</svg>
