<svg width="90" height="90" viewBox="0 0 90 90" fill="none" xmlns="http://www.w3.org/2000/svg">
<path d="M90 45C90 20.1472 69.8528 0 45 0C20.1472 0 0 20.1472 0 45C0 69.8528 20.1472 90 45 90C69.8528 90 90 69.8528 90 45Z" fill="#D19C00"/>
<path d="M39.5317 23.4375L72.4366 56.3424L51.6549 77.1241L18.75 44.2192V23.4375H39.5317Z" stroke="white" stroke-width="4" stroke-miterlimit="10"/>
<path d="M47.4863 23.4375L80.3912 56.3424L59.6096 77.1241" stroke="white" stroke-width="4" stroke-miterlimit="10"/>
<path d="M31.6741 41.3336C34.4195 41.3336 36.6451 39.108 36.6451 36.3626C36.6451 33.6172 34.4195 31.3916 31.6741 31.3916C28.9287 31.3916 26.7031 33.6172 26.7031 36.3626C26.7031 39.108 28.9287 41.3336 31.6741 41.3336Z" stroke="white" stroke-width="4" stroke-miterlimit="10"/>
</svg>
