<svg width="85" height="85" viewBox="0 0 85 85" fill="none" xmlns="http://www.w3.org/2000/svg">
<path d="M10.2829 62.1556H74.7181C77.1768 62.1556 79.1709 59.5067 79.1709 56.243V5.90858C79.1709 2.64751 77.1768 0 74.7181 0H10.2829C7.82421 0 5.83203 2.64729 5.83203 5.90858V56.2428C5.8322 59.5067 7.82421 62.1556 10.2829 62.1556ZM12.6387 7.94099H72.3625V52.8226H12.6387V7.94099Z" fill="url(#paint0_linear_508_461)"/>
<path d="M84.3399 78.5574L76.3976 69.198C75.8869 68.5981 75.1525 68.2578 74.377 68.2578H10.6217C9.84736 68.2578 9.11175 68.5981 8.60225 69.198L0.658749 78.5574C0.233252 79.0566 0 79.6997 0 80.365V83.6261C0 84.3877 0.598983 85 1.33875 85H83.6614C84.4032 85 85 84.3877 85 83.6261V80.365C84.9998 79.6997 84.7654 79.0566 84.3399 78.5574ZM33.3918 79.662L35.6908 75.5361H50.2558L52.5516 79.662H33.3918Z" fill="url(#paint1_linear_508_461)"/>
<path d="M31.4003 30.3698L30.6629 30.2303C28.7746 29.8803 28.0981 29.0071 28.0981 27.728C28.0981 26.2856 28.8767 25.2506 30.293 25.2506C31.4614 25.2506 32.508 25.7123 33.6364 26.6929L33.9233 26.6106L34.9087 24.595L34.8667 24.2157C33.7592 23.0986 32.0971 22.3662 30.3549 22.3662C27.4834 22.3662 25.6373 24.595 25.6373 27.9469C25.6373 31.0226 27.1545 32.7381 29.8411 33.2278L30.5809 33.3644C32.508 33.7173 33.1226 34.5876 33.1226 35.9224C33.1226 37.4722 32.159 38.5909 30.4979 38.5909C28.9386 38.5909 27.6054 37.5837 26.7037 36.6325L26.4169 36.6577L25.1445 38.6189L25.1854 39.029C26.2729 40.3888 28.263 41.4755 30.3129 41.4755C33.7813 41.4755 35.5653 39.029 35.5653 35.7345C35.5655 32.5457 34.0871 30.8564 31.4003 30.3698Z" fill="url(#paint2_linear_508_461)"/>
<path d="M38.1718 22.6621L37.9668 22.9338V40.908L38.1718 41.1799H46.9085L47.1144 40.908V38.5659L46.9085 38.2939H40.5107L40.3876 38.128V33.4454L40.5107 33.2823H45.9052L46.111 33.0102V30.6683L45.9052 30.3964H40.5107L40.3876 30.2302V25.7125L40.5107 25.5494H46.9085L47.1144 25.2759V22.9338L46.9085 22.6621H38.1718Z" fill="url(#paint3_linear_508_461)"/>
<path d="M54.5436 22.3662C52.1427 22.3662 50.3386 23.888 49.6199 26.8282C49.333 27.972 49.25 29.0069 49.25 31.9207C49.25 34.8346 49.333 35.8695 49.6199 37.0134C50.3386 39.9538 52.1427 41.4753 54.5436 41.4753C56.9634 41.4753 58.7663 39.9535 59.4852 37.0134C59.773 35.8695 59.8561 34.8346 59.8561 31.9207C59.8561 29.0069 59.773 27.972 59.4852 26.8282C58.7665 23.888 56.9634 22.3662 54.5436 22.3662ZM57.1473 36.1666C56.7575 37.6675 55.9381 38.5909 54.5437 38.5909C53.1685 38.5909 52.3488 37.6675 51.9579 36.1666C51.795 35.4859 51.712 34.5331 51.712 31.9207C51.712 29.2789 51.795 28.3555 51.9579 27.672C52.3487 26.1741 53.1683 25.2506 54.5437 25.2506C55.9381 25.2506 56.7575 26.1741 57.1473 27.672C57.3102 28.3555 57.3954 29.2789 57.3954 31.9207C57.3954 34.5333 57.3102 35.4859 57.1473 36.1666Z" fill="url(#paint4_linear_508_461)"/>
<defs>
<linearGradient id="paint0_linear_508_461" x1="42.5015" y1="0" x2="42.5015" y2="62.1556" gradientUnits="userSpaceOnUse">
<stop stop-color="#0960D5"/>
<stop offset="1" stop-color="#FF007F"/>
</linearGradient>
<linearGradient id="paint1_linear_508_461" x1="42.5" y1="68.2578" x2="42.5" y2="85" gradientUnits="userSpaceOnUse">
<stop stop-color="#0960D5"/>
<stop offset="1" stop-color="#FF007F"/>
</linearGradient>
<linearGradient id="paint2_linear_508_461" x1="30.3549" y1="22.3662" x2="30.3549" y2="41.4755" gradientUnits="userSpaceOnUse">
<stop stop-color="#0960D5"/>
<stop offset="1" stop-color="#FF007F"/>
</linearGradient>
<linearGradient id="paint3_linear_508_461" x1="42.5406" y1="22.6621" x2="42.5406" y2="41.1799" gradientUnits="userSpaceOnUse">
<stop stop-color="#0960D5"/>
<stop offset="1" stop-color="#FF007F"/>
</linearGradient>
<linearGradient id="paint4_linear_508_461" x1="54.553" y1="22.3662" x2="54.553" y2="41.4753" gradientUnits="userSpaceOnUse">
<stop stop-color="#0960D5"/>
<stop offset="1" stop-color="#FF007F"/>
</linearGradient>
</defs>
</svg>
