<svg width="85" height="85" viewBox="0 0 85 85" fill="none" xmlns="http://www.w3.org/2000/svg">
<path fill-rule="evenodd" clip-rule="evenodd" d="M76.0424 42.5C76.0424 40.65 75.8692 38.76 75.5176 36.87L85 28.805L76.0017 13.715L64.0379 17.63C61.0164 15.17 57.5719 13.23 53.939 11.945L51.4728 0H33.5271L31.061 11.94C27.3874 13.23 24.0041 15.14 20.9571 17.625L8.99836 13.715L0 28.805L9.4824 36.87C9.13077 38.76 8.95753 40.65 8.95753 42.5C8.95753 44.35 9.13077 46.24 9.48235 48.13L0 56.195L8.99831 71.285L20.9621 67.37C23.9836 69.83 27.428 71.77 31.061 73.055L33.5271 85H51.4728L53.9389 73.06C57.6075 71.77 60.9959 69.86 64.0429 67.375L76.0016 71.29L85 56.2L75.5176 48.135C75.8691 46.24 76.0424 44.35 76.0424 42.5M42.4999 60C32.666 60 24.6663 52.15 24.6663 42.5C24.6663 32.85 32.666 25 42.4999 25C52.3339 25 60.3335 32.85 60.3335 42.5C60.3335 52.15 52.3339 60 42.4999 60Z" fill="url(#paint0_linear_508_408)"/>
<defs>
<linearGradient id="paint0_linear_508_408" x1="42.5" y1="0" x2="42.5" y2="85" gradientUnits="userSpaceOnUse">
<stop stop-color="#36C5F0"/>
<stop offset="0.28125" stop-color="#2EB67D"/>
<stop offset="0.630208" stop-color="#ECB22E"/>
<stop offset="1" stop-color="#E01E5A"/>
</linearGradient>
</defs>
</svg>
