<svg width="85" height="85" viewBox="0 0 85 85" fill="none" xmlns="http://www.w3.org/2000/svg">
<path fill-rule="evenodd" clip-rule="evenodd" d="M54.5481 1.87373C64.5052 -2.30442 76.8334 0.739263 82.0739 8.6736C87.3145 16.6079 83.4914 26.4238 73.5344 30.602L65.3471 34.0676C72.4004 34.2751 79.1272 37.3949 82.6495 42.7283C87.8901 50.6626 84.0756 60.4785 74.11 64.6566L30.4502 83.1263C20.4932 87.3044 8.16498 84.2607 2.92443 76.3264C-2.31612 68.3921 1.5069 58.5762 11.4639 54.398L19.6512 50.9324C12.598 50.7249 5.87116 47.6051 2.34883 42.2717C-2.89172 34.3374 0.931302 24.5215 10.8883 20.3434L54.5481 1.87373ZM30.9828 29.4191L57.409 42.5553L30.9828 55.6293V29.4191Z" fill="#C4302B"/>
</svg>
