<svg width="90" height="90" viewBox="0 0 90 90" fill="none" xmlns="http://www.w3.org/2000/svg">
<path fill-rule="evenodd" clip-rule="evenodd" d="M9.45643 66.3298C11.9617 66.3231 14.3624 65.3244 16.1334 63.5522C17.9043 61.7801 18.9013 59.3787 18.9064 56.8734V47.4234H9.45643C6.95221 47.4285 4.55183 48.4247 2.77988 50.1942C1.00792 51.9638 0.00848948 54.3628 0 56.867C0.00642857 62.0806 4.23643 66.3106 9.45 66.317L9.45643 66.3298ZM33.1264 47.417C30.6211 47.4238 28.2204 48.4225 26.4495 50.1946C24.6786 51.9667 23.6815 54.3681 23.6764 56.8734V80.5498C23.6893 85.7634 27.9193 89.987 33.1264 89.9998C35.6306 89.9931 38.0303 88.9953 39.8011 87.2245C41.5718 85.4538 42.5696 83.0541 42.5764 80.5498V56.867C42.5696 54.3628 41.5718 51.9631 39.8011 50.1923C38.0303 48.4216 35.6306 47.4238 33.1264 47.417Z" fill="#E01E5A"/>
<path fill-rule="evenodd" clip-rule="evenodd" d="M23.6764 9.45643C23.6829 14.67 27.9129 18.9 33.1264 18.9064H42.5764V9.45643C42.5714 6.95221 41.5752 4.55183 39.8056 2.77988C38.0361 1.00792 35.6371 0.00848948 33.1329 0C30.6286 0.00678651 28.2289 1.00459 26.4582 2.77534C24.6874 4.54609 23.6896 6.94579 23.6829 9.45L23.6764 9.45643ZM42.5764 33.1264C42.5696 30.6222 41.5718 28.2225 39.8011 26.4518C38.0303 24.681 35.6306 23.6832 33.1264 23.6764H9.45C6.94579 23.6832 4.54609 24.681 2.77534 26.4518C1.00459 28.2225 0.00678651 30.6222 0 33.1264C0.0128571 38.3464 4.24286 42.57 9.45 42.5764H33.1329C35.6371 42.5696 38.0368 41.5718 39.8075 39.8011C41.5783 38.0303 42.5696 35.6306 42.5764 33.1264Z" fill="#36C5F0"/>
<path fill-rule="evenodd" clip-rule="evenodd" d="M56.8733 42.5829C59.3775 42.5761 61.7772 41.5783 63.5479 39.8075C65.3187 38.0368 66.3165 35.6371 66.3233 33.1329V9.45C66.3165 6.9469 65.3196 4.54817 63.5502 2.7776C61.7808 1.00703 59.3828 0.00848169 56.8797 0C54.3755 0.00678651 51.9758 1.00459 50.205 2.77534C48.4343 4.54609 47.4365 6.94579 47.4297 9.45V33.1329C47.4425 38.34 51.6597 42.57 56.8733 42.5829ZM80.5433 23.6764C78.0391 23.6832 75.6393 24.681 73.8686 26.4518C72.0978 28.2225 71.1 30.6222 71.0933 33.1264V42.5764H80.5433C83.0475 42.5714 85.4479 41.5752 87.2198 39.8056C88.9918 38.0361 89.9912 35.6371 89.9997 33.1329C89.9929 30.6286 88.9951 28.2289 87.2244 26.4582C85.4536 24.6874 83.0539 23.6896 80.5497 23.6829L80.5433 23.6764Z" fill="#2EB67D"/>
<path fill-rule="evenodd" clip-rule="evenodd" d="M47.4238 56.8733C47.4367 62.0868 51.6603 66.3168 56.8738 66.3233H80.5503C83.0534 66.3165 85.4521 65.3196 87.2227 63.5502C88.9932 61.7808 89.9918 59.3828 90.0003 56.8797C89.9935 54.3755 88.9957 51.9758 87.2249 50.205C85.4542 48.4343 83.0545 47.4365 80.5503 47.4297H56.8738C54.3696 47.4365 51.9699 48.4343 50.1992 50.205C48.4284 51.9758 47.4306 54.369 47.4238 56.8733ZM66.3238 80.5433C66.317 78.0391 65.3192 75.6393 63.5485 73.8686C61.7777 72.0978 59.378 71.1 56.8738 71.0933H47.4238V80.5433C47.4367 85.7633 51.6603 89.9868 56.8738 89.9933C59.378 89.9865 61.7777 88.9887 63.5485 87.2179C65.3192 85.4472 66.317 83.0475 66.3238 80.5433Z" fill="#ECB22E"/>
</svg>
