<svg width="90" height="90" viewBox="0 0 90 90" fill="none" xmlns="http://www.w3.org/2000/svg">
<path d="M9.51471 49.6563V12.6951C9.51471 6.57319 11.1042 4.65337 16.8127 4.65337H73.7191C79.1282 4.65337 81.0388 6.93464 81.0388 12.6951V48.5014L85.4379 45.5199V8.74235C85.4379 3.90729 81.7311 0 77.1719 0H12.8759C8.31718 0 4.61133 3.90681 4.61133 8.74235V46.6502L9.51471 49.6563Z" fill="#B1B3B5"/>
<path d="M46.209 56.4549C46.209 53.3155 47.6823 51.2145 52.2636 51.4396C58.8702 51.6431 71.854 53.1121 86.4952 42.8539C89.235 40.9785 91.0293 43.5318 89.3497 45.9716C86.0816 49.9025 79.8655 54.783 70.3349 58.6226C80.4411 92.3289 45.7254 97.6829 46.2553 80.4012C46.2548 80.897 46.209 56.4549 46.209 56.4549Z" fill="#008ED3"/>
<path d="M43.7923 56.4549C43.7923 53.3155 42.3176 51.2145 37.7367 51.4396C31.1301 51.6431 18.1478 53.1121 3.50507 42.8539C0.766307 40.9785 -1.0295 43.5318 0.650591 45.9716C3.92017 49.9025 10.1348 54.783 19.6654 58.6226C9.58187 92.3289 44.2749 97.6829 43.7455 80.4012C43.7465 80.897 43.7923 56.4549 43.7923 56.4549Z" fill="#F6921E"/>
<mask id="mask0_488_1713" style="mask-type:luminance" maskUnits="userSpaceOnUse" x="47" y="55" width="25" height="35">
<path d="M64.4112 55.7522C61.7911 65.5112 53.4832 66.8725 49.0629 66.8725C48.314 66.8725 47.6758 66.8328 47.1957 66.7879C47.1455 72.9388 47.0859 80.0488 47.0844 80.0488V80.0406C46.9199 86.3978 51.458 89.8272 56.6883 89.8272C57.6263 89.8272 58.588 89.715 59.5492 89.4923C62.6341 88.7733 65.7082 86.881 68.0014 83.7237C71.56 78.8224 73.2366 70.8682 70.1522 59.5078C69.3899 57.6107 67.1776 56.4152 64.4112 55.7522ZM58.0405 55.0781C53.8107 55.0781 49.7247 55.8406 48.0579 56.9264C49.8163 57.8928 51.4969 58.4065 53.1011 58.4065C55.381 58.4065 57.5037 57.3666 59.4773 55.1066C58.9986 55.088 58.5196 55.0785 58.0405 55.0781" fill="white"/>
</mask>
<g mask="url(#mask0_488_1713)">
<path d="M48.9905 55.0781L46.9219 58.2751V55.0781H48.9905Z" fill="#008ED3"/>
</g>
<mask id="mask1_488_1713" style="mask-type:luminance" maskUnits="userSpaceOnUse" x="22" y="27" width="22" height="21">
<path d="M23.2316 39.6234C22.6333 36.2351 23.761 28.9158 32.187 28.0798C32.4451 28.0555 32.7042 28.0429 32.9635 28.0421C36.5286 28.0407 36.6334 30.6554 32.2791 30.6554C25.1884 30.6554 23.2316 39.6234 23.2316 39.6234ZM32.8764 27.3574C26.937 27.3574 22.1035 31.7856 22.1035 37.2518C22.1035 42.7193 26.937 47.1466 32.8764 47.1466C38.8158 47.1466 43.6498 42.7193 43.6498 37.2518C43.6502 31.7851 38.8168 27.3574 32.8764 27.3574" fill="white"/>
</mask>
<g mask="url(#mask1_488_1713)">
<path d="M35.9199 47.1422L43.6537 42.7695V47.1422H35.9199Z" fill="#D8711C"/>
</g>
<mask id="mask2_488_1713" style="mask-type:luminance" maskUnits="userSpaceOnUse" x="22" y="27" width="22" height="21">
<path d="M23.2316 39.6234C22.6333 36.2351 23.761 28.9158 32.187 28.0798C32.4451 28.0555 32.7042 28.0429 32.9635 28.0421C36.5286 28.0407 36.6334 30.6554 32.2791 30.6554C25.1884 30.6554 23.2316 39.6234 23.2316 39.6234ZM32.8764 27.3574C26.937 27.3574 22.1035 31.7856 22.1035 37.2518C22.1035 42.7193 26.937 47.1466 32.8764 47.1466C38.8158 47.1466 43.6498 42.7193 43.6498 37.2518C43.6502 31.7851 38.8168 27.3574 32.8764 27.3574" fill="white"/>
</mask>
<g mask="url(#mask2_488_1713)">
<path d="M34.6094 47.1426L43.6519 42.0244V42.77L35.928 47.1426H34.6094Z" fill="#D8711C"/>
</g>
<mask id="mask3_488_1713" style="mask-type:luminance" maskUnits="userSpaceOnUse" x="22" y="27" width="22" height="21">
<path d="M23.2316 39.6234C22.6333 36.2351 23.761 28.9158 32.187 28.0798C32.4451 28.0555 32.7042 28.0429 32.9635 28.0421C36.5286 28.0407 36.6334 30.6554 32.2791 30.6554C25.1884 30.6554 23.2316 39.6234 23.2316 39.6234ZM32.8764 27.3574C26.937 27.3574 22.1035 31.7856 22.1035 37.2518C22.1035 42.7193 26.937 47.1466 32.8764 47.1466C38.8158 47.1466 43.6498 42.7193 43.6498 37.2518C43.6502 31.7851 38.8168 27.3574 32.8764 27.3574" fill="white"/>
</mask>
<g mask="url(#mask3_488_1713)">
<path d="M33.2812 47.142L43.6528 41.2686V42.0238L34.6103 47.142H33.2812Z" fill="#DC751C"/>
</g>
<mask id="mask4_488_1713" style="mask-type:luminance" maskUnits="userSpaceOnUse" x="22" y="27" width="22" height="21">
<path d="M23.2316 39.6234C22.6333 36.2351 23.761 28.9158 32.187 28.0798C32.4451 28.0555 32.7042 28.0429 32.9635 28.0421C36.5286 28.0407 36.6334 30.6554 32.2791 30.6554C25.1884 30.6554 23.2316 39.6234 23.2316 39.6234ZM32.8764 27.3574C26.937 27.3574 22.1035 31.7856 22.1035 37.2518C22.1035 42.7193 26.937 47.1466 32.8764 47.1466C38.8158 47.1466 43.6498 42.7193 43.6498 37.2518C43.6502 31.7851 38.8168 27.3574 32.8764 27.3574" fill="white"/>
</mask>
<g mask="url(#mask4_488_1713)">
<path d="M31.9629 47.1425L43.6526 40.5244V41.269L33.2811 47.1425H31.9629Z" fill="#DE771C"/>
</g>
<mask id="mask5_488_1713" style="mask-type:luminance" maskUnits="userSpaceOnUse" x="22" y="27" width="22" height="21">
<path d="M23.2316 39.6234C22.6333 36.2351 23.761 28.9158 32.187 28.0798C32.4451 28.0555 32.7042 28.0429 32.9635 28.0421C36.5286 28.0407 36.6334 30.6554 32.2791 30.6554C25.1884 30.6554 23.2316 39.6234 23.2316 39.6234ZM32.8764 27.3574C26.937 27.3574 22.1035 31.7856 22.1035 37.2518C22.1035 42.7193 26.937 47.1466 32.8764 47.1466C38.8158 47.1466 43.6498 42.7193 43.6498 37.2518C43.6502 31.7851 38.8168 27.3574 32.8764 27.3574" fill="white"/>
</mask>
<g mask="url(#mask5_488_1713)">
<path d="M30.6328 47.1429L43.6516 39.7695V40.5248L31.9618 47.1429H30.6328Z" fill="#E07A1D"/>
</g>
<mask id="mask6_488_1713" style="mask-type:luminance" maskUnits="userSpaceOnUse" x="22" y="27" width="22" height="21">
<path d="M23.2316 39.6234C22.6333 36.2351 23.761 28.9158 32.187 28.0798C32.4451 28.0555 32.7042 28.0429 32.9635 28.0421C36.5286 28.0407 36.6334 30.6554 32.2791 30.6554C25.1884 30.6554 23.2316 39.6234 23.2316 39.6234ZM32.8764 27.3574C26.937 27.3574 22.1035 31.7856 22.1035 37.2518C22.1035 42.7193 26.937 47.1466 32.8764 47.1466C38.8158 47.1466 43.6498 42.7193 43.6498 37.2518C43.6502 31.7851 38.8168 27.3574 32.8764 27.3574" fill="white"/>
</mask>
<g mask="url(#mask6_488_1713)">
<path d="M29.3145 47.1424L43.6528 39.0234V39.769L30.6341 47.1424H29.3145Z" fill="#E37D1D"/>
</g>
<mask id="mask7_488_1713" style="mask-type:luminance" maskUnits="userSpaceOnUse" x="22" y="27" width="22" height="21">
<path d="M23.2316 39.6234C22.6333 36.2351 23.761 28.9158 32.187 28.0798C32.4451 28.0555 32.7042 28.0429 32.9635 28.0421C36.5286 28.0407 36.6334 30.6554 32.2791 30.6554C25.1884 30.6554 23.2316 39.6234 23.2316 39.6234ZM32.8764 27.3574C26.937 27.3574 22.1035 31.7856 22.1035 37.2518C22.1035 42.7193 26.937 47.1466 32.8764 47.1466C38.8158 47.1466 43.6498 42.7193 43.6498 37.2518C43.6502 31.7851 38.8168 27.3574 32.8764 27.3574" fill="white"/>
</mask>
<g mask="url(#mask7_488_1713)">
<path d="M27.9863 47.1419L43.6522 38.2686V39.0229L29.3139 47.1419H27.9863Z" fill="#E57F1D"/>
</g>
<mask id="mask8_488_1713" style="mask-type:luminance" maskUnits="userSpaceOnUse" x="22" y="27" width="22" height="21">
<path d="M23.2316 39.6234C22.6333 36.2351 23.761 28.9158 32.187 28.0798C32.4451 28.0555 32.7042 28.0429 32.9635 28.0421C36.5286 28.0407 36.6334 30.6554 32.2791 30.6554C25.1884 30.6554 23.2316 39.6234 23.2316 39.6234ZM32.8764 27.3574C26.937 27.3574 22.1035 31.7856 22.1035 37.2518C22.1035 42.7193 26.937 47.1466 32.8764 47.1466C38.8158 47.1466 43.6498 42.7193 43.6498 37.2518C43.6502 31.7851 38.8168 27.3574 32.8764 27.3574" fill="white"/>
</mask>
<g mask="url(#mask8_488_1713)">
<path d="M26.666 47.1423L43.6516 37.5234V38.269L27.9857 47.1423H26.666Z" fill="#E6801D"/>
</g>
<mask id="mask9_488_1713" style="mask-type:luminance" maskUnits="userSpaceOnUse" x="22" y="27" width="22" height="21">
<path d="M23.2316 39.6234C22.6333 36.2351 23.761 28.9158 32.187 28.0798C32.4451 28.0555 32.7042 28.0429 32.9635 28.0421C36.5286 28.0407 36.6334 30.6554 32.2791 30.6554C25.1884 30.6554 23.2316 39.6234 23.2316 39.6234ZM32.8764 27.3574C26.937 27.3574 22.1035 31.7856 22.1035 37.2518C22.1035 42.7193 26.937 47.1466 32.8764 47.1466C38.8158 47.1466 43.6498 42.7193 43.6498 37.2518C43.6502 31.7851 38.8168 27.3574 32.8764 27.3574" fill="white"/>
</mask>
<g mask="url(#mask9_488_1713)">
<path d="M25.3379 47.1422L43.653 36.7686V37.5233L26.6674 47.1422H25.3379Z" fill="#E8821D"/>
</g>
<mask id="mask10_488_1713" style="mask-type:luminance" maskUnits="userSpaceOnUse" x="22" y="27" width="22" height="21">
<path d="M23.2316 39.6234C22.6333 36.2351 23.761 28.9158 32.187 28.0798C32.4451 28.0555 32.7042 28.0429 32.9635 28.0421C36.5286 28.0407 36.6334 30.6554 32.2791 30.6554C25.1884 30.6554 23.2316 39.6234 23.2316 39.6234ZM32.8764 27.3574C26.937 27.3574 22.1035 31.7856 22.1035 37.2518C22.1035 42.7193 26.937 47.1466 32.8764 47.1466C38.8158 47.1466 43.6498 42.7193 43.6498 37.2518C43.6502 31.7851 38.8168 27.3574 32.8764 27.3574" fill="white"/>
</mask>
<g mask="url(#mask10_488_1713)">
<path d="M24.0195 47.1432L43.6533 36.0244V36.7695L25.3382 47.1432H24.0195Z" fill="#EA851D"/>
</g>
<mask id="mask11_488_1713" style="mask-type:luminance" maskUnits="userSpaceOnUse" x="22" y="27" width="22" height="21">
<path d="M23.2316 39.6234C22.6333 36.2351 23.761 28.9158 32.187 28.0798C32.4451 28.0555 32.7042 28.0429 32.9635 28.0421C36.5286 28.0407 36.6334 30.6554 32.2791 30.6554C25.1884 30.6554 23.2316 39.6234 23.2316 39.6234ZM32.8764 27.3574C26.937 27.3574 22.1035 31.7856 22.1035 37.2518C22.1035 42.7193 26.937 47.1466 32.8764 47.1466C38.8158 47.1466 43.6498 42.7193 43.6498 37.2518C43.6502 31.7851 38.8168 27.3574 32.8764 27.3574" fill="white"/>
</mask>
<g mask="url(#mask11_488_1713)">
<path d="M22.6895 47.1431L43.6522 35.2695V36.0243L24.0185 47.1431H22.6895Z" fill="#EB861D"/>
</g>
<mask id="mask12_488_1713" style="mask-type:luminance" maskUnits="userSpaceOnUse" x="22" y="27" width="22" height="21">
<path d="M23.2316 39.6234C22.6333 36.2351 23.761 28.9158 32.187 28.0798C32.4451 28.0555 32.7042 28.0429 32.9635 28.0421C36.5286 28.0407 36.6334 30.6554 32.2791 30.6554C25.1884 30.6554 23.2316 39.6234 23.2316 39.6234ZM32.8764 27.3574C26.937 27.3574 22.1035 31.7856 22.1035 37.2518C22.1035 42.7193 26.937 47.1466 32.8764 47.1466C38.8158 47.1466 43.6498 42.7193 43.6498 37.2518C43.6502 31.7851 38.8168 27.3574 32.8764 27.3574" fill="white"/>
</mask>
<g mask="url(#mask12_488_1713)">
<path d="M22.1016 46.7309L43.6532 34.5234V35.269L22.6905 47.1426H22.1016V46.7309Z" fill="#ED881D"/>
</g>
<mask id="mask13_488_1713" style="mask-type:luminance" maskUnits="userSpaceOnUse" x="22" y="27" width="22" height="21">
<path d="M23.2316 39.6234C22.6333 36.2351 23.761 28.9158 32.187 28.0798C32.4451 28.0555 32.7042 28.0429 32.9635 28.0421C36.5286 28.0407 36.6334 30.6554 32.2791 30.6554C25.1884 30.6554 23.2316 39.6234 23.2316 39.6234ZM32.8764 27.3574C26.937 27.3574 22.1035 31.7856 22.1035 37.2518C22.1035 42.7193 26.937 47.1466 32.8764 47.1466C38.8158 47.1466 43.6498 42.7193 43.6498 37.2518C43.6502 31.7851 38.8168 27.3574 32.8764 27.3574" fill="white"/>
</mask>
<g mask="url(#mask13_488_1713)">
<path d="M22.1016 45.9847L43.6532 33.7686V34.5228L22.1016 46.7303V45.9847Z" fill="#ED891D"/>
</g>
<mask id="mask14_488_1713" style="mask-type:luminance" maskUnits="userSpaceOnUse" x="22" y="27" width="22" height="21">
<path d="M23.2316 39.6234C22.6333 36.2351 23.761 28.9158 32.187 28.0798C32.4451 28.0555 32.7042 28.0429 32.9635 28.0421C36.5286 28.0407 36.6334 30.6554 32.2791 30.6554C25.1884 30.6554 23.2316 39.6234 23.2316 39.6234ZM32.8764 27.3574C26.937 27.3574 22.1035 31.7856 22.1035 37.2518C22.1035 42.7193 26.937 47.1466 32.8764 47.1466C38.8158 47.1466 43.6498 42.7193 43.6498 37.2518C43.6502 31.7851 38.8168 27.3574 32.8764 27.3574" fill="white"/>
</mask>
<g mask="url(#mask14_488_1713)">
<path d="M22.1016 45.2309L43.6532 33.0234V33.769L22.1016 45.9852V45.2309Z" fill="#EE8A1D"/>
</g>
<mask id="mask15_488_1713" style="mask-type:luminance" maskUnits="userSpaceOnUse" x="22" y="27" width="22" height="21">
<path d="M23.2316 39.6234C22.6333 36.2351 23.761 28.9158 32.187 28.0798C32.4451 28.0555 32.7042 28.0429 32.9635 28.0421C36.5286 28.0407 36.6334 30.6554 32.2791 30.6554C25.1884 30.6554 23.2316 39.6234 23.2316 39.6234ZM32.8764 27.3574C26.937 27.3574 22.1035 31.7856 22.1035 37.2518C22.1035 42.7193 26.937 47.1466 32.8764 47.1466C38.8158 47.1466 43.6498 42.7193 43.6498 37.2518C43.6502 31.7851 38.8168 27.3574 32.8764 27.3574" fill="white"/>
</mask>
<g mask="url(#mask15_488_1713)">
<path d="M22.1016 44.476L43.6532 32.2686V33.0238L22.1016 45.2313V44.476Z" fill="#EF8B1D"/>
</g>
<mask id="mask16_488_1713" style="mask-type:luminance" maskUnits="userSpaceOnUse" x="22" y="27" width="22" height="21">
<path d="M23.2316 39.6234C22.6333 36.2351 23.761 28.9158 32.187 28.0798C32.4451 28.0555 32.7042 28.0429 32.9635 28.0421C36.5286 28.0407 36.6334 30.6554 32.2791 30.6554C25.1884 30.6554 23.2316 39.6234 23.2316 39.6234ZM32.8764 27.3574C26.937 27.3574 22.1035 31.7856 22.1035 37.2518C22.1035 42.7193 26.937 47.1466 32.8764 47.1466C38.8158 47.1466 43.6498 42.7193 43.6498 37.2518C43.6502 31.7851 38.8168 27.3574 32.8764 27.3574" fill="white"/>
</mask>
<g mask="url(#mask16_488_1713)">
<path d="M22.1016 43.729L43.6532 31.5225V32.2671L22.1016 44.4746V43.729Z" fill="#F18D1D"/>
</g>
<mask id="mask17_488_1713" style="mask-type:luminance" maskUnits="userSpaceOnUse" x="22" y="27" width="22" height="21">
<path d="M23.2316 39.6234C22.6333 36.2351 23.761 28.9158 32.187 28.0798C32.4451 28.0555 32.7042 28.0429 32.9635 28.0421C36.5286 28.0407 36.6334 30.6554 32.2791 30.6554C25.1884 30.6554 23.2316 39.6234 23.2316 39.6234ZM32.8764 27.3574C26.937 27.3574 22.1035 31.7856 22.1035 37.2518C22.1035 42.7193 26.937 47.1466 32.8764 47.1466C38.8158 47.1466 43.6498 42.7193 43.6498 37.2518C43.6502 31.7851 38.8168 27.3574 32.8764 27.3574" fill="white"/>
</mask>
<g mask="url(#mask17_488_1713)">
<path d="M22.1016 42.9847L43.6532 30.7676V31.5228L22.1016 43.7294V42.9847Z" fill="#F28E1D"/>
</g>
<mask id="mask18_488_1713" style="mask-type:luminance" maskUnits="userSpaceOnUse" x="22" y="27" width="22" height="21">
<path d="M23.2316 39.6234C22.6333 36.2351 23.761 28.9158 32.187 28.0798C32.4451 28.0555 32.7042 28.0429 32.9635 28.0421C36.5286 28.0407 36.6334 30.6554 32.2791 30.6554C25.1884 30.6554 23.2316 39.6234 23.2316 39.6234ZM32.8764 27.3574C26.937 27.3574 22.1035 31.7856 22.1035 37.2518C22.1035 42.7193 26.937 47.1466 32.8764 47.1466C38.8158 47.1466 43.6498 42.7193 43.6498 37.2518C43.6502 31.7851 38.8168 27.3574 32.8764 27.3574" fill="white"/>
</mask>
<g mask="url(#mask18_488_1713)">
<path d="M22.1016 42.2304L43.6532 30.0225V30.7681L22.1016 42.9852V42.2304Z" fill="#F38F1D"/>
</g>
<mask id="mask19_488_1713" style="mask-type:luminance" maskUnits="userSpaceOnUse" x="22" y="27" width="22" height="21">
<path d="M23.2316 39.6234C22.6333 36.2351 23.761 28.9158 32.187 28.0798C32.4451 28.0555 32.7042 28.0429 32.9635 28.0421C36.5286 28.0407 36.6334 30.6554 32.2791 30.6554C25.1884 30.6554 23.2316 39.6234 23.2316 39.6234ZM32.8764 27.3574C26.937 27.3574 22.1035 31.7856 22.1035 37.2518C22.1035 42.7193 26.937 47.1466 32.8764 47.1466C38.8158 47.1466 43.6498 42.7193 43.6498 37.2518C43.6502 31.7851 38.8168 27.3574 32.8764 27.3574" fill="white"/>
</mask>
<g mask="url(#mask19_488_1713)">
<path d="M22.1016 41.4741L43.6532 29.2676V30.0219L22.1016 42.2298V41.4741Z" fill="#F38F1D"/>
</g>
<mask id="mask20_488_1713" style="mask-type:luminance" maskUnits="userSpaceOnUse" x="22" y="27" width="22" height="21">
<path d="M23.2316 39.6234C22.6333 36.2351 23.761 28.9158 32.187 28.0798C32.4451 28.0555 32.7042 28.0429 32.9635 28.0421C36.5286 28.0407 36.6334 30.6554 32.2791 30.6554C25.1884 30.6554 23.2316 39.6234 23.2316 39.6234ZM32.8764 27.3574C26.937 27.3574 22.1035 31.7856 22.1035 37.2518C22.1035 42.7193 26.937 47.1466 32.8764 47.1466C38.8158 47.1466 43.6498 42.7193 43.6498 37.2518C43.6502 31.7851 38.8168 27.3574 32.8764 27.3574" fill="white"/>
</mask>
<g mask="url(#mask20_488_1713)">
<path d="M22.1016 40.7309L43.6532 28.5234V29.2686L22.1016 41.4751V40.7309Z" fill="#F5901E"/>
</g>
<mask id="mask21_488_1713" style="mask-type:luminance" maskUnits="userSpaceOnUse" x="22" y="27" width="22" height="21">
<path d="M23.2316 39.6234C22.6333 36.2351 23.761 28.9158 32.187 28.0798C32.4451 28.0555 32.7042 28.0429 32.9635 28.0421C36.5286 28.0407 36.6334 30.6554 32.2791 30.6554C25.1884 30.6554 23.2316 39.6234 23.2316 39.6234ZM32.8764 27.3574C26.937 27.3574 22.1035 31.7856 22.1035 37.2518C22.1035 42.7193 26.937 47.1466 32.8764 47.1466C38.8158 47.1466 43.6498 42.7193 43.6498 37.2518C43.6502 31.7851 38.8168 27.3574 32.8764 27.3574" fill="white"/>
</mask>
<g mask="url(#mask21_488_1713)">
<path d="M22.1016 39.9852L43.6532 27.7676V28.5233L22.1016 40.7308V39.9852Z" fill="#F5911D"/>
</g>
<mask id="mask22_488_1713" style="mask-type:luminance" maskUnits="userSpaceOnUse" x="22" y="27" width="22" height="21">
<path d="M23.2316 39.6234C22.6333 36.2351 23.761 28.9158 32.187 28.0798C32.4451 28.0555 32.7042 28.0429 32.9635 28.0421C36.5286 28.0407 36.6334 30.6554 32.2791 30.6554C25.1884 30.6554 23.2316 39.6234 23.2316 39.6234ZM32.8764 27.3574C26.937 27.3574 22.1035 31.7856 22.1035 37.2518C22.1035 42.7193 26.937 47.1466 32.8764 47.1466C38.8158 47.1466 43.6498 42.7193 43.6498 37.2518C43.6502 31.7851 38.8168 27.3574 32.8764 27.3574" fill="white"/>
</mask>
<g mask="url(#mask22_488_1713)">
<path d="M22.1016 39.2295L43.0633 27.3555H43.6532V27.7672L22.1016 39.9848V39.2295Z" fill="#F6921E"/>
</g>
<mask id="mask23_488_1713" style="mask-type:luminance" maskUnits="userSpaceOnUse" x="22" y="27" width="22" height="21">
<path d="M23.2316 39.6234C22.6333 36.2351 23.761 28.9158 32.187 28.0798C32.4451 28.0555 32.7042 28.0429 32.9635 28.0421C36.5286 28.0407 36.6334 30.6554 32.2791 30.6554C25.1884 30.6554 23.2316 39.6234 23.2316 39.6234ZM32.8764 27.3574C26.937 27.3574 22.1035 31.7856 22.1035 37.2518C22.1035 42.7193 26.937 47.1466 32.8764 47.1466C38.8158 47.1466 43.6498 42.7193 43.6498 37.2518C43.6502 31.7851 38.8168 27.3574 32.8764 27.3574" fill="white"/>
</mask>
<g mask="url(#mask23_488_1713)">
<path d="M22.1016 38.4747L41.7343 27.3555H43.0633L22.1016 39.2295V38.4747Z" fill="#F6921E"/>
</g>
<mask id="mask24_488_1713" style="mask-type:luminance" maskUnits="userSpaceOnUse" x="22" y="27" width="22" height="21">
<path d="M23.2316 39.6234C22.6333 36.2351 23.761 28.9158 32.187 28.0798C32.4451 28.0555 32.7042 28.0429 32.9635 28.0421C36.5286 28.0407 36.6334 30.6554 32.2791 30.6554C25.1884 30.6554 23.2316 39.6234 23.2316 39.6234ZM32.8764 27.3574C26.937 27.3574 22.1035 31.7856 22.1035 37.2518C22.1035 42.7193 26.937 47.1466 32.8764 47.1466C38.8158 47.1466 43.6498 42.7193 43.6498 37.2518C43.6502 31.7851 38.8168 27.3574 32.8764 27.3574" fill="white"/>
</mask>
<g mask="url(#mask24_488_1713)">
<path d="M22.1016 37.7296L40.4156 27.3555H41.7343L22.1016 38.4747V37.7296Z" fill="#F6921E"/>
</g>
<mask id="mask25_488_1713" style="mask-type:luminance" maskUnits="userSpaceOnUse" x="22" y="27" width="22" height="21">
<path d="M23.2316 39.6234C22.6333 36.2351 23.761 28.9158 32.187 28.0798C32.4451 28.0555 32.7042 28.0429 32.9635 28.0421C36.5286 28.0407 36.6334 30.6554 32.2791 30.6554C25.1884 30.6554 23.2316 39.6234 23.2316 39.6234ZM32.8764 27.3574C26.937 27.3574 22.1035 31.7856 22.1035 37.2518C22.1035 42.7193 26.937 47.1466 32.8764 47.1466C38.8158 47.1466 43.6498 42.7193 43.6498 37.2518C43.6502 31.7851 38.8168 27.3574 32.8764 27.3574" fill="white"/>
</mask>
<g mask="url(#mask25_488_1713)">
<path d="M22.1016 36.984L39.0876 27.3555H40.4156L22.1016 37.7296V36.984Z" fill="#F6921E"/>
</g>
<mask id="mask26_488_1713" style="mask-type:luminance" maskUnits="userSpaceOnUse" x="22" y="27" width="22" height="21">
<path d="M23.2316 39.6234C22.6333 36.2351 23.761 28.9158 32.187 28.0798C32.4451 28.0555 32.7042 28.0429 32.9635 28.0421C36.5286 28.0407 36.6334 30.6554 32.2791 30.6554C25.1884 30.6554 23.2316 39.6234 23.2316 39.6234ZM32.8764 27.3574C26.937 27.3574 22.1035 31.7856 22.1035 37.2518C22.1035 42.7193 26.937 47.1466 32.8764 47.1466C38.8158 47.1466 43.6498 42.7193 43.6498 37.2518C43.6502 31.7851 38.8168 27.3574 32.8764 27.3574" fill="white"/>
</mask>
<g mask="url(#mask26_488_1713)">
<path d="M22.1016 36.2297L37.7685 27.3555H39.0876L22.1016 36.984V36.2297Z" fill="#F6921E"/>
</g>
<mask id="mask27_488_1713" style="mask-type:luminance" maskUnits="userSpaceOnUse" x="22" y="27" width="22" height="21">
<path d="M23.2316 39.6234C22.6333 36.2351 23.761 28.9158 32.187 28.0798C32.4451 28.0555 32.7042 28.0429 32.9635 28.0421C36.5286 28.0407 36.6334 30.6554 32.2791 30.6554C25.1884 30.6554 23.2316 39.6234 23.2316 39.6234ZM32.8764 27.3574C26.937 27.3574 22.1035 31.7856 22.1035 37.2518C22.1035 42.7193 26.937 47.1466 32.8764 47.1466C38.8158 47.1466 43.6498 42.7193 43.6498 37.2518C43.6502 31.7851 38.8168 27.3574 32.8764 27.3574" fill="white"/>
</mask>
<g mask="url(#mask27_488_1713)">
<path d="M22.1016 35.474L36.439 27.3555H37.7685L22.1016 36.2297V35.474Z" fill="#F6921E"/>
</g>
<mask id="mask28_488_1713" style="mask-type:luminance" maskUnits="userSpaceOnUse" x="22" y="27" width="22" height="21">
<path d="M23.2316 39.6234C22.6333 36.2351 23.761 28.9158 32.187 28.0798C32.4451 28.0555 32.7042 28.0429 32.9635 28.0421C36.5286 28.0407 36.6334 30.6554 32.2791 30.6554C25.1884 30.6554 23.2316 39.6234 23.2316 39.6234ZM32.8764 27.3574C26.937 27.3574 22.1035 31.7856 22.1035 37.2518C22.1035 42.7193 26.937 47.1466 32.8764 47.1466C38.8158 47.1466 43.6498 42.7193 43.6498 37.2518C43.6502 31.7851 38.8168 27.3574 32.8764 27.3574" fill="white"/>
</mask>
<g mask="url(#mask28_488_1713)">
<path d="M22.1016 34.7298L35.1203 27.3555H36.439L22.1016 35.474V34.7298Z" fill="#F6921E"/>
</g>
<mask id="mask29_488_1713" style="mask-type:luminance" maskUnits="userSpaceOnUse" x="22" y="27" width="22" height="21">
<path d="M23.2316 39.6234C22.6333 36.2351 23.761 28.9158 32.187 28.0798C32.4451 28.0555 32.7042 28.0429 32.9635 28.0421C36.5286 28.0407 36.6334 30.6554 32.2791 30.6554C25.1884 30.6554 23.2316 39.6234 23.2316 39.6234ZM32.8764 27.3574C26.937 27.3574 22.1035 31.7856 22.1035 37.2518C22.1035 42.7193 26.937 47.1466 32.8764 47.1466C38.8158 47.1466 43.6498 42.7193 43.6498 37.2518C43.6502 31.7851 38.8168 27.3574 32.8764 27.3574" fill="white"/>
</mask>
<g mask="url(#mask29_488_1713)">
<path d="M22.1016 33.9842L33.7913 27.3555H35.1203L22.1016 34.7298V33.9842Z" fill="#F6921E"/>
</g>
<mask id="mask30_488_1713" style="mask-type:luminance" maskUnits="userSpaceOnUse" x="22" y="27" width="22" height="21">
<path d="M23.2316 39.6234C22.6333 36.2351 23.761 28.9158 32.187 28.0798C32.4451 28.0555 32.7042 28.0429 32.9635 28.0421C36.5286 28.0407 36.6334 30.6554 32.2791 30.6554C25.1884 30.6554 23.2316 39.6234 23.2316 39.6234ZM32.8764 27.3574C26.937 27.3574 22.1035 31.7856 22.1035 37.2518C22.1035 42.7193 26.937 47.1466 32.8764 47.1466C38.8158 47.1466 43.6498 42.7193 43.6498 37.2518C43.6502 31.7851 38.8168 27.3574 32.8764 27.3574" fill="white"/>
</mask>
<g mask="url(#mask30_488_1713)">
<path d="M22.1016 33.2285L32.4721 27.3555H33.7913L22.1016 33.9842V33.2285Z" fill="#F6921E"/>
</g>
<mask id="mask31_488_1713" style="mask-type:luminance" maskUnits="userSpaceOnUse" x="22" y="27" width="22" height="21">
<path d="M23.2316 39.6234C22.6333 36.2351 23.761 28.9158 32.187 28.0798C32.4451 28.0555 32.7042 28.0429 32.9635 28.0421C36.5286 28.0407 36.6334 30.6554 32.2791 30.6554C25.1884 30.6554 23.2316 39.6234 23.2316 39.6234ZM32.8764 27.3574C26.937 27.3574 22.1035 31.7856 22.1035 37.2518C22.1035 42.7193 26.937 47.1466 32.8764 47.1466C38.8158 47.1466 43.6498 42.7193 43.6498 37.2518C43.6502 31.7851 38.8168 27.3574 32.8764 27.3574" fill="white"/>
</mask>
<g mask="url(#mask31_488_1713)">
<path d="M22.1016 32.4742L31.1431 27.3555H32.4721L22.1016 33.2285V32.4742Z" fill="#F6921E"/>
</g>
<mask id="mask32_488_1713" style="mask-type:luminance" maskUnits="userSpaceOnUse" x="22" y="27" width="22" height="21">
<path d="M23.2316 39.6234C22.6333 36.2351 23.761 28.9158 32.187 28.0798C32.4451 28.0555 32.7042 28.0429 32.9635 28.0421C36.5286 28.0407 36.6334 30.6554 32.2791 30.6554C25.1884 30.6554 23.2316 39.6234 23.2316 39.6234ZM32.8764 27.3574C26.937 27.3574 22.1035 31.7856 22.1035 37.2518C22.1035 42.7193 26.937 47.1466 32.8764 47.1466C38.8158 47.1466 43.6498 42.7193 43.6498 37.2518C43.6502 31.7851 38.8168 27.3574 32.8764 27.3574" fill="white"/>
</mask>
<g mask="url(#mask32_488_1713)">
<path d="M22.1016 31.7291L29.8245 27.3555H31.1431L22.1016 32.4742V31.7291Z" fill="#F6921E"/>
</g>
<mask id="mask33_488_1713" style="mask-type:luminance" maskUnits="userSpaceOnUse" x="22" y="27" width="22" height="21">
<path d="M23.2316 39.6234C22.6333 36.2351 23.761 28.9158 32.187 28.0798C32.4451 28.0555 32.7042 28.0429 32.9635 28.0421C36.5286 28.0407 36.6334 30.6554 32.2791 30.6554C25.1884 30.6554 23.2316 39.6234 23.2316 39.6234ZM32.8764 27.3574C26.937 27.3574 22.1035 31.7856 22.1035 37.2518C22.1035 42.7193 26.937 47.1466 32.8764 47.1466C38.8158 47.1466 43.6498 42.7193 43.6498 37.2518C43.6502 31.7851 38.8168 27.3574 32.8764 27.3574" fill="white"/>
</mask>
<g mask="url(#mask33_488_1713)">
<path d="M29.8245 27.3555L22.1016 31.7291V27.3555H29.8245Z" fill="#F6921E"/>
</g>
<mask id="mask34_488_1713" style="mask-type:luminance" maskUnits="userSpaceOnUse" x="47" y="27" width="23" height="21">
<path d="M48.7865 39.6234C48.1867 36.2351 49.3158 28.9158 57.7419 28.0799C57.9987 28.0555 58.2565 28.0429 58.5145 28.0422C62.0618 28.0407 62.1849 30.6554 57.8098 30.6554C50.7418 30.6554 48.7865 39.6234 48.7865 39.6234ZM58.3618 27.1748C52.3771 27.1748 47.5195 31.6484 47.5195 37.1392C47.5195 42.6503 52.3766 47.1007 58.3618 47.1007C64.348 47.1007 69.2051 42.6508 69.2051 37.1392C69.2056 31.6489 64.3485 27.1748 58.3618 27.1748" fill="white"/>
</mask>
<g mask="url(#mask34_488_1713)">
<path d="M61.4473 47.1033L69.2012 42.7012V47.1033H61.4473Z" fill="#0072BB"/>
</g>
<mask id="mask35_488_1713" style="mask-type:luminance" maskUnits="userSpaceOnUse" x="47" y="27" width="23" height="21">
<path d="M48.7865 39.6234C48.1867 36.2351 49.3158 28.9158 57.7419 28.0799C57.9987 28.0555 58.2565 28.0429 58.5145 28.0422C62.0618 28.0407 62.1849 30.6554 57.8098 30.6554C50.7418 30.6554 48.7865 39.6234 48.7865 39.6234ZM58.3618 27.1748C52.3771 27.1748 47.5195 31.6484 47.5195 37.1392C47.5195 42.6503 52.3766 47.1007 58.3618 47.1007C64.348 47.1007 69.2051 42.6508 69.2051 37.1392C69.2056 31.6489 64.3485 27.1748 58.3618 27.1748" fill="white"/>
</mask>
<g mask="url(#mask35_488_1713)">
<path d="M60.7891 47.1039L69.2018 42.3389V42.7018L61.4479 47.1039H60.7891Z" fill="#0072BB"/>
</g>
<mask id="mask36_488_1713" style="mask-type:luminance" maskUnits="userSpaceOnUse" x="47" y="27" width="23" height="21">
<path d="M48.7865 39.6234C48.1867 36.2351 49.3158 28.9158 57.7419 28.0799C57.9987 28.0555 58.2565 28.0429 58.5145 28.0422C62.0618 28.0407 62.1849 30.6554 57.8098 30.6554C50.7418 30.6554 48.7865 39.6234 48.7865 39.6234ZM58.3618 27.1748C52.3771 27.1748 47.5195 31.6484 47.5195 37.1392C47.5195 42.6503 52.3766 47.1007 58.3618 47.1007C64.348 47.1007 69.2051 42.6508 69.2051 37.1392C69.2056 31.6489 64.3485 27.1748 58.3618 27.1748" fill="white"/>
</mask>
<g mask="url(#mask36_488_1713)">
<path d="M60.1289 47.1034L69.201 41.9658V42.3384L60.7882 47.1034H60.1289Z" fill="#0073BC"/>
</g>
<mask id="mask37_488_1713" style="mask-type:luminance" maskUnits="userSpaceOnUse" x="47" y="27" width="23" height="21">
<path d="M48.7865 39.6234C48.1867 36.2351 49.3158 28.9158 57.7419 28.0799C57.9987 28.0555 58.2565 28.0429 58.5145 28.0422C62.0618 28.0407 62.1849 30.6554 57.8098 30.6554C50.7418 30.6554 48.7865 39.6234 48.7865 39.6234ZM58.3618 27.1748C52.3771 27.1748 47.5195 31.6484 47.5195 37.1392C47.5195 42.6503 52.3766 47.1007 58.3618 47.1007C64.348 47.1007 69.2051 42.6508 69.2051 37.1392C69.2056 31.6489 64.3485 27.1748 58.3618 27.1748" fill="white"/>
</mask>
<g mask="url(#mask37_488_1713)">
<path d="M59.4805 47.1029L69.2021 41.5928V41.9653L60.13 47.1029H59.4805Z" fill="#0075BD"/>
</g>
<mask id="mask38_488_1713" style="mask-type:luminance" maskUnits="userSpaceOnUse" x="47" y="27" width="23" height="21">
<path d="M48.7865 39.6234C48.1867 36.2351 49.3158 28.9158 57.7419 28.0799C57.9987 28.0555 58.2565 28.0429 58.5145 28.0422C62.0618 28.0407 62.1849 30.6554 57.8098 30.6554C50.7418 30.6554 48.7865 39.6234 48.7865 39.6234ZM58.3618 27.1748C52.3771 27.1748 47.5195 31.6484 47.5195 37.1392C47.5195 42.6503 52.3766 47.1007 58.3618 47.1007C64.348 47.1007 69.2051 42.6508 69.2051 37.1392C69.2056 31.6489 64.3485 27.1748 58.3618 27.1748" fill="white"/>
</mask>
<g mask="url(#mask38_488_1713)">
<path d="M58.8203 47.1039L69.2012 41.2207V41.5937L59.4796 47.1039H58.8203Z" fill="#0076BF"/>
</g>
<mask id="mask39_488_1713" style="mask-type:luminance" maskUnits="userSpaceOnUse" x="47" y="27" width="23" height="21">
<path d="M48.7865 39.6234C48.1867 36.2351 49.3158 28.9158 57.7419 28.0799C57.9987 28.0555 58.2565 28.0429 58.5145 28.0422C62.0618 28.0407 62.1849 30.6554 57.8098 30.6554C50.7418 30.6554 48.7865 39.6234 48.7865 39.6234ZM58.3618 27.1748C52.3771 27.1748 47.5195 31.6484 47.5195 37.1392C47.5195 42.6503 52.3766 47.1007 58.3618 47.1007C64.348 47.1007 69.2051 42.6508 69.2051 37.1392C69.2056 31.6489 64.3485 27.1748 58.3618 27.1748" fill="white"/>
</mask>
<g mask="url(#mask39_488_1713)">
<path d="M58.1719 47.1034L69.2018 40.8477V41.2202L58.8209 47.1034H58.1719Z" fill="#0077BF"/>
</g>
<mask id="mask40_488_1713" style="mask-type:luminance" maskUnits="userSpaceOnUse" x="47" y="27" width="23" height="21">
<path d="M48.7865 39.6234C48.1867 36.2351 49.3158 28.9158 57.7419 28.0799C57.9987 28.0555 58.2565 28.0429 58.5145 28.0422C62.0618 28.0407 62.1849 30.6554 57.8098 30.6554C50.7418 30.6554 48.7865 39.6234 48.7865 39.6234ZM58.3618 27.1748C52.3771 27.1748 47.5195 31.6484 47.5195 37.1392C47.5195 42.6503 52.3766 47.1007 58.3618 47.1007C64.348 47.1007 69.2051 42.6508 69.2051 37.1392C69.2056 31.6489 64.3485 27.1748 58.3618 27.1748" fill="white"/>
</mask>
<g mask="url(#mask40_488_1713)">
<path d="M57.5117 47.1034L69.2015 40.4756V40.8477L58.1715 47.1034H57.5117Z" fill="#0079C0"/>
</g>
<mask id="mask41_488_1713" style="mask-type:luminance" maskUnits="userSpaceOnUse" x="47" y="27" width="23" height="21">
<path d="M48.7865 39.6234C48.1867 36.2351 49.3158 28.9158 57.7419 28.0799C57.9987 28.0555 58.2565 28.0429 58.5145 28.0422C62.0618 28.0407 62.1849 30.6554 57.8098 30.6554C50.7418 30.6554 48.7865 39.6234 48.7865 39.6234ZM58.3618 27.1748C52.3771 27.1748 47.5195 31.6484 47.5195 37.1392C47.5195 42.6503 52.3766 47.1007 58.3618 47.1007C64.348 47.1007 69.2051 42.6508 69.2051 37.1392C69.2056 31.6489 64.3485 27.1748 58.3618 27.1748" fill="white"/>
</mask>
<g mask="url(#mask41_488_1713)">
<path d="M56.8535 47.1029L69.2026 40.1016V40.4751L57.5128 47.1029H56.8535Z" fill="#007AC2"/>
</g>
<mask id="mask42_488_1713" style="mask-type:luminance" maskUnits="userSpaceOnUse" x="47" y="27" width="23" height="21">
<path d="M48.7865 39.6234C48.1867 36.2351 49.3158 28.9158 57.7419 28.0799C57.9987 28.0555 58.2565 28.0429 58.5145 28.0422C62.0618 28.0407 62.1849 30.6554 57.8098 30.6554C50.7418 30.6554 48.7865 39.6234 48.7865 39.6234ZM58.3618 27.1748C52.3771 27.1748 47.5195 31.6484 47.5195 37.1392C47.5195 42.6503 52.3766 47.1007 58.3618 47.1007C64.348 47.1007 69.2051 42.6508 69.2051 37.1392C69.2056 31.6489 64.3485 27.1748 58.3618 27.1748" fill="white"/>
</mask>
<g mask="url(#mask42_488_1713)">
<path d="M56.2031 47.1029L69.2022 39.7295V40.1016L56.8531 47.1029H56.2031Z" fill="#007BC3"/>
</g>
<mask id="mask43_488_1713" style="mask-type:luminance" maskUnits="userSpaceOnUse" x="47" y="27" width="23" height="21">
<path d="M48.7865 39.6234C48.1867 36.2351 49.3158 28.9158 57.7419 28.0799C57.9987 28.0555 58.2565 28.0429 58.5145 28.0422C62.0618 28.0407 62.1849 30.6554 57.8098 30.6554C50.7418 30.6554 48.7865 39.6234 48.7865 39.6234ZM58.3618 27.1748C52.3771 27.1748 47.5195 31.6484 47.5195 37.1392C47.5195 42.6503 52.3766 47.1007 58.3618 47.1007C64.348 47.1007 69.2051 42.6508 69.2051 37.1392C69.2056 31.6489 64.3485 27.1748 58.3618 27.1748" fill="white"/>
</mask>
<g mask="url(#mask43_488_1713)">
<path d="M55.543 47.1029L69.2009 39.3574V39.7295L56.2018 47.1029H55.543Z" fill="#007CC4"/>
</g>
<mask id="mask44_488_1713" style="mask-type:luminance" maskUnits="userSpaceOnUse" x="47" y="27" width="23" height="21">
<path d="M48.7865 39.6234C48.1867 36.2351 49.3158 28.9158 57.7419 28.0799C57.9987 28.0555 58.2565 28.0429 58.5145 28.0422C62.0618 28.0407 62.1849 30.6554 57.8098 30.6554C50.7418 30.6554 48.7865 39.6234 48.7865 39.6234ZM58.3618 27.1748C52.3771 27.1748 47.5195 31.6484 47.5195 37.1392C47.5195 42.6503 52.3766 47.1007 58.3618 47.1007C64.348 47.1007 69.2051 42.6508 69.2051 37.1392C69.2056 31.6489 64.3485 27.1748 58.3618 27.1748" fill="white"/>
</mask>
<g mask="url(#mask44_488_1713)">
<path d="M54.8848 47.1034L69.2025 38.9844V39.3579L55.5446 47.1034H54.8848Z" fill="#007DC4"/>
</g>
<mask id="mask45_488_1713" style="mask-type:luminance" maskUnits="userSpaceOnUse" x="47" y="27" width="23" height="21">
<path d="M48.7865 39.6234C48.1867 36.2351 49.3158 28.9158 57.7419 28.0799C57.9987 28.0555 58.2565 28.0429 58.5145 28.0422C62.0618 28.0407 62.1849 30.6554 57.8098 30.6554C50.7418 30.6554 48.7865 39.6234 48.7865 39.6234ZM58.3618 27.1748C52.3771 27.1748 47.5195 31.6484 47.5195 37.1392C47.5195 42.6503 52.3766 47.1007 58.3618 47.1007C64.348 47.1007 69.2051 42.6508 69.2051 37.1392C69.2056 31.6489 64.3485 27.1748 58.3618 27.1748" fill="white"/>
</mask>
<g mask="url(#mask45_488_1713)">
<path d="M54.2344 47.1034L69.2016 38.6123V38.9844L54.8839 47.1034H54.2344Z" fill="#007FC5"/>
</g>
<mask id="mask46_488_1713" style="mask-type:luminance" maskUnits="userSpaceOnUse" x="47" y="27" width="23" height="21">
<path d="M48.7865 39.6234C48.1867 36.2351 49.3158 28.9158 57.7419 28.0799C57.9987 28.0555 58.2565 28.0429 58.5145 28.0422C62.0618 28.0407 62.1849 30.6554 57.8098 30.6554C50.7418 30.6554 48.7865 39.6234 48.7865 39.6234ZM58.3618 27.1748C52.3771 27.1748 47.5195 31.6484 47.5195 37.1392C47.5195 42.6503 52.3766 47.1007 58.3618 47.1007C64.348 47.1007 69.2051 42.6508 69.2051 37.1392C69.2056 31.6489 64.3485 27.1748 58.3618 27.1748" fill="white"/>
</mask>
<g mask="url(#mask46_488_1713)">
<path d="M53.5742 47.1035L69.2007 38.25V38.6124L54.2336 47.1035H53.5742Z" fill="#0080C6"/>
</g>
<mask id="mask47_488_1713" style="mask-type:luminance" maskUnits="userSpaceOnUse" x="47" y="27" width="23" height="21">
<path d="M48.7865 39.6234C48.1867 36.2351 49.3158 28.9158 57.7419 28.0799C57.9987 28.0555 58.2565 28.0429 58.5145 28.0422C62.0618 28.0407 62.1849 30.6554 57.8098 30.6554C50.7418 30.6554 48.7865 39.6234 48.7865 39.6234ZM58.3618 27.1748C52.3771 27.1748 47.5195 31.6484 47.5195 37.1392C47.5195 42.6503 52.3766 47.1007 58.3618 47.1007C64.348 47.1007 69.2051 42.6508 69.2051 37.1392C69.2056 31.6489 64.3485 27.1748 58.3618 27.1748" fill="white"/>
</mask>
<g mask="url(#mask47_488_1713)">
<path d="M52.916 47.104L69.2014 37.877V38.2505L53.5749 47.104H52.916Z" fill="#0080C7"/>
</g>
<mask id="mask48_488_1713" style="mask-type:luminance" maskUnits="userSpaceOnUse" x="47" y="27" width="23" height="21">
<path d="M48.7865 39.6234C48.1867 36.2351 49.3158 28.9158 57.7419 28.0799C57.9987 28.0555 58.2565 28.0429 58.5145 28.0422C62.0618 28.0407 62.1849 30.6554 57.8098 30.6554C50.7418 30.6554 48.7865 39.6234 48.7865 39.6234ZM58.3618 27.1748C52.3771 27.1748 47.5195 31.6484 47.5195 37.1392C47.5195 42.6503 52.3766 47.1007 58.3618 47.1007C64.348 47.1007 69.2051 42.6508 69.2051 37.1392C69.2056 31.6489 64.3485 27.1748 58.3618 27.1748" fill="white"/>
</mask>
<g mask="url(#mask48_488_1713)">
<path d="M52.2656 47.104L69.201 37.5049V37.877L52.9156 47.104H52.2656Z" fill="#0081C8"/>
</g>
<mask id="mask49_488_1713" style="mask-type:luminance" maskUnits="userSpaceOnUse" x="47" y="27" width="23" height="21">
<path d="M48.7865 39.6234C48.1867 36.2351 49.3158 28.9158 57.7419 28.0799C57.9987 28.0555 58.2565 28.0429 58.5145 28.0422C62.0618 28.0407 62.1849 30.6554 57.8098 30.6554C50.7418 30.6554 48.7865 39.6234 48.7865 39.6234ZM58.3618 27.1748C52.3771 27.1748 47.5195 31.6484 47.5195 37.1392C47.5195 42.6503 52.3766 47.1007 58.3618 47.1007C64.348 47.1007 69.2051 42.6508 69.2051 37.1392C69.2056 31.6489 64.3485 27.1748 58.3618 27.1748" fill="white"/>
</mask>
<g mask="url(#mask49_488_1713)">
<path d="M51.6055 47.103L69.2006 37.1318V37.5039L52.2653 47.103H51.6055Z" fill="#0081C9"/>
</g>
<mask id="mask50_488_1713" style="mask-type:luminance" maskUnits="userSpaceOnUse" x="47" y="27" width="23" height="21">
<path d="M48.7865 39.6234C48.1867 36.2351 49.3158 28.9158 57.7419 28.0799C57.9987 28.0555 58.2565 28.0429 58.5145 28.0422C62.0618 28.0407 62.1849 30.6554 57.8098 30.6554C50.7418 30.6554 48.7865 39.6234 48.7865 39.6234ZM58.3618 27.1748C52.3771 27.1748 47.5195 31.6484 47.5195 37.1392C47.5195 42.6503 52.3766 47.1007 58.3618 47.1007C64.348 47.1007 69.2051 42.6508 69.2051 37.1392C69.2056 31.6489 64.3485 27.1748 58.3618 27.1748" fill="white"/>
</mask>
<g mask="url(#mask50_488_1713)">
<path d="M50.957 47.1035L69.2017 36.7588V37.1323L51.6065 47.1035H50.957Z" fill="#0082C9"/>
</g>
<mask id="mask51_488_1713" style="mask-type:luminance" maskUnits="userSpaceOnUse" x="47" y="27" width="23" height="21">
<path d="M48.7865 39.6234C48.1867 36.2351 49.3158 28.9158 57.7419 28.0799C57.9987 28.0555 58.2565 28.0429 58.5145 28.0422C62.0618 28.0407 62.1849 30.6554 57.8098 30.6554C50.7418 30.6554 48.7865 39.6234 48.7865 39.6234ZM58.3618 27.1748C52.3771 27.1748 47.5195 31.6484 47.5195 37.1392C47.5195 42.6503 52.3766 47.1007 58.3618 47.1007C64.348 47.1007 69.2051 42.6508 69.2051 37.1392C69.2056 31.6489 64.3485 27.1748 58.3618 27.1748" fill="white"/>
</mask>
<g mask="url(#mask51_488_1713)">
<path d="M50.2969 47.1035L69.2009 36.3867V36.7588L50.9562 47.1035H50.2969Z" fill="#0083CA"/>
</g>
<mask id="mask52_488_1713" style="mask-type:luminance" maskUnits="userSpaceOnUse" x="47" y="27" width="23" height="21">
<path d="M48.7865 39.6234C48.1867 36.2351 49.3158 28.9158 57.7419 28.0799C57.9987 28.0555 58.2565 28.0429 58.5145 28.0422C62.0618 28.0407 62.1849 30.6554 57.8098 30.6554C50.7418 30.6554 48.7865 39.6234 48.7865 39.6234ZM58.3618 27.1748C52.3771 27.1748 47.5195 31.6484 47.5195 37.1392C47.5195 42.6503 52.3766 47.1007 58.3618 47.1007C64.348 47.1007 69.2051 42.6508 69.2051 37.1392C69.2056 31.6489 64.3485 27.1748 58.3618 27.1748" fill="white"/>
</mask>
<g mask="url(#mask52_488_1713)">
<path d="M49.6387 47.1035L69.202 36.0146V36.3867L50.298 47.1035H49.6387Z" fill="#0084CB"/>
</g>
<mask id="mask53_488_1713" style="mask-type:luminance" maskUnits="userSpaceOnUse" x="47" y="27" width="23" height="21">
<path d="M48.7865 39.6234C48.1867 36.2351 49.3158 28.9158 57.7419 28.0799C57.9987 28.0555 58.2565 28.0429 58.5145 28.0422C62.0618 28.0407 62.1849 30.6554 57.8098 30.6554C50.7418 30.6554 48.7865 39.6234 48.7865 39.6234ZM58.3618 27.1748C52.3771 27.1748 47.5195 31.6484 47.5195 37.1392C47.5195 42.6503 52.3766 47.1007 58.3618 47.1007C64.348 47.1007 69.2051 42.6508 69.2051 37.1392C69.2056 31.6489 64.3485 27.1748 58.3618 27.1748" fill="white"/>
</mask>
<g mask="url(#mask53_488_1713)">
<path d="M48.9883 47.104L69.2011 35.6416V36.0151L49.6378 47.104H48.9883Z" fill="#0085CB"/>
</g>
<mask id="mask54_488_1713" style="mask-type:luminance" maskUnits="userSpaceOnUse" x="47" y="27" width="23" height="21">
<path d="M48.7865 39.6234C48.1867 36.2351 49.3158 28.9158 57.7419 28.0799C57.9987 28.0555 58.2565 28.0429 58.5145 28.0422C62.0618 28.0407 62.1849 30.6554 57.8098 30.6554C50.7418 30.6554 48.7865 39.6234 48.7865 39.6234ZM58.3618 27.1748C52.3771 27.1748 47.5195 31.6484 47.5195 37.1392C47.5195 42.6503 52.3766 47.1007 58.3618 47.1007C64.348 47.1007 69.2051 42.6508 69.2051 37.1392C69.2056 31.6489 64.3485 27.1748 58.3618 27.1748" fill="white"/>
</mask>
<g mask="url(#mask54_488_1713)">
<path d="M48.3301 47.103L69.2027 35.2686V35.6406L48.9899 47.103H48.3301Z" fill="#0085CC"/>
</g>
<mask id="mask55_488_1713" style="mask-type:luminance" maskUnits="userSpaceOnUse" x="47" y="27" width="23" height="21">
<path d="M48.7865 39.6234C48.1867 36.2351 49.3158 28.9158 57.7419 28.0799C57.9987 28.0555 58.2565 28.0429 58.5145 28.0422C62.0618 28.0407 62.1849 30.6554 57.8098 30.6554C50.7418 30.6554 48.7865 39.6234 48.7865 39.6234ZM58.3618 27.1748C52.3771 27.1748 47.5195 31.6484 47.5195 37.1392C47.5195 42.6503 52.3766 47.1007 58.3618 47.1007C64.348 47.1007 69.2051 42.6508 69.2051 37.1392C69.2056 31.6489 64.3485 27.1748 58.3618 27.1748" fill="white"/>
</mask>
<g mask="url(#mask55_488_1713)">
<path d="M47.6699 47.1036L69.2014 34.9062V35.2691L48.3288 47.1036H47.6699Z" fill="#0086CD"/>
</g>
<mask id="mask56_488_1713" style="mask-type:luminance" maskUnits="userSpaceOnUse" x="47" y="27" width="23" height="21">
<path d="M48.7865 39.6234C48.1867 36.2351 49.3158 28.9158 57.7419 28.0799C57.9987 28.0555 58.2565 28.0429 58.5145 28.0422C62.0618 28.0407 62.1849 30.6554 57.8098 30.6554C50.7418 30.6554 48.7865 39.6234 48.7865 39.6234ZM58.3618 27.1748C52.3771 27.1748 47.5195 31.6484 47.5195 37.1392C47.5195 42.6503 52.3766 47.1007 58.3618 47.1007C64.348 47.1007 69.2051 42.6508 69.2051 37.1392C69.2056 31.6489 64.3485 27.1748 58.3618 27.1748" fill="white"/>
</mask>
<g mask="url(#mask56_488_1713)">
<path d="M47.5215 46.8195L69.2026 34.5332V34.9062L47.6712 47.1036H47.5215V46.8195Z" fill="#0087CD"/>
</g>
<mask id="mask57_488_1713" style="mask-type:luminance" maskUnits="userSpaceOnUse" x="47" y="27" width="23" height="21">
<path d="M48.7865 39.6234C48.1867 36.2351 49.3158 28.9158 57.7419 28.0799C57.9987 28.0555 58.2565 28.0429 58.5145 28.0422C62.0618 28.0407 62.1849 30.6554 57.8098 30.6554C50.7418 30.6554 48.7865 39.6234 48.7865 39.6234ZM58.3618 27.1748C52.3771 27.1748 47.5195 31.6484 47.5195 37.1392C47.5195 42.6503 52.3766 47.1007 58.3618 47.1007C64.348 47.1007 69.2051 42.6508 69.2051 37.1392C69.2056 31.6489 64.3485 27.1748 58.3618 27.1748" fill="white"/>
</mask>
<g mask="url(#mask57_488_1713)">
<path d="M47.5215 46.4459L69.2026 34.1602V34.5322L47.5215 46.8185V46.4459Z" fill="#0087CD"/>
</g>
<mask id="mask58_488_1713" style="mask-type:luminance" maskUnits="userSpaceOnUse" x="47" y="27" width="23" height="21">
<path d="M48.7865 39.6234C48.1867 36.2351 49.3158 28.9158 57.7419 28.0799C57.9987 28.0555 58.2565 28.0429 58.5145 28.0422C62.0618 28.0407 62.1849 30.6554 57.8098 30.6554C50.7418 30.6554 48.7865 39.6234 48.7865 39.6234ZM58.3618 27.1748C52.3771 27.1748 47.5195 31.6484 47.5195 37.1392C47.5195 42.6503 52.3766 47.1007 58.3618 47.1007C64.348 47.1007 69.2051 42.6508 69.2051 37.1392C69.2056 31.6489 64.3485 27.1748 58.3618 27.1748" fill="white"/>
</mask>
<g mask="url(#mask58_488_1713)">
<path d="M47.5215 46.0729L69.2026 33.7881V34.1606L47.5215 46.4464V46.0729Z" fill="#0088CE"/>
</g>
<mask id="mask59_488_1713" style="mask-type:luminance" maskUnits="userSpaceOnUse" x="47" y="27" width="23" height="21">
<path d="M48.7865 39.6234C48.1867 36.2351 49.3158 28.9158 57.7419 28.0799C57.9987 28.0555 58.2565 28.0429 58.5145 28.0422C62.0618 28.0407 62.1849 30.6554 57.8098 30.6554C50.7418 30.6554 48.7865 39.6234 48.7865 39.6234ZM58.3618 27.1748C52.3771 27.1748 47.5195 31.6484 47.5195 37.1392C47.5195 42.6503 52.3766 47.1007 58.3618 47.1007C64.348 47.1007 69.2051 42.6508 69.2051 37.1392C69.2056 31.6489 64.3485 27.1748 58.3618 27.1748" fill="white"/>
</mask>
<g mask="url(#mask59_488_1713)">
<path d="M47.5215 45.7008L69.2026 33.415V33.7881L47.5215 46.0729V45.7008Z" fill="#0088CF"/>
</g>
<mask id="mask60_488_1713" style="mask-type:luminance" maskUnits="userSpaceOnUse" x="47" y="27" width="23" height="21">
<path d="M48.7865 39.6234C48.1867 36.2351 49.3158 28.9158 57.7419 28.0799C57.9987 28.0555 58.2565 28.0429 58.5145 28.0422C62.0618 28.0407 62.1849 30.6554 57.8098 30.6554C50.7418 30.6554 48.7865 39.6234 48.7865 39.6234ZM58.3618 27.1748C52.3771 27.1748 47.5195 31.6484 47.5195 37.1392C47.5195 42.6503 52.3766 47.1007 58.3618 47.1007C64.348 47.1007 69.2051 42.6508 69.2051 37.1392C69.2056 31.6489 64.3485 27.1748 58.3618 27.1748" fill="white"/>
</mask>
<g mask="url(#mask60_488_1713)">
<path d="M47.5215 45.3297L69.2026 33.0439V33.416L47.5215 45.7018V45.3297Z" fill="#0089CF"/>
</g>
<mask id="mask61_488_1713" style="mask-type:luminance" maskUnits="userSpaceOnUse" x="47" y="27" width="23" height="21">
<path d="M48.7865 39.6234C48.1867 36.2351 49.3158 28.9158 57.7419 28.0799C57.9987 28.0555 58.2565 28.0429 58.5145 28.0422C62.0618 28.0407 62.1849 30.6554 57.8098 30.6554C50.7418 30.6554 48.7865 39.6234 48.7865 39.6234ZM58.3618 27.1748C52.3771 27.1748 47.5195 31.6484 47.5195 37.1392C47.5195 42.6503 52.3766 47.1007 58.3618 47.1007C64.348 47.1007 69.2051 42.6508 69.2051 37.1392C69.2056 31.6489 64.3485 27.1748 58.3618 27.1748" fill="white"/>
</mask>
<g mask="url(#mask61_488_1713)">
<path d="M47.5215 44.9567L69.2026 32.6709V33.0435L47.5215 45.3292V44.9567Z" fill="#0089CF"/>
</g>
<mask id="mask62_488_1713" style="mask-type:luminance" maskUnits="userSpaceOnUse" x="47" y="27" width="23" height="21">
<path d="M48.7865 39.6234C48.1867 36.2351 49.3158 28.9158 57.7419 28.0799C57.9987 28.0555 58.2565 28.0429 58.5145 28.0422C62.0618 28.0407 62.1849 30.6554 57.8098 30.6554C50.7418 30.6554 48.7865 39.6234 48.7865 39.6234ZM58.3618 27.1748C52.3771 27.1748 47.5195 31.6484 47.5195 37.1392C47.5195 42.6503 52.3766 47.1007 58.3618 47.1007C64.348 47.1007 69.2051 42.6508 69.2051 37.1392C69.2056 31.6489 64.3485 27.1748 58.3618 27.1748" fill="white"/>
</mask>
<g mask="url(#mask62_488_1713)">
<path d="M47.5215 44.5826L69.2026 32.2969V32.6699L47.5215 44.9557V44.5826Z" fill="#008AD0"/>
</g>
<mask id="mask63_488_1713" style="mask-type:luminance" maskUnits="userSpaceOnUse" x="47" y="27" width="23" height="21">
<path d="M48.7865 39.6234C48.1867 36.2351 49.3158 28.9158 57.7419 28.0799C57.9987 28.0555 58.2565 28.0429 58.5145 28.0422C62.0618 28.0407 62.1849 30.6554 57.8098 30.6554C50.7418 30.6554 48.7865 39.6234 48.7865 39.6234ZM58.3618 27.1748C52.3771 27.1748 47.5195 31.6484 47.5195 37.1392C47.5195 42.6503 52.3766 47.1007 58.3618 47.1007C64.348 47.1007 69.2051 42.6508 69.2051 37.1392C69.2056 31.6489 64.3485 27.1748 58.3618 27.1748" fill="white"/>
</mask>
<g mask="url(#mask63_488_1713)">
<path d="M47.5215 44.2111L69.2026 31.9248V32.2974L47.5215 44.5831V44.2111Z" fill="#008AD0"/>
</g>
<mask id="mask64_488_1713" style="mask-type:luminance" maskUnits="userSpaceOnUse" x="47" y="27" width="23" height="21">
<path d="M48.7865 39.6234C48.1867 36.2351 49.3158 28.9158 57.7419 28.0799C57.9987 28.0555 58.2565 28.0429 58.5145 28.0422C62.0618 28.0407 62.1849 30.6554 57.8098 30.6554C50.7418 30.6554 48.7865 39.6234 48.7865 39.6234ZM58.3618 27.1748C52.3771 27.1748 47.5195 31.6484 47.5195 37.1392C47.5195 42.6503 52.3766 47.1007 58.3618 47.1007C64.348 47.1007 69.2051 42.6508 69.2051 37.1392C69.2056 31.6489 64.3485 27.1748 58.3618 27.1748" fill="white"/>
</mask>
<g mask="url(#mask64_488_1713)">
<path d="M47.5215 43.839L69.2026 31.5527V31.9248L47.5215 44.2111V43.839Z" fill="#008AD0"/>
</g>
<mask id="mask65_488_1713" style="mask-type:luminance" maskUnits="userSpaceOnUse" x="47" y="27" width="23" height="21">
<path d="M48.7865 39.6234C48.1867 36.2351 49.3158 28.9158 57.7419 28.0799C57.9987 28.0555 58.2565 28.0429 58.5145 28.0422C62.0618 28.0407 62.1849 30.6554 57.8098 30.6554C50.7418 30.6554 48.7865 39.6234 48.7865 39.6234ZM58.3618 27.1748C52.3771 27.1748 47.5195 31.6484 47.5195 37.1392C47.5195 42.6503 52.3766 47.1007 58.3618 47.1007C64.348 47.1007 69.2051 42.6508 69.2051 37.1392C69.2056 31.6489 64.3485 27.1748 58.3618 27.1748" fill="white"/>
</mask>
<g mask="url(#mask65_488_1713)">
<path d="M47.5215 43.4756L69.2026 31.1797V31.5532L47.5215 43.8395V43.4756Z" fill="#008BD1"/>
</g>
<mask id="mask66_488_1713" style="mask-type:luminance" maskUnits="userSpaceOnUse" x="47" y="27" width="23" height="21">
<path d="M48.7865 39.6234C48.1867 36.2351 49.3158 28.9158 57.7419 28.0799C57.9987 28.0555 58.2565 28.0429 58.5145 28.0422C62.0618 28.0407 62.1849 30.6554 57.8098 30.6554C50.7418 30.6554 48.7865 39.6234 48.7865 39.6234ZM58.3618 27.1748C52.3771 27.1748 47.5195 31.6484 47.5195 37.1392C47.5195 42.6503 52.3766 47.1007 58.3618 47.1007C64.348 47.1007 69.2051 42.6508 69.2051 37.1392C69.2056 31.6489 64.3485 27.1748 58.3618 27.1748" fill="white"/>
</mask>
<g mask="url(#mask66_488_1713)">
<path d="M47.5215 43.1027L69.2026 30.8174V31.1793L47.5215 43.4752V43.1027Z" fill="#008BD1"/>
</g>
<mask id="mask67_488_1713" style="mask-type:luminance" maskUnits="userSpaceOnUse" x="47" y="27" width="23" height="21">
<path d="M48.7865 39.6234C48.1867 36.2351 49.3158 28.9158 57.7419 28.0799C57.9987 28.0555 58.2565 28.0429 58.5145 28.0422C62.0618 28.0407 62.1849 30.6554 57.8098 30.6554C50.7418 30.6554 48.7865 39.6234 48.7865 39.6234ZM58.3618 27.1748C52.3771 27.1748 47.5195 31.6484 47.5195 37.1392C47.5195 42.6503 52.3766 47.1007 58.3618 47.1007C64.348 47.1007 69.2051 42.6508 69.2051 37.1392C69.2056 31.6489 64.3485 27.1748 58.3618 27.1748" fill="white"/>
</mask>
<g mask="url(#mask67_488_1713)">
<path d="M47.5215 42.7306L69.2026 30.4443V30.8174L47.5215 43.1027V42.7306Z" fill="#008BD1"/>
</g>
<mask id="mask68_488_1713" style="mask-type:luminance" maskUnits="userSpaceOnUse" x="47" y="27" width="23" height="21">
<path d="M48.7865 39.6234C48.1867 36.2351 49.3158 28.9158 57.7419 28.0799C57.9987 28.0555 58.2565 28.0429 58.5145 28.0422C62.0618 28.0407 62.1849 30.6554 57.8098 30.6554C50.7418 30.6554 48.7865 39.6234 48.7865 39.6234ZM58.3618 27.1748C52.3771 27.1748 47.5195 31.6484 47.5195 37.1392C47.5195 42.6503 52.3766 47.1007 58.3618 47.1007C64.348 47.1007 69.2051 42.6508 69.2051 37.1392C69.2056 31.6489 64.3485 27.1748 58.3618 27.1748" fill="white"/>
</mask>
<g mask="url(#mask68_488_1713)">
<path d="M47.5215 42.358L69.2026 30.0723V30.4448L47.5215 42.7311V42.358Z" fill="#008CD1"/>
</g>
<mask id="mask69_488_1713" style="mask-type:luminance" maskUnits="userSpaceOnUse" x="47" y="27" width="23" height="21">
<path d="M48.7865 39.6234C48.1867 36.2351 49.3158 28.9158 57.7419 28.0799C57.9987 28.0555 58.2565 28.0429 58.5145 28.0422C62.0618 28.0407 62.1849 30.6554 57.8098 30.6554C50.7418 30.6554 48.7865 39.6234 48.7865 39.6234ZM58.3618 27.1748C52.3771 27.1748 47.5195 31.6484 47.5195 37.1392C47.5195 42.6503 52.3766 47.1007 58.3618 47.1007C64.348 47.1007 69.2051 42.6508 69.2051 37.1392C69.2056 31.6489 64.3485 27.1748 58.3618 27.1748" fill="white"/>
</mask>
<g mask="url(#mask69_488_1713)">
<path d="M47.5215 41.986L69.2026 29.7002V30.0728L47.5215 42.3585V41.986Z" fill="#008CD2"/>
</g>
<mask id="mask70_488_1713" style="mask-type:luminance" maskUnits="userSpaceOnUse" x="47" y="27" width="23" height="21">
<path d="M48.7865 39.6234C48.1867 36.2351 49.3158 28.9158 57.7419 28.0799C57.9987 28.0555 58.2565 28.0429 58.5145 28.0422C62.0618 28.0407 62.1849 30.6554 57.8098 30.6554C50.7418 30.6554 48.7865 39.6234 48.7865 39.6234ZM58.3618 27.1748C52.3771 27.1748 47.5195 31.6484 47.5195 37.1392C47.5195 42.6503 52.3766 47.1007 58.3618 47.1007C64.348 47.1007 69.2051 42.6508 69.2051 37.1392C69.2056 31.6489 64.3485 27.1748 58.3618 27.1748" fill="white"/>
</mask>
<g mask="url(#mask70_488_1713)">
<path d="M47.5215 41.6129L69.2026 29.3271V29.6992L47.5215 41.985V41.6129Z" fill="#008CD2"/>
</g>
<mask id="mask71_488_1713" style="mask-type:luminance" maskUnits="userSpaceOnUse" x="47" y="27" width="23" height="21">
<path d="M48.7865 39.6234C48.1867 36.2351 49.3158 28.9158 57.7419 28.0799C57.9987 28.0555 58.2565 28.0429 58.5145 28.0422C62.0618 28.0407 62.1849 30.6554 57.8098 30.6554C50.7418 30.6554 48.7865 39.6234 48.7865 39.6234ZM58.3618 27.1748C52.3771 27.1748 47.5195 31.6484 47.5195 37.1392C47.5195 42.6503 52.3766 47.1007 58.3618 47.1007C64.348 47.1007 69.2051 42.6508 69.2051 37.1392C69.2056 31.6489 64.3485 27.1748 58.3618 27.1748" fill="white"/>
</mask>
<g mask="url(#mask71_488_1713)">
<path d="M47.5215 41.2404L69.2026 28.9541V29.3276L47.5215 41.6134V41.2404Z" fill="#008DD2"/>
</g>
<mask id="mask72_488_1713" style="mask-type:luminance" maskUnits="userSpaceOnUse" x="47" y="27" width="23" height="21">
<path d="M48.7865 39.6234C48.1867 36.2351 49.3158 28.9158 57.7419 28.0799C57.9987 28.0555 58.2565 28.0429 58.5145 28.0422C62.0618 28.0407 62.1849 30.6554 57.8098 30.6554C50.7418 30.6554 48.7865 39.6234 48.7865 39.6234ZM58.3618 27.1748C52.3771 27.1748 47.5195 31.6484 47.5195 37.1392C47.5195 42.6503 52.3766 47.1007 58.3618 47.1007C64.348 47.1007 69.2051 42.6508 69.2051 37.1392C69.2056 31.6489 64.3485 27.1748 58.3618 27.1748" fill="white"/>
</mask>
<g mask="url(#mask72_488_1713)">
<path d="M47.5215 40.8673L69.2026 28.582V28.9541L47.5215 41.2404V40.8673Z" fill="#008DD2"/>
</g>
<mask id="mask73_488_1713" style="mask-type:luminance" maskUnits="userSpaceOnUse" x="47" y="27" width="23" height="21">
<path d="M48.7865 39.6234C48.1867 36.2351 49.3158 28.9158 57.7419 28.0799C57.9987 28.0555 58.2565 28.0429 58.5145 28.0422C62.0618 28.0407 62.1849 30.6554 57.8098 30.6554C50.7418 30.6554 48.7865 39.6234 48.7865 39.6234ZM58.3618 27.1748C52.3771 27.1748 47.5195 31.6484 47.5195 37.1392C47.5195 42.6503 52.3766 47.1007 58.3618 47.1007C64.348 47.1007 69.2051 42.6508 69.2051 37.1392C69.2056 31.6489 64.3485 27.1748 58.3618 27.1748" fill="white"/>
</mask>
<g mask="url(#mask73_488_1713)">
<path d="M47.5215 40.4948L69.2026 28.209V28.5815L47.5215 40.8668V40.4948Z" fill="#008DD2"/>
</g>
<mask id="mask74_488_1713" style="mask-type:luminance" maskUnits="userSpaceOnUse" x="47" y="27" width="23" height="21">
<path d="M48.7865 39.6234C48.1867 36.2351 49.3158 28.9158 57.7419 28.0799C57.9987 28.0555 58.2565 28.0429 58.5145 28.0422C62.0618 28.0407 62.1849 30.6554 57.8098 30.6554C50.7418 30.6554 48.7865 39.6234 48.7865 39.6234ZM58.3618 27.1748C52.3771 27.1748 47.5195 31.6484 47.5195 37.1392C47.5195 42.6503 52.3766 47.1007 58.3618 47.1007C64.348 47.1007 69.2051 42.6508 69.2051 37.1392C69.2056 31.6489 64.3485 27.1748 58.3618 27.1748" fill="white"/>
</mask>
<g mask="url(#mask74_488_1713)">
<path d="M47.5215 40.1227L69.2026 27.8369V28.21L47.5215 40.4957V40.1227Z" fill="#008DD3"/>
</g>
<mask id="mask75_488_1713" style="mask-type:luminance" maskUnits="userSpaceOnUse" x="47" y="27" width="23" height="21">
<path d="M48.7865 39.6234C48.1867 36.2351 49.3158 28.9158 57.7419 28.0799C57.9987 28.0555 58.2565 28.0429 58.5145 28.0422C62.0618 28.0407 62.1849 30.6554 57.8098 30.6554C50.7418 30.6554 48.7865 39.6234 48.7865 39.6234ZM58.3618 27.1748C52.3771 27.1748 47.5195 31.6484 47.5195 37.1392C47.5195 42.6503 52.3766 47.1007 58.3618 47.1007C64.348 47.1007 69.2051 42.6508 69.2051 37.1392C69.2056 31.6489 64.3485 27.1748 58.3618 27.1748" fill="white"/>
</mask>
<g mask="url(#mask75_488_1713)">
<path d="M47.5215 39.7594L69.2026 27.4736V27.836L47.5215 40.1218V39.7594Z" fill="#008DD3"/>
</g>
<mask id="mask76_488_1713" style="mask-type:luminance" maskUnits="userSpaceOnUse" x="47" y="27" width="23" height="21">
<path d="M48.7865 39.6234C48.1867 36.2351 49.3158 28.9158 57.7419 28.0799C57.9987 28.0555 58.2565 28.0429 58.5145 28.0422C62.0618 28.0407 62.1849 30.6554 57.8098 30.6554C50.7418 30.6554 48.7865 39.6234 48.7865 39.6234ZM58.3618 27.1748C52.3771 27.1748 47.5195 31.6484 47.5195 37.1392C47.5195 42.6503 52.3766 47.1007 58.3618 47.1007C64.348 47.1007 69.2051 42.6508 69.2051 37.1392C69.2056 31.6489 64.3485 27.1748 58.3618 27.1748" fill="white"/>
</mask>
<g mask="url(#mask76_488_1713)">
<path d="M47.5215 39.3872L69.0623 27.1797H69.2026V27.4735L47.5215 39.7593V39.3872Z" fill="#008DD3"/>
</g>
<mask id="mask77_488_1713" style="mask-type:luminance" maskUnits="userSpaceOnUse" x="47" y="27" width="23" height="21">
<path d="M48.7865 39.6234C48.1867 36.2351 49.3158 28.9158 57.7419 28.0799C57.9987 28.0555 58.2565 28.0429 58.5145 28.0422C62.0618 28.0407 62.1849 30.6554 57.8098 30.6554C50.7418 30.6554 48.7865 39.6234 48.7865 39.6234ZM58.3618 27.1748C52.3771 27.1748 47.5195 31.6484 47.5195 37.1392C47.5195 42.6503 52.3766 47.1007 58.3618 47.1007C64.348 47.1007 69.2051 42.6508 69.2051 37.1392C69.2056 31.6489 64.3485 27.1748 58.3618 27.1748" fill="white"/>
</mask>
<g mask="url(#mask77_488_1713)">
<path d="M47.5215 39.0141L68.4128 27.1797H69.0623L47.5215 39.3872V39.0141Z" fill="#008ED3"/>
</g>
<mask id="mask78_488_1713" style="mask-type:luminance" maskUnits="userSpaceOnUse" x="47" y="27" width="23" height="21">
<path d="M48.7865 39.6234C48.1867 36.2351 49.3158 28.9158 57.7419 28.0799C57.9987 28.0555 58.2565 28.0429 58.5145 28.0422C62.0618 28.0407 62.1849 30.6554 57.8098 30.6554C50.7418 30.6554 48.7865 39.6234 48.7865 39.6234ZM58.3618 27.1748C52.3771 27.1748 47.5195 31.6484 47.5195 37.1392C47.5195 42.6503 52.3766 47.1007 58.3618 47.1007C64.348 47.1007 69.2051 42.6508 69.2051 37.1392C69.2056 31.6489 64.3485 27.1748 58.3618 27.1748" fill="white"/>
</mask>
<g mask="url(#mask78_488_1713)">
<path d="M47.5215 38.6411L67.754 27.1797H68.4128L47.5215 39.0141V38.6411Z" fill="#008ED3"/>
</g>
<mask id="mask79_488_1713" style="mask-type:luminance" maskUnits="userSpaceOnUse" x="47" y="27" width="23" height="21">
<path d="M48.7865 39.6234C48.1867 36.2351 49.3158 28.9158 57.7419 28.0799C57.9987 28.0555 58.2565 28.0429 58.5145 28.0422C62.0618 28.0407 62.1849 30.6554 57.8098 30.6554C50.7418 30.6554 48.7865 39.6234 48.7865 39.6234ZM58.3618 27.1748C52.3771 27.1748 47.5195 31.6484 47.5195 37.1392C47.5195 42.6503 52.3766 47.1007 58.3618 47.1007C64.348 47.1007 69.2051 42.6508 69.2051 37.1392C69.2056 31.6489 64.3485 27.1748 58.3618 27.1748" fill="white"/>
</mask>
<g mask="url(#mask79_488_1713)">
<path d="M47.5215 38.269L67.1045 27.1797H67.754L47.5215 38.6411V38.269Z" fill="#008ED3"/>
</g>
<mask id="mask80_488_1713" style="mask-type:luminance" maskUnits="userSpaceOnUse" x="47" y="27" width="23" height="21">
<path d="M48.7865 39.6234C48.1867 36.2351 49.3158 28.9158 57.7419 28.0799C57.9987 28.0555 58.2565 28.0429 58.5145 28.0422C62.0618 28.0407 62.1849 30.6554 57.8098 30.6554C50.7418 30.6554 48.7865 39.6234 48.7865 39.6234ZM58.3618 27.1748C52.3771 27.1748 47.5195 31.6484 47.5195 37.1392C47.5195 42.6503 52.3766 47.1007 58.3618 47.1007C64.348 47.1007 69.2051 42.6508 69.2051 37.1392C69.2056 31.6489 64.3485 27.1748 58.3618 27.1748" fill="white"/>
</mask>
<g mask="url(#mask80_488_1713)">
<path d="M47.5215 37.8955L66.4452 27.1797H67.1045L47.5215 38.269V37.8955Z" fill="#008ED3"/>
</g>
<mask id="mask81_488_1713" style="mask-type:luminance" maskUnits="userSpaceOnUse" x="47" y="27" width="23" height="21">
<path d="M48.7865 39.6234C48.1867 36.2351 49.3158 28.9158 57.7419 28.0799C57.9987 28.0555 58.2565 28.0429 58.5145 28.0422C62.0618 28.0407 62.1849 30.6554 57.8098 30.6554C50.7418 30.6554 48.7865 39.6234 48.7865 39.6234ZM58.3618 27.1748C52.3771 27.1748 47.5195 31.6484 47.5195 37.1392C47.5195 42.6503 52.3766 47.1007 58.3618 47.1007C64.348 47.1007 69.2051 42.6508 69.2051 37.1392C69.2056 31.6489 64.3485 27.1748 58.3618 27.1748" fill="white"/>
</mask>
<g mask="url(#mask81_488_1713)">
<path d="M47.5215 37.5234L65.7863 27.1797H66.4452L47.5215 37.8955V37.5234Z" fill="#008ED3"/>
</g>
<mask id="mask82_488_1713" style="mask-type:luminance" maskUnits="userSpaceOnUse" x="47" y="27" width="23" height="21">
<path d="M48.7865 39.6234C48.1867 36.2351 49.3158 28.9158 57.7419 28.0799C57.9987 28.0555 58.2565 28.0429 58.5145 28.0422C62.0618 28.0407 62.1849 30.6554 57.8098 30.6554C50.7418 30.6554 48.7865 39.6234 48.7865 39.6234ZM58.3618 27.1748C52.3771 27.1748 47.5195 31.6484 47.5195 37.1392C47.5195 42.6503 52.3766 47.1007 58.3618 47.1007C64.348 47.1007 69.2051 42.6508 69.2051 37.1392C69.2056 31.6489 64.3485 27.1748 58.3618 27.1748" fill="white"/>
</mask>
<g mask="url(#mask82_488_1713)">
<path d="M47.5215 37.1513L65.1368 27.1797H65.7863L47.5215 37.5234V37.1513Z" fill="#008ED3"/>
</g>
<mask id="mask83_488_1713" style="mask-type:luminance" maskUnits="userSpaceOnUse" x="47" y="27" width="23" height="21">
<path d="M48.7865 39.6234C48.1867 36.2351 49.3158 28.9158 57.7419 28.0799C57.9987 28.0555 58.2565 28.0429 58.5145 28.0422C62.0618 28.0407 62.1849 30.6554 57.8098 30.6554C50.7418 30.6554 48.7865 39.6234 48.7865 39.6234ZM58.3618 27.1748C52.3771 27.1748 47.5195 31.6484 47.5195 37.1392C47.5195 42.6503 52.3766 47.1007 58.3618 47.1007C64.348 47.1007 69.2051 42.6508 69.2051 37.1392C69.2056 31.6489 64.3485 27.1748 58.3618 27.1748" fill="white"/>
</mask>
<g mask="url(#mask83_488_1713)">
<path d="M47.5215 36.7783L64.477 27.1797H65.1368L47.5215 37.1513V36.7783Z" fill="#008ED3"/>
</g>
<mask id="mask84_488_1713" style="mask-type:luminance" maskUnits="userSpaceOnUse" x="47" y="27" width="23" height="21">
<path d="M48.7865 39.6234C48.1867 36.2351 49.3158 28.9158 57.7419 28.0799C57.9987 28.0555 58.2565 28.0429 58.5145 28.0422C62.0618 28.0407 62.1849 30.6554 57.8098 30.6554C50.7418 30.6554 48.7865 39.6234 48.7865 39.6234ZM58.3618 27.1748C52.3771 27.1748 47.5195 31.6484 47.5195 37.1392C47.5195 42.6503 52.3766 47.1007 58.3618 47.1007C64.348 47.1007 69.2051 42.6508 69.2051 37.1392C69.2056 31.6489 64.3485 27.1748 58.3618 27.1748" fill="white"/>
</mask>
<g mask="url(#mask84_488_1713)">
<path d="M47.5215 36.4057L63.8172 27.1797H64.477L47.5215 36.7783V36.4057Z" fill="#008ED3"/>
</g>
<mask id="mask85_488_1713" style="mask-type:luminance" maskUnits="userSpaceOnUse" x="47" y="27" width="23" height="21">
<path d="M48.7865 39.6234C48.1867 36.2351 49.3158 28.9158 57.7419 28.0799C57.9987 28.0555 58.2565 28.0429 58.5145 28.0422C62.0618 28.0407 62.1849 30.6554 57.8098 30.6554C50.7418 30.6554 48.7865 39.6234 48.7865 39.6234ZM58.3618 27.1748C52.3771 27.1748 47.5195 31.6484 47.5195 37.1392C47.5195 42.6503 52.3766 47.1007 58.3618 47.1007C64.348 47.1007 69.2051 42.6508 69.2051 37.1392C69.2056 31.6489 64.3485 27.1748 58.3618 27.1748" fill="white"/>
</mask>
<g mask="url(#mask85_488_1713)">
<path d="M47.5215 36.0433L63.1677 27.1797H63.8172L47.5215 36.4057V36.0433Z" fill="#008ED3"/>
</g>
<mask id="mask86_488_1713" style="mask-type:luminance" maskUnits="userSpaceOnUse" x="47" y="27" width="23" height="21">
<path d="M48.7865 39.6234C48.1867 36.2351 49.3158 28.9158 57.7419 28.0799C57.9987 28.0555 58.2565 28.0429 58.5145 28.0422C62.0618 28.0407 62.1849 30.6554 57.8098 30.6554C50.7418 30.6554 48.7865 39.6234 48.7865 39.6234ZM58.3618 27.1748C52.3771 27.1748 47.5195 31.6484 47.5195 37.1392C47.5195 42.6503 52.3766 47.1007 58.3618 47.1007C64.348 47.1007 69.2051 42.6508 69.2051 37.1392C69.2056 31.6489 64.3485 27.1748 58.3618 27.1748" fill="white"/>
</mask>
<g mask="url(#mask86_488_1713)">
<path d="M47.5215 35.6703L62.5084 27.1797H63.1677L47.5215 36.0433V35.6703Z" fill="#008ED3"/>
</g>
<mask id="mask87_488_1713" style="mask-type:luminance" maskUnits="userSpaceOnUse" x="47" y="27" width="23" height="21">
<path d="M48.7865 39.6234C48.1867 36.2351 49.3158 28.9158 57.7419 28.0799C57.9987 28.0555 58.2565 28.0429 58.5145 28.0422C62.0618 28.0407 62.1849 30.6554 57.8098 30.6554C50.7418 30.6554 48.7865 39.6234 48.7865 39.6234ZM58.3618 27.1748C52.3771 27.1748 47.5195 31.6484 47.5195 37.1392C47.5195 42.6503 52.3766 47.1007 58.3618 47.1007C64.348 47.1007 69.2051 42.6508 69.2051 37.1392C69.2056 31.6489 64.3485 27.1748 58.3618 27.1748" fill="white"/>
</mask>
<g mask="url(#mask87_488_1713)">
<path d="M47.5215 35.2982L61.849 27.1797H62.5084L47.5215 35.6703V35.2982Z" fill="#008ED3"/>
</g>
<mask id="mask88_488_1713" style="mask-type:luminance" maskUnits="userSpaceOnUse" x="47" y="27" width="23" height="21">
<path d="M48.7865 39.6234C48.1867 36.2351 49.3158 28.9158 57.7419 28.0799C57.9987 28.0555 58.2565 28.0429 58.5145 28.0422C62.0618 28.0407 62.1849 30.6554 57.8098 30.6554C50.7418 30.6554 48.7865 39.6234 48.7865 39.6234ZM58.3618 27.1748C52.3771 27.1748 47.5195 31.6484 47.5195 37.1392C47.5195 42.6503 52.3766 47.1007 58.3618 47.1007C64.348 47.1007 69.2051 42.6508 69.2051 37.1392C69.2056 31.6489 64.3485 27.1748 58.3618 27.1748" fill="white"/>
</mask>
<g mask="url(#mask88_488_1713)">
<path d="M47.5215 34.9256L61.2001 27.1797H61.849L47.5215 35.2982V34.9256Z" fill="#008ED3"/>
</g>
<mask id="mask89_488_1713" style="mask-type:luminance" maskUnits="userSpaceOnUse" x="47" y="27" width="23" height="21">
<path d="M48.7865 39.6234C48.1867 36.2351 49.3158 28.9158 57.7419 28.0799C57.9987 28.0555 58.2565 28.0429 58.5145 28.0422C62.0618 28.0407 62.1849 30.6554 57.8098 30.6554C50.7418 30.6554 48.7865 39.6234 48.7865 39.6234ZM58.3618 27.1748C52.3771 27.1748 47.5195 31.6484 47.5195 37.1392C47.5195 42.6503 52.3766 47.1007 58.3618 47.1007C64.348 47.1007 69.2051 42.6508 69.2051 37.1392C69.2056 31.6489 64.3485 27.1748 58.3618 27.1748" fill="white"/>
</mask>
<g mask="url(#mask89_488_1713)">
<path d="M47.5215 34.5526L60.5402 27.1797H61.2001L47.5215 34.9256V34.5526Z" fill="#008ED3"/>
</g>
<mask id="mask90_488_1713" style="mask-type:luminance" maskUnits="userSpaceOnUse" x="47" y="27" width="23" height="21">
<path d="M48.7865 39.6234C48.1867 36.2351 49.3158 28.9158 57.7419 28.0799C57.9987 28.0555 58.2565 28.0429 58.5145 28.0422C62.0618 28.0407 62.1849 30.6554 57.8098 30.6554C50.7418 30.6554 48.7865 39.6234 48.7865 39.6234ZM58.3618 27.1748C52.3771 27.1748 47.5195 31.6484 47.5195 37.1392C47.5195 42.6503 52.3766 47.1007 58.3618 47.1007C64.348 47.1007 69.2051 42.6508 69.2051 37.1392C69.2056 31.6489 64.3485 27.1748 58.3618 27.1748" fill="white"/>
</mask>
<g mask="url(#mask90_488_1713)">
<path d="M47.5215 34.1805L59.8907 27.1797H60.5402L47.5215 34.5526V34.1805Z" fill="#008ED3"/>
</g>
<mask id="mask91_488_1713" style="mask-type:luminance" maskUnits="userSpaceOnUse" x="47" y="27" width="23" height="21">
<path d="M48.7865 39.6234C48.1867 36.2351 49.3158 28.9158 57.7419 28.0799C57.9987 28.0555 58.2565 28.0429 58.5145 28.0422C62.0618 28.0407 62.1849 30.6554 57.8098 30.6554C50.7418 30.6554 48.7865 39.6234 48.7865 39.6234ZM58.3618 27.1748C52.3771 27.1748 47.5195 31.6484 47.5195 37.1392C47.5195 42.6503 52.3766 47.1007 58.3618 47.1007C64.348 47.1007 69.2051 42.6508 69.2051 37.1392C69.2056 31.6489 64.3485 27.1748 58.3618 27.1748" fill="white"/>
</mask>
<g mask="url(#mask91_488_1713)">
<path d="M47.5215 33.808L59.2314 27.1797H59.8907L47.5215 34.1805V33.808Z" fill="#008ED3"/>
</g>
<mask id="mask92_488_1713" style="mask-type:luminance" maskUnits="userSpaceOnUse" x="47" y="27" width="23" height="21">
<path d="M48.7865 39.6234C48.1867 36.2351 49.3158 28.9158 57.7419 28.0799C57.9987 28.0555 58.2565 28.0429 58.5145 28.0422C62.0618 28.0407 62.1849 30.6554 57.8098 30.6554C50.7418 30.6554 48.7865 39.6234 48.7865 39.6234ZM58.3618 27.1748C52.3771 27.1748 47.5195 31.6484 47.5195 37.1392C47.5195 42.6503 52.3766 47.1007 58.3618 47.1007C64.348 47.1007 69.2051 42.6508 69.2051 37.1392C69.2056 31.6489 64.3485 27.1748 58.3618 27.1748" fill="white"/>
</mask>
<g mask="url(#mask92_488_1713)">
<path d="M47.5215 33.4349L58.5721 27.1797H59.2314L47.5215 33.808V33.4349Z" fill="#008ED3"/>
</g>
<mask id="mask93_488_1713" style="mask-type:luminance" maskUnits="userSpaceOnUse" x="47" y="27" width="23" height="21">
<path d="M48.7865 39.6234C48.1867 36.2351 49.3158 28.9158 57.7419 28.0799C57.9987 28.0555 58.2565 28.0429 58.5145 28.0422C62.0618 28.0407 62.1849 30.6554 57.8098 30.6554C50.7418 30.6554 48.7865 39.6234 48.7865 39.6234ZM58.3618 27.1748C52.3771 27.1748 47.5195 31.6484 47.5195 37.1392C47.5195 42.6503 52.3766 47.1007 58.3618 47.1007C64.348 47.1007 69.2051 42.6508 69.2051 37.1392C69.2056 31.6489 64.3485 27.1748 58.3618 27.1748" fill="white"/>
</mask>
<g mask="url(#mask93_488_1713)">
<path d="M47.5215 33.0628L57.9123 27.1797H58.5721L47.5215 33.4349V33.0628Z" fill="#008ED3"/>
</g>
<mask id="mask94_488_1713" style="mask-type:luminance" maskUnits="userSpaceOnUse" x="47" y="27" width="23" height="21">
<path d="M48.7865 39.6234C48.1867 36.2351 49.3158 28.9158 57.7419 28.0799C57.9987 28.0555 58.2565 28.0429 58.5145 28.0422C62.0618 28.0407 62.1849 30.6554 57.8098 30.6554C50.7418 30.6554 48.7865 39.6234 48.7865 39.6234ZM58.3618 27.1748C52.3771 27.1748 47.5195 31.6484 47.5195 37.1392C47.5195 42.6503 52.3766 47.1007 58.3618 47.1007C64.348 47.1007 69.2051 42.6508 69.2051 37.1392C69.2056 31.6489 64.3485 27.1748 58.3618 27.1748" fill="white"/>
</mask>
<g mask="url(#mask94_488_1713)">
<path d="M47.5215 32.6898L57.2628 27.1797H57.9123L47.5215 33.0628V32.6898Z" fill="#008ED3"/>
</g>
<mask id="mask95_488_1713" style="mask-type:luminance" maskUnits="userSpaceOnUse" x="47" y="27" width="23" height="21">
<path d="M48.7865 39.6234C48.1867 36.2351 49.3158 28.9158 57.7419 28.0799C57.9987 28.0555 58.2565 28.0429 58.5145 28.0422C62.0618 28.0407 62.1849 30.6554 57.8098 30.6554C50.7418 30.6554 48.7865 39.6234 48.7865 39.6234ZM58.3618 27.1748C52.3771 27.1748 47.5195 31.6484 47.5195 37.1392C47.5195 42.6503 52.3766 47.1007 58.3618 47.1007C64.348 47.1007 69.2051 42.6508 69.2051 37.1392C69.2056 31.6489 64.3485 27.1748 58.3618 27.1748" fill="white"/>
</mask>
<g mask="url(#mask95_488_1713)">
<path d="M47.5215 32.3264L56.6034 27.1797H57.2628L47.5215 32.6898V32.3264Z" fill="#008ED3"/>
</g>
<mask id="mask96_488_1713" style="mask-type:luminance" maskUnits="userSpaceOnUse" x="47" y="27" width="23" height="21">
<path d="M48.7865 39.6234C48.1867 36.2351 49.3158 28.9158 57.7419 28.0799C57.9987 28.0555 58.2565 28.0429 58.5145 28.0422C62.0618 28.0407 62.1849 30.6554 57.8098 30.6554C50.7418 30.6554 48.7865 39.6234 48.7865 39.6234ZM58.3618 27.1748C52.3771 27.1748 47.5195 31.6484 47.5195 37.1392C47.5195 42.6503 52.3766 47.1007 58.3618 47.1007C64.348 47.1007 69.2051 42.6508 69.2051 37.1392C69.2056 31.6489 64.3485 27.1748 58.3618 27.1748" fill="white"/>
</mask>
<g mask="url(#mask96_488_1713)">
<path d="M47.5215 31.9543L55.9539 27.1797H56.6034L47.5215 32.3264V31.9543Z" fill="#008ED3"/>
</g>
<mask id="mask97_488_1713" style="mask-type:luminance" maskUnits="userSpaceOnUse" x="47" y="27" width="23" height="21">
<path d="M48.7865 39.6234C48.1867 36.2351 49.3158 28.9158 57.7419 28.0799C57.9987 28.0555 58.2565 28.0429 58.5145 28.0422C62.0618 28.0407 62.1849 30.6554 57.8098 30.6554C50.7418 30.6554 48.7865 39.6234 48.7865 39.6234ZM58.3618 27.1748C52.3771 27.1748 47.5195 31.6484 47.5195 37.1392C47.5195 42.6503 52.3766 47.1007 58.3618 47.1007C64.348 47.1007 69.2051 42.6508 69.2051 37.1392C69.2056 31.6489 64.3485 27.1748 58.3618 27.1748" fill="white"/>
</mask>
<g mask="url(#mask97_488_1713)">
<path d="M47.5215 31.5823L55.2941 27.1797H55.9539L47.5215 31.9543V31.5823Z" fill="#008ED3"/>
</g>
<mask id="mask98_488_1713" style="mask-type:luminance" maskUnits="userSpaceOnUse" x="47" y="27" width="23" height="21">
<path d="M48.7865 39.6234C48.1867 36.2351 49.3158 28.9158 57.7419 28.0799C57.9987 28.0555 58.2565 28.0429 58.5145 28.0422C62.0618 28.0407 62.1849 30.6554 57.8098 30.6554C50.7418 30.6554 48.7865 39.6234 48.7865 39.6234ZM58.3618 27.1748C52.3771 27.1748 47.5195 31.6484 47.5195 37.1392C47.5195 42.6503 52.3766 47.1007 58.3618 47.1007C64.348 47.1007 69.2051 42.6508 69.2051 37.1392C69.2056 31.6489 64.3485 27.1748 58.3618 27.1748" fill="white"/>
</mask>
<g mask="url(#mask98_488_1713)">
<path d="M55.2941 27.1797L47.5215 31.5823V27.1797H55.2941Z" fill="#008ED3"/>
</g>
<path d="M60.2979 54.0836C55.5092 60.5442 49.8007 59.3458 43.1011 53.2477C36.1493 46.8765 40.7754 62.7361 43.6077 63.3686C47.7745 64.3177 49.4314 65.2184 55.0715 63.9543C60.3885 62.7361 62.9903 59.0298 64.0948 56.3876C65.9384 51.9821 62.7609 50.7398 60.2979 54.0836Z" fill="#F6921E"/>
<path d="M2.26367 43.3076C14.7068 53.0884 26.8471 54.9855 34.4031 54.9855C36.4909 54.9855 38.2276 54.8415 39.5251 54.6762C39.4246 53.8451 39.432 53.1198 39.5812 52.5979C39.2858 52.5467 38.9603 52.5143 38.6023 52.5143C38.4856 52.5143 38.3664 52.5168 38.2443 52.5245C36.0049 52.7347 33.9028 52.8304 31.9164 52.8304C17.4288 52.8304 9.32823 47.6585 2.26367 43.3076Z" fill="#FAB859"/>
<path d="M39.5802 52.5967C39.4305 53.119 39.4241 53.8444 39.5241 54.675C41.211 54.4624 42.1565 54.2174 42.1565 54.2174C42.1565 54.2174 41.5178 52.9359 39.5802 52.5967ZM62.4884 53.3157C62.3264 53.3157 62.1605 53.3964 62.0231 53.5849C58.7348 57.899 55.9178 59.3086 53.376 59.3086C52.3266 59.3086 51.3221 59.0689 50.3511 58.6915C51.5772 59.4443 52.8077 59.7459 53.9939 59.7459C58.8668 59.7459 62.9887 54.6465 62.9887 54.6465C63.4585 54.0526 62.9872 53.3157 62.4884 53.3157Z" fill="#FAB859"/>
<mask id="mask99_488_1713" style="mask-type:luminance" maskUnits="userSpaceOnUse" x="20" y="55" width="24" height="35">
<path d="M35.4878 55.7207C30.3288 55.7207 24.3397 57.0954 22.9083 60.679C22.5245 61.6651 22.1714 62.6624 21.8496 63.6696C19.8046 71.2097 20.495 78.6353 23.7385 84.0149C22.1283 81.8395 21.0612 79.5283 20.3965 77.1755C21.7634 85.74 28.1716 89.77 33.9249 89.77C39.1779 89.77 43.8853 86.4122 43.7208 80.0849V80.0927C43.7178 80.0927 43.6332 69.863 43.58 63.3608L43.5352 58.1015C43.5238 57.1897 41.9925 56.4697 39.7658 56.0701C38.5106 55.8459 37.0364 55.7207 35.4878 55.7207" fill="white"/>
</mask>
<g mask="url(#mask99_488_1713)">
<path d="M39.5742 89.7753L43.8803 83.1074V89.7753H39.5742Z" fill="#D8711C"/>
</g>
<mask id="mask100_488_1713" style="mask-type:luminance" maskUnits="userSpaceOnUse" x="20" y="55" width="24" height="35">
<path d="M35.4878 55.7207C30.3288 55.7207 24.3397 57.0954 22.9083 60.679C22.5245 61.6651 22.1714 62.6624 21.8496 63.6696C19.8046 71.2097 20.495 78.6353 23.7385 84.0149C22.1283 81.8395 21.0612 79.5283 20.3965 77.1755C21.7634 85.74 28.1716 89.77 33.9249 89.77C39.1779 89.77 43.8853 86.4122 43.7208 80.0849V80.0927C43.7178 80.0927 43.6332 69.863 43.58 63.3608L43.5352 58.1015C43.5238 57.1897 41.9925 56.4697 39.7658 56.0701C38.5106 55.8459 37.0364 55.7207 35.4878 55.7207" fill="white"/>
</mask>
<g mask="url(#mask100_488_1713)">
<path d="M38.4355 89.775L43.8806 81.3525V83.1269L39.5843 89.775H38.4355Z" fill="#D8711C"/>
</g>
<mask id="mask101_488_1713" style="mask-type:luminance" maskUnits="userSpaceOnUse" x="20" y="55" width="24" height="35">
<path d="M35.4878 55.7207C30.3288 55.7207 24.3397 57.0954 22.9083 60.679C22.5245 61.6651 22.1714 62.6624 21.8496 63.6696C19.8046 71.2097 20.495 78.6353 23.7385 84.0149C22.1283 81.8395 21.0612 79.5283 20.3965 77.1755C21.7634 85.74 28.1716 89.77 33.9249 89.77C39.1779 89.77 43.8853 86.4122 43.7208 80.0849V80.0927C43.7178 80.0927 43.6332 69.863 43.58 63.3608L43.5352 58.1015C43.5238 57.1897 41.9925 56.4697 39.7658 56.0701C38.5106 55.8459 37.0364 55.7207 35.4878 55.7207" fill="white"/>
</mask>
<g mask="url(#mask101_488_1713)">
<path d="M37.2871 89.7749L43.8809 79.5771V81.3525L38.4359 89.7749H37.2871Z" fill="#DC751C"/>
</g>
<mask id="mask102_488_1713" style="mask-type:luminance" maskUnits="userSpaceOnUse" x="20" y="55" width="24" height="35">
<path d="M35.4878 55.7207C30.3288 55.7207 24.3397 57.0954 22.9083 60.679C22.5245 61.6651 22.1714 62.6624 21.8496 63.6696C19.8046 71.2097 20.495 78.6353 23.7385 84.0149C22.1283 81.8395 21.0612 79.5283 20.3965 77.1755C21.7634 85.74 28.1716 89.77 33.9249 89.77C39.1779 89.77 43.8853 86.4122 43.7208 80.0849V80.0927C43.7178 80.0927 43.6332 69.863 43.58 63.3608L43.5352 58.1015C43.5238 57.1897 41.9925 56.4697 39.7658 56.0701C38.5106 55.8459 37.0364 55.7207 35.4878 55.7207" fill="white"/>
</mask>
<g mask="url(#mask102_488_1713)">
<path d="M36.1367 89.7749L43.8803 77.8027V79.5771L37.2865 89.7749H36.1367Z" fill="#DF791C"/>
</g>
<mask id="mask103_488_1713" style="mask-type:luminance" maskUnits="userSpaceOnUse" x="20" y="55" width="24" height="35">
<path d="M35.4878 55.7207C30.3288 55.7207 24.3397 57.0954 22.9083 60.679C22.5245 61.6651 22.1714 62.6624 21.8496 63.6696C19.8046 71.2097 20.495 78.6353 23.7385 84.0149C22.1283 81.8395 21.0612 79.5283 20.3965 77.1755C21.7634 85.74 28.1716 89.77 33.9249 89.77C39.1779 89.77 43.8853 86.4122 43.7208 80.0849V80.0927C43.7178 80.0927 43.6332 69.863 43.58 63.3608L43.5352 58.1015C43.5238 57.1897 41.9925 56.4697 39.7658 56.0701C38.5106 55.8459 37.0364 55.7207 35.4878 55.7207" fill="white"/>
</mask>
<g mask="url(#mask103_488_1713)">
<path d="M34.9883 89.7753L43.8802 76.0293V77.8032L36.1366 89.7753H34.9883Z" fill="#E27C1D"/>
</g>
<mask id="mask104_488_1713" style="mask-type:luminance" maskUnits="userSpaceOnUse" x="20" y="55" width="24" height="35">
<path d="M35.4878 55.7207C30.3288 55.7207 24.3397 57.0954 22.9083 60.679C22.5245 61.6651 22.1714 62.6624 21.8496 63.6696C19.8046 71.2097 20.495 78.6353 23.7385 84.0149C22.1283 81.8395 21.0612 79.5283 20.3965 77.1755C21.7634 85.74 28.1716 89.77 33.9249 89.77C39.1779 89.77 43.8853 86.4122 43.7208 80.0849V80.0927C43.7178 80.0927 43.6332 69.863 43.58 63.3608L43.5352 58.1015C43.5238 57.1897 41.9925 56.4697 39.7658 56.0701C38.5106 55.8459 37.0364 55.7207 35.4878 55.7207" fill="white"/>
</mask>
<g mask="url(#mask104_488_1713)">
<path d="M33.8398 89.7753L43.881 74.2539V76.0292L34.9891 89.7753H33.8398Z" fill="#E57F1D"/>
</g>
<mask id="mask105_488_1713" style="mask-type:luminance" maskUnits="userSpaceOnUse" x="20" y="55" width="24" height="35">
<path d="M35.4878 55.7207C30.3288 55.7207 24.3397 57.0954 22.9083 60.679C22.5245 61.6651 22.1714 62.6624 21.8496 63.6696C19.8046 71.2097 20.495 78.6353 23.7385 84.0149C22.1283 81.8395 21.0612 79.5283 20.3965 77.1755C21.7634 85.74 28.1716 89.77 33.9249 89.77C39.1779 89.77 43.8853 86.4122 43.7208 80.0849V80.0927C43.7178 80.0927 43.6332 69.863 43.58 63.3608L43.5352 58.1015C43.5238 57.1897 41.9925 56.4697 39.7658 56.0701C38.5106 55.8459 37.0364 55.7207 35.4878 55.7207" fill="white"/>
</mask>
<g mask="url(#mask105_488_1713)">
<path d="M32.6895 89.7752L43.8799 72.4795V74.2539L33.8387 89.7752H32.6895Z" fill="#E6801D"/>
</g>
<mask id="mask106_488_1713" style="mask-type:luminance" maskUnits="userSpaceOnUse" x="20" y="55" width="24" height="35">
<path d="M35.4878 55.7207C30.3288 55.7207 24.3397 57.0954 22.9083 60.679C22.5245 61.6651 22.1714 62.6624 21.8496 63.6696C19.8046 71.2097 20.495 78.6353 23.7385 84.0149C22.1283 81.8395 21.0612 79.5283 20.3965 77.1755C21.7634 85.74 28.1716 89.77 33.9249 89.77C39.1779 89.77 43.8853 86.4122 43.7208 80.0849V80.0927C43.7178 80.0927 43.6332 69.863 43.58 63.3608L43.5352 58.1015C43.5238 57.1897 41.9925 56.4697 39.7658 56.0701C38.5106 55.8459 37.0364 55.7207 35.4878 55.7207" fill="white"/>
</mask>
<g mask="url(#mask106_488_1713)">
<path d="M31.541 89.7761L43.8807 70.6953V72.4803L32.6903 89.7761H31.541Z" fill="#E8821D"/>
</g>
<mask id="mask107_488_1713" style="mask-type:luminance" maskUnits="userSpaceOnUse" x="20" y="55" width="24" height="35">
<path d="M35.4878 55.7207C30.3288 55.7207 24.3397 57.0954 22.9083 60.679C22.5245 61.6651 22.1714 62.6624 21.8496 63.6696C19.8046 71.2097 20.495 78.6353 23.7385 84.0149C22.1283 81.8395 21.0612 79.5283 20.3965 77.1755C21.7634 85.74 28.1716 89.77 33.9249 89.77C39.1779 89.77 43.8853 86.4122 43.7208 80.0849V80.0927C43.7178 80.0927 43.6332 69.863 43.58 63.3608L43.5352 58.1015C43.5238 57.1897 41.9925 56.4697 39.7658 56.0701C38.5106 55.8459 37.0364 55.7207 35.4878 55.7207" fill="white"/>
</mask>
<g mask="url(#mask107_488_1713)">
<path d="M30.3926 89.7751L43.8811 68.9297V70.6944L31.5414 89.7751H30.3926Z" fill="#EA851D"/>
</g>
<mask id="mask108_488_1713" style="mask-type:luminance" maskUnits="userSpaceOnUse" x="20" y="55" width="24" height="35">
<path d="M35.4878 55.7207C30.3288 55.7207 24.3397 57.0954 22.9083 60.679C22.5245 61.6651 22.1714 62.6624 21.8496 63.6696C19.8046 71.2097 20.495 78.6353 23.7385 84.0149C22.1283 81.8395 21.0612 79.5283 20.3965 77.1755C21.7634 85.74 28.1716 89.77 33.9249 89.77C39.1779 89.77 43.8853 86.4122 43.7208 80.0849V80.0927C43.7178 80.0927 43.6332 69.863 43.58 63.3608L43.5352 58.1015C43.5238 57.1897 41.9925 56.4697 39.7658 56.0701C38.5106 55.8459 37.0364 55.7207 35.4878 55.7207" fill="white"/>
</mask>
<g mask="url(#mask108_488_1713)">
<path d="M29.2441 89.7755L43.8814 67.1455V68.93L30.3929 89.7755H29.2441Z" fill="#EC871D"/>
</g>
<mask id="mask109_488_1713" style="mask-type:luminance" maskUnits="userSpaceOnUse" x="20" y="55" width="24" height="35">
<path d="M35.4878 55.7207C30.3288 55.7207 24.3397 57.0954 22.9083 60.679C22.5245 61.6651 22.1714 62.6624 21.8496 63.6696C19.8046 71.2097 20.495 78.6353 23.7385 84.0149C22.1283 81.8395 21.0612 79.5283 20.3965 77.1755C21.7634 85.74 28.1716 89.77 33.9249 89.77C39.1779 89.77 43.8853 86.4122 43.7208 80.0849V80.0927C43.7178 80.0927 43.6332 69.863 43.58 63.3608L43.5352 58.1015C43.5238 57.1897 41.9925 56.4697 39.7658 56.0701C38.5106 55.8459 37.0364 55.7207 35.4878 55.7207" fill="white"/>
</mask>
<g mask="url(#mask109_488_1713)">
<path d="M28.0938 89.7754L43.8808 65.3701V67.1454L29.2435 89.7754H28.0938Z" fill="#ED881D"/>
</g>
<mask id="mask110_488_1713" style="mask-type:luminance" maskUnits="userSpaceOnUse" x="20" y="55" width="24" height="35">
<path d="M35.4878 55.7207C30.3288 55.7207 24.3397 57.0954 22.9083 60.679C22.5245 61.6651 22.1714 62.6624 21.8496 63.6696C19.8046 71.2097 20.495 78.6353 23.7385 84.0149C22.1283 81.8395 21.0612 79.5283 20.3965 77.1755C21.7634 85.74 28.1716 89.77 33.9249 89.77C39.1779 89.77 43.8853 86.4122 43.7208 80.0849V80.0927C43.7178 80.0927 43.6332 69.863 43.58 63.3608L43.5352 58.1015C43.5238 57.1897 41.9925 56.4697 39.7658 56.0701C38.5106 55.8459 37.0364 55.7207 35.4878 55.7207" fill="white"/>
</mask>
<g mask="url(#mask110_488_1713)">
<path d="M26.9453 89.7754L43.8811 63.5957V65.3701L28.0941 89.7754H26.9453Z" fill="#EE8A1D"/>
</g>
<mask id="mask111_488_1713" style="mask-type:luminance" maskUnits="userSpaceOnUse" x="20" y="55" width="24" height="35">
<path d="M35.4878 55.7207C30.3288 55.7207 24.3397 57.0954 22.9083 60.679C22.5245 61.6651 22.1714 62.6624 21.8496 63.6696C19.8046 71.2097 20.495 78.6353 23.7385 84.0149C22.1283 81.8395 21.0612 79.5283 20.3965 77.1755C21.7634 85.74 28.1716 89.77 33.9249 89.77C39.1779 89.77 43.8853 86.4122 43.7208 80.0849V80.0927C43.7178 80.0927 43.6332 69.863 43.58 63.3608L43.5352 58.1015C43.5238 57.1897 41.9925 56.4697 39.7658 56.0701C38.5106 55.8459 37.0364 55.7207 35.4878 55.7207" fill="white"/>
</mask>
<g mask="url(#mask111_488_1713)">
<path d="M25.7969 89.7758L43.8815 61.8213V63.5961L26.9457 89.7758H25.7969Z" fill="#EF8B1D"/>
</g>
<mask id="mask112_488_1713" style="mask-type:luminance" maskUnits="userSpaceOnUse" x="20" y="55" width="24" height="35">
<path d="M35.4878 55.7207C30.3288 55.7207 24.3397 57.0954 22.9083 60.679C22.5245 61.6651 22.1714 62.6624 21.8496 63.6696C19.8046 71.2097 20.495 78.6353 23.7385 84.0149C22.1283 81.8395 21.0612 79.5283 20.3965 77.1755C21.7634 85.74 28.1716 89.77 33.9249 89.77C39.1779 89.77 43.8853 86.4122 43.7208 80.0849V80.0927C43.7178 80.0927 43.6332 69.863 43.58 63.3608L43.5352 58.1015C43.5238 57.1897 41.9925 56.4697 39.7658 56.0701C38.5106 55.8459 37.0364 55.7207 35.4878 55.7207" fill="white"/>
</mask>
<g mask="url(#mask112_488_1713)">
<path d="M24.6484 89.7753L43.8823 60.0459V61.8208L25.7977 89.7753H24.6484Z" fill="#F18D1D"/>
</g>
<mask id="mask113_488_1713" style="mask-type:luminance" maskUnits="userSpaceOnUse" x="20" y="55" width="24" height="35">
<path d="M35.4878 55.7207C30.3288 55.7207 24.3397 57.0954 22.9083 60.679C22.5245 61.6651 22.1714 62.6624 21.8496 63.6696C19.8046 71.2097 20.495 78.6353 23.7385 84.0149C22.1283 81.8395 21.0612 79.5283 20.3965 77.1755C21.7634 85.74 28.1716 89.77 33.9249 89.77C39.1779 89.77 43.8853 86.4122 43.7208 80.0849V80.0927C43.7178 80.0927 43.6332 69.863 43.58 63.3608L43.5352 58.1015C43.5238 57.1897 41.9925 56.4697 39.7658 56.0701C38.5106 55.8459 37.0364 55.7207 35.4878 55.7207" fill="white"/>
</mask>
<g mask="url(#mask113_488_1713)">
<path d="M23.498 89.7752L43.8807 58.2715V60.0459L24.6468 89.7752H23.498Z" fill="#F28E1D"/>
</g>
<mask id="mask114_488_1713" style="mask-type:luminance" maskUnits="userSpaceOnUse" x="20" y="55" width="24" height="35">
<path d="M35.4878 55.7207C30.3288 55.7207 24.3397 57.0954 22.9083 60.679C22.5245 61.6651 22.1714 62.6624 21.8496 63.6696C19.8046 71.2097 20.495 78.6353 23.7385 84.0149C22.1283 81.8395 21.0612 79.5283 20.3965 77.1755C21.7634 85.74 28.1716 89.77 33.9249 89.77C39.1779 89.77 43.8853 86.4122 43.7208 80.0849V80.0927C43.7178 80.0927 43.6332 69.863 43.58 63.3608L43.5352 58.1015C43.5238 57.1897 41.9925 56.4697 39.7658 56.0701C38.5106 55.8459 37.0364 55.7207 35.4878 55.7207" fill="white"/>
</mask>
<g mask="url(#mask114_488_1713)">
<path d="M22.3496 89.7757L43.8816 56.498V58.2719L23.4989 89.7757H22.3496Z" fill="#F38F1D"/>
</g>
<mask id="mask115_488_1713" style="mask-type:luminance" maskUnits="userSpaceOnUse" x="20" y="55" width="24" height="35">
<path d="M35.4878 55.7207C30.3288 55.7207 24.3397 57.0954 22.9083 60.679C22.5245 61.6651 22.1714 62.6624 21.8496 63.6696C19.8046 71.2097 20.495 78.6353 23.7385 84.0149C22.1283 81.8395 21.0612 79.5283 20.3965 77.1755C21.7634 85.74 28.1716 89.77 33.9249 89.77C39.1779 89.77 43.8853 86.4122 43.7208 80.0849V80.0927C43.7178 80.0927 43.6332 69.863 43.58 63.3608L43.5352 58.1015C43.5238 57.1897 41.9925 56.4697 39.7658 56.0701C38.5106 55.8459 37.0364 55.7207 35.4878 55.7207" fill="white"/>
</mask>
<g mask="url(#mask115_488_1713)">
<path d="M21.2012 89.7759L43.2423 55.7227H43.8819V56.4982L22.35 89.7759H21.2012Z" fill="#F38F1D"/>
</g>
<mask id="mask116_488_1713" style="mask-type:luminance" maskUnits="userSpaceOnUse" x="20" y="55" width="24" height="35">
<path d="M35.4878 55.7207C30.3288 55.7207 24.3397 57.0954 22.9083 60.679C22.5245 61.6651 22.1714 62.6624 21.8496 63.6696C19.8046 71.2097 20.495 78.6353 23.7385 84.0149C22.1283 81.8395 21.0612 79.5283 20.3965 77.1755C21.7634 85.74 28.1716 89.77 33.9249 89.77C39.1779 89.77 43.8853 86.4122 43.7208 80.0849V80.0927C43.7178 80.0927 43.6332 69.863 43.58 63.3608L43.5352 58.1015C43.5238 57.1897 41.9925 56.4697 39.7658 56.0701C38.5106 55.8459 37.0364 55.7207 35.4878 55.7207" fill="white"/>
</mask>
<g mask="url(#mask116_488_1713)">
<path d="M20.0508 89.7759L42.0924 55.7227H43.2407L21.1996 89.7759H20.0508Z" fill="#F5901E"/>
</g>
<mask id="mask117_488_1713" style="mask-type:luminance" maskUnits="userSpaceOnUse" x="20" y="55" width="24" height="35">
<path d="M35.4878 55.7207C30.3288 55.7207 24.3397 57.0954 22.9083 60.679C22.5245 61.6651 22.1714 62.6624 21.8496 63.6696C19.8046 71.2097 20.495 78.6353 23.7385 84.0149C22.1283 81.8395 21.0612 79.5283 20.3965 77.1755C21.7634 85.74 28.1716 89.77 33.9249 89.77C39.1779 89.77 43.8853 86.4122 43.7208 80.0849V80.0927C43.7178 80.0927 43.6332 69.863 43.58 63.3608L43.5352 58.1015C43.5238 57.1897 41.9925 56.4697 39.7658 56.0701C38.5106 55.8459 37.0364 55.7207 35.4878 55.7207" fill="white"/>
</mask>
<g mask="url(#mask117_488_1713)">
<path d="M19.8027 88.3837L40.9442 55.7227H42.094L20.0524 89.7759H19.8027V88.3837Z" fill="#F5911D"/>
</g>
<mask id="mask118_488_1713" style="mask-type:luminance" maskUnits="userSpaceOnUse" x="20" y="55" width="24" height="35">
<path d="M35.4878 55.7207C30.3288 55.7207 24.3397 57.0954 22.9083 60.679C22.5245 61.6651 22.1714 62.6624 21.8496 63.6696C19.8046 71.2097 20.495 78.6353 23.7385 84.0149C22.1283 81.8395 21.0612 79.5283 20.3965 77.1755C21.7634 85.74 28.1716 89.77 33.9249 89.77C39.1779 89.77 43.8853 86.4122 43.7208 80.0849V80.0927C43.7178 80.0927 43.6332 69.863 43.58 63.3608L43.5352 58.1015C43.5238 57.1897 41.9925 56.4697 39.7658 56.0701C38.5106 55.8459 37.0364 55.7207 35.4878 55.7207" fill="white"/>
</mask>
<g mask="url(#mask118_488_1713)">
<path d="M19.8027 86.6093L39.7954 55.7227H40.9442L19.8027 88.3837V86.6093Z" fill="#F6921E"/>
</g>
<mask id="mask119_488_1713" style="mask-type:luminance" maskUnits="userSpaceOnUse" x="20" y="55" width="24" height="35">
<path d="M35.4878 55.7207C30.3288 55.7207 24.3397 57.0954 22.9083 60.679C22.5245 61.6651 22.1714 62.6624 21.8496 63.6696C19.8046 71.2097 20.495 78.6353 23.7385 84.0149C22.1283 81.8395 21.0612 79.5283 20.3965 77.1755C21.7634 85.74 28.1716 89.77 33.9249 89.77C39.1779 89.77 43.8853 86.4122 43.7208 80.0849V80.0927C43.7178 80.0927 43.6332 69.863 43.58 63.3608L43.5352 58.1015C43.5238 57.1897 41.9925 56.4697 39.7658 56.0701C38.5106 55.8459 37.0364 55.7207 35.4878 55.7207" fill="white"/>
</mask>
<g mask="url(#mask119_488_1713)">
<path d="M19.8027 84.834L38.6466 55.7227H39.7954L19.8027 86.6093V84.834Z" fill="#F6921E"/>
</g>
<mask id="mask120_488_1713" style="mask-type:luminance" maskUnits="userSpaceOnUse" x="20" y="55" width="24" height="35">
<path d="M35.4878 55.7207C30.3288 55.7207 24.3397 57.0954 22.9083 60.679C22.5245 61.6651 22.1714 62.6624 21.8496 63.6696C19.8046 71.2097 20.495 78.6353 23.7385 84.0149C22.1283 81.8395 21.0612 79.5283 20.3965 77.1755C21.7634 85.74 28.1716 89.77 33.9249 89.77C39.1779 89.77 43.8853 86.4122 43.7208 80.0849V80.0927C43.7178 80.0927 43.6332 69.863 43.58 63.3608L43.5352 58.1015C43.5238 57.1897 41.9925 56.4697 39.7658 56.0701C38.5106 55.8459 37.0364 55.7207 35.4878 55.7207" fill="white"/>
</mask>
<g mask="url(#mask120_488_1713)">
<path d="M19.8027 83.0587L37.4974 55.7227H38.6466L19.8027 84.834V83.0587Z" fill="#F6921E"/>
</g>
<mask id="mask121_488_1713" style="mask-type:luminance" maskUnits="userSpaceOnUse" x="20" y="55" width="24" height="35">
<path d="M35.4878 55.7207C30.3288 55.7207 24.3397 57.0954 22.9083 60.679C22.5245 61.6651 22.1714 62.6624 21.8496 63.6696C19.8046 71.2097 20.495 78.6353 23.7385 84.0149C22.1283 81.8395 21.0612 79.5283 20.3965 77.1755C21.7634 85.74 28.1716 89.77 33.9249 89.77C39.1779 89.77 43.8853 86.4122 43.7208 80.0849V80.0927C43.7178 80.0927 43.6332 69.863 43.58 63.3608L43.5352 58.1015C43.5238 57.1897 41.9925 56.4697 39.7658 56.0701C38.5106 55.8459 37.0364 55.7207 35.4878 55.7207" fill="white"/>
</mask>
<g mask="url(#mask121_488_1713)">
<path d="M19.8027 81.2848L36.3481 55.7227H37.4974L19.8027 83.0587V81.2848Z" fill="#F6921E"/>
</g>
<mask id="mask122_488_1713" style="mask-type:luminance" maskUnits="userSpaceOnUse" x="20" y="55" width="24" height="35">
<path d="M35.4878 55.7207C30.3288 55.7207 24.3397 57.0954 22.9083 60.679C22.5245 61.6651 22.1714 62.6624 21.8496 63.6696C19.8046 71.2097 20.495 78.6353 23.7385 84.0149C22.1283 81.8395 21.0612 79.5283 20.3965 77.1755C21.7634 85.74 28.1716 89.77 33.9249 89.77C39.1779 89.77 43.8853 86.4122 43.7208 80.0849V80.0927C43.7178 80.0927 43.6332 69.863 43.58 63.3608L43.5352 58.1015C43.5238 57.1897 41.9925 56.4697 39.7658 56.0701C38.5106 55.8459 37.0364 55.7207 35.4878 55.7207" fill="white"/>
</mask>
<g mask="url(#mask122_488_1713)">
<path d="M19.8027 79.4998L35.1993 55.7227H36.3481L19.8027 81.2848V79.4998Z" fill="#F6921E"/>
</g>
<mask id="mask123_488_1713" style="mask-type:luminance" maskUnits="userSpaceOnUse" x="20" y="55" width="24" height="35">
<path d="M35.4878 55.7207C30.3288 55.7207 24.3397 57.0954 22.9083 60.679C22.5245 61.6651 22.1714 62.6624 21.8496 63.6696C19.8046 71.2097 20.495 78.6353 23.7385 84.0149C22.1283 81.8395 21.0612 79.5283 20.3965 77.1755C21.7634 85.74 28.1716 89.77 33.9249 89.77C39.1779 89.77 43.8853 86.4122 43.7208 80.0849V80.0927C43.7178 80.0927 43.6332 69.863 43.58 63.3608L43.5352 58.1015C43.5238 57.1897 41.9925 56.4697 39.7658 56.0701C38.5106 55.8459 37.0364 55.7207 35.4878 55.7207" fill="white"/>
</mask>
<g mask="url(#mask123_488_1713)">
<path d="M19.8027 77.7351L34.0505 55.7227H35.1993L19.8027 79.4998V77.7351Z" fill="#F6921E"/>
</g>
<mask id="mask124_488_1713" style="mask-type:luminance" maskUnits="userSpaceOnUse" x="20" y="55" width="24" height="35">
<path d="M35.4878 55.7207C30.3288 55.7207 24.3397 57.0954 22.9083 60.679C22.5245 61.6651 22.1714 62.6624 21.8496 63.6696C19.8046 71.2097 20.495 78.6353 23.7385 84.0149C22.1283 81.8395 21.0612 79.5283 20.3965 77.1755C21.7634 85.74 28.1716 89.77 33.9249 89.77C39.1779 89.77 43.8853 86.4122 43.7208 80.0849V80.0927C43.7178 80.0927 43.6332 69.863 43.58 63.3608L43.5352 58.1015C43.5238 57.1897 41.9925 56.4697 39.7658 56.0701C38.5106 55.8459 37.0364 55.7207 35.4878 55.7207" fill="white"/>
</mask>
<g mask="url(#mask124_488_1713)">
<path d="M19.8027 75.9501L32.9008 55.7227H34.0505L19.8027 77.7351V75.9501Z" fill="#F6921E"/>
</g>
<mask id="mask125_488_1713" style="mask-type:luminance" maskUnits="userSpaceOnUse" x="20" y="55" width="24" height="35">
<path d="M35.4878 55.7207C30.3288 55.7207 24.3397 57.0954 22.9083 60.679C22.5245 61.6651 22.1714 62.6624 21.8496 63.6696C19.8046 71.2097 20.495 78.6353 23.7385 84.0149C22.1283 81.8395 21.0612 79.5283 20.3965 77.1755C21.7634 85.74 28.1716 89.77 33.9249 89.77C39.1779 89.77 43.8853 86.4122 43.7208 80.0849V80.0927C43.7178 80.0927 43.6332 69.863 43.58 63.3608L43.5352 58.1015C43.5238 57.1897 41.9925 56.4697 39.7658 56.0701C38.5106 55.8459 37.0364 55.7207 35.4878 55.7207" fill="white"/>
</mask>
<g mask="url(#mask125_488_1713)">
<path d="M19.8027 74.1859L31.7525 55.7227H32.9008L19.8027 75.9501V74.1859Z" fill="#F6921E"/>
</g>
<mask id="mask126_488_1713" style="mask-type:luminance" maskUnits="userSpaceOnUse" x="20" y="55" width="24" height="35">
<path d="M35.4878 55.7207C30.3288 55.7207 24.3397 57.0954 22.9083 60.679C22.5245 61.6651 22.1714 62.6624 21.8496 63.6696C19.8046 71.2097 20.495 78.6353 23.7385 84.0149C22.1283 81.8395 21.0612 79.5283 20.3965 77.1755C21.7634 85.74 28.1716 89.77 33.9249 89.77C39.1779 89.77 43.8853 86.4122 43.7208 80.0849V80.0927C43.7178 80.0927 43.6332 69.863 43.58 63.3608L43.5352 58.1015C43.5238 57.1897 41.9925 56.4697 39.7658 56.0701C38.5106 55.8459 37.0364 55.7207 35.4878 55.7207" fill="white"/>
</mask>
<g mask="url(#mask126_488_1713)">
<path d="M19.8027 72.4018L30.6032 55.7227H31.7525L19.8027 74.1859V72.4018Z" fill="#F6921E"/>
</g>
<mask id="mask127_488_1713" style="mask-type:luminance" maskUnits="userSpaceOnUse" x="20" y="55" width="24" height="35">
<path d="M35.4878 55.7207C30.3288 55.7207 24.3397 57.0954 22.9083 60.679C22.5245 61.6651 22.1714 62.6624 21.8496 63.6696C19.8046 71.2097 20.495 78.6353 23.7385 84.0149C22.1283 81.8395 21.0612 79.5283 20.3965 77.1755C21.7634 85.74 28.1716 89.77 33.9249 89.77C39.1779 89.77 43.8853 86.4122 43.7208 80.0849V80.0927C43.7178 80.0927 43.6332 69.863 43.58 63.3608L43.5352 58.1015C43.5238 57.1897 41.9925 56.4697 39.7658 56.0701C38.5106 55.8459 37.0364 55.7207 35.4878 55.7207" fill="white"/>
</mask>
<g mask="url(#mask127_488_1713)">
<path d="M19.8027 70.6265L29.4539 55.7227H30.6032L19.8027 72.4018V70.6265Z" fill="#F6921E"/>
</g>
<mask id="mask128_488_1713" style="mask-type:luminance" maskUnits="userSpaceOnUse" x="20" y="55" width="24" height="35">
<path d="M35.4878 55.7207C30.3288 55.7207 24.3397 57.0954 22.9083 60.679C22.5245 61.6651 22.1714 62.6624 21.8496 63.6696C19.8046 71.2097 20.495 78.6353 23.7385 84.0149C22.1283 81.8395 21.0612 79.5283 20.3965 77.1755C21.7634 85.74 28.1716 89.77 33.9249 89.77C39.1779 89.77 43.8853 86.4122 43.7208 80.0849V80.0927C43.7178 80.0927 43.6332 69.863 43.58 63.3608L43.5352 58.1015C43.5238 57.1897 41.9925 56.4697 39.7658 56.0701C38.5106 55.8459 37.0364 55.7207 35.4878 55.7207" fill="white"/>
</mask>
<g mask="url(#mask128_488_1713)">
<path d="M19.8027 68.8516L28.3056 55.7227H29.4539L19.8027 70.6265V68.8516Z" fill="#F6921E"/>
</g>
<mask id="mask129_488_1713" style="mask-type:luminance" maskUnits="userSpaceOnUse" x="20" y="55" width="24" height="35">
<path d="M35.4878 55.7207C30.3288 55.7207 24.3397 57.0954 22.9083 60.679C22.5245 61.6651 22.1714 62.6624 21.8496 63.6696C19.8046 71.2097 20.495 78.6353 23.7385 84.0149C22.1283 81.8395 21.0612 79.5283 20.3965 77.1755C21.7634 85.74 28.1716 89.77 33.9249 89.77C39.1779 89.77 43.8853 86.4122 43.7208 80.0849V80.0927C43.7178 80.0927 43.6332 69.863 43.58 63.3608L43.5352 58.1015C43.5238 57.1897 41.9925 56.4697 39.7658 56.0701C38.5106 55.8459 37.0364 55.7207 35.4878 55.7207" fill="white"/>
</mask>
<g mask="url(#mask129_488_1713)">
<path d="M19.8027 67.0773L27.1558 55.7227H28.3056L19.8027 68.8516V67.0773Z" fill="#F6921E"/>
</g>
<mask id="mask130_488_1713" style="mask-type:luminance" maskUnits="userSpaceOnUse" x="20" y="55" width="24" height="35">
<path d="M35.4878 55.7207C30.3288 55.7207 24.3397 57.0954 22.9083 60.679C22.5245 61.6651 22.1714 62.6624 21.8496 63.6696C19.8046 71.2097 20.495 78.6353 23.7385 84.0149C22.1283 81.8395 21.0612 79.5283 20.3965 77.1755C21.7634 85.74 28.1716 89.77 33.9249 89.77C39.1779 89.77 43.8853 86.4122 43.7208 80.0849V80.0927C43.7178 80.0927 43.6332 69.863 43.58 63.3608L43.5352 58.1015C43.5238 57.1897 41.9925 56.4697 39.7658 56.0701C38.5106 55.8459 37.0364 55.7207 35.4878 55.7207" fill="white"/>
</mask>
<g mask="url(#mask130_488_1713)">
<path d="M19.8027 65.3024L26.0071 55.7227H27.1558L19.8027 67.0773V65.3024Z" fill="#F6921E"/>
</g>
<mask id="mask131_488_1713" style="mask-type:luminance" maskUnits="userSpaceOnUse" x="20" y="55" width="24" height="35">
<path d="M35.4878 55.7207C30.3288 55.7207 24.3397 57.0954 22.9083 60.679C22.5245 61.6651 22.1714 62.6624 21.8496 63.6696C19.8046 71.2097 20.495 78.6353 23.7385 84.0149C22.1283 81.8395 21.0612 79.5283 20.3965 77.1755C21.7634 85.74 28.1716 89.77 33.9249 89.77C39.1779 89.77 43.8853 86.4122 43.7208 80.0849V80.0927C43.7178 80.0927 43.6332 69.863 43.58 63.3608L43.5352 58.1015C43.5238 57.1897 41.9925 56.4697 39.7658 56.0701C38.5106 55.8459 37.0364 55.7207 35.4878 55.7207" fill="white"/>
</mask>
<g mask="url(#mask131_488_1713)">
<path d="M26.0071 55.7227L19.8027 65.3024V55.7227H26.0071Z" fill="#F6921E"/>
</g>
<path d="M21.0015 58.9854C19.7395 64.0891 18.5877 70.7855 20.3993 77.1765C19.8143 73.5181 20.1521 69.0295 21.8524 63.6706C22.2087 62.3579 22.6389 61.0656 23.141 59.7996L21.0015 58.9854Z" fill="#FAB859"/>
</svg>
