<svg width="90" height="90" viewBox="0 0 90 90" fill="none" xmlns="http://www.w3.org/2000/svg">
<path d="M45 90C69.8528 90 90 69.8528 90 45C90 20.1472 69.8528 0 45 0C20.1472 0 0 20.1472 0 45C0 69.8528 20.1472 90 45 90Z" fill="#FFE600"/>
<path fill-rule="evenodd" clip-rule="evenodd" d="M61.1531 19.8823C58.05 15.9714 52.9303 12.8574 45.0377 12.8574C38.279 12.924 24.7619 16.6646 24.7619 31.0946C24.7619 33.2019 24.9287 36.0244 25.0745 38.1027C24.9027 38.0529 24.6915 37.9594 24.3568 37.799L24.3103 37.7768C23.7184 37.4927 22.8185 37.0604 21.5669 37.0604C20.3026 37.0604 19.0801 37.5557 18.1725 38.2901C17.2704 39.0198 16.4997 40.1419 16.4997 41.4983C16.4997 43.1951 17.4546 44.3214 18.5712 45.0437C19.5629 45.6852 20.8134 46.0951 21.8034 46.4194L21.9013 46.4512C22.9609 46.799 23.7375 47.0639 24.273 47.3975C24.6898 47.6575 24.7531 47.8218 24.7609 47.978C24.7555 48.0002 24.7427 48.0481 24.715 48.1259C24.6578 48.2866 24.5628 48.5035 24.4239 48.7748C24.1467 49.3161 23.7426 49.9818 23.2619 50.6915C22.292 52.1235 21.1085 53.5921 20.2244 54.4426C19.3524 55.2815 17.9214 56.3239 16.4252 57.1538C15.6833 57.5652 14.9577 57.9063 14.3087 58.1406C13.6386 58.3823 13.1477 58.4746 12.8443 58.4746C12.6041 58.4746 12.3962 58.5237 12.3055 58.5466C12.178 58.5784 12.046 58.6205 11.9155 58.6697C11.6566 58.7667 11.3479 58.9127 11.0423 59.1184C10.4583 59.5115 9.64258 60.3041 9.64258 61.5545C9.64258 62.207 9.79577 62.7595 10.0606 63.2388C10.2924 63.6582 10.5904 63.9768 10.7619 64.16L10.7873 64.187L10.8348 64.2381C11.778 65.2528 13.3393 65.959 14.8549 66.4434C16.1573 66.8597 17.6134 67.1698 19.0322 67.356C19.0522 67.4476 19.0732 67.5459 19.0961 67.6539L19.1035 67.689C19.1928 68.11 19.3112 68.668 19.4854 69.1826C19.6498 69.668 19.9475 70.3857 20.5571 70.8971C21.3335 71.548 22.3489 71.6139 23.0114 71.6113C23.7227 71.6085 24.553 71.5082 25.341 71.4133L25.408 71.4053C26.5166 71.2716 27.6766 71.1337 28.8778 71.1337C31.07 71.1337 32.4753 72.0495 34.6799 73.555L34.6947 73.5653C35.4584 74.087 36.3134 74.6707 37.2854 75.2451C40.5389 77.1676 43.1824 77.1512 44.6805 77.1415C44.7795 77.1409 44.8731 77.1406 44.9618 77.1406C45.0505 77.1406 45.145 77.1409 45.2443 77.1415C46.7451 77.1512 49.4589 77.1685 52.714 75.2451C53.686 74.6707 54.541 74.087 55.3044 73.5653L55.3195 73.555C57.5242 72.0495 58.9295 71.1337 61.1216 71.1337C62.3228 71.1337 63.4828 71.2716 64.5914 71.4053L64.6586 71.4133C65.4464 71.5082 66.2767 71.6085 66.988 71.6113C67.6505 71.6139 68.6659 71.548 69.4424 70.8971C70.0519 70.3857 70.3495 69.668 70.5141 69.1826C70.6883 68.6683 70.8066 68.1104 70.8959 67.689L70.9033 67.6539C70.9262 67.5459 70.947 67.4476 70.9673 67.356C72.3861 67.1698 73.8422 66.8597 75.1446 66.4434C76.6601 65.959 78.2216 65.2525 79.1647 64.2378L79.2123 64.187L79.2373 64.16C79.409 63.9768 79.7069 63.6582 79.9387 63.2388C80.2035 62.7595 80.3569 62.207 80.3569 61.5545C80.3569 60.3041 79.5411 59.5115 78.957 59.1184C78.6514 58.9127 78.3428 58.7667 78.084 58.6697C77.9535 58.6205 77.8214 58.5784 77.6938 58.5466C77.6032 58.5237 77.3952 58.4746 77.1551 58.4746C76.8517 58.4746 76.3609 58.3823 75.6907 58.1406C75.0417 57.9063 74.3163 57.5652 73.5741 57.1538C72.0781 56.3239 70.6471 55.2815 69.7751 54.4426C68.8909 53.5921 67.7074 52.1235 66.7376 50.6915C66.2568 49.9818 65.8527 49.3161 65.5756 48.7748C65.4368 48.5035 65.3417 48.2866 65.2844 48.1259C65.2568 48.0481 65.2439 48.0002 65.2385 47.978C65.2465 47.8218 65.3095 47.6575 65.7264 47.3975C66.2619 47.0639 67.0385 46.799 68.0982 46.4512L68.1959 46.4194C69.1859 46.0951 70.4366 45.6852 71.4282 45.0437C72.5449 44.3214 73.4998 43.1951 73.4998 41.4983C73.4998 40.1419 72.729 39.0198 71.8268 38.2901C70.9194 37.5557 69.6967 37.0604 68.4325 37.0604C67.1809 37.0604 66.2812 37.4927 65.6891 37.7768L65.6428 37.799C65.3079 37.9594 65.0967 38.0529 64.9251 38.1027C65.0707 36.0244 65.2375 33.2019 65.2375 31.0946C65.2375 28.2336 64.1974 23.7186 61.1531 19.8823ZM31.4457 21.7698C28.8711 24.9929 27.9888 28.8202 27.9888 31.0946C27.9888 33.2035 28.1675 36.133 28.3182 38.2339C28.3684 38.9314 28.2253 39.7449 27.6159 40.3903C26.9991 41.0438 26.1602 41.256 25.4106 41.256C24.3283 41.256 23.5052 40.86 22.9786 40.6067L22.9174 40.5774C22.3299 40.2955 22.021 40.1647 21.5669 40.1647C21.1538 40.1647 20.6495 40.3421 20.2495 40.6658C19.8441 40.9937 19.7266 41.3148 19.7266 41.4983C19.7266 41.8725 19.8646 42.1399 20.3717 42.4677C20.9706 42.8551 21.8239 43.1463 22.9426 43.5133L23.04 43.5452C23.969 43.8496 25.1197 44.2266 26.0277 44.7926C27.047 45.4278 27.9888 46.449 27.9888 48.022C27.9888 48.4344 27.8746 48.8314 27.7676 49.1319C27.6516 49.4582 27.4947 49.8027 27.3186 50.1463C26.9663 50.8349 26.4896 51.6124 25.9657 52.3861C24.926 53.9212 23.6045 55.5811 22.5061 56.6376C21.3958 57.7057 19.7259 58.9062 18.037 59.8432C17.1864 60.3147 16.2983 60.7377 15.442 61.047C14.6755 61.3234 13.8494 61.54 13.0569 61.5741C13.0372 61.5825 13.0154 61.5924 12.9925 61.6037C12.956 61.6223 12.9218 61.6419 12.892 61.6622L12.8767 61.6728C12.8797 61.694 12.8831 61.7097 12.886 61.721C12.8923 61.7457 12.8998 61.7634 12.91 61.7817C12.941 61.838 12.99 61.9007 13.1883 62.1131L13.2403 62.1687C13.5974 62.5532 14.4774 63.0517 15.8723 63.4975C17.2009 63.9221 18.7719 64.2288 20.2562 64.3696C20.9988 64.44 21.4268 64.9041 21.608 65.1542C21.7945 65.4113 21.9011 65.6832 21.9635 65.8636C22.084 66.2126 22.1751 66.6427 22.2469 66.9818L22.2578 67.0332C22.3559 67.4955 22.4417 67.8908 22.5536 68.2209C22.5931 68.3379 22.6296 68.4266 22.661 68.4919C22.7318 68.5002 22.8404 68.508 22.9977 68.5073C23.6802 68.5044 24.3635 68.4028 25.0397 68.3212C26.1216 68.1907 27.4603 68.0294 28.8778 68.0294C32.1654 68.0294 34.3347 69.5118 36.4304 70.9437L36.5481 71.0241C37.3234 71.5535 38.1006 72.0835 38.9745 72.6001C41.4373 74.0555 43.3113 74.0449 44.6805 74.0372C44.7766 74.0368 44.8705 74.0362 44.9618 74.0362C45.0524 74.0362 45.1457 74.0368 45.2418 74.0372C46.6258 74.0446 48.5628 74.0552 51.0249 72.6001C51.8989 72.0835 52.6761 71.5535 53.4514 71.0241L53.569 70.9437C55.6647 69.5118 57.834 68.0294 61.1216 68.0294C62.5391 68.0294 63.8779 68.1907 64.9598 68.3212L64.9923 68.3251C65.8672 68.4305 66.5075 68.5051 67.0018 68.5073C67.159 68.508 67.2677 68.5002 67.3384 68.4919C67.3699 68.4266 67.4062 68.3379 67.446 68.2209C67.5579 67.8908 67.6434 67.4955 67.7418 67.0332L67.7527 66.9818C67.8244 66.6424 67.9153 66.2126 68.0359 65.8636C68.0982 65.6832 68.2049 65.4113 68.3914 65.1542C68.5727 64.9041 69.0008 64.44 69.7433 64.3696C71.2277 64.2288 72.7985 63.9221 74.1269 63.4975C75.5219 63.0517 76.402 62.5532 76.7591 62.1691L76.8112 62.1131C77.0092 61.9007 77.0584 61.838 77.0895 61.7817C77.0995 61.7634 77.1072 61.7457 77.1133 61.721C77.1162 61.7097 77.1198 61.694 77.1227 61.6728L77.1075 61.6622C77.0777 61.6419 77.0436 61.6223 77.0069 61.6037C76.9841 61.5921 76.9623 61.5825 76.9426 61.5741C76.15 61.54 75.3239 61.3234 74.5573 61.047C73.701 60.7377 72.8129 60.3147 71.9624 59.8432C70.2737 58.9062 68.6038 57.7057 67.4933 56.6376C66.395 55.5811 65.0736 53.9212 64.0338 52.3861C63.5098 51.6124 63.0331 50.8349 62.6809 50.1463C62.5047 49.8027 62.3479 49.4582 62.2318 49.1319C62.1248 48.8314 62.0107 48.4344 62.0107 48.022C62.0107 46.449 62.9525 45.4278 63.9717 44.7926C64.8798 44.2266 66.0305 43.8496 66.9594 43.5452L67.0568 43.5133C68.1754 43.1463 69.0288 42.8551 69.6279 42.4677C70.1348 42.1399 70.2727 41.8725 70.2727 41.4983C70.2727 41.3148 70.1554 40.9937 69.75 40.6658C69.3499 40.3421 68.8455 40.1647 68.4325 40.1647C67.9783 40.1647 67.6694 40.2955 67.0819 40.5774L67.0208 40.6067C66.4943 40.86 65.6711 41.256 64.5889 41.256C63.8393 41.256 63.0004 41.0438 62.3835 40.3903C61.7741 39.7449 61.6311 38.9314 61.6812 38.2339C61.832 36.133 62.0107 33.2035 62.0107 31.0946C62.0107 28.8141 61.1441 24.9866 58.5881 21.7658C56.0916 18.6195 51.9178 15.9616 45.0377 15.9616C38.1565 15.9616 33.9619 18.6203 31.4457 21.7698Z" fill="black"/>
<path fill-rule="evenodd" clip-rule="evenodd" d="M31.4441 21.7701C28.8691 24.9932 27.9871 28.8203 27.9871 31.0947C27.9871 33.2036 28.1658 36.1334 28.3166 38.2343C28.3664 38.9318 28.2233 39.745 27.6142 40.3907C26.9974 41.0442 26.1585 41.2563 25.4089 41.2563C24.3266 41.2563 23.5035 40.8603 22.9769 40.6071L22.9157 40.5775C22.3282 40.2959 22.0194 40.1648 21.5652 40.1648C21.1521 40.1648 20.6478 40.3425 20.2478 40.6659C19.8424 40.9941 19.7249 41.3152 19.7249 41.4987C19.7249 41.8728 19.8629 42.14 20.37 42.4681C20.9689 42.8555 21.8222 43.1467 22.9409 43.5134L23.0383 43.5456C23.9673 43.85 25.118 44.2267 26.0261 44.7927C27.0453 45.4282 27.9871 46.4494 27.9871 48.0224C27.9871 48.4348 27.873 48.8318 27.766 49.1323C27.6499 49.4586 27.4927 49.8031 27.3169 50.1467C26.9646 50.8352 26.4879 51.6128 25.9637 52.3865C24.9242 53.9213 23.6028 55.5811 22.5044 56.638C21.394 57.7061 19.7242 58.9066 18.0352 59.8433C17.1847 60.3151 16.2966 60.7381 15.4403 61.047C14.6738 61.3238 13.8477 61.5404 13.0552 61.5742C13.0355 61.5825 13.0136 61.5925 12.9908 61.6041C12.9542 61.6224 12.9201 61.6423 12.8903 61.6622L12.875 61.6728C12.878 61.6944 12.8814 61.7101 12.8843 61.7214C12.8906 61.7461 12.8981 61.7638 12.9083 61.7821C12.9393 61.8384 12.9883 61.9011 13.1866 62.1135L13.2386 62.1691C13.5956 62.5532 14.4757 63.0518 15.8706 63.4979C17.1992 63.9225 18.7702 64.2292 20.2545 64.37C20.9971 64.4403 21.4251 64.9045 21.6063 65.1542C21.7927 65.4117 21.8994 65.6836 21.9617 65.864C22.0823 66.213 22.1734 66.6428 22.2452 66.9819L22.2561 67.0336C22.3542 67.4958 22.4399 67.8909 22.5518 68.2213C22.5914 68.338 22.6279 68.427 22.6593 68.4923C22.7301 68.5003 22.8387 68.508 22.996 68.5074C23.6785 68.5048 24.3618 68.4029 25.038 68.3216C26.1199 68.1911 27.4587 68.0297 28.8762 68.0297C32.1637 68.0297 34.3331 69.5122 36.4284 70.9438L36.5461 71.0242C37.3217 71.5539 38.0989 72.0839 38.9729 72.6005C41.4357 74.0559 43.3096 74.0453 44.6786 74.0376C44.775 74.0369 44.8688 74.0366 44.9601 74.0366C45.0508 74.0366 45.144 74.0369 45.2401 74.0376C46.6242 74.045 48.5608 74.0556 51.0232 72.6005C51.8972 72.0839 52.6744 71.5539 53.4497 71.0242L53.5673 70.9438C55.6631 69.5122 57.8324 68.0297 61.1199 68.0297C62.5374 68.0297 63.8762 68.1911 64.9581 68.3216L64.9906 68.3255C65.8655 68.4309 66.5058 68.5055 67.0002 68.5074C67.1573 68.508 67.266 68.5003 67.3367 68.4923C67.3682 68.427 67.4045 68.338 67.4441 68.2213C67.5559 67.8909 67.6417 67.4958 67.7398 67.0336L67.7507 66.9819C67.8227 66.6428 67.9137 66.213 68.0342 65.864C68.0966 65.6833 68.2033 65.4117 68.3897 65.1542C68.571 64.9042 68.9988 64.4403 69.7416 64.37C71.226 64.2292 72.7968 63.9225 74.1253 63.4979C75.5203 63.0518 76.4003 62.5536 76.7575 62.1691L76.8095 62.1135C77.0075 61.9011 77.0567 61.8384 77.0879 61.7821C77.0978 61.7638 77.1056 61.7461 77.1117 61.7214C77.1146 61.7101 77.1181 61.6944 77.121 61.6728L77.1059 61.6622C77.076 61.6423 77.0419 61.6224 77.0053 61.6041C76.9825 61.5925 76.9606 61.5825 76.9407 61.5742C76.1483 61.5404 75.3223 61.3238 74.5557 61.047C73.6994 60.7381 72.8113 60.3151 71.9608 59.8433C70.2717 58.9066 68.6018 57.7061 67.4916 56.638C66.3933 55.5811 65.0719 53.9213 64.0321 52.3865C63.5082 51.6128 63.0315 50.8352 62.6789 50.1467C62.5031 49.8031 62.3462 49.4586 62.2298 49.1323C62.1231 48.8318 62.009 48.4348 62.009 48.0224C62.009 46.4494 62.9508 45.4282 63.9701 44.7927C64.8781 44.2267 66.0288 43.85 66.9577 43.5456L67.0551 43.5134C68.1737 43.1467 69.0271 42.8555 69.6259 42.4681C70.1331 42.14 70.271 41.8728 70.271 41.4987C70.271 41.3152 70.1537 40.9941 69.7481 40.6659C69.3482 40.3425 68.8439 40.1648 68.4308 40.1648C67.9767 40.1648 67.6678 40.2959 67.0802 40.5775L67.0191 40.6071C66.4926 40.8603 65.6695 41.2563 64.5872 41.2563C63.8376 41.2563 62.9987 41.0442 62.3819 40.3907C61.7725 39.745 61.6294 38.9318 61.6796 38.2343C61.8303 36.1334 62.009 33.2036 62.009 31.0947C62.009 28.8145 61.1424 24.9869 58.5864 21.7661C56.0899 18.6198 51.9162 15.9619 45.0357 15.9619C38.1545 15.9619 33.9602 18.6206 31.4441 21.7701Z" fill="white"/>
</svg>
