<svg width="59" height="59" viewBox="0 0 59 59" fill="none" xmlns="http://www.w3.org/2000/svg">
<path d="M36.551 29.5038C36.5523 30.8159 36.1402 32.0989 35.3672 33.1905C34.5941 34.2822 33.4947 35.1334 32.2079 35.6367C30.9211 36.1399 29.5048 36.2724 28.138 36.0177C26.7711 35.7628 25.5153 35.1321 24.5291 34.2052C23.5429 33.2782 22.8707 32.0967 22.5977 30.8101C22.3245 29.5234 22.4626 28.1893 22.9945 26.9766C23.5264 25.7639 24.4283 24.7269 25.586 23.9968C26.7437 23.2668 28.1053 22.8764 29.4987 22.875C31.3667 22.8752 33.1582 23.5733 34.4804 24.816C35.8026 26.0588 36.5472 27.7446 36.551 29.5038Z" stroke="#3B5998" stroke-width="4" stroke-linecap="round" stroke-linejoin="round"/>
<path d="M55.9355 36.4399L50.4173 31.4537C50.4829 30.8119 50.523 30.1576 50.523 29.5033C50.523 28.849 50.4829 28.1947 50.4173 27.553L55.9234 22.5291C56.4785 22.0262 56.8384 21.3624 56.9452 20.6439C57.0519 19.9254 56.8996 19.194 56.5125 18.5668L53.0519 12.9138C52.665 12.2828 52.0652 11.7918 51.348 11.5187C50.6307 11.2458 49.837 11.2066 49.0933 11.4073L41.7409 13.4194C40.6231 12.6559 39.4238 12.0042 38.1625 11.4747L36.3004 4.46849C36.1157 3.76259 35.6846 3.1356 35.0762 2.68798C34.4679 2.24037 33.7176 1.9981 32.9455 2.00001H26.0122C25.2388 2.00094 24.4882 2.2458 23.8797 2.6955C23.2714 3.1452 22.8407 3.77383 22.6561 4.48107L20.8207 11.4668C19.5595 11.9964 18.3603 12.6481 17.2423 13.4114L9.87655 11.4245C9.13488 11.2251 8.34364 11.2654 7.62906 11.5389C6.91447 11.8122 6.31758 12.3032 5.93374 12.9332L2.4598 18.5873C2.07463 19.2205 1.92518 19.9567 2.03523 20.679C2.14527 21.4013 2.5085 22.0681 3.06713 22.5737L8.58536 27.561C8.51977 28.2028 8.47969 28.8445 8.47969 29.4988C8.47969 30.1531 8.51977 30.8188 8.58536 31.4605L3.08049 36.473C2.52539 36.9758 2.16557 37.6394 2.05854 38.3576C1.95151 39.0759 2.1035 39.807 2.49016 40.4342L5.95075 46.1C6.33847 46.7296 6.939 47.2189 7.65651 47.4897C8.37401 47.7604 9.16719 47.797 9.90935 47.5939L17.2617 45.5944C18.3829 46.3512 19.5816 47.0003 20.8401 47.5321L22.701 54.5441C22.8895 55.2472 23.3222 55.8709 23.9304 56.3158C24.5384 56.7608 25.287 57.0016 26.0571 57H32.9844C33.7558 56.9991 34.5048 56.7558 35.1127 56.3086C35.7207 55.8615 36.1528 55.236 36.3405 54.5315L38.1759 47.5321C39.4328 47.0025 40.6277 46.3508 41.7409 45.5875L49.12 47.5756C49.8618 47.7756 50.6534 47.736 51.3685 47.4629C52.0836 47.1899 52.6809 46.6991 53.0653 46.0691L56.5392 40.4161C56.9246 39.785 57.0745 39.0506 56.9652 38.33C56.8558 37.6093 56.4933 36.9439 55.9355 36.4399ZM29.4983 36.1437C28.1054 36.1423 26.7444 35.7521 25.5868 35.0226C24.4294 34.293 23.5276 33.2566 22.9953 32.0446C22.4629 30.8325 22.3241 29.499 22.5963 28.2127C22.8685 26.9263 23.5394 25.7448 24.5243 24.8174C25.5093 23.89 26.7641 23.2583 28.1301 23.0023C29.4961 22.7462 30.912 22.8772 32.1991 23.3787C33.486 23.8802 34.5864 24.7296 35.3609 25.8197C36.1355 26.9098 36.5494 28.1918 36.5506 29.5033C36.5515 30.3757 36.3695 31.2396 36.0155 32.0456C35.6613 32.8517 35.1418 33.584 34.4868 34.2008C33.8317 34.8176 33.054 35.3067 32.198 35.64C31.342 35.9733 30.4246 36.1445 29.4983 36.1437Z" stroke="#3B5998" stroke-width="4" stroke-linecap="round" stroke-linejoin="round"/>
<path d="M36.551 29.5038C36.5523 30.8159 36.1402 32.0989 35.3672 33.1905C34.5941 34.2822 33.4947 35.1334 32.2079 35.6367C30.9211 36.1399 29.5048 36.2724 28.138 36.0177C26.7711 35.7628 25.5153 35.1321 24.5291 34.2052C23.5429 33.2782 22.8707 32.0967 22.5977 30.8101C22.3245 29.5234 22.4626 28.1893 22.9945 26.9766C23.5264 25.7639 24.4283 24.7269 25.586 23.9968C26.7437 23.2668 28.1053 22.8764 29.4987 22.875C31.3667 22.8752 33.1582 23.5733 34.4804 24.816C35.8026 26.0588 36.5472 27.7446 36.551 29.5038Z" stroke="#3B5998" stroke-width="4" stroke-linecap="round" stroke-linejoin="round"/>
</svg>
