<svg width="69" height="69" viewBox="0 0 69 69" fill="none" xmlns="http://www.w3.org/2000/svg">
<path d="M42.8336 34.5049C42.835 36.0556 42.3481 37.5719 41.4345 38.8619C40.5208 40.1521 39.2215 41.1581 37.7007 41.7529C36.18 42.3476 34.5062 42.5042 32.8909 42.2032C31.2755 41.902 29.7913 41.1566 28.6258 40.0612C27.4604 38.9656 26.6659 37.5693 26.3432 36.0487C26.0204 34.5282 26.1836 32.9515 26.8122 31.5182C27.4408 30.085 28.5067 28.8596 29.8749 27.9967C31.2431 27.1339 32.8523 26.6725 34.499 26.6709C36.7067 26.6712 38.8239 27.4962 40.3865 28.9649C41.949 30.4335 42.829 32.4259 42.8336 34.5049Z" stroke="#3B5998" stroke-width="4" stroke-linecap="round" stroke-linejoin="round"/>
<path d="M65.742 42.7017L59.2204 36.8089C59.298 36.0505 59.3453 35.2772 59.3453 34.5039C59.3453 33.7307 59.298 32.9574 59.2204 32.199L65.7276 26.2617C66.3837 25.6673 66.809 24.8828 66.9352 24.0337C67.0614 23.1846 66.8814 22.3202 66.4239 21.579L62.3341 14.8981C61.8769 14.1524 61.168 13.5721 60.3203 13.2494C59.4727 12.9268 58.5347 12.8805 57.6557 13.1177L48.9665 15.4956C47.6454 14.5933 46.2282 13.8231 44.7375 13.1974L42.5369 4.9173C42.3185 4.08306 41.8091 3.34207 41.09 2.81307C40.3711 2.28408 39.4844 1.99776 38.572 2.00001H30.378C29.4641 2.00111 28.5769 2.29049 27.8579 2.82195C27.1389 3.35342 26.6299 4.09635 26.4117 4.93217L24.2427 13.188C22.7522 13.8139 21.3349 14.5841 20.0136 15.4862L11.3087 13.138C10.4321 12.9024 9.49703 12.95 8.65252 13.2732C7.80801 13.5963 7.10259 14.1765 6.64897 14.9211L2.5434 21.6032C2.08819 22.3514 1.91158 23.2215 2.04164 24.0752C2.17168 24.9288 2.60096 25.7169 3.26115 26.3144L9.7827 32.2085C9.70518 32.9669 9.65781 33.7253 9.65781 34.4985C9.65781 35.2718 9.70518 36.0586 9.7827 36.817L3.27694 42.7408C2.62091 43.3351 2.19567 44.1193 2.06919 44.9681C1.94269 45.817 2.12232 46.6811 2.57928 47.4223L6.66907 54.1182C7.12728 54.8622 7.837 55.4405 8.68496 55.7605C9.53292 56.0805 10.4703 56.1238 11.3474 55.8837L20.0366 53.5206C21.3616 54.415 22.7783 55.1822 24.2656 55.8107L26.4648 64.0976C26.6876 64.9285 27.199 65.6656 27.9177 66.1914C28.6363 66.7173 29.521 67.0019 30.4312 67H38.6179C39.5296 66.9989 40.4147 66.7114 41.1332 66.1829C41.8517 65.6545 42.3625 64.9153 42.5842 64.0827L44.7533 55.8107C46.2388 55.1848 47.6509 54.4146 48.9665 53.5125L57.6873 55.862C58.564 56.0985 59.4995 56.0516 60.3446 55.7289C61.1897 55.4062 61.8957 54.8263 62.3499 54.0817L66.4554 47.4008C66.9109 46.655 67.0881 45.7871 66.9589 44.9354C66.8295 44.0837 66.4012 43.2974 65.742 42.7017ZM34.498 42.3516C32.8519 42.35 31.2434 41.8889 29.8753 41.0267C28.5074 40.1644 27.4417 38.9397 26.8127 37.5072C26.1835 36.0748 26.0194 34.4988 26.3411 32.9786C26.6628 31.4584 27.4556 30.062 28.6197 28.9661C29.7837 27.87 31.2666 27.1235 32.881 26.8209C34.4954 26.5183 36.1688 26.6731 37.6898 27.2657C39.2108 27.8584 40.5112 28.8622 41.4265 30.1506C42.3419 31.4389 42.8311 32.9539 42.8326 34.5039C42.8336 35.5349 42.6185 36.5559 42.2001 37.5084C41.7815 38.4611 41.1675 39.3266 40.3935 40.0555C39.6193 40.7844 38.7002 41.3625 37.6886 41.7564C36.6769 42.1503 35.5927 42.3526 34.498 42.3516Z" stroke="#3B5998" stroke-width="4" stroke-linecap="round" stroke-linejoin="round"/>
<path d="M42.8336 34.5049C42.835 36.0556 42.3481 37.5719 41.4345 38.8619C40.5208 40.1521 39.2215 41.1581 37.7007 41.7529C36.18 42.3476 34.5062 42.5042 32.8909 42.2032C31.2755 41.902 29.7913 41.1566 28.6258 40.0612C27.4604 38.9656 26.6659 37.5693 26.3432 36.0487C26.0204 34.5282 26.1836 32.9515 26.8122 31.5182C27.4408 30.085 28.5067 28.8596 29.8749 27.9967C31.2431 27.1339 32.8523 26.6725 34.499 26.6709C36.7067 26.6712 38.8239 27.4962 40.3865 28.9649C41.949 30.4335 42.829 32.4259 42.8336 34.5049Z" stroke="#3B5998" stroke-width="4" stroke-linecap="round" stroke-linejoin="round"/>
</svg>
