<svg width="85" height="85" viewBox="0 0 85 85" fill="none" xmlns="http://www.w3.org/2000/svg">
<path d="M63.8086 18.3905C63.8086 19.6331 65.056 20.8758 66.7997 20.8758C69.2911 20.8758 70.0389 19.8816 70.0389 18.3905C70.0389 18.1419 70.0389 18.1419 70.0389 17.8945C69.7907 17.1489 69.0418 16.6518 68.2963 16.1548C68.0459 16.1548 67.5485 15.9062 67.0511 15.9062C65.3041 15.9074 63.8086 16.9004 63.8086 18.3905Z" fill="#09707E"/>
<path d="M69.0445 10.1889C68.793 8.69774 67.7971 7.45508 66.552 7.45508C65.3046 7.45508 64.5568 8.69774 64.8083 10.1889C65.0598 11.6801 66.0534 12.9228 67.2997 12.9228C68.2967 12.9228 69.2927 11.6801 69.0445 10.1889Z" fill="#09707E"/>
<path d="M57.8272 28.8285L62.0645 24.6035C64.556 26.5918 67.5504 27.8344 70.7896 27.8344C78.5154 27.8344 84.7479 21.62 84.7479 13.9167C84.7457 6.21218 78.5154 0 70.7885 0C63.0638 0 56.8302 6.21329 56.8302 13.9178C56.8302 17.3972 58.0753 20.3785 60.0705 22.6164L55.832 26.8425C56.5798 27.587 57.3276 28.3337 57.8272 28.8285ZM73.0318 9.44309H75.7725V6.71035H76.7695V9.4442H79.5124V10.4383H76.7695V13.1733H75.7725V10.4372H73.0318V9.44309ZM66.8004 14.1652C66.8004 13.9167 66.8004 13.6681 67.0519 13.4196C66.8004 13.4196 66.8004 13.4196 66.5545 13.4196C64.5593 13.4196 63.0638 11.9284 63.0638 10.1887C63.0638 8.44896 65.0567 6.95777 67.0519 6.95777H71.5363L70.5392 7.70337H69.0437C70.0407 7.95301 70.5392 9.19567 70.5392 10.4372C70.5392 11.4313 70.0407 12.1769 69.2918 12.9225C68.5441 13.4196 68.2948 13.6681 68.2948 14.1652C68.2948 14.6622 69.0437 15.4078 69.5411 15.6564C70.7863 16.402 71.0366 17.3961 71.0366 18.6388C71.0366 20.3774 69.5411 21.8697 66.5511 21.8697C64.0597 21.8697 61.8153 20.8755 61.8153 19.1358C61.8153 17.3961 63.8082 15.9049 66.3008 15.9049C66.5511 15.9049 66.7982 15.9049 67.0485 15.9049C67.0485 15.1604 66.8004 14.6634 66.8004 14.1652Z" fill="#09707E"/>
<path d="M70.7881 57.1632C67.5489 57.1632 64.3086 58.4048 62.0631 60.3941L57.8268 56.168C57.3272 56.9136 56.5794 57.4084 56.082 57.9055L60.3205 62.1316C58.3264 64.6147 57.0802 67.6004 57.0802 70.8313C57.0802 78.5347 63.3138 84.7491 71.0396 84.7491C78.7643 84.7491 84.999 78.5347 84.999 70.8313C84.7453 63.1269 78.5151 57.1632 70.7881 57.1632ZM66.8 77.2943H64.0582V68.5945H66.8V77.2943ZM65.5537 67.3541C64.5567 67.3541 63.8101 66.6074 63.8101 65.8607C63.8101 65.1151 64.5578 64.3695 65.5537 64.3695C66.5497 64.3695 67.2974 65.1151 67.2974 65.8607C67.0482 66.8559 66.5508 67.3541 65.5537 67.3541ZM78.0165 77.2943H74.7762V72.8218C74.7762 71.5803 74.2788 70.8335 73.2796 70.8335C72.5318 70.8335 72.0344 71.3306 71.784 71.8277C71.784 72.0795 71.784 72.3258 71.784 72.5744V77.2976H68.793C68.793 77.2976 68.793 69.3446 68.793 68.5979H71.784V69.8405C72.0344 69.3446 73.0314 68.3493 74.527 68.3493C76.5199 68.3493 78.0165 69.5909 78.0165 72.3258V77.2943Z" fill="#09707E"/>
<path d="M26.9196 56.1699L22.6823 60.3961C20.1897 58.4067 17.1986 57.1652 13.9583 57.1652C6.23139 57.1652 0 63.3807 0 71.0818C0 78.7863 6.23139 85.0007 13.9583 85.0007C21.6841 85.0007 27.9167 78.7863 27.9167 71.0818C27.9167 67.8509 26.6704 64.6211 24.6763 62.3832L28.9137 58.1571C28.1659 57.4104 27.4181 56.6637 26.9196 56.1699ZM19.9416 68.8439C19.9416 73.069 16.7013 77.7899 10.9684 77.7899C9.22469 77.7899 7.47879 77.2929 6.23251 76.2965C6.48176 76.2965 6.73102 76.2965 6.98028 76.2965C8.47581 76.2965 9.72209 75.8006 10.9684 75.055C9.72209 75.055 8.47581 74.0609 7.9773 72.8171C8.22655 72.8171 8.4747 72.8171 8.4747 72.8171C8.72507 72.8171 8.97321 72.8171 9.22358 72.8171C7.72693 72.5663 6.73102 71.3259 6.73102 69.8347C7.22953 70.0844 7.72804 70.3307 8.22655 70.3307C7.47879 69.8347 6.73102 68.8395 6.73102 67.8454C6.73102 67.3505 6.98028 66.8512 7.22953 66.3542C8.72507 68.3435 10.9673 69.5851 13.7091 69.5851C13.7091 69.3343 13.7091 69.0891 13.7091 68.8395C13.7091 67.0998 15.2057 65.6086 16.9494 65.6086C17.9464 65.6086 18.6942 66.1045 19.1938 66.6027C19.9416 66.3531 20.6893 66.1056 21.1879 65.8571C20.9375 66.6027 20.439 67.0987 19.6912 67.5946C20.439 67.5946 20.9375 67.345 21.436 67.0986C20.9375 67.8442 20.439 68.3402 19.9405 68.5898C19.9416 68.5943 19.9416 68.5943 19.9416 68.8439Z" fill="#09707E"/>
<path d="M13.9583 27.8359C17.1986 27.8359 20.4379 26.5932 22.6823 24.605L26.9196 28.83C27.4181 28.0844 28.1659 27.5885 28.6644 27.0914L24.426 22.8664C26.42 20.3811 27.6663 17.3987 27.6663 14.1678C27.6663 6.46329 21.4349 0.25 13.708 0.25C5.98214 0.25 0 6.46329 0 14.1678C0 21.6215 6.23139 27.8359 13.9583 27.8359ZM10.718 11.6802H12.2135V10.189C12.2135 8.20079 12.9613 6.95813 15.4539 6.95813H17.4479V9.44345H16.2016C15.2046 9.44345 15.2046 9.69198 15.2046 10.4376V11.6802H17.4479L17.1986 14.1655H14.9531V21.1244H11.9621V14.1655H10.4676V11.6802H10.718Z" fill="#09707E"/>
<path d="M55.0854 49.4574C54.834 48.9625 54.3366 48.7106 54.0884 48.7106C51.8451 47.9651 49.8522 47.4702 47.6089 46.7235C47.3596 46.7235 46.8611 46.2275 46.8611 45.2323C46.8611 44.7341 46.8611 44.4856 46.3637 44.4856C46.1122 44.4856 46.3637 44.4856 46.1122 44.2371C45.8641 43.243 45.8641 42.7448 45.8641 42.4974C45.8641 42.2499 46.1122 42.2477 46.1122 42.0003C46.8611 41.0062 47.1093 39.5161 47.1093 39.0179C47.1093 39.0179 47.3596 39.0179 47.3596 38.7683C47.6089 38.2712 47.6089 38.2712 47.6089 37.5245C47.8604 37.0297 47.8604 36.2841 47.3596 36.2841C47.1093 36.5326 47.1093 36.2841 47.1093 35.787V32.8046C47.1093 31.8105 46.3604 31.066 45.8641 30.8175C45.1141 30.3193 44.8671 30.0708 44.6167 30.0708C44.3663 29.8222 44.3663 29.5737 44.6167 29.3252C44.866 29.0778 45.1141 29.0778 45.1141 28.8281C45.1141 28.8281 45.1141 28.8281 44.8637 28.8281C44.6134 28.8281 43.1201 29.0789 42.3723 29.3252C41.126 29.5737 39.8797 30.0708 38.8816 30.8175C38.1338 31.3134 37.6353 32.059 37.6353 33.0554C37.6353 33.5502 37.6353 35.0425 37.6353 36.0378C37.6353 36.2885 37.6353 36.5348 37.3861 36.2885C36.6383 36.2885 37.1368 37.2826 37.1368 37.5289C37.1368 38.026 37.3861 38.2757 37.6342 38.7727C37.6342 39.0224 37.8846 39.0224 37.8846 39.0224C38.1338 39.7679 38.3831 41.2591 38.8816 42.0047C38.8816 42.0047 39.132 42.2544 39.132 42.5018C39.132 42.9989 39.132 43.7445 38.8816 44.2415C38.8816 44.2415 38.8816 44.4912 38.6323 44.4912C38.1338 44.4912 38.1338 44.7397 38.1338 45.2368C38.1338 45.9823 37.6353 46.7291 37.3861 46.7291C36.1398 47.2239 32.4021 48.4677 31.1547 48.7162C30.4069 48.9669 30.1576 49.2133 29.9084 49.4618L28.6621 52.4442C33.6461 52.4442 36.1398 55.4265 41.3742 56.4207H43.8667C49.1011 55.6751 52.8388 52.4442 56.3295 52.4442L55.0854 49.4574Z" fill="#09707E"/>
</svg>
