<svg width="90" height="90" viewBox="0 0 90 90" fill="none" xmlns="http://www.w3.org/2000/svg">
<path d="M45 90C69.8528 90 90 69.8528 90 45C90 20.1472 69.8528 0 45 0C20.1472 0 0 20.1472 0 45C0 69.8528 20.1472 90 45 90Z" fill="#EE733A"/>
<path d="M45.0005 0C43.0112 0 41.0523 0.130781 39.131 0.380918C61.2104 3.25723 78.2613 22.1367 78.2613 45C78.2613 67.8633 61.2102 86.7428 39.1309 89.6191C41.0523 89.8692 43.0112 90 45.0005 90C69.8534 90 90.0005 69.8527 90.0005 45C90.0005 20.1473 69.8534 0 45.0005 0Z" fill="#EE733A"/>
<path d="M48.8164 61.988V28.4001C48.8164 27.7944 49.3367 27.3196 49.9398 27.3744L50.5238 27.4277C57.3845 28.0537 63.2932 32.6419 65.6 39.1256C65.6016 39.1296 65.6056 39.1324 65.61 39.1321C65.9326 39.1063 66.2344 39.0938 66.5228 39.0938C73.1078 39.0938 78.4544 44.4989 78.3586 51.1054C78.2645 57.6056 72.8345 62.7676 66.3337 62.7676H49.5958C49.1655 62.7676 48.8164 62.4185 48.8164 61.988Z" fill="white"/>
<path d="M43.0436 27.9414C42.2331 27.9414 41.5762 28.5981 41.5762 29.4088V62.6696C41.5762 63.4802 42.2329 64.1371 43.0436 64.1371C43.8543 64.1371 44.511 63.4803 44.511 62.6696V29.4088C44.5108 28.5981 43.8541 27.9414 43.0436 27.9414Z" fill="white"/>
<path d="M37.1745 33.8115C36.3639 33.8115 35.707 34.4682 35.707 35.2789V62.6702C35.707 63.4808 36.3637 64.1377 37.1745 64.1377C37.9852 64.1377 38.6419 63.4809 38.6419 62.6702V35.2789C38.6419 34.4684 37.9852 33.8115 37.1745 33.8115Z" fill="white"/>
<path d="M31.3053 35.7676C30.4948 35.7676 29.8379 36.4243 29.8379 37.235V62.6697C29.8379 63.4802 30.4946 64.1371 31.3053 64.1371C32.116 64.1371 32.7727 63.4804 32.7727 62.6697V37.2348C32.7727 36.4243 32.1158 35.7676 31.3053 35.7676Z" fill="white"/>
<path d="M25.4342 37.7236C24.6237 37.7236 23.9668 38.3804 23.9668 39.1911V62.6693C23.9668 63.4798 24.6235 64.1367 25.4342 64.1367C26.2449 64.1367 26.9016 63.48 26.9016 62.6693V39.1911C26.9015 38.3805 26.2447 37.7236 25.4342 37.7236Z" fill="white"/>
<path d="M19.5651 41.6367C18.7546 41.6367 18.0977 42.2934 18.0977 43.1041V62.6693C18.0977 63.4798 18.7544 64.1367 19.5651 64.1367C20.3758 64.1367 21.0325 63.48 21.0325 62.6693V43.1041C21.0325 42.2934 20.3758 41.6367 19.5651 41.6367Z" fill="white"/>
<path d="M13.6959 45.5508C12.8854 45.5508 12.2285 46.2075 12.2285 47.0182V58.7574C12.2285 59.5679 12.8852 60.2248 13.6959 60.2248C14.5066 60.2248 15.1634 59.5681 15.1634 58.7574V47.0182C15.1634 46.2075 14.5065 45.5508 13.6959 45.5508Z" fill="white"/>
</svg>
