<svg width="85" height="85" viewBox="0 0 85 85" fill="none" xmlns="http://www.w3.org/2000/svg">
<path d="M79.3522 29.51H65.0914C61.9851 29.51 59.4435 32.0515 59.4435 35.1578V38.6877H46.1711V10.8721C46.1711 10.0249 45.3239 9.03655 44.3356 9.03655H42.0764H40.5233H25.5565V5.64784C25.5565 2.54153 23.015 0 19.9086 0H5.64784C2.54153 0 0 2.54153 0 5.64784V19.9086C0 23.015 2.54153 25.5565 5.64784 25.5565H19.9086C23.015 25.5565 25.5565 23.015 25.5565 19.9086V16.5199H38.6877V38.6877H25.5565V35.4402C25.5565 32.3339 23.015 29.7924 19.9086 29.7924H5.64784C2.54153 29.7924 0 32.3339 0 35.4402V49.5598C0 52.6661 2.54153 55.2076 5.64784 55.2076H19.9086C23.015 55.2076 25.5565 52.6661 25.5565 49.5598V46.1711H38.6877V68.3389H25.5565V65.0914C25.5565 61.9851 23.015 59.4435 19.9086 59.4435H5.64784C2.54153 59.4435 0 61.9851 0 65.0914V79.3522C0 82.4585 2.54153 85 5.64784 85H19.9086C23.015 85 25.5565 82.4585 25.5565 79.3522V75.9635H40.5233H42.0764H44.3356C45.3239 75.9635 46.1711 74.9751 46.1711 74.1279V46.3123H59.4435V49.4186C59.4435 52.5249 61.9851 55.0664 65.0914 55.0664H79.3522C82.4585 55.0664 85 52.5249 85 49.4186V35.1578C85 32.0515 82.4585 29.51 79.3522 29.51ZM19.9086 19.9086H5.64784V5.64784H19.9086V19.9086ZM19.9086 49.5598H5.64784V35.4402H19.9086V49.5598ZM19.9086 79.3522H5.64784V65.0914H19.9086V79.3522ZM79.3522 49.4186H65.0914V35.1578H79.3522V49.4186Z" fill="black"/>
</svg>
