<svg width="85" height="85" viewBox="0 0 85 85" fill="none" xmlns="http://www.w3.org/2000/svg">
<path d="M34.3269 72.3404V37.9787H51.8945C51.9007 38.335 51.9231 38.6831 51.9231 39.0421C51.9231 40.0418 52.6542 40.8506 53.5578 40.8506C54.4613 40.8506 55.1924 40.0418 55.1924 39.0421C55.1924 38.6831 55.1679 38.3355 55.1621 37.9787H65.3846H67.6927H68.6538C68.6538 17.038 53.2541 0 34.3269 0H31.0577V0.183112C13.6588 2.01197 0 18.2587 0 37.9787C0 58.9195 15.3997 75.9574 34.3269 75.9574C35.2305 75.9574 35.9615 75.1486 35.9615 74.1489C35.9615 73.1493 35.2305 72.3404 34.3269 72.3404ZM65.2089 34.3617H55.0056C54.0298 20.8065 48.8922 9.54396 41.9291 4.70168C54.3591 8.18125 63.8383 19.9379 65.2089 34.3617ZM34.3269 5.74519C43.1878 5.74519 50.5198 18.2153 51.7282 34.3617H34.3269V5.74519ZM26.7251 4.70168C19.7617 9.54396 14.6245 20.8065 13.6482 34.3617H3.44495C4.81558 19.9379 14.2947 8.18125 26.7251 4.70168ZM3.26923 37.9787H13.4921C13.4864 38.335 13.4619 38.6831 13.4619 39.0421C13.4619 51.9427 17.2284 63.3019 22.9112 69.9044C11.4239 64.8577 3.26923 52.4635 3.26923 37.9787ZM31.0577 71.7418C22.9136 68.831 16.7311 55.2871 16.7311 39.0421C16.7311 38.6831 16.7536 38.335 16.7597 37.9787H31.0577V71.7418ZM31.0577 34.3617H16.9256C17.9816 20.2526 23.7121 8.96931 31.0577 6.3438V34.3617Z" fill="#5C337F"/>
<path d="M83.3651 43.4043H40.8651C39.9616 43.4043 39.2305 44.2132 39.2305 45.2128V83.1915C39.2305 84.1912 39.9616 85 40.8651 85H83.3651C84.2686 85 84.9997 84.1912 84.9997 83.1915V45.2128C84.9997 44.2132 84.2686 43.4043 83.3651 43.4043ZM81.7305 81.383H42.4997V47.0213H81.7305V81.383Z" fill="#5C337F"/>
<path d="M54.7521 73.9017C55.0075 74.0658 55.2915 74.149 55.5776 74.149C55.8538 74.149 56.1301 74.0712 56.3789 73.9157L69.4559 65.7774C69.9699 65.4577 70.2891 64.8555 70.2891 64.2022C70.2891 63.5488 69.9699 62.9466 69.4559 62.627L56.3789 54.4887C55.873 54.1726 55.2551 54.1794 54.7525 54.5027C54.2515 54.8277 53.9434 55.4209 53.9434 56.0639V72.3405C53.943 72.9834 54.2511 73.5766 54.7521 73.9017ZM57.2122 59.1564L65.3199 64.2022L57.2122 69.2479V59.1564Z" fill="#5C337F"/>
</svg>
