<svg width="85" height="85" viewBox="0 0 85 85" fill="none" xmlns="http://www.w3.org/2000/svg">
<path d="M42.4851 84.9789C40.4276 84.9789 38.372 84.9826 36.3146 84.9752C35.9538 84.9733 35.5891 84.9474 35.2322 84.8919C34.0504 84.7122 33.2722 84.053 32.968 82.9715C32.6209 81.7419 32.3537 80.4919 32.069 79.2475C31.7647 77.9141 31.5014 76.5734 31.1816 75.2438C30.774 73.5438 29.7813 72.2068 28.2153 71.3086C26.5498 70.3549 24.8395 69.4679 23.1428 68.5605C21.7348 67.8068 20.2487 67.6605 18.708 68.116C16.4906 68.7697 14.2849 69.4549 12.0636 70.0901C11.2836 70.3142 10.4781 70.4771 9.67267 70.5864C8.84188 70.6994 8.10665 70.392 7.61715 69.7586C6.94432 68.8864 6.3144 67.9809 5.73714 67.0494C4.07555 64.3679 2.43932 61.6716 0.820643 58.968C0.498857 58.4309 0.221927 57.8439 0.0717602 57.2476C-0.193469 56.1902 0.305786 55.3291 1.08782 54.6069C2.53098 53.2717 3.99754 51.9643 5.58502 50.7773C7.25051 49.531 8.43039 47.9384 8.87308 45.9217C9.10126 44.8847 9.05445 43.8458 8.90234 42.8032C8.85748 42.4958 8.88089 42.1718 8.92379 41.8607C9.38599 38.5292 7.96428 36.0144 5.28859 33.9588C3.77717 32.7977 2.36326 31.5163 0.97666 30.2218C-0.170067 29.1515 -0.259777 27.8644 0.576866 26.4719C1.95372 24.1793 3.33642 21.8904 4.72498 19.6034C5.49531 18.333 6.27345 17.0664 7.05743 15.8015C7.56254 14.9886 8.27632 14.4182 9.29433 14.359C9.80334 14.3293 10.3474 14.396 10.837 14.5386C13.2747 15.246 15.7047 15.9775 18.1269 16.733C20.0673 17.3367 21.9005 17.1941 23.6635 16.196C24.9897 15.446 26.3119 14.6849 27.6771 13.9997C29.7891 12.9405 30.9281 11.2905 31.3552 9.08492C31.7706 6.94234 32.301 4.82199 32.7925 2.69237C32.8666 2.37015 32.9953 2.05904 33.1084 1.74608C33.4907 0.677566 34.3156 0.134977 35.4682 0.079422C36.7553 0.0183113 38.0464 0.00349658 39.3355 0.00164474C42.4675 -0.00391078 45.5996 0.00534859 48.7316 0.0183115C49.0787 0.0201633 49.4298 0.0479407 49.773 0.0979404C50.908 0.262754 51.6803 0.881269 51.9768 1.922C52.3473 3.22385 52.634 4.54791 52.9421 5.86642C53.2717 7.27197 53.5408 8.69048 53.9133 10.0849C54.317 11.5942 55.2512 12.7942 56.6514 13.5979C58.3735 14.5886 60.1365 15.5127 61.8975 16.4423C63.3075 17.1867 64.7975 17.3127 66.3381 16.8571C68.6043 16.1849 70.8626 15.4886 73.1366 14.8404C73.8757 14.6293 74.648 14.4979 75.4144 14.3979C76.2433 14.2904 76.9181 14.6423 77.4193 15.2478C77.8581 15.7775 78.2774 16.3293 78.6343 16.9108C80.5357 19.9904 82.4255 23.0774 84.2899 26.1774C84.5902 26.6774 84.8223 27.2441 84.9452 27.807C85.1519 28.7422 84.756 29.5607 84.0637 30.2015C82.7843 31.3848 81.4582 32.5237 80.1476 33.6774C79.6347 34.1292 79.1433 34.6051 78.5972 35.0162C77.2516 36.0311 76.5514 37.3848 76.2218 38.9422C75.5939 41.9088 75.7518 44.8273 76.8986 47.6699C77.2535 48.5514 77.8035 49.3069 78.5543 49.9439C80.2256 51.3643 81.8833 52.8013 83.5273 54.2532C83.9174 54.5976 84.2782 54.9921 84.559 55.418C85.2474 56.4698 85.031 57.5365 84.4284 58.5383C82.3007 62.0698 80.1554 65.5901 78.0004 69.1049C77.4797 69.9531 76.7542 70.6105 75.6485 70.6346C75.1083 70.6457 74.5447 70.5605 74.0279 70.4105C71.6291 69.7142 69.2401 68.9883 66.853 68.2531C64.9145 67.6568 63.0754 67.8086 61.3144 68.8068C59.8966 69.6105 58.4749 70.4123 57.0298 71.1697C55.1985 72.1308 54.1532 73.5882 53.7456 75.5197C53.2932 77.6678 52.7939 79.8086 52.2985 81.9493C52.1913 82.4067 52.0216 82.853 51.8539 83.2974C51.4658 84.3234 50.6643 84.8585 49.5429 84.9159C48.404 84.9771 47.2611 84.9826 46.1203 84.9937C44.9111 85.0067 43.7 84.9956 42.4909 84.9956C42.4851 84.9882 42.4851 84.9826 42.4851 84.9789ZM33.4361 29.8348C33.4361 38.3033 33.4361 46.7032 33.4361 55.1606C41.3149 50.9291 49.1411 46.7254 57.0298 42.4866C49.1197 38.2459 41.3032 34.0533 33.4361 29.8348Z" fill="#C4302B"/>
<path d="M33.4355 29.835C41.3027 34.0535 49.1192 38.246 57.0293 42.4886C49.1387 46.7256 41.3125 50.9311 33.4355 55.1626C33.4355 46.7034 33.4355 38.3016 33.4355 29.835Z" fill="white"/>
</svg>
