<svg width="85" height="85" viewBox="0 0 85 85" fill="none" xmlns="http://www.w3.org/2000/svg">
<path d="M85 43.0986C85 37.1127 80.7566 32.3239 75.4524 32.9225C73.3307 32.9225 70.6786 34.1197 69.0874 35.9155C61.6615 30.5282 53.1747 26.9366 44.1576 26.9366L48.4009 4.19014L62.1919 7.78169C62.1919 11.9718 65.3744 14.9648 69.0874 14.9648C72.8003 14.9648 75.4524 11.3732 75.4524 7.1831C75.4524 2.99296 72.2699 0 68.5569 0C65.9048 0 63.7831 1.79577 62.7223 4.19014L47.8705 0H46.8097C46.2792 0 46.2792 0.59859 46.2792 1.19718L40.975 26.9366C31.9579 26.9366 23.4711 29.9296 16.0452 35.9155C12.3323 31.7253 6.49766 31.7253 2.78471 35.9155C-0.928237 40.1056 -0.928237 46.6901 2.78471 50.8803C3.31513 51.4789 4.37597 52.676 5.43682 52.676V55.669C5.43682 71.831 21.8799 85 42.5663 85C63.2527 85 79.6958 71.831 79.6958 55.669V52.676C82.8783 50.8803 85 47.2887 85 43.0986ZM21.3495 50.8803C21.3495 46.6901 24.532 43.6972 27.7145 43.6972C31.4275 43.6972 34.0796 47.2887 34.0796 50.8803C34.0796 54.4718 30.897 58.0634 27.7145 58.0634C24.0016 58.0634 21.3495 55.0704 21.3495 50.8803ZM58.4789 70.6338C53.7051 74.2253 48.4009 76.6197 42.5663 76.0211C36.7317 76.0211 31.4275 74.2253 26.6537 70.6338C26.1232 70.0352 26.1232 68.838 26.6537 67.6408C27.1841 67.0422 28.2449 67.0422 28.7754 67.6408C32.4883 70.6338 37.2621 72.4296 42.0359 71.831C46.8097 72.4296 51.5835 70.6338 55.2964 67.6408C55.8268 67.0422 56.8877 67.0422 57.9485 67.6408C59.0094 68.2394 59.0094 69.4366 58.4789 70.6338ZM56.8877 58.0634C53.1747 58.0634 50.5226 54.4718 50.5226 50.8803C50.5226 47.2887 53.7051 43.6972 56.8877 43.6972C60.6006 43.6972 63.2527 47.2887 63.2527 50.8803C63.7831 55.0704 60.6006 58.0634 56.8877 58.0634Z" fill="#F24100"/>
</svg>
