<svg width="90" height="90" viewBox="0 0 90 90" fill="none" xmlns="http://www.w3.org/2000/svg">
<path d="M45 90C69.8528 90 90 69.8528 90 45C90 20.1472 69.8528 0 45 0C20.1472 0 0 20.1472 0 45C0 69.8528 20.1472 90 45 90Z" fill="url(#paint0_linear_504_188)"/>
<path d="M67.4578 26.3854C67.8583 23.7964 65.3968 21.7528 63.0947 22.7636L17.2449 42.894C15.5941 43.6188 15.7148 46.1195 17.427 46.6647L26.8822 49.6758C28.687 50.2505 30.641 49.9532 32.217 48.8645L53.5348 34.1367C54.1776 33.6925 54.8783 34.6066 54.329 35.1726L38.984 50.9934C37.4955 52.5282 37.7909 55.1289 39.5815 56.2516L56.7619 67.0252C58.6889 68.2335 61.1677 67.0198 61.528 64.691L67.4578 26.3854Z" fill="white"/>
<defs>
<linearGradient id="paint0_linear_504_188" x1="45" y1="0" x2="45" y2="90" gradientUnits="userSpaceOnUse">
<stop stop-color="#37BBFE"/>
<stop offset="1" stop-color="#007DBB"/>
</linearGradient>
</defs>
</svg>
