<svg width="90" height="90" viewBox="0 0 90 90" fill="none" xmlns="http://www.w3.org/2000/svg">
<path d="M3.02671 0.236663C2.10839 0.536675 0.534125 2.14924 0.253006 3.10553C-0.0843355 4.23057 -0.0843355 85.7588 0.253006 86.8838C0.552866 87.9151 2.10839 89.4714 3.13915 89.7714C3.73887 89.9402 13.2969 89.9964 45.0445 89.9964C91.429 89.9964 87.2497 90.1465 88.7303 88.4964C89.1801 88.0089 89.6486 87.2588 89.761 86.8463C90.0796 85.7775 90.0796 4.21182 89.761 3.14303C89.6486 2.73051 89.1801 1.98048 88.7303 1.49296C87.2497 -0.157102 91.4478 -0.00709648 44.9321 0.0116543C15.4334 0.030405 3.49524 0.0866572 3.02671 0.236663ZM86.5188 3.46179L86.9873 3.91181V10.9621V17.9936H45.007H3.02671V10.9621V3.91181L3.49524 3.46179L3.94503 2.99302H45.007H86.069L86.5188 3.46179ZM86.9873 53.5263V86.0775L86.5188 86.5276L86.069 86.9963H45.007H3.94503L3.49524 86.5276L3.02671 86.0775V53.5263V20.9937H45.007H86.9873V53.5263Z" fill="#09707E"/>
<path d="M9.02339 6.23635C8.10507 6.53636 6.53081 8.14893 6.24969 9.10521C5.72493 10.8678 6.09976 12.2741 7.43038 13.5866C9.34199 15.518 11.9845 15.4805 13.7649 13.4929C15.5078 11.5616 15.4516 9.21772 13.615 7.3989C12.3031 6.0676 10.7663 5.69258 9.02339 6.23635ZM11.5535 9.46148C12.4905 10.3803 11.8346 11.9928 10.5227 11.9928C9.7543 11.9928 9.02339 11.2615 9.02339 10.4928C9.02339 9.72399 9.7543 8.99271 10.5227 8.99271C10.8788 8.99271 11.2723 9.16147 11.5535 9.46148Z" fill="#09707E"/>
<path d="M19.5195 6.23635C18.6012 6.53636 17.0269 8.14893 16.7458 9.10521C16.221 10.8678 16.5959 12.2741 17.9265 13.5866C19.8381 15.518 22.4806 15.4805 24.261 13.4929C26.0039 11.5616 25.9477 9.21772 24.1111 7.3989C22.7992 6.0676 21.2624 5.69258 19.5195 6.23635ZM22.0495 9.46148C22.9866 10.3803 22.3307 11.9928 21.0188 11.9928C20.2504 11.9928 19.5195 11.2615 19.5195 10.4928C19.5195 9.72399 20.2504 8.99271 21.0188 8.99271C21.3749 8.99271 21.7684 9.16147 22.0495 9.46148Z" fill="#09707E"/>
<path d="M30.0136 6.23635C29.0953 6.53636 27.521 8.14893 27.2399 9.10521C26.7152 10.8678 27.09 12.2741 28.4206 13.5866C30.3322 15.518 32.9747 15.4805 34.7552 13.4929C36.4981 11.5616 36.4419 9.21772 34.6052 7.3989C33.2933 6.0676 31.7566 5.69258 30.0136 6.23635ZM32.5437 9.46148C33.4807 10.3803 32.8248 11.9928 31.5129 11.9928C30.7445 11.9928 30.0136 11.2615 30.0136 10.4928C30.0136 9.72399 30.7445 8.99271 31.5129 8.99271C31.869 8.99271 32.2626 9.16147 32.5437 9.46148Z" fill="#09707E"/>
<path d="M42.0078 6.23651C41.0894 6.53652 39.5152 8.14908 39.2341 9.10537C38.7093 10.8679 39.0841 12.2742 40.4148 13.5868C40.9957 14.1868 41.6329 14.6181 42.1202 14.7681C42.7012 14.9368 47.4427 14.9931 61.5361 14.9931C82.6762 14.9931 81.3081 15.0869 82.7324 13.493C84.4191 11.618 84.4191 9.36788 82.7324 7.49281C81.2893 5.89899 82.6949 5.99275 61.4237 6.0115C48.3236 6.03025 42.4576 6.0865 42.0078 6.23651ZM80.521 9.46163C80.8208 9.7429 80.9895 10.1367 80.9895 10.4929C80.9895 10.8492 80.8208 11.243 80.521 11.5242L80.0712 11.993H61.4986H42.9261L42.4763 11.5242C42.1764 11.243 42.0078 10.8492 42.0078 10.4929C42.0078 10.1367 42.1764 9.7429 42.4763 9.46163L42.9261 8.99287H61.4986H80.0712L80.521 9.46163Z" fill="#09707E"/>
<path d="M12.492 27.4621L12.0234 27.9121V37.4937V47.0754L12.492 47.5254L12.9418 47.9941H25.5171H38.0925L38.5423 47.5254L39.0108 47.0754V37.4937V27.9121L38.5423 27.4621L38.0925 26.9933H25.5171H12.9418L12.492 27.4621ZM36.0122 37.4937V44.994H25.5171H15.022V37.4937V29.9934H25.5171H36.0122V37.4937Z" fill="#09707E"/>
<path d="M45.4763 30.4628C45.1765 30.7441 45.0078 31.1378 45.0078 31.4941C45.0078 31.8503 45.1765 32.2441 45.4763 32.5254L45.9261 32.9941H61.5001H77.074L77.5238 32.5254C77.8237 32.2441 77.9923 31.8503 77.9923 31.4941C77.9923 31.1378 77.8237 30.7441 77.5238 30.4628L77.074 29.994H61.5001H45.9261L45.4763 30.4628Z" fill="#09707E"/>
<path d="M45.4763 36.4628C45.1765 36.7441 45.0078 37.1378 45.0078 37.4941C45.0078 37.8503 45.1765 38.2441 45.4763 38.5254L45.9261 38.9941H61.5001H77.074L77.5238 38.5254C77.8237 38.2441 77.9923 37.8503 77.9923 37.4941C77.9923 37.1378 77.8237 36.7441 77.5238 36.4628L77.074 35.994H61.5001H45.9261L45.4763 36.4628Z" fill="#09707E"/>
<path d="M45.4763 42.4628C45.1765 42.7441 45.0078 43.1378 45.0078 43.4941C45.0078 43.8503 45.1765 44.2441 45.4763 44.5254L45.9261 44.9941H61.5001H77.074L77.5238 44.5254C77.8237 44.2441 77.9923 43.8503 77.9923 43.4941C77.9923 43.1378 77.8237 42.7441 77.5238 42.4628L77.074 41.994H61.5001H45.9261L45.4763 42.4628Z" fill="#09707E"/>
<path d="M12.492 51.4645C12.0234 51.9145 12.0234 51.952 12.0234 55.4959C12.0234 59.0398 12.0234 59.0773 12.492 59.5273L12.9418 59.9961H21.0192H29.0967L29.5465 59.5273C30.015 59.0773 30.015 59.0398 30.015 55.4959C30.015 51.952 30.015 51.9145 29.5465 51.4645L29.0967 50.9957H21.0192H12.9418L12.492 51.4645ZM27.0164 55.4959V56.996H21.0192H15.022V55.4959V53.9959H21.0192H27.0164V55.4959Z" fill="#09707E"/>
<path d="M36.4802 51.4645C36.0117 51.9145 36.0117 51.952 36.0117 55.4959C36.0117 59.0398 36.0117 59.0773 36.4802 59.5273L36.93 59.9961H45.0075H53.085L53.5348 59.5273C54.0033 59.0773 54.0033 59.0398 54.0033 55.4959C54.0033 51.952 54.0033 51.9145 53.5348 51.4645L53.085 50.9957H45.0075H36.93L36.4802 51.4645ZM51.0047 55.4959V56.996H45.0075H39.0103V55.4959V53.9959H45.0075H51.0047V55.4959Z" fill="#09707E"/>
<path d="M60.4685 51.4645C60 51.9145 60 51.952 60 55.4959C60 59.0398 60 59.0773 60.4685 59.5273L60.9183 59.9961H68.9958H77.0732L77.523 59.5273C77.9916 59.0773 77.9916 59.0398 77.9916 55.4959C77.9916 51.952 77.9916 51.9145 77.523 51.4645L77.0732 50.9957H68.9958H60.9183L60.4685 51.4645ZM74.993 55.4959V56.996H68.9958H62.9986V55.4959V53.9959H68.9958H74.993V55.4959Z" fill="#09707E"/>
<path d="M12.492 63.4642L12.0234 63.9142V71.9957V80.0773L12.492 80.5273L12.9418 80.9961H45.008H77.0742L77.524 80.5273L77.9925 80.0773V71.9957V63.9142L77.524 63.4642L77.0742 62.9954H45.008H12.9418L12.492 63.4642ZM74.9939 71.9957V77.996H45.008H15.022V71.9957V65.9955H45.008H74.9939V71.9957Z" fill="#09707E"/>
</svg>
