<svg width="85" height="85" viewBox="0 0 85 85" fill="none" xmlns="http://www.w3.org/2000/svg">
<path d="M81.7205 28.0215H48.0931C47.2251 28.0215 46.3927 28.3663 45.7789 28.9801C45.1651 29.5937 44.8203 30.4261 44.8203 31.2942V81.7272C44.8229 82.5944 45.1685 83.4253 45.7817 84.0385C46.395 84.6518 47.2259 84.9974 48.0931 85H81.7205C82.5876 84.9974 83.4186 84.6518 84.0319 84.0385C84.6451 83.4253 84.9906 82.5944 84.9933 81.7272V31.2942C84.9933 30.4261 84.6485 29.5937 84.0347 28.9801C83.4209 28.3663 82.5885 28.0215 81.7205 28.0215Z" fill="#999999"/>
<path d="M81.7205 0H48.0931C47.2251 0 46.3927 0.344817 45.7789 0.958571C45.1651 1.57233 44.8203 2.40476 44.8203 3.27275V20.0782C44.8229 20.9455 45.1685 21.7764 45.7817 22.3896C46.395 23.0027 47.2259 23.3485 48.0931 23.351H81.7205C82.5876 23.3485 83.4186 23.0027 84.0319 22.3896C84.6451 21.7764 84.9906 20.9455 84.9933 20.0782V3.27275C84.9933 2.40476 84.6485 1.57233 84.0347 0.958571C83.4209 0.344817 82.5885 0 81.7205 0Z" fill="black"/>
<path d="M36.8838 50.4395H3.27275C1.46526 50.4395 0 51.9048 0 53.7122V81.7271C0 83.5344 1.46526 84.9998 3.27275 84.9998H36.8838C38.6914 84.9998 40.1566 83.5344 40.1566 81.7271V53.7122C40.1566 51.9048 38.6914 50.4395 36.8838 50.4395Z" fill="black"/>
<path d="M36.8838 2.04046e-05H3.27277C2.84256 -0.00150142 2.41627 0.0821174 2.01854 0.246066C1.62078 0.409997 1.25941 0.65097 0.955188 0.955188C0.650986 1.25939 0.409964 1.62077 0.246016 2.01852C0.0820842 2.41626 -0.00148548 2.84255 1.99834e-05 3.27277V42.4312C1.99834e-05 43.2992 0.344837 44.1316 0.958591 44.7454C1.57235 45.359 2.40478 45.704 3.27277 45.704H36.8838C37.7518 45.704 38.5842 45.359 39.198 44.7454C39.8118 44.1316 40.1566 43.2992 40.1566 42.4312V3.27277C40.1581 2.84255 40.0744 2.41626 39.9105 2.01852C39.7467 1.62077 39.5056 1.25939 39.2014 0.955188C38.8972 0.65097 38.5358 0.409997 38.1381 0.246066C37.7403 0.0821174 37.314 -0.00150142 36.8838 2.04046e-05Z" fill="#999999"/>
</svg>
