<svg width="85" height="85" viewBox="0 0 85 85" fill="none" xmlns="http://www.w3.org/2000/svg">
<path d="M35.8027 48.527H47.8788L49.2394 36.457H37.1634L35.8027 48.527Z" fill="#41A1F2"/>
<path d="M60.3376 0H24.7048C9.2271 0 0 9.2225 0 24.6925V60.265C0 75.7775 9.2271 85 24.7048 85H60.295C75.7728 85 84.9998 75.7775 84.9998 60.3075V24.6925C85.0424 9.2225 75.8153 0 60.3376 0ZM71.5206 36.465H55.4901L54.1295 48.5775H68.4591C70.16 48.5775 71.5632 49.98 71.5632 51.68C71.5632 53.38 70.16 54.7825 68.4591 54.7825H53.4491L51.7058 70.3375C51.5357 71.91 50.175 73.1 48.6017 73.1C48.4742 73.1 48.3891 73.1 48.2615 73.1C46.5607 72.93 45.3276 71.3575 45.4977 69.6575L47.156 54.7825H35.08L33.3366 70.3375C33.1665 71.91 31.8058 73.1 30.2326 73.1C30.105 73.1 30.02 73.1 29.8924 73.1C28.1915 72.93 26.9584 71.3575 27.1285 69.6575L28.7868 54.7825H13.5217C11.8209 54.7825 10.4177 53.38 10.4177 51.68C10.4177 49.98 11.8209 48.5775 13.5217 48.5775H29.5522L30.9129 36.465H16.5833C14.8824 36.465 13.4792 35.0625 13.4792 33.3625C13.4792 31.6625 14.8824 30.26 16.5833 30.26H31.5932L33.3366 14.705C33.5067 13.005 35.08 11.7725 36.7808 11.9425C38.4817 12.1125 39.7148 13.685 39.5447 15.385L37.8864 30.26H49.9624L51.7058 14.705C51.9184 13.005 53.4491 11.7725 55.15 11.9425C56.8508 12.1125 58.0839 13.685 57.9139 15.385L56.2555 30.26H71.6057C73.3065 30.26 74.7097 31.6625 74.7097 33.3625C74.7097 35.0625 73.2215 36.465 71.5206 36.465Z" fill="#41A1F2"/>
</svg>
