<svg width="90" height="90" viewBox="0 0 90 90" fill="none" xmlns="http://www.w3.org/2000/svg">
<path d="M90 45C90 20.1472 69.8528 0 45 0C20.1472 0 0 20.1472 0 45C0 69.8528 20.1472 90 45 90C69.8528 90 90 69.8528 90 45Z" fill="black"/>
<path d="M27.3072 53.8876C27.6735 50.855 28.9173 49.1572 31.261 47.4167C34.6147 45.0594 38.8037 46.3928 38.8037 46.3928V38.4824C39.8223 38.4561 40.8411 38.5166 41.8482 38.6626V48.8427C41.8482 48.8427 37.6604 47.5093 34.307 49.8678C31.9644 51.6071 30.718 53.3063 30.353 56.3389C30.3416 57.9856 30.6506 60.1381 32.0738 61.9993C31.7218 61.8188 31.3632 61.6133 30.9978 61.3827C27.863 59.2775 27.292 56.1196 27.3072 53.8876ZM59.1453 23.8557C56.8384 21.3277 55.9658 18.7754 55.6505 16.9824H58.5526C58.5526 16.9824 57.9739 21.6836 62.191 26.3069L62.2496 26.369C61.1129 25.6541 60.0706 24.8102 59.1453 23.8557ZM73.1253 31.0227V40.9979C73.1253 40.9979 69.4222 40.8531 66.6816 40.1558C62.8548 39.1806 60.3952 37.685 60.3952 37.685C60.3952 37.685 58.6963 36.6186 58.5589 36.5443V57.1433C58.5589 58.2903 58.2448 61.1546 57.2872 63.5436C56.037 66.669 54.1079 68.7203 53.753 69.1396C53.753 69.1396 51.4067 71.9124 47.2672 73.7799C43.5359 75.4644 40.2598 75.4217 39.2806 75.4644C39.2806 75.4644 33.6177 75.6887 28.5218 72.377C27.4198 71.6469 26.3912 70.8203 25.4492 69.9074L25.4747 69.9256C30.5718 73.2374 36.2335 73.0131 36.2335 73.0131C37.2141 72.9704 40.49 73.0131 44.2201 71.3286C48.3559 69.4613 50.7059 66.6885 50.7059 66.6885C51.057 66.2692 52.9951 64.2177 54.2401 61.0914C55.1952 58.7035 55.5118 55.8378 55.5118 54.691V34.0944C55.6491 34.1699 57.347 35.2363 57.347 35.2363C57.347 35.2363 59.8079 36.7332 63.6345 37.7071C66.3763 38.4043 70.0784 38.5494 70.0784 38.5494V30.7326C71.345 31.0166 72.4248 31.0935 73.1253 31.0227Z" fill="#EE1D52"/>
<path d="M70.0797 30.7326V38.5468C70.0797 38.5468 66.3776 38.4017 63.6358 37.7047C59.8092 36.7295 57.3483 35.2339 57.3483 35.2339C57.3483 35.2339 55.6504 34.1675 55.5131 34.0918V54.6934C55.5131 55.8404 55.199 58.7059 54.2414 61.0937C52.9912 64.2203 51.0621 66.2715 50.7072 66.6908C50.7072 66.6908 48.3597 69.4637 44.2214 71.3312C40.4913 73.0156 37.2154 72.973 36.2348 73.0156C36.2348 73.0156 30.5731 73.2399 25.476 69.9282L25.4505 69.9099C24.9124 69.3887 24.4058 68.8386 23.9333 68.2621C22.3068 66.2788 21.3097 63.9336 21.0592 63.2645V63.256C20.6561 62.0933 19.8091 59.3007 19.9248 56.596C20.1296 51.8242 21.8083 48.8952 22.2521 48.1614C23.4276 46.1605 24.9564 44.3701 26.7706 42.8703C28.3715 41.5759 30.1861 40.546 32.1398 39.823C34.252 38.9741 36.5137 38.5189 38.8038 38.4824V46.3928C38.8038 46.3928 34.6146 45.0643 31.2623 47.4167C28.9185 49.1572 27.6748 50.855 27.3085 53.8876C27.2933 56.1196 27.8643 59.2775 30.9965 61.3839C31.3619 61.6154 31.7205 61.821 32.0726 62.0005C32.6196 62.7118 33.2857 63.3317 34.0436 63.8349C37.1034 65.7718 39.6672 65.9071 42.9459 64.6492C45.1319 63.8082 46.7775 61.9128 47.5406 59.8126C48.0201 58.5013 48.0138 57.181 48.0138 55.816V16.9824H55.6441C55.9596 18.7754 56.8319 21.3277 59.1389 23.8557C60.0642 24.8102 61.1067 25.6541 62.2432 26.369C62.579 26.7164 64.2958 28.4338 66.4997 29.4881C67.6392 30.0331 68.8406 30.4507 70.0797 30.7326Z" fill="black"/>
<path d="M18.0215 60.832V60.8381L18.2108 61.3514C18.1891 61.2916 18.1187 61.11 18.0215 60.832Z" fill="#69C9D0"/>
<path d="M32.1394 39.8241C30.1856 40.5474 28.3711 41.5773 26.7701 42.8715C24.9554 44.3748 23.4269 46.1689 22.2529 48.1735C21.8091 48.905 20.1304 51.8363 19.9257 56.6082C19.8099 59.3129 20.6569 62.1055 21.06 63.2682V63.2766C21.3144 63.9399 22.3076 66.2848 23.9342 68.2742C24.4066 68.8508 24.9132 69.4011 25.4513 69.9221C23.7271 68.7791 22.1894 67.3974 20.8883 65.8217C19.2758 63.8558 18.2813 61.535 18.0218 60.8499C18.0215 60.845 18.0215 60.8401 18.0218 60.8354V60.8267C17.6174 59.6652 16.7679 56.8714 16.8862 54.1632C17.0909 49.3913 18.7696 46.4624 19.2135 45.7285C20.3871 43.7234 21.9156 41.9293 23.7307 40.4265C25.3313 39.1316 27.1459 38.1017 29.1 37.3791C30.3188 36.8945 31.5886 36.537 32.8873 36.3127C34.8443 35.9853 36.8433 35.9567 38.8097 36.2286V38.4835C36.5175 38.5194 34.2534 38.9745 32.1394 39.8241Z" fill="#69C9D0"/>
<path d="M55.649 16.9817H48.0184V55.8166C48.0184 57.1816 48.0184 58.498 47.5455 59.8131C46.7748 61.9122 45.1354 63.8073 42.9505 64.6485C39.6709 65.9113 37.1071 65.7712 34.0485 63.8343C33.2891 63.3332 32.6214 62.7154 32.0723 62.0059C34.678 63.3381 37.0103 63.3149 39.8997 62.2035C42.0834 61.3623 43.7252 59.4669 44.4932 57.3669C44.9739 56.0554 44.9676 54.7354 44.9676 53.3713V14.5293H55.5039C55.5039 14.5293 55.3858 15.4946 55.649 16.9817ZM70.078 28.5708V30.7319C68.8412 30.4495 67.6422 30.032 66.5045 29.4874C64.3007 28.4331 62.5837 26.7157 62.248 26.3683C62.6376 26.6134 63.0419 26.8365 63.4586 27.0362C66.1382 28.3185 68.777 28.7012 70.078 28.5708Z" fill="#69C9D0"/>
</svg>
