<svg width="85" height="85" viewBox="0 0 85 85" fill="none" xmlns="http://www.w3.org/2000/svg">
<path d="M2.29677 71.4734C0.889274 72.9855 0.123022 74.9856 0.159445 77.0522C0.195867 79.1188 1.03212 81.0906 2.49202 82.5521C3.95193 84.0137 5.9215 84.8508 7.9858 84.8873C10.0501 84.9238 12.0479 84.1567 13.5584 82.7476L39.694 56.5828L28.4323 45.3086L2.29677 71.4734Z" fill="#0A66C2"/>
<path d="M67.6006 22.9917L78.9863 17.0886L84.9535 5.56622L79.3935 0L67.884 5.97393L61.9875 17.3545L48.1406 31.2346L53.7538 36.8717L67.6006 22.9917Z" fill="#0A66C2"/>
<path d="M70.0976 53.1988H69.0175C67.1352 53.2096 65.2702 53.5578 63.5106 54.227L30.8588 21.4501C31.505 19.6965 31.8348 17.8418 31.8327 15.9726L31.7265 14.909C31.5788 12.3194 30.7957 9.80624 29.4464 7.59195C28.0972 5.37766 26.2234 3.53055 23.991 2.21416C21.7586 0.897761 19.2364 0.152683 16.6478 0.0448835C14.0592 -0.0629161 11.4839 0.469888 9.15002 1.59613L19.7742 12.2322C20.3081 12.7765 20.7188 13.4295 20.9783 14.1467C21.2746 14.9577 21.3691 15.8287 21.2538 16.6844C21.1385 17.5402 20.8168 18.3549 20.3164 19.0583C19.816 19.7617 19.1521 20.3325 18.382 20.7214C17.6119 21.1104 16.7588 21.3057 15.8964 21.2906C15.2889 21.2717 14.6895 21.1457 14.1257 20.9183C13.4143 20.6566 12.7636 20.2525 12.2133 19.7306L1.58912 9.09456C0.453459 11.4306 -0.0883778 14.0113 0.0117317 16.6074C0.111841 19.2034 0.850799 21.7346 2.16298 23.976C3.47516 26.2175 5.31994 28.0998 7.5335 29.4559C9.74706 30.812 12.2609 31.5998 14.8517 31.7494L15.8964 31.9267C17.7786 31.9159 19.6437 31.5677 21.4033 30.8985L54.1436 63.5513C53.4525 65.3384 53.0925 67.2366 53.0812 69.153L53.1874 70.2166C53.4817 74.2236 55.2753 77.9719 58.21 80.7127C61.1446 83.4534 65.0041 84.9847 69.0175 85.0007C71.3819 84.9985 73.7143 84.4526 75.8347 83.4053L65.2105 72.7692C64.7136 72.2366 64.3283 71.6097 64.0772 70.9256C63.7958 70.1289 63.708 69.2765 63.8213 68.4391C63.9345 67.6016 64.2455 66.8033 64.7284 66.1102C65.2113 65.417 65.8523 64.8491 66.5982 64.4534C67.3441 64.0577 68.1734 63.8457 69.0175 63.8349C69.625 63.8539 70.2244 63.9799 70.7882 64.2072C71.5104 64.4463 72.1657 64.8534 72.7005 65.3949L83.3248 76.031C84.4984 73.6906 85.0717 71.0945 84.9928 68.4769C84.914 65.8593 84.1856 63.3025 82.8732 61.0371C81.5608 58.7718 79.7058 56.8691 77.4755 55.5007C75.2451 54.1323 72.7096 53.3412 70.0976 53.1988Z" fill="#0A66C2"/>
</svg>
