<svg width="85" height="85" viewBox="0 0 85 85" fill="none" xmlns="http://www.w3.org/2000/svg">
<path d="M83.3798 13.3803C86.5715 21.2446 85.0506 30.6322 78.7903 37.0277C71.8978 44.0692 61.4807 45.1708 53.3833 40.5026L47.5291 47.0341L51.7059 51.3181L54.202 48.7681C55.4767 47.4625 57.5468 47.4625 58.8215 48.7681L79.0632 69.6581C80.3412 70.9603 80.3412 73.0751 79.0632 74.3774L69.8243 83.8159C68.5496 85.1216 66.4795 85.1216 65.2049 83.8159L44.9631 62.926C43.6851 61.6237 43.6851 59.5089 44.9631 58.2067L47.2429 55.8776L43.2625 51.801L15.2695 83.0441C12.7168 85.652 8.57994 85.652 6.03058 83.0441L3.72086 80.6845C1.16818 78.0766 1.16818 73.8504 3.72086 71.2459L35.6111 43.9604L14.4308 22.2646L7.74125 22.2612L0 9.545L6.23027 3.16989L18.9604 11.1294L19.0436 17.8207L40.4702 39.7953L46.7038 34.464C40.6099 25.9775 41.2456 14.0229 48.7539 6.35234C54.9842 -0.0125702 64.1232 -1.5936 71.8012 1.60586L58.076 15.4339L69.628 27.2355L83.3798 13.3803ZM11.3822 74.5746C10.1076 73.2723 8.04078 73.2723 6.76278 74.5746C5.48477 75.8802 5.48477 77.9916 6.76278 79.2973C8.04078 80.5995 10.1076 80.5995 11.3822 79.2973C12.6602 77.9882 12.6602 75.8768 11.3822 74.5746Z" fill="#1A2A44"/>
</svg>
