<svg width="90" height="90" viewBox="0 0 90 90" fill="none" xmlns="http://www.w3.org/2000/svg">
<path d="M45 0C20.1445 0 0 20.1445 0 45C0 69.8555 20.1445 90 45 90C69.8555 90 90 69.8555 90 45C90 20.1445 69.8555 0 45 0ZM57.6914 65.0391H57.6562C55.7227 65.9355 54 66.5859 52.4355 66.9375C50.8711 67.3066 49.1836 67.4824 47.373 67.4824C45.3164 67.4824 43.4883 67.2188 41.9238 66.709C40.3418 66.1816 38.9883 65.4434 37.8809 64.4941C36.7559 63.5273 35.9824 62.5078 35.5605 61.418C35.1211 60.3281 34.9102 58.7637 34.9102 56.707V40.9219H29.9355V34.5586C31.7109 33.9785 33.2227 33.1523 34.4883 32.0801C35.7539 31.0078 36.7559 29.7246 37.5293 28.2129C38.2852 26.7188 38.8125 24.8027 39.1113 22.4824H45.5098V33.8555H56.1797V40.9219H45.5098V52.4531C45.5098 55.0723 45.6504 56.7422 45.9316 57.4805C46.2129 58.2187 46.7227 58.8164 47.4785 59.2559C48.4629 59.8535 49.6055 60.1523 50.8887 60.1523C53.1738 60.1523 55.4238 59.4141 57.6914 57.9375V65.0391Z" fill="#1A2A44"/>
</svg>
