<svg width="85" height="85" viewBox="0 0 85 85" fill="none" xmlns="http://www.w3.org/2000/svg">
<path d="M81.4243 82.4112C76.5227 81.3945 70.7427 77.6022 67.9858 70.5733C78.2992 63.4103 85 52.0562 85 39.231C85 17.5657 65.9713 0 42.5 0C19.0287 0 0 17.5657 0 39.231C0 60.8963 19.0287 78.462 42.5 78.462C45.6478 78.462 48.7078 78.122 51.6573 77.5237C59.7607 83.9805 69.3713 86.0532 81.1523 84.5166C81.855 84.4512 82.161 84.0328 82.161 83.4508C82.1667 82.931 81.8465 82.5093 81.4243 82.4112ZM25.5 45.7695C22.372 45.7695 19.8333 42.8435 19.8333 39.231C19.8333 35.6217 22.372 32.6925 25.5 32.6925C28.628 32.6925 31.1667 35.6217 31.1667 39.231C31.1667 42.8435 28.628 45.7695 25.5 45.7695ZM42.5 45.7695C39.372 45.7695 36.8333 42.8435 36.8333 39.231C36.8333 35.6217 39.372 32.6925 42.5 32.6925C45.628 32.6925 48.1667 35.6217 48.1667 39.231C48.1667 42.8435 45.628 45.7695 42.5 45.7695ZM59.5 45.7695C56.372 45.7695 53.8333 42.8435 53.8333 39.231C53.8333 35.6217 56.372 32.6925 59.5 32.6925C62.628 32.6925 65.1667 35.6217 65.1667 39.231C65.1667 42.8435 62.628 45.7695 59.5 45.7695Z" fill="#41A1F2"/>
</svg>
