<svg width="90" height="90" viewBox="0 0 90 90" fill="none" xmlns="http://www.w3.org/2000/svg">
<path d="M45 0C20.1445 0 0 20.1445 0 45C0 69.8555 20.1445 90 45 90C69.8555 90 90 69.8555 90 45C90 20.1445 69.8555 0 45 0ZM62.9648 38.0039C62.9824 38.3906 62.9824 38.7949 62.9824 39.1992C62.9824 51.416 53.6836 65.5137 36.668 65.5137C31.4473 65.5137 26.5781 63.9844 22.5 61.3652C23.2207 61.4531 23.959 61.4883 24.7148 61.4883C29.0391 61.4883 33.0293 60.0117 36.1934 57.5332C32.1504 57.4629 28.7227 54.791 27.5625 51.1172C28.125 51.2227 28.7051 51.2754 29.3027 51.2754C30.1465 51.2754 30.9727 51.1699 31.7461 50.9414C27.5098 50.0977 24.3281 46.3535 24.3281 41.8711V41.7656C25.5762 42.4512 27 42.8731 28.5117 42.9258C26.0332 41.2734 24.3984 38.4258 24.3984 35.2266C24.3984 33.5391 24.8555 31.9395 25.6465 30.5684C30.2168 36.1758 37.0195 39.8496 44.7012 40.2363C44.543 39.5684 44.4551 38.8652 44.4551 38.127C44.4551 33.0293 48.6035 28.8809 53.7012 28.8809C56.3555 28.8809 58.7637 30.0059 60.4512 31.7988C62.5605 31.377 64.5293 30.6211 66.3223 29.5488C65.6367 31.7109 64.1602 33.5215 62.2617 34.6641C64.125 34.4356 65.918 33.9434 67.5703 33.2051C66.3398 35.0684 64.7754 36.6856 62.9648 38.0039Z" fill="#41A1F2"/>
</svg>
