<svg width="90" height="90" viewBox="0 0 90 90" fill="none" xmlns="http://www.w3.org/2000/svg">
<path d="M45 90C69.8528 90 90 69.8528 90 45C90 20.1472 69.8528 0 45 0C20.1472 0 0 20.1472 0 45C0 69.8528 20.1472 90 45 90Z" fill="#5C337F"/>
<path d="M45.0005 0C43.0112 0 41.0523 0.130781 39.131 0.380918C61.2104 3.25723 78.2613 22.1367 78.2613 45C78.2613 67.8633 61.2102 86.7428 39.1309 89.6191C41.0523 89.8692 43.0112 90 45.0005 90C69.8534 90 90.0005 69.8527 90.0005 45C90.0005 20.1473 69.8534 0 45.0005 0Z" fill="#5C337F"/>
<path d="M29.7905 71.9548L25.743 65.3184C25.5176 64.9491 25.1163 64.7236 24.6835 64.7236H16.7957C16.1103 64.7236 15.5547 64.1679 15.5547 63.4825V27.7684C15.5547 27.5434 15.6157 27.3226 15.7315 27.1299L21.1055 18.1737C21.3298 17.8 21.7337 17.5713 22.1697 17.5713H71.2489C71.9342 17.5713 72.4899 18.1269 72.4899 18.8123V48.5C72.4899 48.8291 72.3593 49.1446 72.1264 49.3775L57.1437 64.3602C56.9111 64.5928 56.5952 64.7237 56.2662 64.7237H41.8326C41.4033 64.7237 41.0043 64.9456 40.7781 65.3105L36.6507 71.9631C36.4243 72.328 36.0256 72.5499 35.5962 72.5499H30.8501C30.4173 72.5497 30.0159 72.3243 29.7905 71.9548Z" fill="#933EC6"/>
<path d="M29.5076 56.8979H26.0443C25.653 56.8979 25.3359 56.5808 25.3359 56.1895V28.0627C25.3359 27.6714 25.653 27.3545 26.0443 27.3545H65.9103C66.3016 27.3545 66.6187 27.6716 66.6187 28.0629V44.8082C66.6187 44.9961 66.5442 45.1762 66.4113 45.309L55.0298 56.6905C54.8969 56.8233 54.7167 56.8979 54.529 56.8979H37.0124C36.7582 56.8979 36.5235 57.0341 36.3975 57.2547L33.8752 61.6686C33.6033 62.1444 32.917 62.1444 32.6451 61.6686L30.1228 57.2547C29.9966 57.0341 29.7618 56.8979 29.5076 56.8979Z" fill="white"/>
<path d="M35.1191 46.4923V35.8018C35.1191 35.4583 35.3978 35.1797 35.7412 35.1797H40.562C40.9055 35.1797 41.1841 35.4583 41.1841 35.8018V46.4923C41.1841 46.8357 40.9055 47.1144 40.562 47.1144H35.7412C35.3978 47.1144 35.1191 46.8357 35.1191 46.4923Z" fill="#6E2C92"/>
<path d="M48.8145 46.4923V35.8018C48.8145 35.4583 49.0931 35.1797 49.4365 35.1797H54.2573C54.6008 35.1797 54.8794 35.4583 54.8794 35.8018V46.4923C54.8794 46.8357 54.6008 47.1144 54.2573 47.1144H49.4365C49.0931 47.1144 48.8145 46.8357 48.8145 46.4923Z" fill="#6E2C92"/>
</svg>
