<svg width="63" height="63" viewBox="0 0 63 63" fill="none" xmlns="http://www.w3.org/2000/svg">
<g filter="url(#filter0_d_436_116)">
<circle cx="29.5" cy="27.5" r="27.5" fill="#039BE5"/>
</g>
<path d="M22.8642 43.0845C25.7376 43.1806 28.601 42.6998 31.2854 41.6704C33.9697 40.6411 36.4205 39.0841 38.4929 37.0914C40.5652 35.0988 42.2171 32.7109 43.3509 30.069C44.4847 27.427 45.0774 24.5846 45.094 21.7097C46.4108 20.0802 47.3885 18.2039 47.9698 16.1911C48.0132 16.0321 48.0097 15.8639 47.9598 15.7069C47.9098 15.5498 47.8155 15.4105 47.6882 15.3058C47.5609 15.2011 47.406 15.1354 47.2422 15.1166C47.0785 15.0979 46.9128 15.1269 46.7651 15.2001C46.0762 15.5317 45.3006 15.6389 44.5476 15.5064C43.7947 15.3739 43.1022 15.0085 42.5679 14.4617C41.8857 13.7147 41.0606 13.1123 40.1413 12.69C39.2221 12.2678 38.2274 12.0343 37.2163 12.0035C36.2052 11.9727 35.1982 12.1452 34.2549 12.5107C33.3117 12.8762 32.4514 13.4273 31.725 14.1314C30.7305 15.0945 30.0021 16.2986 29.6105 17.6265C29.2189 18.9544 29.1776 20.3611 29.4904 21.7097C22.9808 22.0984 18.5115 19.0087 14.9361 14.7726C14.8287 14.651 14.6882 14.5633 14.5318 14.5202C14.3753 14.4771 14.2097 14.4804 14.0551 14.5299C13.9006 14.5794 13.7638 14.6727 13.6614 14.7987C13.5591 14.9246 13.4956 15.0776 13.4788 15.239C12.7976 19.0173 13.289 22.9136 14.8868 26.4045C16.4846 29.8955 19.1125 32.8139 22.4173 34.7678C20.2014 37.3091 17.0896 38.8963 13.7314 39.1982C13.5515 39.228 13.3854 39.3133 13.2564 39.4422C13.1274 39.5711 13.0419 39.7372 13.0119 39.917C12.9819 40.0969 13.0089 40.2817 13.0892 40.4455C13.1694 40.6092 13.2988 40.7438 13.4593 40.8304C16.3809 42.2904 19.5982 43.0615 22.8642 43.0845Z" fill="white"/>
<defs>
<filter id="filter0_d_436_116" x="0" y="0" width="63" height="63" filterUnits="userSpaceOnUse" color-interpolation-filters="sRGB">
<feFlood flood-opacity="0" result="BackgroundImageFix"/>
<feColorMatrix in="SourceAlpha" type="matrix" values="0 0 0 0 0 0 0 0 0 0 0 0 0 0 0 0 0 0 127 0" result="hardAlpha"/>
<feOffset dx="2" dy="4"/>
<feGaussianBlur stdDeviation="2"/>
<feComposite in2="hardAlpha" operator="out"/>
<feColorMatrix type="matrix" values="0 0 0 0 0.0117647 0 0 0 0 0.607843 0 0 0 0 0.898039 0 0 0 0.5 0"/>
<feBlend mode="normal" in2="BackgroundImageFix" result="effect1_dropShadow_436_116"/>
<feBlend mode="normal" in="SourceGraphic" in2="effect1_dropShadow_436_116" result="shape"/>
</filter>
</defs>
</svg>
