<svg width="85" height="85" viewBox="0 0 85 85" fill="none" xmlns="http://www.w3.org/2000/svg">
<path d="M45.539 85V60.7143H57.6827L42.503 36.4286L27.3234 60.7143H39.4671V85H24.2874V84.7976C23.7774 84.8381 23.2917 85 22.7695 85C16.7306 85 10.9391 81.8017 6.66903 76.1086C2.39892 70.4155 0 62.6941 0 54.6429C0 39.0676 8.83456 26.3743 20.1707 24.6338C21.1646 17.7067 23.938 11.4578 28.0138 6.9619C32.0896 2.46605 37.2131 0.0042744 42.503 0C47.7937 0.00394775 52.918 2.46543 56.9949 6.96118C61.0717 11.4569 63.8462 17.706 64.8414 24.6338C76.1776 26.3743 85 39.0676 85 54.6429C85 62.6941 82.6011 70.4155 78.331 76.1086C74.0609 81.8017 68.2694 85 62.2305 85C61.7205 85 61.2287 84.8381 60.7125 84.7976V85H45.539Z" fill="#EE733A"/>
</svg>
