<svg width="57" height="57" viewBox="0 0 57 57" fill="none" xmlns="http://www.w3.org/2000/svg">
<path d="M28.5 1C35.7935 1 42.7882 3.89731 47.9454 9.05456C53.1027 14.2118 56 21.2065 56 28.5C56 35.7935 53.1027 42.7882 47.9454 47.9454C42.7882 53.1027 35.7935 56 28.5 56C21.2065 56 14.2118 53.1027 9.05456 47.9454C3.89731 42.7882 1 35.7935 1 28.5C1 21.2065 3.89731 14.2118 9.05456 9.05456C14.2118 3.89731 21.2065 1 28.5 1ZM28.5 52.0714C34.7515 52.0714 40.747 49.588 45.1675 45.1675C49.588 40.747 52.0714 34.7515 52.0714 28.5C52.0714 22.2485 49.588 16.253 45.1675 11.8325C40.747 7.41198 34.7515 4.92857 28.5 4.92857C22.2485 4.92857 16.253 7.41198 11.8325 11.8325C7.41198 16.253 4.92857 22.2485 4.92857 28.5C4.92857 34.7515 7.41198 40.747 11.8325 45.1675C16.253 49.588 22.2485 52.0714 28.5 52.0714ZM25.5536 36.8718L38.1132 28.5L25.5536 20.1282V36.8718ZM26.2057 15.8382L41.5193 26.0486C41.9228 26.3176 42.2537 26.6822 42.4825 27.1098C42.7114 27.5375 42.8311 28.015 42.8311 28.5C42.8311 28.985 42.7114 29.4625 42.4825 29.8902C42.2537 30.3178 41.9228 30.6823 41.5193 30.9514L26.2057 41.1618C25.762 41.4576 25.2463 41.6274 24.7137 41.6531C24.181 41.6789 23.6514 41.5596 23.1812 41.308C22.711 41.0563 22.3179 40.6818 22.0439 40.2244C21.7698 39.7669 21.625 39.2436 21.625 38.7104V18.2857C21.625 17.7524 21.7698 17.2292 22.0439 16.7717C22.3179 16.3142 22.711 15.9397 23.1812 15.6881C23.6514 15.4365 24.181 15.3172 24.7137 15.3429C25.2463 15.3687 25.762 15.5385 26.2057 15.8343V15.8382Z" fill="#3B5998" stroke="#3B5998"/>
</svg>
