<svg width="80" height="80" viewBox="0 0 80 80" fill="none" xmlns="http://www.w3.org/2000/svg">
<path d="M40 1C50.3434 1 60.2632 5.10892 67.5772 12.4228C74.8911 19.7368 79 29.6566 79 40C79 50.3434 74.8911 60.2632 67.5772 67.5772C60.2632 74.8911 50.3434 79 40 79C29.6566 79 19.7368 74.8911 12.4228 67.5772C5.10892 60.2632 1 50.3434 1 40C1 29.6566 5.10892 19.7368 12.4228 12.4228C19.7368 5.10892 29.6566 1 40 1ZM40 73.4286C48.8658 73.4286 57.3685 69.9066 63.6376 63.6376C69.9066 57.3685 73.4286 48.8658 73.4286 40C73.4286 31.1342 69.9066 22.6315 63.6376 16.3624C57.3685 10.0934 48.8658 6.57143 40 6.57143C31.1342 6.57143 22.6315 10.0934 16.3624 16.3624C10.0934 22.6315 6.57143 31.1342 6.57143 40C6.57143 48.8658 10.0934 57.3685 16.3624 63.6376C22.6315 69.9066 31.1342 73.4286 40 73.4286ZM35.8214 51.8727L53.6333 40L35.8214 28.1273V51.8727ZM36.7463 22.0433L58.4637 36.5234C59.036 36.905 59.5052 37.422 59.8298 38.0285C60.1543 38.6349 60.3241 39.3122 60.3241 40C60.3241 40.6878 60.1543 41.3651 59.8298 41.9715C59.5052 42.578 59.036 43.095 58.4637 43.4766L36.7463 57.9567C36.117 58.3762 35.3857 58.617 34.6303 58.6535C33.8749 58.69 33.1237 58.5209 32.4569 58.164C31.7901 57.8072 31.2327 57.276 30.844 56.6273C30.4554 55.9785 30.2501 55.2364 30.25 54.4801V25.5143C30.2501 24.758 30.4554 24.0159 30.844 23.3672C31.2327 22.7184 31.7901 22.1873 32.4569 21.8304C33.1237 21.4736 33.8749 21.3044 34.6303 21.3409C35.3857 21.3774 36.117 21.6182 36.7463 22.0377V22.0433Z" fill="#3B5998" stroke="#3B5998"/>
</svg>
