<svg width="85" height="85" viewBox="0 0 85 85" fill="none" xmlns="http://www.w3.org/2000/svg">
<path d="M36.8398 50.6846L50.752 42.5166L36.8398 34.3486V50.6846Z" fill="#C4302B"/>
<path d="M42.5 0C19.0254 0 0 19.0254 0 42.5C0 65.9746 19.0254 85 42.5 85C65.9746 85 85 65.9746 85 42.5C85 19.0254 65.9746 0 42.5 0ZM63.75 50.1035C63.75 57.4248 56.4287 57.4248 56.4287 57.4248H28.5713C21.25 57.4248 21.25 50.1035 21.25 50.1035V34.9131C21.25 27.5918 28.5713 27.5918 28.5713 27.5918H56.4287C63.75 27.5918 63.75 34.9131 63.75 34.9131V50.1035Z" fill="#C4302B"/>
</svg>
