<svg width="67" height="67" viewBox="0 0 67 67" fill="none" xmlns="http://www.w3.org/2000/svg">
<path d="M33.5 1C42.1195 1 50.386 4.4241 56.481 10.519C62.5759 16.614 66 24.8805 66 33.5C66 42.1195 62.5759 50.386 56.481 56.481C50.386 62.5759 42.1195 66 33.5 66C24.8805 66 16.614 62.5759 10.519 56.481C4.4241 50.386 1 42.1195 1 33.5C1 24.8805 4.4241 16.614 10.519 10.519C16.614 4.4241 24.8805 1 33.5 1ZM33.5 61.3571C40.8882 61.3571 47.9737 58.4222 53.198 53.198C58.4222 47.9737 61.3571 40.8882 61.3571 33.5C61.3571 26.1118 58.4222 19.0263 53.198 13.802C47.9737 8.5778 40.8882 5.64286 33.5 5.64286C26.1118 5.64286 19.0263 8.5778 13.802 13.802C8.5778 19.0263 5.64286 26.1118 5.64286 33.5C5.64286 40.8882 8.5778 47.9737 13.802 53.198C19.0263 58.4222 26.1118 61.3571 33.5 61.3571ZM30.0179 43.3939L44.8611 33.5L30.0179 23.6061V43.3939ZM30.7886 18.5361L48.8864 30.6029C49.3633 30.9209 49.7544 31.3517 50.0248 31.8571C50.2953 32.3625 50.4368 32.9268 50.4368 33.5C50.4368 34.0732 50.2953 34.6375 50.0248 35.1429C49.7544 35.6483 49.3633 36.0791 48.8864 36.3971L30.7886 48.4639C30.2642 48.8135 29.6547 49.0142 29.0252 49.0446C28.3957 49.075 27.7698 48.934 27.2141 48.6367C26.6584 48.3393 26.1939 47.8967 25.87 47.3561C25.5461 46.8154 25.375 46.197 25.375 45.5668V21.4286C25.375 20.7983 25.5461 20.1799 25.87 19.6393C26.1939 19.0987 26.6584 18.6561 27.2141 18.3587C27.7698 18.0613 28.3957 17.9203 29.0252 17.9507C29.6547 17.9812 30.2642 18.1819 30.7886 18.5314V18.5361Z" fill="#3B5998" stroke="#3B5998"/>
</svg>
