<svg width="90" height="90" viewBox="0 0 90 90" fill="none" xmlns="http://www.w3.org/2000/svg">
<path d="M45 0C20.1469 0 0 20.1469 0 45C0 69.8531 20.1469 90 45 90C69.8531 90 90 69.8531 90 45C90 20.1469 69.8531 0 45 0ZM65.6297 36.3281C63.2484 49.9969 49.9359 61.5797 45.9375 64.2234C41.9344 66.8578 38.2781 63.1594 36.9563 60.3609C35.4375 57.1641 30.8953 39.8625 29.7047 38.4234C28.5141 36.9891 24.9422 39.8625 24.9422 39.8625L23.2125 37.5469C23.2125 37.5469 30.4641 28.7203 35.9813 27.6234C41.8313 26.4516 41.8219 36.7688 43.2281 42.5016C44.5922 48.0469 45.5063 51.2156 46.6922 51.2156C47.8828 51.2156 50.1563 48.1313 52.6406 43.3875C55.1344 38.6438 52.5375 34.4531 47.6672 37.4344C49.6125 25.5281 68.0109 22.6594 65.6297 36.3281Z" fill="#3592C8"/>
</svg>
