<svg width="85" height="85" viewBox="0 0 85 85" fill="none" xmlns="http://www.w3.org/2000/svg">
<path d="M21.25 22.8852H10.625V32.6928H21.25V22.8852ZM18.5938 29.4236H13.2812V26.1544H18.5938V29.4236ZM21.25 35.962H10.625V45.7696H21.25V35.962ZM18.5938 42.5004H13.2812V39.2312H18.5938V42.5004ZM15.9375 49.0388C11.5361 49.0388 7.96875 53.4293 7.96875 58.8464C7.96875 64.2635 11.5361 68.654 15.9375 68.654C20.3389 68.654 23.9062 64.2635 23.9062 58.8464C23.9062 53.4293 20.3389 49.0388 15.9375 49.0388ZM15.9375 65.3848C13.0077 65.3848 10.625 62.4523 10.625 58.8464C10.625 55.2405 13.0077 52.308 15.9375 52.308C18.8673 52.308 21.25 55.2405 21.25 58.8464C21.25 62.4523 18.8673 65.3848 15.9375 65.3848ZM57.4972 31.5355L59.3752 33.8468L54.0627 40.3852L52.1847 38.0739L57.4972 31.5355ZM82.3438 6.53922H78.1309L73.5967 0.958693C72.5581 -0.319564 70.8794 -0.319564 69.8408 0.958693L65.3066 6.53922H2.65625C1.19 6.53922 0 8.00382 0 9.80842V81.7308C0 83.5354 1.19 85 2.65625 85H82.3438C83.81 85 85 83.5354 85 81.7308V9.80842C85 8.00382 83.81 6.53922 82.3438 6.53922ZM42.5 39.2312V52.308H53.125L74.375 26.1544V68.654H29.2188V22.8852H55.7812L42.5 39.2312ZM45.1562 41.5425L51.247 49.0388H45.1562V41.5425ZM53.5128 47.2048L46.6437 38.7506L71.7188 7.89267L78.5878 16.3468L53.5128 47.2048ZM5.3125 78.4616V13.0776H63.75L58.4375 19.616H26.5625V71.9232H77.0312V22.8852L79.6875 19.616V78.4616H5.3125Z" fill="url(#paint0_linear_514_568)"/>
<defs>
<linearGradient id="paint0_linear_514_568" x1="42.5" y1="0" x2="42.5" y2="85" gradientUnits="userSpaceOnUse">
<stop stop-color="#0077B5"/>
<stop offset="1" stop-color="#4C4199"/>
<stop offset="1" stop-color="#4C4199"/>
</linearGradient>
</defs>
</svg>
