<svg width="85" height="85" viewBox="0 0 85 85" fill="none" xmlns="http://www.w3.org/2000/svg">
<path fill-rule="evenodd" clip-rule="evenodd" d="M42.4996 12.1435H3.03569C1.35999 12.1435 0 13.5035 0 15.1792V81.9643C0 83.64 1.35999 85 3.03569 85H69.8208C71.4965 85 72.8565 83.64 72.8565 81.9643V42.5004C72.8565 40.8247 71.4965 39.4647 69.8208 39.4647C68.1451 39.4647 66.7851 40.8247 66.7851 42.5004V78.9286H6.07137V18.2149H42.4996C44.1753 18.2149 45.5353 16.8549 45.5353 15.1792C45.5353 13.5035 44.1753 12.1435 42.4996 12.1435ZM15.1784 69.8216H57.6781C59.3538 69.8216 60.7137 68.4616 60.7137 66.7859C60.7137 65.1102 59.3538 63.7502 57.6781 63.7502H15.1784C13.5027 63.7502 12.1427 65.1102 12.1427 66.7859C12.1427 68.4616 13.5027 69.8216 15.1784 69.8216ZM15.1784 57.6788H27.3212C28.9969 57.6788 30.3569 56.3188 30.3569 54.6431C30.3569 52.9674 28.9969 51.6074 27.3212 51.6074H15.1784C13.5027 51.6074 12.1427 52.9674 12.1427 54.6431C12.1427 56.3188 13.5027 57.6788 15.1784 57.6788ZM84.1098 17.3254C85.2967 16.1415 85.2967 14.2169 84.1098 13.033L71.967 0.890215C70.7831 -0.296738 68.8585 -0.296738 67.6746 0.890215L37.3177 31.2471C36.8927 31.669 36.6043 32.2094 36.4859 32.7983L33.4502 47.9768C33.2529 48.9725 33.5626 50.0016 34.282 50.718C34.9984 51.4374 36.0275 51.7471 37.0232 51.5498L52.2017 48.5141C52.7906 48.3957 53.331 48.1073 53.7529 47.6823L84.1098 17.3254ZM15.1784 45.5361H27.3212C28.9969 45.5361 30.3569 44.1761 30.3569 42.5004C30.3569 40.8247 28.9969 39.4647 27.3212 39.4647H15.1784C13.5027 39.4647 12.1427 40.8247 12.1427 42.5004C12.1427 44.1761 13.5027 45.5361 15.1784 45.5361ZM15.1784 33.3933H30.3569C32.0326 33.3933 33.3926 32.0333 33.3926 30.3576C33.3926 28.6819 32.0326 27.3219 30.3569 27.3219H15.1784C13.5027 27.3219 12.1427 28.6819 12.1427 30.3576C12.1427 32.0333 13.5027 33.3933 15.1784 33.3933Z" fill="black"/>
</svg>
